999
dxflib 3.17.0.0
  0
SECTION
  2
HEADER
  9
$ACADVER
  1
AC1015
  9
$HANDSEED
  5
FFFF
  9
$ANGBASE
 50
0.0
  9
$ANGDIR
 70
0
  9
$ATTMODE
 70
0
  9
$AUNITS
 70
0
  9
$AUPREC
 70
2
  9
$CECOLOR
 62
256
  9
$CELTSCALE
 40
1.0
  9
$CHAMFERA
 40
0.0
  9
$CHAMFERB
 40
0.0
  9
$CHAMFERC
 40
0.0
  9
$CHAMFERD
 40
0.0
  9
$CMLJUST
 70
0
  9
$CMLSCALE
 40
20.0
  9
$DIMADEC
 70
0
  9
$DIMALT
 70
0
  9
$DIMALTD
 70
3
  9
$DIMALTF
 40
0.03937
  9
$DIMALTRND
 40
0.0
  9
$DIMALTTD
 70
3
  9
$DIMALTTZ
 70
0
  9
$DIMALTU
 70
2
  9
$DIMALTZ
 70
0
  9
$DIMAPOST
  1

  9
$DIMASZ
 40
2.5
  9
$DIMATFIT
 70
3
  9
$DIMAUNIT
 70
0
  9
$DIMAZIN
 70
0
  9
$DIMBLK
  1

  9
$DIMBLK1
  1

  9
$DIMBLK2
  1

  9
$DIMCEN
 40
2.5
  9
$DIMCLRD
 70
0
  9
$DIMCLRE
 70
0
  9
$DIMCLRT
 70
0
  9
$DIMDEC
 70
2
  9
$DIMDLE
 40
0.0
  9
$DIMDLI
 40
3.75
  9
$DIMDSEP
 70
44
  9
$DIMEXE
 40
1.25
  9
$DIMEXO
 40
0.625
  9
$DIMFRAC
 70
0
  9
$DIMGAP
 40
0.625
  9
$DIMJUST
 70
0
  9
$DIMLDRBLK
  1
STANDARD
  9
$DIMLFAC
 40
1.0
  9
$DIMLIM
 70
0
  9
$DIMLUNIT
 70
2
  9
$DIMLWD
 70
-2
  9
$DIMLWE
 70
-2
  9
$DIMPOST
  1

  9
$DIMRND
 40
0.0
  9
$DIMSAH
 70
0
  9
$DIMSCALE
 40
2.5
  9
$DIMSD1
 70
0
  9
$DIMSD2
 70
0
  9
$DIMSE1
 70
0
  9
$DIMSE2
 70
0
  9
$DIMSOXD
 70
0
  9
$DIMTAD
 70
1
  9
$DIMTDEC
 70
2
  9
$DIMTFAC
 40
1.0
  9
$DIMTIH
 70
0
  9
$DIMTIX
 70
0
  9
$DIMTM
 40
0.0
  9
$DIMTOFL
 70
1
  9
$DIMTOH
 70
0
  9
$DIMTOL
 70
0
  9
$DIMTOLJ
 70
0
  9
$DIMTP
 40
0.0
  9
$DIMTSZ
 40
0.0
  9
$DIMTVP
 40
0.0
  9
$DIMTXSTY
  7
STANDARD
  9
$DIMTXT
 40
2.5
  9
$DIMTZIN
 70
8
  9
$DIMUPT
 70
0
  9
$DIMZIN
 70
8
  9
$DISPSILH
 70
0
  9
$DWGCODEPAGE
  3
ANSI_1252
  9
$ELEVATION
 40
0.0
  9
$EXTMAX
 10
575.6192304582492625
 20
1015.856603995834007
 30
0.0
  9
$EXTMIN
 10
-20.0
 20
-25.0
 30
0.0
  9
$FILLETRAD
 40
0.0
  9
$FILLMODE
 70
1
  9
$INSBASE
 10
0.0
 20
0.0
 30
0.0
  9
$INSUNITS
 70
4
  9
$LIMCHECK
 70
0
  9
$LIMMAX
 10
420.0
 20
297.0
  9
$LIMMIN
 10
0.0
 20
0.0
  9
$LTSCALE
 40
1.0
  9
$LUNITS
 70
2
  9
$LUPREC
 70
4
  9
$MAXACTVP
 70
64
  9
$MEASUREMENT
 70
1
  9
$MIRRTEXT
 70
0
  9
$ORTHOMODE
 70
0
  9
$PDMODE
 70
34
  9
$PDSIZE
 40
0.0
  9
$PELEVATION
 40
0.0
  9
$PEXTMAX
 10
0.0
 20
0.0
 30
0.0
  9
$PEXTMIN
 10
0.0
 20
0.0
 30
0.0
  9
$PINSBASE
 10
0.0
 20
0.0
 30
0.0
  9
$PLIMCHECK
 70
0
  9
$PLIMMAX
 10
210.0
 20
297.0
  9
$PLIMMIN
 10
0.0
 20
0.0
  9
$PLINEGEN
 70
0
  9
$PLINEWID
 40
0.0
  9
$PROXYGRAPHICS
 70
1
  9
$PSLTSCALE
 70
1
  9
$PUCSNAME
  2

  9
$PUCSORG
 10
0.0
 20
0.0
 30
0.0
  9
$PUCSXDIR
 10
1.0
 20
0.0
 30
0.0
  9
$PUCSYDIR
 10
0.0
 20
1.0
 30
0.0
  9
$QTEXTMODE
 70
0
  9
$REGENMODE
 70
1
  9
$SHADEDGE
 70
3
  9
$SHADEDIF
 70
70
  9
$SKETCHINC
 40
1.0
  9
$SKPOLY
 70
0
  9
$SPLFRAME
 70
0
  9
$SPLINESEGS
 70
8
  9
$SPLINETYPE
 70
2
  9
$SURFTAB1
 70
6
  9
$SURFTAB2
 70
6
  9
$SURFTYPE
 70
6
  9
$SURFU
 70
6
  9
$SURFV
 70
6
  9
$TEXTSIZE
 40
2.5
  9
$TEXTSTYLE
  7
STANDARD
  9
$THICKNESS
 40
0.0
  9
$TILEMODE
 70
1
  9
$TRACEWID
 40
15.6799999999999997
  9
$TREEDEPTH
 70
3020
  9
$UCSNAME
  2

  9
$UCSORG
 10
0.0
 20
0.0
 30
0.0
  9
$UCSXDIR
 10
1.0
 20
0.0
 30
0.0
  9
$UCSYDIR
 10
0.0
 20
1.0
 30
0.0
  9
$UNITMODE
 70
0
  9
$USERI1
 70
0
  9
$USERI2
 70
0
  9
$USERI3
 70
0
  9
$USERI4
 70
0
  9
$USERI5
 70
0
  9
$USERR1
 40
0.0
  9
$USERR2
 40
0.0
  9
$USERR3
 40
0.0
  9
$USERR4
 40
0.0
  9
$USERR5
 40
0.0
  9
$USRTIMER
 70
1
  9
$VISRETAIN
 70
1
  0
ENDSEC
  0
SECTION
  2
TABLES
  0
TABLE
  2
VPORT
  5
8
100
AcDbSymbolTable
 70
1
  0
VPORT
  5
30
100
AcDbSymbolTableRecord
100
AcDbViewportTableRecord
  2
*Active
 70
0
 10
0.0
 20
0.0
 11
1.0
 21
1.0
 12
286.3055555555554861
 22
148.5
 13
0.0
 23
0.0
 14
10.0
 24
10.0
 15
10.0
 25
10.0
 16
0.0
 26
0.0
 36
1.0
 17
0.0
 27
0.0
 37
0.0
 40
297.0
 41
1.92798353909465
 42
50.0
 43
0.0
 44
0.0
 50
0.0
 51
0.0
 71
0
 72
100
 73
1
 74
3
 75
1
 76
1
 77
0
 78
0
281
0
 65
1
110
0.0
120
0.0
130
0.0
111
1.0
121
0.0
131
0.0
112
0.0
122
1.0
132
0.0
 79
0
146
0.0
  0
ENDTAB
  0
TABLE
  2
LTYPE
  5
5
100
AcDbSymbolTable
 70
27
  0
LTYPE
  5
16
100
AcDbSymbolTableRecord
100
AcDbLinetypeTableRecord
  2
Continuous
 70
0
  3
Solid line
 72
65
 73
0
 40
0.0
  0
LTYPE
  5
31
100
AcDbSymbolTableRecord
100
AcDbLinetypeTableRecord
  2
DASHED
 70
0
  3
Dashed _ _ _ _ _ _ _ _ _ _ _ _ _ _ _ _ _
 72
65
 73
2
 40
19.0499999999999972
 49
12.6999999999999993
 74
0
 49
-6.3499999999999996
 74
0
  0
LTYPE
  5
32
100
AcDbSymbolTableRecord
100
AcDbLinetypeTableRecord
  2
DASHEDX2
 70
0
  3
Dashed (2x) ____  ____  ____  ____  ____  ___
 72
65
 73
2
 40
38.0999999999999943
 49
25.3999999999999986
 74
0
 49
-12.6999999999999993
 74
0
  0
LTYPE
  5
33
100
AcDbSymbolTableRecord
100
AcDbLinetypeTableRecord
  2
DOT2
 70
0
  3
Dot (.5x) .....................................
 72
65
 73
2
 40
3.1749999999999998
 49
0.1
 74
0
 49
-3.0749999999999997
 74
0
  0
LTYPE
  5
34
100
AcDbSymbolTableRecord
100
AcDbLinetypeTableRecord
  2
DOTX2
 70
0
  3
Dot (2x) .  .  .  .  .  .  .  .  .  .  .  .  .
 72
65
 73
2
 40
12.6999999999999993
 49
0.1
 74
0
 49
-12.5999999999999996
 74
0
  0
LTYPE
  5
35
100
AcDbSymbolTableRecord
100
AcDbLinetypeTableRecord
  2
DIVIDE2
 70
0
  3
Divide (.5x) __..__..__..__..__..__..__..__.._
 72
65
 73
6
 40
15.8749999999999982
 49
6.3499999999999996
 74
0
 49
-3.125
 74
0
 49
0.1
 74
0
 49
-3.0750000000000002
 74
0
 49
0.1
 74
0
 49
-3.125
 74
0
  0
LTYPE
  5
36
100
AcDbSymbolTableRecord
100
AcDbLinetypeTableRecord
  2
DASHDOTX2
 70
0
  3
Dash dot (2x) ____  .  ____  .  ____  .  ___
 72
65
 73
4
 40
50.7999999999999972
 49
25.3999999999999986
 74
0
 49
-12.6499999999999986
 74
0
 49
0.1
 74
0
 49
-12.6499999999999986
 74
0
  0
LTYPE
  5
37
100
AcDbSymbolTableRecord
100
AcDbLinetypeTableRecord
  2
DASHDOTTINY
 70
0
  3
Dash dot (.15x) _._._._._._._._._._._._._._._.
 72
65
 73
4
 40
3.8100000000000001
 49
1.905
 74
0
 49
-0.9025
 74
0
 49
0.1
 74
0
 49
-0.9025
 74
0
  0
LTYPE
  5
38
100
AcDbSymbolTableRecord
100
AcDbLinetypeTableRecord
  2
CENTERTINY
 70
0
  3
Center (.15x) ___ _ ___ _ ___ _ ___ _ ___ _ ___
 72
65
 73
4
 40
7.6199999999999992
 49
4.7625000000000002
 74
0
 49
-0.9525
 74
0
 49
0.9525
 74
0
 49
-0.9525
 74
0
  0
LTYPE
  5
39
100
AcDbSymbolTableRecord
100
AcDbLinetypeTableRecord
  2
DASHDOT2
 70
0
  3
Dash dot (.5x) _._._._._._._._._._._._._._._.
 72
65
 73
4
 40
12.6999999999999993
 49
6.3499999999999996
 74
0
 49
-3.125
 74
0
 49
0.1
 74
0
 49
-3.125
 74
0
  0
LTYPE
  5
3A
100
AcDbSymbolTableRecord
100
AcDbLinetypeTableRecord
  2
BORDERX2
 70
0
  3
Border (2x) ____  ____  .  ____  ____  .  ___
 72
65
 73
6
 40
88.8999999999999773
 49
25.3999999999999986
 74
0
 49
-12.6999999999999993
 74
0
 49
25.3999999999999986
 74
0
 49
-12.6499999999999986
 74
0
 49
0.1
 74
0
 49
-12.6499999999999986
 74
0
  0
LTYPE
  5
3B
100
AcDbSymbolTableRecord
100
AcDbLinetypeTableRecord
  2
DIVIDEX2
 70
0
  3
Divide (2x) ________  .  .  ________  .  .  _
 72
65
 73
6
 40
63.5
 49
25.3999999999999986
 74
0
 49
-12.6499999999999986
 74
0
 49
0.1
 74
0
 49
-12.5999999999999979
 74
0
 49
0.1
 74
0
 49
-12.6499999999999986
 74
0
  0
LTYPE
  5
3C
100
AcDbSymbolTableRecord
100
AcDbLinetypeTableRecord
  2
DASHDOT
 70
0
  3
Dash dot __ . __ . __ . __ . __ . __ . __ . __
 72
65
 73
4
 40
25.4000000000000021
 49
12.6999999999999993
 74
0
 49
-6.2999999999999998
 74
0
 49
0.1
 74
0
 49
-6.2999999999999998
 74
0
  0
LTYPE
  5
3D
100
AcDbSymbolTableRecord
100
AcDbLinetypeTableRecord
  2
BORDERTINY
 70
0
  3
Border (.15x) __.__.__.__.__.__.__.__.__.__.__.
 72
65
 73
6
 40
6.6674999999999995
 49
1.905
 74
0
 49
-0.9525
 74
0
 49
1.905
 74
0
 49
-0.9025
 74
0
 49
0.1
 74
0
 49
-0.9025
 74
0
  0
LTYPE
  5
3E
100
AcDbSymbolTableRecord
100
AcDbLinetypeTableRecord
  2
CENTER2
 70
0
  3
Center (.5x) ___ _ ___ _ ___ _ ___ _ ___ _ ___
 72
65
 73
4
 40
28.5750000000000028
 49
19.0500000000000007
 74
0
 49
-3.1749999999999998
 74
0
 49
3.1749999999999998
 74
0
 49
-3.1749999999999998
 74
0
  0
LTYPE
  5
3F
100
AcDbSymbolTableRecord
100
AcDbLinetypeTableRecord
  2
BORDER
 70
0
  3
Border __ __ . __ __ . __ __ . __ __ . __ __ .
 72
65
 73
6
 40
44.4499999999999957
 49
12.6999999999999993
 74
0
 49
-6.3499999999999996
 74
0
 49
12.6999999999999993
 74
0
 49
-6.2999999999999998
 74
0
 49
0.1
 74
0
 49
-6.2999999999999998
 74
0
  0
LTYPE
  5
40
100
AcDbSymbolTableRecord
100
AcDbLinetypeTableRecord
  2
DIVIDE
 70
0
  3
Divide ____ . . ____ . . ____ . . ____ . . ____
 72
65
 73
6
 40
31.7500000000000036
 49
12.6999999999999993
 74
0
 49
-6.2999999999999998
 74
0
 49
0.1
 74
0
 49
-6.25
 74
0
 49
0.1
 74
0
 49
-6.2999999999999998
 74
0
  0
LTYPE
  5
41
100
AcDbSymbolTableRecord
100
AcDbLinetypeTableRecord
  2
DASHED2
 70
0
  3
Dashed (.5x) _ _ _ _ _ _ _ _ _ _ _ _ _ _ _ _ _
 72
65
 73
2
 40
9.5249999999999986
 49
6.3499999999999996
 74
0
 49
-3.1749999999999998
 74
0
  0
LTYPE
  5
42
100
AcDbSymbolTableRecord
100
AcDbLinetypeTableRecord
  2
CENTERX2
 70
0
  3
Center (2x) ________  __  ________  __  _____
 72
65
 73
4
 40
101.6000000000000085
 49
63.5
 74
0
 49
-12.6999999999999993
 74
0
 49
12.6999999999999993
 74
0
 49
-12.6999999999999993
 74
0
  0
LTYPE
  5
43
100
AcDbSymbolTableRecord
100
AcDbLinetypeTableRecord
  2
DASHEDTINY
 70
0
  3
Dashed (.15x) _ _ _ _ _ _ _ _ _ _ _ _ _ _ _ _ _
 72
65
 73
2
 40
2.8574999999999999
 49
1.905
 74
0
 49
-0.9525
 74
0
  0
LTYPE
  5
44
100
AcDbSymbolTableRecord
100
AcDbLinetypeTableRecord
  2
CENTER
 70
0
  3
Center ____ _ ____ _ ____ _ ____ _ ____ _ ____
 72
65
 73
4
 40
50.8000000000000043
 49
31.75
 74
0
 49
-6.3499999999999996
 74
0
 49
6.3499999999999996
 74
0
 49
-6.3499999999999996
 74
0
  0
LTYPE
  5
14
100
AcDbSymbolTableRecord
100
AcDbLinetypeTableRecord
  2
ByBlock
 70
0
  3

 72
65
 73
0
 40
0.0
  0
LTYPE
  5
45
100
AcDbSymbolTableRecord
100
AcDbLinetypeTableRecord
  2
DIVIDETINY
 70
0
  3
Divide (.15x) __..__..__..__..__..__..__..__.._
 72
65
 73
6
 40
4.7625000000000002
 49
1.905
 74
0
 49
-0.9025
 74
0
 49
0.1
 74
0
 49
-0.8524999999999999
 74
0
 49
0.1
 74
0
 49
-0.9025
 74
0
  0
LTYPE
  5
46
100
AcDbSymbolTableRecord
100
AcDbLinetypeTableRecord
  2
DOT
 70
0
  3
Dot . . . . . . . . . . . . . . . . . . . . . .
 72
65
 73
2
 40
6.3499999999999996
 49
0.1
 74
0
 49
-6.25
 74
0
  0
LTYPE
  5
15
100
AcDbSymbolTableRecord
100
AcDbLinetypeTableRecord
  2
ByLayer
 70
0
  3

 72
65
 73
0
 40
0.0
  0
LTYPE
  5
47
100
AcDbSymbolTableRecord
100
AcDbLinetypeTableRecord
  2
DOTTINY
 70
0
  3
Dot (.15x) .....................................
 72
65
 73
2
 40
0.9525
 49
0.1
 74
0
 49
-0.8525
 74
0
  0
LTYPE
  5
48
100
AcDbSymbolTableRecord
100
AcDbLinetypeTableRecord
  2
BORDER2
 70
0
  3
Border (.5x) __.__.__.__.__.__.__.__.__.__.__.
 72
65
 73
6
 40
22.2250000000000014
 49
6.3499999999999996
 74
0
 49
-3.1749999999999998
 74
0
 49
6.3499999999999996
 74
0
 49
-3.125
 74
0
 49
0.1
 74
0
 49
-3.125
 74
0
  0
ENDTAB
  0
TABLE
  2
LAYER
  5
2
100
AcDbSymbolTable
 70
13
  0
LAYER
  5
49
100
AcDbSymbolTableRecord
100
AcDbLayerTableRecord
  2
devoiement_noue
 70
0
 62
1
420
16711680
  6
Continuous
370
0
390
F
  0
LAYER
  5
4A
100
AcDbSymbolTableRecord
100
AcDbLayerTableRecord
  2
empanons
 70
0
 62
1
420
16711680
  6
Continuous
370
0
390
F
  0
LAYER
  5
4B
100
AcDbSymbolTableRecord
100
AcDbLayerTableRecord
  2
0_vue_plan
 70
0
 62
7
420
16777215
  6
Continuous
370
0
390
F
  0
LAYER
  5
4C
100
AcDbSymbolTableRecord
100
AcDbLayerTableRecord
  2
aretier
 70
0
 62
1
420
16711680
  6
Continuous
370
0
390
F
  0
LAYER
  5
4D
100
AcDbSymbolTableRecord
100
AcDbLayerTableRecord
  2
0_elev_B
 70
0
 62
7
420
16777215
  6
Continuous
370
0
390
F
  0
LAYER
  5
10
100
AcDbSymbolTableRecord
100
AcDbLayerTableRecord
  2
0
 70
0
 62
7
420
16777215
  6
DASHDOTTINY
370
0
390
F
  0
LAYER
  5
4E
100
AcDbSymbolTableRecord
100
AcDbLayerTableRecord
  2
0_elevation_noue
 70
0
 62
7
420
16777215
  6
Continuous
370
0
390
F
  0
LAYER
  5
4F
100
AcDbSymbolTableRecord
100
AcDbLayerTableRecord
  2
0_elev_A
 70
0
 62
7
420
16777215
  6
Continuous
370
0
390
F
  0
LAYER
  5
50
100
AcDbSymbolTableRecord
100
AcDbLayerTableRecord
  2
intersection_lattis
 70
0
 62
1
420
16711680
  6
Continuous
370
0
390
F
  0
LAYER
  5
51
100
AcDbSymbolTableRecord
100
AcDbLayerTableRecord
  2
0_ch_panne_A
 70
0
 62
3
420
65280
  6
Continuous
370
0
390
F
  0
LAYER
  5
52
100
AcDbSymbolTableRecord
100
AcDbLayerTableRecord
  2
arba_aretier
 70
0
 62
1
420
16711680
  6
Continuous
370
0
390
F
  0
LAYER
  5
53
100
AcDbSymbolTableRecord
100
AcDbLayerTableRecord
  2
0_ch_panne_B
 70
0
 62
94
420
32768
  6
Continuous
370
0
390
F
  0
LAYER
  5
54
100
AcDbSymbolTableRecord
100
AcDbLayerTableRecord
  2
pannes
 70
0
 62
1
420
16711680
  6
Continuous
370
0
390
F
  0
ENDTAB
  0
TABLE
  2
STYLE
  5
3
100
AcDbSymbolTable
 70
33
  0
STYLE
  5
55
100
AcDbSymbolTableRecord
100
AcDbTextStyleTableRecord
  2
Standard
 70
0
 40
0.0
 41
1.0
 50
0.0
 71
0
 42
2.5
  3

  4

1001
ACAD
1000
txt
1071
0
  0
STYLE
  5
56
100
AcDbSymbolTableRecord
100
AcDbTextStyleTableRecord
  2
textstyle0
 70
0
 40
0.0
 41
1.0
 50
0.0
 71
0
 42
3.0
  3

  4

1001
ACAD
1000

1071
0
  0
STYLE
  5
57
100
AcDbSymbolTableRecord
100
AcDbTextStyleTableRecord
  2
textstyle1
 70
0
 40
0.0
 41
1.0
 50
0.0
 71
0
 42
3.0
  3

  4

1001
ACAD
1000
standard
1071
0
  0
STYLE
  5
58
100
AcDbSymbolTableRecord
100
AcDbTextStyleTableRecord
  2
textstyle2
 70
0
 40
0.0
 41
1.0
 50
0.0
 71
0
 42
3.0
  3

  4

1001
ACAD
1000
standard
1071
0
  0
STYLE
  5
59
100
AcDbSymbolTableRecord
100
AcDbTextStyleTableRecord
  2
textstyle3
 70
0
 40
0.0
 41
1.0
 50
0.0
 71
0
 42
3.0
  3

  4

1001
ACAD
1000
standard
1071
0
  0
STYLE
  5
5A
100
AcDbSymbolTableRecord
100
AcDbTextStyleTableRecord
  2
textstyle4
 70
0
 40
0.0
 41
1.0
 50
0.0
 71
0
 42
3.0
  3

  4

1001
ACAD
1000
standard
1071
0
  0
STYLE
  5
5B
100
AcDbSymbolTableRecord
100
AcDbTextStyleTableRecord
  2
textstyle5
 70
0
 40
0.0
 41
1.0
 50
0.0
 71
0
 42
3.0
  3

  4

1001
ACAD
1000
standard
1071
0
  0
STYLE
  5
5C
100
AcDbSymbolTableRecord
100
AcDbTextStyleTableRecord
  2
textstyle6
 70
0
 40
0.0
 41
1.0
 50
0.0
 71
0
 42
3.0
  3

  4

1001
ACAD
1000
standard
1071
0
  0
STYLE
  5
5D
100
AcDbSymbolTableRecord
100
AcDbTextStyleTableRecord
  2
textstyle7
 70
0
 40
0.0
 41
1.0
 50
0.0
 71
0
 42
3.0
  3

  4

1001
ACAD
1000
standard
1071
0
  0
STYLE
  5
5E
100
AcDbSymbolTableRecord
100
AcDbTextStyleTableRecord
  2
textstyle8
 70
0
 40
0.0
 41
1.0
 50
0.0
 71
0
 42
3.0
  3

  4

1001
ACAD
1000
standard
1071
0
  0
STYLE
  5
5F
100
AcDbSymbolTableRecord
100
AcDbTextStyleTableRecord
  2
textstyle9
 70
0
 40
0.0
 41
1.0
 50
0.0
 71
0
 42
3.0
  3

  4

1001
ACAD
1000
standard
1071
0
  0
STYLE
  5
60
100
AcDbSymbolTableRecord
100
AcDbTextStyleTableRecord
  2
textstyle10
 70
0
 40
0.0
 41
1.0
 50
0.0
 71
0
 42
3.0
  3

  4

1001
ACAD
1000
standard
1071
0
  0
STYLE
  5
61
100
AcDbSymbolTableRecord
100
AcDbTextStyleTableRecord
  2
textstyle11
 70
0
 40
0.0
 41
1.0
 50
0.0
 71
0
 42
3.0
  3

  4

1001
ACAD
1000
standard
1071
0
  0
STYLE
  5
62
100
AcDbSymbolTableRecord
100
AcDbTextStyleTableRecord
  2
textstyle12
 70
0
 40
0.0
 41
1.0
 50
0.0
 71
0
 42
3.0
  3

  4

1001
ACAD
1000

1071
0
  0
STYLE
  5
63
100
AcDbSymbolTableRecord
100
AcDbTextStyleTableRecord
  2
textstyle13
 70
0
 40
0.0
 41
1.0
 50
0.0
 71
0
 42
3.0
  3

  4

1001
ACAD
1000

1071
0
  0
STYLE
  5
64
100
AcDbSymbolTableRecord
100
AcDbTextStyleTableRecord
  2
textstyle14
 70
0
 40
0.0
 41
1.0
 50
0.0
 71
0
 42
3.0
  3

  4

1001
ACAD
1000
standard
1071
0
  0
STYLE
  5
65
100
AcDbSymbolTableRecord
100
AcDbTextStyleTableRecord
  2
textstyle15
 70
0
 40
0.0
 41
1.0
 50
0.0
 71
0
 42
3.0
  3

  4

1001
ACAD
1000
standard
1071
0
  0
STYLE
  5
66
100
AcDbSymbolTableRecord
100
AcDbTextStyleTableRecord
  2
textstyle16
 70
0
 40
0.0
 41
1.0
 50
0.0
 71
0
 42
3.0
  3

  4

1001
ACAD
1000

1071
0
  0
STYLE
  5
67
100
AcDbSymbolTableRecord
100
AcDbTextStyleTableRecord
  2
textstyle17
 70
0
 40
0.0
 41
1.0
 50
0.0
 71
0
 42
3.0
  3

  4

1001
ACAD
1000

1071
0
  0
STYLE
  5
68
100
AcDbSymbolTableRecord
100
AcDbTextStyleTableRecord
  2
textstyle18
 70
0
 40
0.0
 41
1.0
 50
0.0
 71
0
 42
3.0
  3

  4

1001
ACAD
1000
standard
1071
0
  0
STYLE
  5
69
100
AcDbSymbolTableRecord
100
AcDbTextStyleTableRecord
  2
textstyle19
 70
0
 40
0.0
 41
1.0
 50
0.0
 71
0
 42
3.0
  3

  4

1001
ACAD
1000
standard
1071
0
  0
STYLE
  5
6A
100
AcDbSymbolTableRecord
100
AcDbTextStyleTableRecord
  2
textstyle20
 70
0
 40
0.0
 41
1.0
 50
0.0
 71
0
 42
3.0
  3

  4

1001
ACAD
1000
standard
1071
0
  0
STYLE
  5
6B
100
AcDbSymbolTableRecord
100
AcDbTextStyleTableRecord
  2
textstyle21
 70
0
 40
0.0
 41
1.0
 50
0.0
 71
0
 42
3.0
  3

  4

1001
ACAD
1000
standard
1071
0
  0
STYLE
  5
6C
100
AcDbSymbolTableRecord
100
AcDbTextStyleTableRecord
  2
textstyle22
 70
0
 40
0.0
 41
1.0
 50
0.0
 71
0
 42
3.0
  3

  4

1001
ACAD
1000
standard
1071
0
  0
STYLE
  5
6D
100
AcDbSymbolTableRecord
100
AcDbTextStyleTableRecord
  2
textstyle23
 70
0
 40
0.0
 41
1.0
 50
0.0
 71
0
 42
20.0
  3

  4

1001
ACAD
1000
standard
1071
0
  0
STYLE
  5
6E
100
AcDbSymbolTableRecord
100
AcDbTextStyleTableRecord
  2
textstyle24
 70
0
 40
0.0
 41
1.0
 50
0.0
 71
0
 42
20.0
  3

  4

1001
ACAD
1000
standard
1071
0
  0
STYLE
  5
6F
100
AcDbSymbolTableRecord
100
AcDbTextStyleTableRecord
  2
textstyle25
 70
0
 40
0.0
 41
1.0
 50
0.0
 71
0
 42
3.0
  3

  4

1001
ACAD
1000

1071
0
  0
STYLE
  5
70
100
AcDbSymbolTableRecord
100
AcDbTextStyleTableRecord
  2
textstyle26
 70
0
 40
0.0
 41
1.0
 50
0.0
 71
0
 42
3.0
  3

  4

1001
ACAD
1000
standard
1071
0
  0
STYLE
  5
71
100
AcDbSymbolTableRecord
100
AcDbTextStyleTableRecord
  2
textstyle27
 70
0
 40
0.0
 41
1.0
 50
0.0
 71
0
 42
3.0
  3

  4

1001
ACAD
1000
standard
1071
0
  0
STYLE
  5
72
100
AcDbSymbolTableRecord
100
AcDbTextStyleTableRecord
  2
textstyle28
 70
0
 40
0.0
 41
1.0
 50
0.0
 71
0
 42
3.0
  3

  4

1001
ACAD
1000
standard
1071
0
  0
STYLE
  5
73
100
AcDbSymbolTableRecord
100
AcDbTextStyleTableRecord
  2
textstyle29
 70
0
 40
0.0
 41
1.0
 50
0.0
 71
0
 42
3.0
  3

  4

1001
ACAD
1000
standard
1071
0
  0
STYLE
  5
74
100
AcDbSymbolTableRecord
100
AcDbTextStyleTableRecord
  2
textstyle30
 70
0
 40
0.0
 41
1.0
 50
0.0
 71
0
 42
3.0
  3

  4

1001
ACAD
1000
standard
1071
0
  0
STYLE
  5
75
100
AcDbSymbolTableRecord
100
AcDbTextStyleTableRecord
  2
textstyle31
 70
0
 40
0.0
 41
1.0
 50
0.0
 71
0
 42
3.0
  3

  4

1001
ACAD
1000
standard
1071
0
  0
ENDTAB
  0
TABLE
  2
VIEW
  5
6
100
AcDbSymbolTable
 70
0
  0
ENDTAB
  0
TABLE
  2
UCS
  5
7
100
AcDbSymbolTable
 70
0
  0
ENDTAB
  0
TABLE
  2
APPID
  5
9
100
AcDbSymbolTable
 70
1
  0
APPID
  5
12
100
AcDbSymbolTableRecord
100
AcDbRegAppTableRecord
  2
ACAD
 70
0
  0
APPID
  5
76
100
AcDbSymbolTableRecord
100
AcDbRegAppTableRecord
  2
QCAD
 70
0
  0
ENDTAB
  0
TABLE
  2
DIMSTYLE
  5
A
100
AcDbSymbolTable
 70
1
100
AcDbDimStyleTable
 71
0
  0
DIMSTYLE
105
27
100
AcDbSymbolTableRecord
100
AcDbDimStyleTableRecord
  2
Standard
 41
2.5
 42
0.625
 43
3.75
 44
1.25
 70
0
 73
0
 74
0
 77
1
 78
8
140
2.5
141
2.5
143
0.03937007874016
147
0.625
171
3
172
1
271
2
272
2
274
3
278
44
283
0
284
8
340
55
  0
ENDTAB
  0
TABLE
  2
BLOCK_RECORD
  5
1
100
AcDbSymbolTable
 70
1
  0
BLOCK_RECORD
  5
1F
100
AcDbSymbolTableRecord
100
AcDbBlockTableRecord
  2
*Model_Space
340
22
  0
BLOCK_RECORD
  5
1B
100
AcDbSymbolTableRecord
100
AcDbBlockTableRecord
  2
*Paper_Space
340
1E
  0
BLOCK_RECORD
  5
23
100
AcDbSymbolTableRecord
100
AcDbBlockTableRecord
  2
*Paper_Space0
340
26
  0
ENDTAB
  0
ENDSEC
  0
SECTION
  2
BLOCKS
  0
BLOCK
  5
20
100
AcDbEntity
  8
0
100
AcDbBlockBegin
  2
*Model_Space
 70
0
 10
0.0
 20
0.0
 30
0.0
  3
*Model_Space
  1

  0
ENDBLK
  5
21
100
AcDbEntity
  8
0
100
AcDbBlockEnd
  0
BLOCK
  5
1C
100
AcDbEntity
 67
1
  8
0
100
AcDbBlockBegin
  2
*Paper_Space
 70
0
 10
0.0
 20
0.0
 30
0.0
  3
*Paper_Space
  1

  0
ENDBLK
  5
1D
100
AcDbEntity
 67
1
  8
0
100
AcDbBlockEnd
  0
BLOCK
  5
24
100
AcDbEntity
  8
0
100
AcDbBlockBegin
  2
*Paper_Space0
 70
0
 10
0.0
 20
0.0
 30
0.0
  3
*Paper_Space0
  1

  0
ENDBLK
  5
25
100
AcDbEntity
  8
0
100
AcDbBlockEnd
  0
ENDSEC
  0
SECTION
  2
ENTITIES
  0
LINE
  5
77
100
AcDbEntity
  8
0
 62
256
370
-1
 48
1.0
  6
ByLayer
100
AcDbLine
 10
0.0
 20
0.0
 30
0.0
 11
0.0000000000000337
 21
550.0
 31
0.0
  0
LINE
  5
78
100
AcDbEntity
  8
0
 62
256
370
-1
 48
1.0
  6
ByLayer
100
AcDbLine
 10
250.0
 20
0.0
 30
0.0
 11
250.0
 21
550.0
 31
0.0
  0
LINE
  5
79
100
AcDbEntity
  8
0
 62
256
370
-1
 48
1.0
  6
ByLayer
100
AcDbLine
 10
300.0
 20
0.0
 30
0.0
 11
300.0000000000001137
 21
550.0
 31
0.0
  0
LINE
  5
7A
100
AcDbEntity
  8
0
 62
256
370
-1
 48
1.0
  6
ByLayer
100
AcDbLine
 10
550.0
 20
0.0
 30
0.0
 11
550.0
 21
550.0
 31
0.0
  0
LINE
  5
7B
100
AcDbEntity
  8
0
 62
256
370
-1
 48
1.0
  6
ByLayer
100
AcDbLine
 10
0.0
 20
300.0
 30
0.0
 11
550.0
 21
300.0
 31
0.0
  0
LINE
  5
7C
100
AcDbEntity
  8
0
 62
256
370
-1
 48
1.0
  6
ByLayer
100
AcDbLine
 10
0.0
 20
550.0
 30
0.0
 11
550.0
 21
550.0
 31
0.0
  0
LINE
  5
7D
100
AcDbEntity
  8
0
 62
256
370
-1
 48
1.0
  6
ByLayer
100
AcDbLine
 10
0.0
 20
250.0
 30
0.0
 11
550.0
 21
250.0
 31
0.0
  0
LINE
  5
7E
100
AcDbEntity
  8
0
 62
256
370
-1
 48
1.0
  6
ByLayer
100
AcDbLine
 10
0.0
 20
0.0
 30
0.0
 11
550.0
 21
0.0
 31
0.0
  0
LINE
  5
7F
100
AcDbEntity
  8
0_elev_A
 62
256
370
-1
 48
1.0
  6
ByLayer
100
AcDbLine
 10
550.0
 20
550.0
 30
0.0
 11
300.0000000000001137
 21
550.0
 31
0.0
  0
LINE
  5
80
100
AcDbEntity
  8
0_elev_B
 62
256
370
-1
 48
1.0
  6
ByLayer
100
AcDbLine
 10
0.0000000000000153
 20
250.0
 30
0.0
 11
0.0
 21
0.0
 31
0.0
  0
LINE
  5
81
100
AcDbEntity
  8
0_vue_plan
 62
256
370
-1
 48
1.0
  6
ByLayer
100
AcDbLine
 10
-20.0
 20
570.0
 30
0.0
 11
20.0
 21
570.0
 31
0.0
  0
LINE
  5
82
100
AcDbEntity
  8
0_vue_plan
 62
256
370
-1
 48
1.0
  6
ByLayer
100
AcDbLine
 10
-20.0
 20
530.0
 30
0.0
 11
-20.0
 21
570.0
 31
0.0
  0
LINE
  5
83
100
AcDbEntity
  8
0_vue_plan
 62
256
370
-1
 48
1.0
  6
ByLayer
100
AcDbLine
 10
20.0
 20
530.0
 30
0.0
 11
20.0
 21
570.0
 31
0.0
  0
LINE
  5
84
100
AcDbEntity
  8
0_vue_plan
 62
256
370
-1
 48
1.0
  6
ByLayer
100
AcDbLine
 10
-20.0
 20
530.0
 30
0.0
 11
20.0
 21
530.0
 31
0.0
  0
LINE
  5
85
100
AcDbEntity
  8
0_vue_plan
 62
256
370
-1
 48
1.0
  6
ByLayer
100
AcDbLine
 10
230.0
 20
570.0
 30
0.0
 11
270.0
 21
570.0
 31
0.0
  0
LINE
  5
86
100
AcDbEntity
  8
0_vue_plan
 62
256
370
-1
 48
1.0
  6
ByLayer
100
AcDbLine
 10
270.0
 20
530.0
 30
0.0
 11
270.0
 21
570.0
 31
0.0
  0
LINE
  5
87
100
AcDbEntity
  8
0_vue_plan
 62
256
370
-1
 48
1.0
  6
ByLayer
100
AcDbLine
 10
230.0
 20
530.0
 30
0.0
 11
270.0
 21
530.0
 31
0.0
  0
LINE
  5
88
100
AcDbEntity
  8
0_vue_plan
 62
256
370
-1
 48
1.0
  6
ByLayer
100
AcDbLine
 10
230.0
 20
530.0
 30
0.0
 11
230.0
 21
570.0
 31
0.0
  0
LINE
  5
89
100
AcDbEntity
  8
0_vue_plan
 62
256
370
-1
 48
1.0
  6
ByLayer
100
AcDbLine
 10
-19.9999999999999787
 20
320.0
 30
0.0
 11
20.0000000000000213
 21
320.0
 31
0.0
  0
LINE
  5
8A
100
AcDbEntity
  8
0_vue_plan
 62
256
370
-1
 48
1.0
  6
ByLayer
100
AcDbLine
 10
20.0000000000000107
 20
280.0
 30
0.0
 11
20.0000000000000213
 21
320.0
 31
0.0
  0
LINE
  5
8B
100
AcDbEntity
  8
0_vue_plan
 62
256
370
-1
 48
1.0
  6
ByLayer
100
AcDbLine
 10
-19.9999999999999893
 20
280.0
 30
0.0
 11
20.0000000000000107
 21
280.0
 31
0.0
  0
LINE
  5
8C
100
AcDbEntity
  8
0_vue_plan
 62
256
370
-1
 48
1.0
  6
ByLayer
100
AcDbLine
 10
-19.9999999999999893
 20
280.0
 30
0.0
 11
-19.9999999999999787
 21
320.0
 31
0.0
  0
MTEXT
  5
8D
100
AcDbEntity
  8
0_elev_A
 62
256
370
-1
 48
1.0
  6
ByLayer
100
AcDbMText
 10
429.4507876367604808
 20
388.6062833778295271
 30
0.0
 40
20.0
 41
13.3333333333333304
 71
1
 72
1
  1
A
  7
textstyle24
 50
0.0
 73
2
 44
1.0
  0
LINE
  5
8E
100
AcDbEntity
  8
0_elev_B
 62
256
370
-1
 48
1.0
  6
ByLayer
100
AcDbLine
 10
78.3406394887758637
 20
250.0
 30
0.0
 11
20.0000000000000107
 21
177.0742006390302095
 31
0.0
  0
LINE
  5
8F
100
AcDbEntity
  8
0_elev_B
 62
256
370
-1
 48
1.0
  6
ByLayer
100
AcDbLine
 10
123.1625091508058034
 20
250.0
 30
0.0
 11
20.0000000000000107
 21
121.0468635614926995
 31
0.0
  0
LINE
  5
90
100
AcDbEntity
  8
0_elev_B
 62
256
370
-1
 48
1.0
  6
ByLayer
100
AcDbLine
 10
20.0000000000000107
 20
250.0
 30
0.0
 11
20.0
 21
25.0
 31
0.0
  0
LINE
  5
91
100
AcDbEntity
  8
0_elev_B
 62
256
370
-1
 48
1.0
  6
ByLayer
100
AcDbLine
 10
200.0
 20
250.0
 30
0.0
 11
-20.0
 21
-25.0
 31
0.0
  0
LINE
  5
92
100
AcDbEntity
  8
0_elev_B
 62
256
370
-1
 48
1.0
  6
ByLayer
100
AcDbLine
 10
-19.9999999999999893
 20
250.0
 30
0.0
 11
-20.0
 21
-25.0
 31
0.0
  0
LINE
  5
93
100
AcDbEntity
  8
0_elev_B
 62
256
370
-1
 48
1.0
  6
ByLayer
100
AcDbLine
 10
-19.9999999999999893
 20
250.0
 30
0.0
 11
200.0
 21
250.0
 31
0.0
  0
LINE
  5
94
100
AcDbEntity
  8
0_elev_A
 62
256
370
-1
 48
1.0
  6
ByLayer
100
AcDbLine
 10
300.0000000000001137
 20
434.3502884254439209
 30
0.0
 11
395.6497115745560791
 21
530.0
 31
0.0
  0
LINE
  5
95
100
AcDbEntity
  8
0_elev_A
 62
256
370
-1
 48
1.0
  6
ByLayer
100
AcDbLine
 10
300.0000000000001137
 20
384.8528137423855924
 30
0.0
 11
445.1471862576142939
 21
530.0
 31
0.0
  0
LINE
  5
96
100
AcDbEntity
  8
0_elev_A
 62
256
370
-1
 48
1.0
  6
ByLayer
100
AcDbLine
 10
530.0
 20
530.0
 30
0.0
 11
300.0000000000001137
 21
530.0
 31
0.0
  0
LINE
  5
97
100
AcDbEntity
  8
0_elev_A
 62
256
370
-1
 48
1.0
  6
ByLayer
100
AcDbLine
 10
300.0000000000001137
 20
300.0
 30
0.0
 11
570.0
 21
570.0
 31
0.0
  0
LINE
  5
98
100
AcDbEntity
  8
0_elev_A
 62
256
370
-1
 48
1.0
  6
ByLayer
100
AcDbLine
 10
300.0000000000001137
 20
570.0
 30
0.0
 11
300.0000000000001137
 21
300.0
 31
0.0
  0
MTEXT
  5
99
100
AcDbEntity
  8
0_elev_B
 62
256
370
-1
 48
1.0
  6
ByLayer
100
AcDbMText
 10
136.1627573722169871
 20
44.4394692719363675
 30
0.0
 40
20.0
 41
11.1111111111111107
 71
1
 72
1
  1
B
  7
textstyle23
 50
0.0
 73
2
 44
1.0
  0
LINE
  5
9A
100
AcDbEntity
  8
devoiement_noue
 62
256
370
-1
 48
1.0
  6
ByLayer
100
AcDbLine
 10
231.2347523777212928
 20
324.9878019021768978
 30
0.0
 11
168.7652476222787072
 21
275.0121980978231022
 31
0.0
  0
DIMENSION
  5
9B
100
AcDbEntity
  8
devoiement_noue
 62
256
370
-1
 48
1.0
  6
ByLayer
100
AcDbDimension
 10
179.6690042932324047
 20
325.4137446334597144
 30
0.0
 11
186.5421048604736995
 21
336.9151540598459746
 31
0.0
 70
1
 71
8
 72
2
 74
0
 75
0
 41
1.0
 42
0.0
  1

  3
Standard
100
AcDbAlignedDimension
 13
200.0
 23
300.0
 33
0.0
 14
219.6027172053053107
 24
315.6821737642441121
 34
0.0
1001
ACAD
1000
DSTYLE
1002
{
1070
144
1040
1.0
1070
40
1040
2.5
1002
}
  0
LEADER
  5
9C
100
AcDbEntity
  8
devoiement_noue
 62
256
370
-1
 48
1.0
  6
ByLayer
100
AcDbLeader
  3
Standard
 71
1
 72
0
 73
3
 74
0
 75
0
 40
1.0
 41
10.0
 76
2
 10
219.6027172053053107
 20
300.0
 10
219.6027172053053107
 20
315.6821737642441121
1001
ACAD
1000
DSTYLE
1002
{
1070
40
1040
2.5
1002
}
  0
LINE
  5
9D
100
AcDbEntity
  8
devoiement_noue
 62
256
370
-1
 48
1.0
  6
ByLayer
100
AcDbLine
 10
238.8824502200735935
 20
315.4281795992365005
 30
0.0
 11
176.412945464631008
 21
265.4525757948827049
 31
0.0
  0
POINT
  5
9E
100
AcDbEntity
  8
devoiement_noue
 62
256
370
-1
 48
1.0
  6
ByLayer
100
AcDbPoint
 10
245.5337525154369871
 20
327.7981870709456871
 30
0.0
  0
LEADER
  5
9F
100
AcDbEntity
  8
devoiement_noue
 62
256
370
-1
 48
1.0
  6
ByLayer
100
AcDbLeader
  3
Standard
 71
1
 72
0
 73
3
 74
0
 75
0
 40
1.0
 41
10.0
 76
2
 10
231.2347523777212928
 20
324.9878019021768978
 10
245.5337525154369871
 20
327.7981870709456871
1001
ACAD
1000
DSTYLE
1002
{
1070
40
1040
2.5
1002
}
  0
LEADER
  5
A0
100
AcDbEntity
  8
devoiement_noue
 62
256
370
-1
 48
1.0
  6
ByLayer
100
AcDbLeader
  3
Standard
 71
1
 72
0
 73
3
 74
0
 75
0
 40
1.0
 41
10.0
 76
2
 10
238.8824502200735935
 20
315.4281795992365005
 10
245.5337525154369871
 20
327.7981870709456871
1001
ACAD
1000
DSTYLE
1002
{
1070
40
1040
2.5
1002
}
  0
MTEXT
  5
A1
100
AcDbEntity
  8
devoiement_noue
 62
256
370
-1
 48
1.0
  6
ByLayer
100
AcDbMText
 10
238.7843517189052136
 20
338.5719872962911836
 30
0.0
 40
3.0
 41
77.9166728381139393
 71
1
 72
1
  1
v\U+00e9rif d\U+00e9voiement.\PCes deux droites sont bien parall\U+00e8les
  7
textstyle25
 50
0.0
 73
2
 44
1.0
  0
LINE
  5
A2
100
AcDbEntity
  8
devoiement_noue
 62
256
370
-1
 48
1.0
  6
ByLayer
100
AcDbLine
 10
219.6027172053053107
 20
300.0
 30
0.0
 11
219.6027172053053107
 21
315.6821737642441121
 31
0.0
  0
LEADER
  5
A3
100
AcDbEntity
  8
devoiement_noue
 62
256
370
-1
 48
1.0
  6
ByLayer
100
AcDbLeader
  3
Standard
 71
1
 72
0
 73
3
 74
0
 75
0
 40
1.0
 41
10.0
 76
2
 10
200.0
 20
284.3222194231777848
 10
180.4027742789722879
 20
284.3222194231777848
1001
ACAD
1000
DSTYLE
1002
{
1070
40
1040
2.5
1002
}
  0
LINE
  5
A4
100
AcDbEntity
  8
devoiement_noue
 62
256
370
-1
 48
1.0
  6
DOTTINY
100
AcDbLine
 10
200.0
 20
270.0
 30
0.0
 11
200.0
 21
330.0
 31
0.0
  0
LINE
  5
A5
100
AcDbEntity
  8
devoiement_noue
 62
256
370
-1
 48
1.0
  6
DOTTINY
100
AcDbLine
 10
165.36099999999999
 20
300.0
 30
0.0
 11
230.4029999999999916
 21
300.0
 31
0.0
  0
LINE
  5
A6
100
AcDbEntity
  8
0_vue_plan
 62
256
370
-1
 48
1.0
  6
ByLayer
100
AcDbLine
 10
200.0
 20
284.3222194231777848
 30
0.0
 11
200.0
 21
299.9999999999998863
 31
0.0
  0
LINE
  5
A7
100
AcDbEntity
  8
0_vue_plan
 62
256
370
-1
 48
1.0
  6
ByLayer
100
AcDbLine
 10
200.0
 20
299.9999999999998863
 30
0.0
 11
219.5972257210277974
 21
300.0
 31
0.0
  0
DIMENSION
  5
A8
100
AcDbEntity
  8
devoiement_noue
 62
256
370
-1
 48
1.0
  6
ByLayer
100
AcDbDimension
 10
159.9919821206059964
 20
309.8357096211357771
 30
0.0
 11
166.8623369457085062
 21
321.334922453811032
 31
0.0
 70
1
 71
8
 72
2
 74
0
 75
0
 41
1.0
 42
0.0
  1

  3
Standard
100
AcDbAlignedDimension
 13
180.4027742789722879
 23
284.3222194231777848
 33
0.0
 14
200.0
 24
299.9999999999998863
 34
0.0
1001
ACAD
1000
DSTYLE
1002
{
1070
144
1040
1.0
1070
40
1040
2.5
1002
}
  0
LINE
  5
A9
100
AcDbEntity
  8
0_vue_plan
 62
256
370
-1
 48
1.0
  6
ByLayer
100
AcDbLine
 10
200.0
 20
284.3222194231777848
 30
0.0
 11
3.4577755385422511
 21
530.0
 31
0.0
  0
LINE
  5
AA
100
AcDbEntity
  8
0_vue_plan
 62
256
370
-1
 48
1.0
  6
ByLayer
100
AcDbLine
 10
20.0
 20
562.5
 30
0.0
 11
230.0000000000001137
 21
562.5
 31
0.0
  0
LINE
  5
AB
100
AcDbEntity
  8
0_vue_plan
 62
256
370
-1
 48
1.0
  6
ByLayer
100
AcDbLine
 10
20.0
 20
537.5
 30
0.0
 11
230.0000000000001137
 21
537.5
 31
0.0
  0
LINE
  5
AC
100
AcDbEntity
  8
0_vue_plan
 62
256
370
-1
 48
1.0
  6
ByLayer
100
AcDbLine
 10
12.5000000000000195
 20
320.0
 30
0.0
 11
12.5000000000000302
 21
530.0
 31
0.0
  0
LINE
  5
AD
100
AcDbEntity
  8
0_vue_plan
 62
256
370
-1
 48
1.0
  6
ByLayer
100
AcDbLine
 10
-12.4999999999999805
 20
320.0
 30
0.0
 11
-12.4999999999999698
 21
530.0
 31
0.0
  0
LINE
  5
AE
100
AcDbEntity
  8
0_vue_plan
 62
256
370
-1
 48
1.0
  6
ByLayer
100
AcDbLine
 10
20.0000000000000213
 20
312.5
 30
0.0
 11
123.1625091508058034
 21
312.5
 31
0.0
  0
LINE
  5
AF
100
AcDbEntity
  8
0_vue_plan
 62
256
370
-1
 48
1.0
  6
ByLayer
100
AcDbLine
 10
78.3406394887758495
 20
287.5
 30
0.0
 11
78.3406394887758495
 21
312.5
 31
0.0
  0
LINE
  5
B0
100
AcDbEntity
  8
0_vue_plan
 62
256
370
-1
 48
1.0
  6
ByLayer
100
AcDbLine
 10
20.0000000000000107
 20
287.5
 30
0.0
 11
123.1625091508058034
 21
287.5
 31
0.0
  0
LINE
  5
B1
100
AcDbEntity
  8
0_vue_plan
 62
256
370
-1
 48
1.0
  6
ByLayer
100
AcDbLine
 10
123.1625091508058034
 20
287.5
 30
0.0
 11
123.1625091508058034
 21
312.5
 31
0.0
  0
LINE
  5
B2
100
AcDbEntity
  8
0_vue_plan
 62
256
370
-1
 48
1.0
  6
ByLayer
100
AcDbLine
 10
262.5
 20
384.8528137423855924
 30
0.0
 11
262.5
 21
530.0
 31
0.0
  0
LINE
  5
B3
100
AcDbEntity
  8
0_vue_plan
 62
256
370
-1
 48
1.0
  6
ByLayer
100
AcDbLine
 10
237.5
 20
384.8528137423855924
 30
0.0
 11
237.5
 21
530.0
 31
0.0
  0
LINE
  5
B4
100
AcDbEntity
  8
0_vue_plan
 62
256
370
-1
 48
1.0
  6
ByLayer
100
AcDbLine
 10
262.5
 20
434.3502884254439209
 30
0.0
 11
237.5
 21
434.3502884254439209
 31
0.0
  0
LINE
  5
B5
100
AcDbEntity
  8
0_vue_plan
 62
256
370
-1
 48
1.0
  6
ByLayer
100
AcDbLine
 10
237.5
 20
384.8528137423855924
 30
0.0
 11
262.5
 21
384.8528137423855924
 31
0.0
  0
LINE
  5
B6
100
AcDbEntity
  8
0_vue_plan
 62
256
370
-1
 48
1.0
  6
ByLayer
100
AcDbLine
 10
144.2392402043253981
 20
354.0231691677710728
 30
0.0
 11
0.0000000000000217
 21
354.0231691677710728
 31
0.0
  0
LINE
  5
B7
100
AcDbEntity
  8
0_vue_plan
 62
256
370
-1
 48
1.0
  6
ByLayer
100
AcDbLine
 10
184.0935793972903127
 20
344.3908154474407866
 30
0.0
 11
184.0935793972903127
 21
550.0
 31
0.0
  0
LINE
  5
B8
100
AcDbEntity
  8
0_vue_plan
 62
256
370
-1
 48
1.0
  6
ByLayer
100
AcDbLine
 10
128.2392402043253981
 20
374.0231691677710728
 30
0.0
 11
0.0000000000000278
 21
374.0231691677710728
 31
0.0
  0
LINE
  5
B9
100
AcDbEntity
  8
0_vue_plan
 62
256
370
-1
 48
1.0
  6
ByLayer
100
AcDbLine
 10
0.0000000000000278
 20
374.0231691677710728
 30
0.0
 11
0.0000000000000217
 21
354.0231691677710728
 31
0.0
  0
LINE
  5
BA
100
AcDbEntity
  8
0_vue_plan
 62
256
370
-1
 48
1.0
  6
ByLayer
100
AcDbLine
 10
164.0935793972903127
 20
550.0
 30
0.0
 11
184.0935793972903127
 21
550.0
 31
0.0
  0
LINE
  5
BB
100
AcDbEntity
  8
0_vue_plan
 62
256
370
-1
 48
1.0
  6
ByLayer
100
AcDbLine
 10
20.0
 20
549.507789694053713
 30
0.0
 11
230.0000000000001137
 21
550.0
 31
0.0
  0
LINE
  5
BC
100
AcDbEntity
  8
0_vue_plan
 62
256
370
-1
 48
1.0
  6
ByLayer
100
AcDbLine
 10
0.0000000000000196
 20
320.0
 30
0.0
 11
0.0000000000000325
 21
530.0
 31
0.0
  0
LINE
  5
BD
100
AcDbEntity
  8
0_vue_plan
 62
256
370
-1
 48
1.0
  6
ByLayer
100
AcDbLine
 10
58.1302781772115011
 20
287.5
 30
0.0
 11
58.1302781772114869
 21
477.3371522784855756
 31
0.0
  0
LINE
  5
BE
100
AcDbEntity
  8
0_vue_plan
 62
256
370
-1
 48
1.0
  6
ByLayer
100
AcDbLine
 10
262.5
 20
477.3371522784855756
 30
0.0
 11
58.1302781772114869
 21
477.3371522784855756
 31
0.0
  0
LINE
  5
BF
100
AcDbEntity
  8
0_elev_A
 62
256
370
-1
 48
1.0
  6
ByLayer
100
AcDbLine
 10
417.2330000000000041
 20
452.5880000000000223
 30
0.0
 11
392.4839999999999804
 21
477.3369999999999891
 31
0.0
  0
LINE
  5
C0
100
AcDbEntity
  8
0_elev_A
 62
256
370
-1
 48
1.0
  6
ByLayer
100
AcDbLine
 10
399.5550000000000068
 20
434.9110000000000014
 30
0.0
 11
374.8070000000000164
 21
459.6589999999999918
 31
0.0
  0
LINE
  5
C1
100
AcDbEntity
  8
0_elev_B
 62
256
370
-1
 48
1.0
  6
ByLayer
100
AcDbLine
 10
73.7476999999999947
 20
188.2309999999999945
 30
0.0
 11
101.078000000000003
 21
166.3669999999999902
 31
0.0
  0
LINE
  5
C2
100
AcDbEntity
  8
0_elev_B
 62
256
370
-1
 48
1.0
  6
ByLayer
100
AcDbLine
 10
58.1302999999999983
 20
168.710000000000008
 30
0.0
 11
85.4607000000000028
 21
146.8449999999999989
 31
0.0
  0
MTEXT
  5
C3
100
AcDbEntity
  8
0_vue_plan
 62
256
370
-1
 48
1.0
  6
ByLayer
100
AcDbMText
 10
54.7620097060705788
 20
460.4479183449200264
 30
0.0
 40
3.0
 41
0.6666666666666666
 71
1
 72
1
  1
1
  7
textstyle31
 50
0.0
 73
2
 44
1.0
  0
MTEXT
  5
C4
100
AcDbEntity
  8
0_vue_plan
 62
256
370
-1
 48
1.0
  6
ByLayer
100
AcDbMText
 10
70.7808288717919112
 20
441.8213844312904826
 30
0.0
 40
3.0
 41
1.333333333333333
 71
1
 72
1
  1
2
  7
textstyle29
 50
0.0
 73
2
 44
1.0
  0
MTEXT
  5
C5
100
AcDbEntity
  8
0_vue_plan
 62
256
370
-1
 48
1.0
  6
ByLayer
100
AcDbMText
 10
86.7996480375132364
 20
419.8420744132077971
 30
0.0
 40
3.0
 41
1.3333333333335191
 71
1
 72
1
  1
3
  7
textstyle30
 50
0.0
 73
2
 44
1.0
  0
MTEXT
  5
C6
100
AcDbEntity
  8
0_vue_plan
 62
256
370
-1
 48
1.0
  6
ByLayer
100
AcDbMText
 10
102.8184672032346043
 20
400.4704791430331738
 30
0.0
 40
3.0
 41
1.666666666666667
 71
1
 72
1
  1
4
  7
textstyle28
 50
0.0
 73
2
 44
1.0
  0
LINE
  5
C7
100
AcDbEntity
  8
0_vue_plan
 62
256
370
-1
 48
1.0
  6
ByLayer
100
AcDbLine
 10
73.7476543660720267
 20
457.8154320424100092
 30
0.0
 11
73.7476543660720409
 21
287.5
 31
0.0
  0
MTEXT
  5
C8
100
AcDbEntity
  8
0_vue_plan
 62
256
370
-1
 48
1.0
  6
ByLayer
100
AcDbMText
 10
92.9261750342774491
 20
463.9059862987052725
 30
0.0
 40
3.0
 41
0.6666666666666666
 71
1
 72
1
  1
1
  7
textstyle26
 50
0.0
 73
2
 44
1.0
  0
MTEXT
  5
C9
100
AcDbEntity
  8
0_vue_plan
 62
256
370
-1
 48
1.0
  6
ByLayer
100
AcDbMText
 10
79.2029002401858548
 20
480.3146177932063097
 30
0.0
 40
3.0
 41
1.333333333333333
 71
1
 72
1
  1
2
  7
textstyle27
 50
0.0
 73
2
 44
1.0
  0
MTEXT
  5
CA
100
AcDbEntity
  8
0_vue_plan
 62
256
370
-1
 48
1.0
  6
ByLayer
100
AcDbMText
 10
102.3364206073688933
 20
450.3194600289775167
 30
0.0
 40
3.0
 41
1.3333333333335191
 71
1
 72
1
  1
3
  7
textstyle9
 50
0.0
 73
2
 44
1.0
  0
MTEXT
  5
CB
100
AcDbEntity
  8
0_vue_plan
 62
256
370
-1
 48
1.0
  6
ByLayer
100
AcDbMText
 10
116.8438825325514046
 20
432.8712963622039069
 30
0.0
 40
3.0
 41
1.666666666666667
 71
1
 72
1
  1
4
  7
textstyle10
 50
0.0
 73
2
 44
1.0
  0
LINE
  5
CC
100
AcDbEntity
  8
0_vue_plan
 62
256
370
-1
 48
1.0
  6
ByLayer
100
AcDbLine
 10
262.5
 20
459.6594827488219721
 30
0.0
 11
72.2724138009424451
 21
459.6594827488219153
 31
0.0
  0
MTEXT
  5
CD
100
AcDbEntity
  8
0_elev_A
 62
256
370
-1
 48
1.0
  6
ByLayer
100
AcDbMText
 10
369.9095301405042164
 20
464.9261499285876198
 30
0.0
 40
3.0
 41
0.6666666666666666
 71
1
 72
1
  1
1
  7
textstyle8
 50
0.0
 73
2
 44
1.0
  0
MTEXT
  5
CE
100
AcDbEntity
  8
0_elev_A
 62
256
370
-1
 48
1.0
  6
ByLayer
100
AcDbMText
 10
390.1968948238392727
 20
482.8576925739039893
 30
0.0
 40
3.0
 41
1.333333333333333
 71
1
 72
1
  1
2
  7
textstyle6
 50
0.0
 73
2
 44
1.0
  0
MTEXT
  5
CF
100
AcDbEntity
  8
0_elev_A
 62
256
370
-1
 48
1.0
  6
ByLayer
100
AcDbMText
 10
400.3275304219295094
 20
432.0871092311128905
 30
0.0
 40
3.0
 41
1.666666666666667
 71
1
 72
1
  1
4
  7
textstyle7
 50
0.0
 73
2
 44
1.0
  0
MTEXT
  5
D0
100
AcDbEntity
  8
0_elev_A
 62
256
370
-1
 48
1.0
  6
ByLayer
100
AcDbMText
 10
417.1875537403848853
 20
450.1234132462046773
 30
0.0
 40
3.0
 41
1.3333333333335191
 71
1
 72
1
  1
3
  7
textstyle4
 50
0.0
 73
2
 44
1.0
  0
MTEXT
  5
D1
100
AcDbEntity
  8
0_elev_B
 62
256
370
-1
 48
1.0
  6
ByLayer
100
AcDbMText
 10
54.7620097060705788
 20
173.5992960750265013
 30
0.0
 40
3.0
 41
0.6666666666666666
 71
1
 72
1
  1
1
  7
textstyle5
 50
0.0
 73
2
 44
1.0
  0
MTEXT
  5
D2
100
AcDbEntity
  8
0_elev_B
 62
256
370
-1
 48
1.0
  6
ByLayer
100
AcDbMText
 10
71.5258902283370901
 20
190.3631765972930054
 30
0.0
 40
3.0
 41
1.333333333333333
 71
1
 72
1
  1
2
  7
textstyle2
 50
0.0
 73
2
 44
1.0
  0
MTEXT
  5
D3
100
AcDbEntity
  8
0_elev_B
 62
256
370
-1
 48
1.0
  6
ByLayer
100
AcDbMText
 10
85.3095253244228786
 20
140.071535030493493
 30
0.0
 40
3.0
 41
1.3333333333335191
 71
1
 72
1
  1
3
  7
textstyle3
 50
0.0
 73
2
 44
1.0
  0
MTEXT
  5
D4
100
AcDbEntity
  8
0_elev_B
 62
256
370
-1
 48
1.0
  6
ByLayer
100
AcDbMText
 10
102.4459365249619935
 20
165.7761518313020872
 30
0.0
 40
3.0
 41
1.666666666666667
 71
1
 72
1
  1
4
  7
textstyle1
 50
0.0
 73
2
 44
1.0
  0
LINE
  5
D5
100
AcDbEntity
  8
0_ch_panne_A
 62
256
370
-1
 48
1.0
  6
ByLayer
100
AcDbLine
 10
300.0000000000001137
 20
384.8528137423854787
 30
0.0
 11
119.5755245446337938
 21
384.8528137423855924
 31
0.0
  0
LINE
  5
D6
100
AcDbEntity
  8
0_ch_panne_B
 62
256
370
-1
 48
1.0
  6
ByLayer
100
AcDbLine
 10
123.1625091508058034
 20
250.0
 30
0.0
 11
123.1625091508058034
 21
420.5546532555463841
 31
0.0
  0
LINE
  5
D7
100
AcDbEntity
  8
intersection_lattis
 62
256
370
-1
 48
1.0
  6
ByLayer
100
AcDbLine
 10
334.2459609149490802
 20
151.7501366677799126
 30
0.0
 11
-11.0834517641433106
 21
533.1026770746057082
 31
0.0
  0
MTEXT
  5
D8
100
AcDbEntity
  8
intersection_lattis
 62
256
370
-1
 48
1.0
  6
ByLayer
100
AcDbMText
 10
245.077350349956788
 20
282.428711232169519
 30
0.0
 40
3.0
 41
104.0000046285856996
 71
1
 72
1
  3
On remarque que le croisement des \Pchambr\U+00e9es (haut/bas) d\U+00e9vie. Ceci est d\U+00fb \U+00e0 la\Pdiff\U+00e9rence de pente entre les deux c\U+00f4t\U+00e9s.\P\PAinsi, la droite d'intersection se d\U+00e9vie l\U+00e9g\U+00e8rement\Ppar rappor
  1
t \U+00e0 l'axe de la noue.
  7
textstyle0
 50
0.0
 73
2
 44
1.0
  0
LINE
  5
D9
100
AcDbEntity
  8
0_vue_plan
 62
256
370
-1
 48
1.0
  6
DOTTINY
100
AcDbLine
 10
200.0
 20
300.0
 30
0.0
 11
0.0000000000000337
 21
550.0
 31
0.0
  0
LINE
  5
DA
100
AcDbEntity
  8
0_elevation_noue
 62
256
370
-1
 48
1.0
  6
ByLayer
100
AcDbLine
 10
542.8047221182700923
 20
984.2437776946189842
 30
0.0
 11
546.9950554223028121
 21
577.5960443378419313
 31
0.0
  0
MTEXT
  5
DB
100
AcDbEntity
  8
0_elevation_noue
 62
256
370
-1
 48
1.0
  6
ByLayer
100
AcDbMText
 10
537.4574610434697206
 20
1016.8490000835280398
 30
0.0
 40
3.0
 41
8.3333333333334725
 71
1
 72
1
  1
axe\Pnoue
  7
textstyle14
 50
0.0
 73
2
 44
1.0
  0
LEADER
  5
DC
100
AcDbEntity
  8
0_elevation_noue
 62
256
370
-1
 48
1.0
  6
ByLayer
100
AcDbLeader
  3
Standard
 71
1
 72
0
 73
3
 74
0
 75
0
 40
1.0
 41
10.0
 76
2
 10
542.8047221182698649
 20
984.2437776946188706
 10
543.2733156308471507
 20
1005.1426969484180063
1001
ACAD
1000
DSTYLE
1002
{
1070
40
1040
2.5
1002
}
  0
LINE
  5
DD
100
AcDbEntity
  8
0_elevation_noue
 62
256
370
-1
 48
1.0
  6
ByLayer
100
AcDbLine
 10
550.2921879457825298
 20
990.2337503566288888
 30
0.0
 11
554.6427532646551981
 21
568.0364220349016477
 31
0.0
  0
LINE
  5
DE
100
AcDbEntity
  8
0_elevation_noue
 62
256
370
-1
 48
1.0
  6
ByLayer
100
AcDbLine
 10
550.2921879457826435
 20
990.2337503566288888
 30
0.0
 11
346.9950554223019026
 21
827.5960443378434093
 31
0.0
  0
LINE
  5
DF
100
AcDbEntity
  8
0_elevation_noue
 62
256
370
-1
 48
1.0
  6
ByLayer
100
AcDbLine
 10
554.6427532646553118
 20
568.0364220349014204
 30
0.0
 11
346.9950554223029258
 21
827.5960443378419313
 31
0.0
  0
MTEXT
  5
E0
100
AcDbEntity
  8
0_elevation_noue
 62
256
370
-1
 48
1.0
  6
ByLayer
100
AcDbMText
 10
554.7025622487208238
 20
1015.5232706625009769
 30
0.0
 40
3.0
 41
20.9166682095285417
 71
1
 72
1
  1
d\U+00e9lard sup\Pnoue
  7
textstyle13
 50
0.0
 73
2
 44
1.0
  0
LEADER
  5
E1
100
AcDbEntity
  8
0_elevation_noue
 62
256
370
-1
 48
1.0
  6
ByLayer
100
AcDbLeader
  3
Standard
 71
1
 72
0
 73
3
 74
0
 75
0
 40
1.0
 41
10.0
 76
2
 10
550.2921879457825298
 20
990.2337503566288888
 10
555.8871913191932208
 20
1003.9731372253939981
1001
ACAD
1000
DSTYLE
1002
{
1070
40
1040
2.5
1002
}
  0
LINE
  5
E2
100
AcDbEntity
  8
arba_aretier
 62
256
370
-1
 48
1.0
  6
ByLayer
100
AcDbLine
 10
486.7640168206843896
 20
652.8848425898650021
 30
0.0
 11
151.7239807613345022
 21
384.8528137423854787
 31
0.0
  0
LEADER
  5
E3
100
AcDbEntity
  8
arba_aretier
 62
256
370
-1
 48
1.0
  6
ByLayer
100
AcDbLeader
  3
Standard
 71
1
 72
0
 73
3
 74
0
 75
0
 40
1.0
 41
10.0
 76
2
 10
151.7239807613345874
 20
384.8528137423855924
 10
150.5967813511967108
 20
415.6936928534320828
1001
ACAD
1000
DSTYLE
1002
{
1070
40
1040
2.5
1002
}
  0
LINE
  5
E4
100
AcDbEntity
  8
0_elevation_noue
 62
256
370
-1
 48
1.0
  6
ByLayer
100
AcDbLine
 10
483.8356241515959937
 20
937.0684993212792051
 30
0.0
 11
486.7640168206845033
 21
652.8848425898648884
 31
0.0
  0
MTEXT
  5
E5
100
AcDbEntity
  8
0_elevation_noue
 62
256
370
-1
 48
1.0
  6
ByLayer
100
AcDbMText
 10
477.8126768501364836
 20
964.1746417091889043
 30
0.0
 40
3.0
 41
13.0000000000001403
 71
1
 72
1
  1
arba\Par\U+00eatier
  7
textstyle12
 50
0.0
 73
2
 44
1.0
  0
LEADER
  5
E6
100
AcDbEntity
  8
0_elevation_noue
 62
256
370
-1
 48
1.0
  6
ByLayer
100
AcDbLeader
  3
Standard
 71
1
 72
0
 73
3
 74
0
 75
0
 40
1.0
 41
10.0
 76
2
 10
483.8356241515959937
 20
937.0684993212792051
 10
482.793874210216984
 20
953.6723603000722278
1001
ACAD
1000
DSTYLE
1002
{
1070
40
1040
2.5
1002
}
  0
MTEXT
  5
E7
100
AcDbEntity
  8
arba_aretier
 62
256
370
-1
 48
1.0
  6
ByLayer
100
AcDbMText
 10
122.3840512898431996
 20
431.1368017558356769
 30
0.0
 40
3.0
 41
63.9166728381137403
 71
1
 72
1
  1
On place l'arba pour\Pavoir un repos sur les pannes.
  7
textstyle11
 50
0.0
 73
2
 44
1.0
  0
LINE
  5
E8
100
AcDbEntity
  8
aretier
 62
256
370
-1
 48
1.0
  6
ByLayer
100
AcDbLine
 10
526.3619965671309728
 20
603.3873679068068441
 30
0.0
 11
191.3219605077811138
 21
335.3553390593273775
 31
0.0
  0
LINE
  5
E9
100
AcDbEntity
  8
aretier
 62
256
370
-1
 48
1.0
  6
ByLayer
100
AcDbLine
 10
522.6271320774910691
 20
608.0559485188567805
 30
0.0
 11
167.9843788128358995
 21
324.3417459071330882
 31
0.0
  0
LINE
  5
EA
100
AcDbEntity
  8
aretier
 62
256
370
-1
 48
1.0
  6
ByLayer
100
AcDbLine
 10
517.254647613006
 20
614.7715540994630601
 30
0.0
 11
167.9843788128358142
 21
335.3553390593273775
 31
0.0
  0
LINE
  5
EB
100
AcDbEntity
  8
0_elevation_noue
 62
256
370
-1
 48
1.0
  6
ByLayer
100
AcDbLine
 10
522.6039602315223647
 20
968.0831681852204156
 30
0.0
 11
526.3619965671307455
 21
603.3873679068072988
 31
0.0
  0
LINE
  5
EC
100
AcDbEntity
  8
0_elevation_noue
 62
256
370
-1
 48
1.0
  6
ByLayer
100
AcDbLine
 10
513.6874254155673043
 20
960.9499403324564355
 30
0.0
 11
517.254647613006
 21
614.7715540994631738
 31
0.0
  0
LINE
  5
ED
100
AcDbEntity
  8
0_elevation_noue
 62
256
370
-1
 48
1.0
  6
ByLayer
100
AcDbLine
 10
518.9473473771677163
 20
965.1578779017366969
 30
0.0
 11
522.6271320774909555
 21
608.0559485188568942
 31
0.0
  0
MTEXT
  5
EE
100
AcDbEntity
  8
0_elevation_noue
 62
256
370
-1
 48
1.0
  6
ByLayer
100
AcDbMText
 10
501.5627317151922853
 20
985.8010556794807826
 30
0.0
 40
3.0
 41
16.3333333333333286
 71
1
 72
1
  1
bas\Pfourrure
  7
textstyle18
 50
0.0
 73
2
 44
1.0
  0
LEADER
  5
EF
100
AcDbEntity
  8
0_elevation_noue
 62
256
370
-1
 48
1.0
  6
ByLayer
100
AcDbLeader
  3
Standard
 71
1
 72
0
 73
3
 74
0
 75
0
 40
1.0
 41
10.0
 76
2
 10
513.6874254155673043
 20
960.9499403324564355
 10
510.4362088558992241
 20
974.8148458862245889
1001
ACAD
1000
DSTYLE
1002
{
1070
40
1040
2.5
1002
}
  0
MTEXT
  5
F0
100
AcDbEntity
  8
0_elevation_noue
 62
256
370
-1
 48
1.0
  6
ByLayer
100
AcDbMText
 10
501.724402879617287
 20
997.2996667586816102
 30
0.0
 40
3.0
 41
18.5833348761952095
 71
1
 72
1
  1
d\U+00e9lard us
  7
textstyle16
 50
0.0
 73
2
 44
1.0
  0
MTEXT
  5
F1
100
AcDbEntity
  8
0_elevation_noue
 62
256
370
-1
 48
1.0
  6
ByLayer
100
AcDbMText
 10
517.3567876172761544
 20
1006.4916581704950431
 30
0.0
 40
3.0
 41
20.9166682095285417
 71
1
 72
1
  1
d\U+00e9lard ous
  7
textstyle17
 50
0.0
 73
2
 44
1.0
  0
LEADER
  5
F2
100
AcDbEntity
  8
0_elevation_noue
 62
256
370
-1
 48
1.0
  6
ByLayer
100
AcDbLeader
  3
Standard
 71
1
 72
0
 73
3
 74
0
 75
0
 40
1.0
 41
10.0
 76
3
 10
518.9473473771677163
 20
965.1578779017366969
 10
521.4010447636989056
 20
985.6943982029416702
 10
516.5116876297557837
 20
991.1704781929580577
1001
ACAD
1000
DSTYLE
1002
{
1070
40
1040
2.5
1002
}
  0
LEADER
  5
F3
100
AcDbEntity
  8
0_elevation_noue
 62
256
370
-1
 48
1.0
  6
ByLayer
100
AcDbLeader
  3
Standard
 71
1
 72
0
 73
3
 74
0
 75
0
 40
1.0
 41
10.0
 76
2
 10
522.6039602315223647
 20
968.0831681852204156
 10
530.3974618901543181
 20
1000.9491924608439604
1001
ACAD
1000
DSTYLE
1002
{
1070
40
1040
2.5
1002
}
  0
LINE
  5
F4
100
AcDbEntity
  8
0_elevation_noue
 62
256
370
-1
 48
1.0
  6
ByLayer
100
AcDbLine
 10
449.119950271794778
 20
909.2959602174381644
 30
0.0
 11
451.3054263786671072
 21
697.2080806423867898
 31
0.0
  0
MTEXT
  5
F5
100
AcDbEntity
  8
0_elevation_noue
 62
256
370
-1
 48
1.0
  6
ByLayer
100
AcDbMText
 10
438.9962314991292942
 20
933.122944447261375
 30
0.0
 40
3.0
 41
17.2500015428622895
 71
1
 72
1
  1
bas arba
  7
textstyle15
 50
0.0
 73
2
 44
1.0
  0
LEADER
  5
F6
100
AcDbEntity
  8
0_elevation_noue
 62
256
370
-1
 48
1.0
  6
ByLayer
100
AcDbLeader
  3
Standard
 71
1
 72
0
 73
3
 74
0
 75
0
 40
1.0
 41
10.0
 76
2
 10
449.119950271794778
 20
909.2959602174381644
 10
446.8049268264219904
 20
926.2794612057438144
1001
ACAD
1000
DSTYLE
1002
{
1070
40
1040
2.5
1002
}
  0
LINE
  5
F7
100
AcDbEntity
  8
0_elev_A
 62
256
370
-1
 48
1.0
  6
ByLayer
100
AcDbLine
 10
300.0000000000001137
 20
570.0
 30
0.0
 11
570.0
 21
570.0
 31
0.0
  0
LINE
  5
F8
100
AcDbEntity
  8
empanons
 62
256
370
-1
 48
1.0
  6
ByLayer
100
AcDbLine
 10
369.3908154474407866
 20
369.3908154474407866
 30
0.0
 11
164.0935793972903127
 21
369.3908154474407866
 31
0.0
  0
LINE
  5
F9
100
AcDbEntity
  8
empanons
 62
256
370
-1
 48
1.0
  6
ByLayer
100
AcDbLine
 10
344.3908154474407866
 20
344.3908154474407866
 30
0.0
 11
184.0935793972903127
 21
344.3908154474407866
 31
0.0
  0
MTEXT
  5
FA
100
AcDbEntity
  8
empanons
 62
256
370
-1
 48
1.0
  6
ByLayer
100
AcDbMText
 10
348.6008876706283104
 20
374.798772562239094
 30
0.0
 40
3.0
 41
3.6666682095284
 71
1
 72
1
  1
us
  7
textstyle21
 50
0.0
 73
2
 44
1.0
  0
MTEXT
  5
FB
100
AcDbEntity
  8
empanons
 62
256
370
-1
 48
1.0
  6
ByLayer
100
AcDbMText
 10
317.3324444128991786
 20
344.3908154474407866
 30
0.0
 40
3.0
 41
6.0000015428615932
 71
1
 72
1
  1
ous
  7
textstyle22
 50
0.0
 73
2
 44
1.0
  0
LINE
  5
FC
100
AcDbEntity
  8
empanons
 62
256
370
-1
 48
1.0
  6
ByLayer
100
AcDbLine
 10
144.2392402043253981
 20
354.0231691677710728
 30
0.0
 11
144.2392402043253981
 21
180.2990502554067973
 31
0.0
  0
LINE
  5
FD
100
AcDbEntity
  8
empanons
 62
256
370
-1
 48
1.0
  6
ByLayer
100
AcDbLine
 10
128.2392402043253981
 20
374.0231691677710728
 30
0.0
 11
128.2392402043253981
 21
160.2990502554067973
 31
0.0
  0
MTEXT
  5
FE
100
AcDbEntity
  8
empanons
 62
256
370
-1
 48
1.0
  6
ByLayer
100
AcDbMText
 10
120.8483077258178042
 20
177.8920893446478999
 30
0.0
 40
3.0
 41
3.6666682095284
 71
1
 72
1
  1
us
  7
textstyle19
 50
0.0
 73
2
 44
1.0
  0
MTEXT
  5
FF
100
AcDbEntity
  8
empanons
 62
256
370
-1
 48
1.0
  6
ByLayer
100
AcDbMText
 10
149.5814718004876909
 20
210.4281721939065051
 30
0.0
 40
3.0
 41
6.0000015428615932
 71
1
 72
1
  1
ous
  7
textstyle20
 50
0.0
 73
2
 44
1.0
  0
LINE
  5
100
100
AcDbEntity
  8
0_elev_A
 62
256
370
-1
 48
1.0
  6
ByLayer
100
AcDbLine
 10
300.0000000000001137
 20
335.3553390593273775
 30
0.0
 11
514.6446609406724519
 21
550.0
 31
0.0
  0
LINE
  5
101
100
AcDbEntity
  8
0_elev_B
 62
256
370
-1
 48
1.0
  6
ByLayer
100
AcDbLine
 10
167.9843788128358142
 20
250.0
 30
0.0
 11
0.0000000000000025
 21
40.0195264839553104
 31
0.0
  0
LINE
  5
102
100
AcDbEntity
  8
pannes
 62
256
370
-1
 48
1.0
  6
ByLayer
100
AcDbLine
 10
167.9843788128358142
 20
397.8611321835865056
 30
0.0
 11
89.8521374075114636
 21
335.3553390593273775
 31
0.0
  0
LINE
  5
103
100
AcDbEntity
  8
0_ch_panne_A
 62
256
370
-1
 48
1.0
  6
ByLayer
100
AcDbLine
 10
89.8521374075114636
 20
335.3553390593273775
 30
0.0
 11
300.0000000000001137
 21
335.3553390593273775
 31
0.0
  0
LINE
  5
104
100
AcDbEntity
  8
0_ch_panne_B
 62
256
370
-1
 48
1.0
  6
ByLayer
100
AcDbLine
 10
167.9843788128358142
 20
250.0
 30
0.0
 11
167.9843788128358142
 21
397.8611321835866192
 31
0.0
  0
LINE
  5
105
100
AcDbEntity
  8
pannes
 62
256
370
-1
 48
1.0
  6
ByLayer
100
AcDbLine
 10
58.1302781772114869
 20
443.2939251709556743
 30
0.0
 11
123.1625091508057039
 21
362.0036364539627129
 31
0.0
  0
LINE
  5
106
100
AcDbEntity
  8
pannes
 62
256
370
-1
 48
1.0
  6
ByLayer
100
AcDbLine
 10
85.4606865077175826
 20
501.0157475649851904
 30
0.0
 11
167.9843788128358142
 21
397.8611321835865056
 31
0.0
  0
LINE
  5
107
100
AcDbEntity
  8
pannes
 62
256
370
-1
 48
1.0
  6
ByLayer
100
AcDbLine
 10
77.736509932455192
 20
477.3371522784855756
 30
0.0
 11
151.7239807613345022
 21
384.8528137423855924
 31
0.0
  0
LINE
  5
108
100
AcDbEntity
  8
0_vue_plan
 62
256
370
-1
 48
1.0
  6
ByLayer
100
AcDbLine
 10
219.5972257210277974
 20
300.0
 30
0.0
 11
20.0
 21
549.4965321512847822
 31
0.0
  0
LINE
  5
109
100
AcDbEntity
  8
pannes
 62
256
370
-1
 48
1.0
  6
ByLayer
100
AcDbLine
 10
-3.9343232945909681
 20
452.5884149369566103
 30
0.0
 11
89.8521374075114068
 21
335.3553390593273775
 31
0.0
  0
CIRCLE
  5
10A
100
AcDbEntity
  8
pannes
 62
256
370
-1
 48
1.0
  6
ByLayer
100
AcDbCircle
 10
85.4606865077175826
 20
501.0157475649853041
 30
0.0
 40
2.0
  0
CIRCLE
  5
10B
100
AcDbEntity
  8
pannes
 62
256
370
-1
 48
1.0
  6
ByLayer
100
AcDbCircle
 10
101.0780626965782005
 20
481.4940273289092829
 30
0.0
 40
2.0
  0
CIRCLE
  5
10C
100
AcDbEntity
  8
pannes
 62
256
370
-1
 48
1.0
  6
ByLayer
100
AcDbCircle
 10
58.1302781772114869
 20
443.2939251709556743
 30
0.0
 40
2.0
  0
CIRCLE
  5
10D
100
AcDbEntity
  8
pannes
 62
256
370
-1
 48
1.0
  6
ByLayer
100
AcDbCircle
 10
73.7476543660720267
 20
423.7722049348798805
 30
0.0
 40
2.0
  0
CIRCLE
  5
10E
100
AcDbEntity
  8
pannes
 62
256
370
-1
 48
1.0
  6
ByLayer
100
AcDbCircle
 10
-3.934323294591024
 20
452.5884149369566103
 30
0.0
 40
2.0
  0
CIRCLE
  5
10F
100
AcDbEntity
  8
pannes
 62
256
370
-1
 48
1.0
  6
ByLayer
100
AcDbCircle
 10
10.2078123291398093
 20
434.9107454072928931
 30
0.0
 40
2.0
  0
CIRCLE
  5
110
100
AcDbEntity
  8
pannes
 62
256
370
-1
 48
1.0
  6
ByLayer
100
AcDbCircle
 10
77.736509932455192
 20
477.3371522784855756
 30
0.0
 40
2.0
  0
CIRCLE
  5
111
100
AcDbEntity
  8
pannes
 62
256
370
-1
 48
1.0
  6
ByLayer
100
AcDbCircle
 10
91.8696395219702708
 20
459.6594827488219153
 30
0.0
 40
2.0
  0
LINE
  5
112
100
AcDbEntity
  8
pannes
 62
256
370
-1
 48
1.0
  6
DASHEDTINY
100
AcDbLine
 10
-3.9343232945909681
 20
452.5884149369566103
 30
0.0
 11
77.9292680504347572
 21
452.5884149369566103
 31
0.0
  0
LINE
  5
113
100
AcDbEntity
  8
pannes
 62
256
370
-1
 48
1.0
  6
DASHEDTINY
100
AcDbLine
 10
10.2078123291398093
 20
434.9107454072928931
 30
0.0
 11
92.0714036741657083
 21
434.9107454072928931
 31
0.0
  0
LINE
  5
114
100
AcDbEntity
  8
pannes
 62
256
370
-1
 48
1.0
  6
DASHEDTINY
100
AcDbLine
 10
85.4606865077175826
 20
443.1741418653530786
 30
0.0
 11
85.4606865077175826
 21
501.0157475649851904
 31
0.0
  0
LINE
  5
115
100
AcDbEntity
  8
pannes
 62
256
370
-1
 48
1.0
  6
DASHEDTINY
100
AcDbLine
 10
101.0780626965782005
 20
423.6524216292772849
 30
0.0
 11
101.0780626965782005
 21
481.4940273289092829
 31
0.0
  0
LINE
  5
116
100
AcDbEntity
  8
0_vue_plan
 62
256
370
-1
 48
1.0
  6
ByLayer
100
AcDbLine
 10
262.5
 20
452.588414936956724
 30
0.0
 11
77.9292680504347572
 21
452.5884149369566103
 31
0.0
  0
LINE
  5
117
100
AcDbEntity
  8
0_vue_plan
 62
256
370
-1
 48
1.0
  6
ByLayer
100
AcDbLine
 10
262.5
 20
434.9107454072928931
 30
0.0
 11
92.0714036741657083
 21
434.9107454072928931
 31
0.0
  0
LINE
  5
118
100
AcDbEntity
  8
0_vue_plan
 62
256
370
-1
 48
1.0
  6
ByLayer
100
AcDbLine
 10
85.4606865077175826
 20
287.5
 30
0.0
 11
85.4606865077175826
 21
443.1741418653530786
 31
0.0
  0
LINE
  5
119
100
AcDbEntity
  8
0_vue_plan
 62
256
370
-1
 48
1.0
  6
ByLayer
100
AcDbLine
 10
101.0780626965782005
 20
423.6524216292772849
 30
0.0
 11
101.0780626965782005
 21
287.5
 31
0.0
  0
LINE
  5
11A
100
AcDbEntity
  8
0_vue_plan
 62
256
370
-1
 48
1.0
  6
ByLayer
100
AcDbLine
 10
164.0935793972903127
 20
369.3908154474407866
 30
0.0
 11
164.0935793972903127
 21
549.84552466929199
 31
0.0
  0
LINE
  5
11B
100
AcDbEntity
  8
0_elev_A
 62
256
370
-1
 48
1.0
  6
ByLayer
100
AcDbLine
 10
479.1806627477881761
 20
562.5
 30
0.0
 11
479.1806627477881761
 21
537.5
 31
0.0
  0
LINE
  5
11C
100
AcDbEntity
  8
0_elev_A
 62
256
370
-1
 48
1.0
  6
ByLayer
100
AcDbLine
 10
502.1446609406726225
 20
537.5
 30
0.0
 11
479.1806627477881761
 21
537.5
 31
0.0
  0
LINE
  5
11D
100
AcDbEntity
  8
0_elev_A
 62
256
370
-1
 48
1.0
  6
ByLayer
100
AcDbLine
 10
514.6446609406724519
 20
562.5
 30
0.0
 11
514.6446609406724519
 21
550.0
 31
0.0
  0
LINE
  5
11E
100
AcDbEntity
  8
0_elev_A
 62
256
370
-1
 48
1.0
  6
ByLayer
100
AcDbLine
 10
514.6446609406724519
 20
562.5
 30
0.0
 11
479.1806627477881761
 21
562.5
 31
0.0
  0
LINE
  5
11F
100
AcDbEntity
  8
0_elev_A
 62
256
370
-1
 48
1.0
  6
ByLayer
100
AcDbLine
 10
-12.4999999999999893
 20
75.0195264839553033
 30
0.0
 11
12.5000000000000107
 21
75.0195264839553033
 31
0.0
  0
LINE
  5
120
100
AcDbEntity
  8
0_elev_A
 62
256
370
-1
 48
1.0
  6
ByLayer
100
AcDbLine
 10
-12.5
 20
40.0195264839553033
 30
0.0
 11
0.0000000000000025
 21
40.0195264839553033
 31
0.0
  0
LINE
  5
121
100
AcDbEntity
  8
0_elev_A
 62
256
370
-1
 48
1.0
  6
ByLayer
100
AcDbLine
 10
12.5000000000000107
 20
75.0195264839553033
 30
0.0
 11
12.5000000000000107
 21
55.6445264839553033
 31
0.0
  0
LINE
  5
122
100
AcDbEntity
  8
0_elev_A
 62
256
370
-1
 48
1.0
  6
ByLayer
100
AcDbLine
 10
-12.4999999999999893
 20
75.0195264839553033
 30
0.0
 11
-12.5
 21
40.0195264839553033
 31
0.0
  0
ENDSEC
  0
SECTION
  2
OBJECTS
  0
DICTIONARY
  5
C
100
AcDbDictionary
280
0
281
1
  3
ACAD_GROUP
350
D
  3
ACAD_LAYOUT
350
1A
  3
ACAD_MLINESTYLE
350
17
  3
ACAD_PLOTSETTINGS
350
19
  3
ACAD_PLOTSTYLENAME
350
E
  3
AcDbVariableDictionary
350
123
  3
QCAD_OBJECTS
350
124
  0
DICTIONARY
  5
D
100
AcDbDictionary
280
0
281
1
  0
ACDBDICTIONARYWDFLT
  5
E
100
AcDbDictionary
281
1
  3
Normal
350
F
100
AcDbDictionaryWithDefault
340
F
  0
ACDBPLACEHOLDER
  5
F
  0
DICTIONARY
  5
17
100
AcDbDictionary
280
0
281
1
  3
Standard
350
18
  0
MLINESTYLE
  5
18
100
AcDbMlineStyle
  2
STANDARD
 70
0
  3

 62
256
 51
90.0
 52
90.0
 71
2
 49
0.5
 62
256
  6
BYLAYER
 49
-0.5
 62
256
  6
BYLAYER
  0
DICTIONARY
  5
19
100
AcDbDictionary
280
0
281
1
  0
DICTIONARY
  5
1A
100
AcDbDictionary
281
1
  3
Layout1
350
1E
  3
Layout2
350
26
  3
Model
350
22
  0
LAYOUT
  5
1E
100
AcDbPlotSettings
  1

  2
none_device
  4

  6

 40
0.0
 41
0.0
 42
0.0
 43
0.0
 44
0.0
 45
0.0
 46
0.0
 47
0.0
 48
0.0
 49
0.0
140
0.0
141
0.0
142
1.0
143
1.0
 70
688
 72
0
 73
0
 74
5
  7

 75
16
147
1.0
148
0.0
149
0.0
100
AcDbLayout
  1
Layout1
 70
1
 71
1
 10
0.0
 20
0.0
 11
420.0
 21
297.0
 12
0.0
 22
0.0
 32
0.0
 14
100000000000000000000.0
 24
100000000000000000000.0
 34
100000000000000000000.0
 15
-100000000000000000000.0
 25
-100000000000000000000.0
 35
-100000000000000000000.0
146
0.0
 13
0.0
 23
0.0
 33
0.0
 16
1.0
 26
0.0
 36
0.0
 17
0.0
 27
1.0
 37
0.0
 76
0
330
1B
  0
LAYOUT
  5
22
100
AcDbPlotSettings
  1

  2
none_device
  4

  6

 40
0.0
 41
0.0
 42
0.0
 43
0.0
 44
0.0
 45
0.0
 46
0.0
 47
0.0
 48
0.0
 49
0.0
140
0.0
141
0.0
142
1.0
143
1.0
 70
1712
 72
0
 73
0
 74
0
  7

 75
0
147
1.0
148
0.0
149
0.0
100
AcDbLayout
  1
Model
 70
1
 71
0
 10
0.0
 20
0.0
 11
12.0
 21
9.0
 12
0.0
 22
0.0
 32
0.0
 14
0.0
 24
0.0
 34
0.0
 15
0.0
 25
0.0
 35
0.0
146
0.0
 13
0.0
 23
0.0
 33
0.0
 16
1.0
 26
0.0
 36
0.0
 17
0.0
 27
1.0
 37
0.0
 76
0
330
1F
  0
LAYOUT
  5
26
100
AcDbPlotSettings
  1

  2
none_device
  4

  6

 40
0.0
 41
0.0
 42
0.0
 43
0.0
 44
0.0
 45
0.0
 46
0.0
 47
0.0
 48
0.0
 49
0.0
140
0.0
141
0.0
142
1.0
143
1.0
 70
688
 72
0
 73
0
 74
5
  7

 75
16
147
1.0
148
0.0
149
0.0
100
AcDbLayout
  1
Layout2
 70
1
 71
2
 10
0.0
 20
0.0
 11
12.0
 21
9.0
 12
0.0
 22
0.0
 32
0.0
 14
0.0
 24
0.0
 34
0.0
 15
0.0
 25
0.0
 35
0.0
146
0.0
 13
0.0
 23
0.0
 33
0.0
 16
1.0
 26
0.0
 36
0.0
 17
0.0
 27
1.0
 37
0.0
 76
0
330
23
  0
DICTIONARY
  5
123
100
AcDbDictionary
281
1
  3
DIMASSOC
350
126
  3
HIDETEXT
350
125
  0
DICTIONARYVAR
  5
125
100
DictionaryVariables
280
0
  1
2
  0
DICTIONARYVAR
  5
126
100
DictionaryVariables
280
0
  1
1
  0
DICTIONARY
  5
124
100
AcDbDictionary
281
1
  3
ColorSettings/BackgroundColor
350
127
  3
ColorSettings/ColorMode
350
128
  3
Grid/DisplayGrid00
350
129
  3
Grid/DisplayGrid01
350
12A
  3
Grid/DisplayGrid02
350
12B
  3
Grid/DisplayGrid03
350
12C
  3
Grid/GridSpacingX00
350
12D
  3
Grid/GridSpacingX01
350
12E
  3
Grid/GridSpacingX02
350
12F
  3
Grid/GridSpacingX03
350
130
  3
Grid/GridSpacingY00
350
131
  3
Grid/GridSpacingY01
350
132
  3
Grid/GridSpacingY02
350
133
  3
Grid/GridSpacingY03
350
134
  3
Grid/IsometricGrid00
350
135
  3
Grid/IsometricGrid01
350
136
  3
Grid/IsometricGrid02
350
137
  3
Grid/IsometricGrid03
350
138
  3
Grid/IsometricProjection00
350
139
  3
Grid/IsometricProjection01
350
13A
  3
Grid/IsometricProjection02
350
13B
  3
Grid/IsometricProjection03
350
13C
  3
Grid/MetaGridSpacingX00
350
13D
  3
Grid/MetaGridSpacingX01
350
13E
  3
Grid/MetaGridSpacingX02
350
13F
  3
Grid/MetaGridSpacingX03
350
140
  3
Grid/MetaGridSpacingY00
350
141
  3
Grid/MetaGridSpacingY01
350
142
  3
Grid/MetaGridSpacingY02
350
143
  3
Grid/MetaGridSpacingY03
350
144
  3
MultiPageSettings/Columns
350
145
  3
MultiPageSettings/GlueMarginsBottom
350
146
  3
MultiPageSettings/GlueMarginsLeft
350
147
  3
MultiPageSettings/GlueMarginsRight
350
148
  3
MultiPageSettings/GlueMarginsTop
350
149
  3
MultiPageSettings/PrintCropMarks
350
14A
  3
MultiPageSettings/Rows
350
14B
  3
PageSettings/OffsetX
350
14C
  3
PageSettings/OffsetY
350
14D
  3
PageSettings/PageOrientation
350
14E
  3
PageSettings/PaperHeight
350
14F
  3
PageSettings/PaperWidth
350
150
  3
PageSettings/Scale
350
151
  3
PageSettings/ShowPaperBorders
350
152
  3
UnitSettings/PaperUnit
350
153
  3
ViewportCenter
350
154
  3
ViewportHeight
350
155
  3
ViewportWidth
350
156
  0
XRECORD
  5
127
330
124
100
AcDbXrecord
280
1
1000
White
  0
XRECORD
  5
128
330
124
100
AcDbXrecord
280
1
1000
FullColor
  0
XRECORD
  5
129
330
124
100
AcDbXrecord
280
1
290
1
  0
XRECORD
  5
12A
330
124
100
AcDbXrecord
280
1
290
1
  0
XRECORD
  5
12B
330
124
100
AcDbXrecord
280
1
290
1
  0
XRECORD
  5
12C
330
124
100
AcDbXrecord
280
1
290
1
  0
XRECORD
  5
12D
330
124
100
AcDbXrecord
280
1
1000
auto
  0
XRECORD
  5
12E
330
124
100
AcDbXrecord
280
1
1000
auto
  0
XRECORD
  5
12F
330
124
100
AcDbXrecord
280
1
1000
auto
  0
XRECORD
  5
130
330
124
100
AcDbXrecord
280
1
1000
auto
  0
XRECORD
  5
131
330
124
100
AcDbXrecord
280
1
1000
auto
  0
XRECORD
  5
132
330
124
100
AcDbXrecord
280
1
1000
auto
  0
XRECORD
  5
133
330
124
100
AcDbXrecord
280
1
1000
auto
  0
XRECORD
  5
134
330
124
100
AcDbXrecord
280
1
1000
auto
  0
XRECORD
  5
135
330
124
100
AcDbXrecord
280
1
290
0
  0
XRECORD
  5
136
330
124
100
AcDbXrecord
280
1
290
0
  0
XRECORD
  5
137
330
124
100
AcDbXrecord
280
1
290
0
  0
XRECORD
  5
138
330
124
100
AcDbXrecord
280
1
290
0
  0
XRECORD
  5
139
330
124
100
AcDbXrecord
280
1
 90
65537
  0
XRECORD
  5
13A
330
124
100
AcDbXrecord
280
1
 90
65537
  0
XRECORD
  5
13B
330
124
100
AcDbXrecord
280
1
 90
65537
  0
XRECORD
  5
13C
330
124
100
AcDbXrecord
280
1
 90
65537
  0
XRECORD
  5
13D
330
124
100
AcDbXrecord
280
1
1000
auto
  0
XRECORD
  5
13E
330
124
100
AcDbXrecord
280
1
1000
auto
  0
XRECORD
  5
13F
330
124
100
AcDbXrecord
280
1
1000
auto
  0
XRECORD
  5
140
330
124
100
AcDbXrecord
280
1
1000
auto
  0
XRECORD
  5
141
330
124
100
AcDbXrecord
280
1
1000
auto
  0
XRECORD
  5
142
330
124
100
AcDbXrecord
280
1
1000
auto
  0
XRECORD
  5
143
330
124
100
AcDbXrecord
280
1
1000
auto
  0
XRECORD
  5
144
330
124
100
AcDbXrecord
280
1
1000
auto
  0
XRECORD
  5
145
330
124
100
AcDbXrecord
280
1
 90
1
  0
XRECORD
  5
146
330
124
100
AcDbXrecord
280
1
 40
0.5
  0
XRECORD
  5
147
330
124
100
AcDbXrecord
280
1
 40
0.5
  0
XRECORD
  5
148
330
124
100
AcDbXrecord
280
1
 40
0.5
  0
XRECORD
  5
149
330
124
100
AcDbXrecord
280
1
 40
0.5
  0
XRECORD
  5
14A
330
124
100
AcDbXrecord
280
1
290
0
  0
XRECORD
  5
14B
330
124
100
AcDbXrecord
280
1
 90
1
  0
XRECORD
  5
14C
330
124
100
AcDbXrecord
280
1
 40
0.0
  0
XRECORD
  5
14D
330
124
100
AcDbXrecord
280
1
 40
0.0
  0
XRECORD
  5
14E
330
124
100
AcDbXrecord
280
1
1000
Portrait
  0
XRECORD
  5
14F
330
124
100
AcDbXrecord
280
1
 40
11.6929999999999996
  0
XRECORD
  5
150
330
124
100
AcDbXrecord
280
1
 40
8.2680000000000007
  0
XRECORD
  5
151
330
124
100
AcDbXrecord
280
1
1000
1" = 1"
  0
XRECORD
  5
152
330
124
100
AcDbXrecord
280
1
290
1
  0
XRECORD
  5
153
330
124
100
AcDbXrecord
280
1
 90
1
  0
XRECORD
  5
155
330
124
100
AcDbXrecord
280
1
 40
1236.9518090879339525
  0
XRECORD
  5
156
330
124
100
AcDbXrecord
280
1
 40
2060.2856630865271654
  0
ENDSEC
  0
EOF
