999
dxflib 3.17.0.0
  0
SECTION
  2
HEADER
  9
$ACADVER
  1
AC1015
  9
$HANDSEED
  5
FFFF
  9
$ANGBASE
 50
0.0
  9
$ANGDIR
 70
0
  9
$ATTMODE
 70
0
  9
$AUNITS
 70
0
  9
$AUPREC
 70
2
  9
$CECOLOR
 62
256
  9
$CELTSCALE
 40
1.0
  9
$CHAMFERA
 40
0.0
  9
$CHAMFERB
 40
0.0
  9
$CHAMFERC
 40
0.0
  9
$CHAMFERD
 40
0.0
  9
$CMLJUST
 70
0
  9
$CMLSCALE
 40
20.0
  9
$DIMADEC
 70
0
  9
$DIMALT
 70
0
  9
$DIMALTD
 70
3
  9
$DIMALTF
 40
0.03937
  9
$DIMALTRND
 40
0.0
  9
$DIMALTTD
 70
3
  9
$DIMALTTZ
 70
0
  9
$DIMALTU
 70
2
  9
$DIMALTZ
 70
0
  9
$DIMAPOST
  1

  9
$DIMASZ
 40
2.5
  9
$DIMATFIT
 70
3
  9
$DIMAUNIT
 70
0
  9
$DIMAZIN
 70
0
  9
$DIMBLK
  1

  9
$DIMBLK1
  1

  9
$DIMBLK2
  1

  9
$DIMCEN
 40
2.5
  9
$DIMCLRD
 70
0
  9
$DIMCLRE
 70
0
  9
$DIMCLRT
 70
0
  9
$DIMDEC
 70
2
  9
$DIMDLE
 40
0.0
  9
$DIMDLI
 40
3.75
  9
$DIMDSEP
 70
44
  9
$DIMEXE
 40
1.25
  9
$DIMEXO
 40
0.625
  9
$DIMFRAC
 70
0
  9
$DIMGAP
 40
0.625
  9
$DIMJUST
 70
0
  9
$DIMLDRBLK
  1
STANDARD
  9
$DIMLFAC
 40
1.0
  9
$DIMLIM
 70
0
  9
$DIMLUNIT
 70
2
  9
$DIMLWD
 70
-2
  9
$DIMLWE
 70
-2
  9
$DIMPOST
  1

  9
$DIMRND
 40
0.0
  9
$DIMSAH
 70
0
  9
$DIMSCALE
 40
2.5
  9
$DIMSD1
 70
0
  9
$DIMSD2
 70
0
  9
$DIMSE1
 70
0
  9
$DIMSE2
 70
0
  9
$DIMSOXD
 70
0
  9
$DIMTAD
 70
1
  9
$DIMTDEC
 70
2
  9
$DIMTFAC
 40
1.0
  9
$DIMTIH
 70
0
  9
$DIMTIX
 70
0
  9
$DIMTM
 40
0.0
  9
$DIMTOFL
 70
1
  9
$DIMTOH
 70
0
  9
$DIMTOL
 70
0
  9
$DIMTOLJ
 70
0
  9
$DIMTP
 40
0.0
  9
$DIMTSZ
 40
0.0
  9
$DIMTVP
 40
0.0
  9
$DIMTXSTY
  7
STANDARD
  9
$DIMTXT
 40
2.5
  9
$DIMTZIN
 70
8
  9
$DIMUPT
 70
0
  9
$DIMZIN
 70
8
  9
$DISPSILH
 70
0
  9
$DWGCODEPAGE
  3
ANSI_1252
  9
$ELEVATION
 40
0.0
  9
$EXTMAX
 10
800.0
 20
420.1538393355696144
 30
0.0
  9
$EXTMIN
 10
-281.3982890650116815
 20
-43.3683278075119176
 30
0.0
  9
$FILLETRAD
 40
0.0
  9
$FILLMODE
 70
1
  9
$INSBASE
 10
0.0
 20
0.0
 30
0.0
  9
$INSUNITS
 70
4
  9
$LIMCHECK
 70
0
  9
$LIMMAX
 10
420.0
 20
297.0
  9
$LIMMIN
 10
0.0
 20
0.0
  9
$LTSCALE
 40
1.0
  9
$LUNITS
 70
2
  9
$LUPREC
 70
4
  9
$MAXACTVP
 70
64
  9
$MEASUREMENT
 70
1
  9
$MIRRTEXT
 70
0
  9
$ORTHOMODE
 70
0
  9
$PDMODE
 70
34
  9
$PDSIZE
 40
0.0
  9
$PELEVATION
 40
0.0
  9
$PEXTMAX
 10
0.0
 20
0.0
 30
0.0
  9
$PEXTMIN
 10
0.0
 20
0.0
 30
0.0
  9
$PINSBASE
 10
0.0
 20
0.0
 30
0.0
  9
$PLIMCHECK
 70
0
  9
$PLIMMAX
 10
210.0
 20
297.0
  9
$PLIMMIN
 10
0.0
 20
0.0
  9
$PLINEGEN
 70
0
  9
$PLINEWID
 40
0.0
  9
$PROXYGRAPHICS
 70
1
  9
$PSLTSCALE
 70
1
  9
$PUCSNAME
  2

  9
$PUCSORG
 10
0.0
 20
0.0
 30
0.0
  9
$PUCSXDIR
 10
1.0
 20
0.0
 30
0.0
  9
$PUCSYDIR
 10
0.0
 20
1.0
 30
0.0
  9
$QTEXTMODE
 70
0
  9
$REGENMODE
 70
1
  9
$SHADEDGE
 70
3
  9
$SHADEDIF
 70
70
  9
$SKETCHINC
 40
1.0
  9
$SKPOLY
 70
0
  9
$SPLFRAME
 70
0
  9
$SPLINESEGS
 70
8
  9
$SPLINETYPE
 70
2
  9
$SURFTAB1
 70
6
  9
$SURFTAB2
 70
6
  9
$SURFTYPE
 70
6
  9
$SURFU
 70
6
  9
$SURFV
 70
6
  9
$TEXTSIZE
 40
2.5
  9
$TEXTSTYLE
  7
STANDARD
  9
$THICKNESS
 40
0.0
  9
$TILEMODE
 70
1
  9
$TRACEWID
 40
15.6799999999999997
  9
$TREEDEPTH
 70
3020
  9
$UCSNAME
  2

  9
$UCSORG
 10
0.0
 20
0.0
 30
0.0
  9
$UCSXDIR
 10
1.0
 20
0.0
 30
0.0
  9
$UCSYDIR
 10
0.0
 20
1.0
 30
0.0
  9
$UNITMODE
 70
0
  9
$USERI1
 70
0
  9
$USERI2
 70
0
  9
$USERI3
 70
0
  9
$USERI4
 70
0
  9
$USERI5
 70
0
  9
$USERR1
 40
0.0
  9
$USERR2
 40
0.0
  9
$USERR3
 40
0.0
  9
$USERR4
 40
0.0
  9
$USERR5
 40
0.0
  9
$USRTIMER
 70
1
  9
$VISRETAIN
 70
1
  0
ENDSEC
  0
SECTION
  2
TABLES
  0
TABLE
  2
VPORT
  5
8
100
AcDbSymbolTable
 70
1
  0
VPORT
  5
30
100
AcDbSymbolTableRecord
100
AcDbViewportTableRecord
  2
*Active
 70
0
 10
0.0
 20
0.0
 11
1.0
 21
1.0
 12
286.3055555555554861
 22
148.5
 13
0.0
 23
0.0
 14
10.0
 24
10.0
 15
10.0
 25
10.0
 16
0.0
 26
0.0
 36
1.0
 17
0.0
 27
0.0
 37
0.0
 40
297.0
 41
1.92798353909465
 42
50.0
 43
0.0
 44
0.0
 50
0.0
 51
0.0
 71
0
 72
100
 73
1
 74
3
 75
1
 76
1
 77
0
 78
0
281
0
 65
1
110
0.0
120
0.0
130
0.0
111
1.0
121
0.0
131
0.0
112
0.0
122
1.0
132
0.0
 79
0
146
0.0
  0
ENDTAB
  0
TABLE
  2
LTYPE
  5
5
100
AcDbSymbolTable
 70
27
  0
LTYPE
  5
16
100
AcDbSymbolTableRecord
100
AcDbLinetypeTableRecord
  2
Continuous
 70
0
  3
Solid line
 72
65
 73
0
 40
0.0
  0
LTYPE
  5
31
100
AcDbSymbolTableRecord
100
AcDbLinetypeTableRecord
  2
CENTER2
 70
0
  3
Center (.5x) ___ _ ___ _ ___ _ ___ _ ___ _ ___
 72
65
 73
4
 40
28.5750000000000028
 49
19.0500000000000007
 74
0
 49
-3.1749999999999998
 74
0
 49
3.1749999999999998
 74
0
 49
-3.1749999999999998
 74
0
  0
LTYPE
  5
14
100
AcDbSymbolTableRecord
100
AcDbLinetypeTableRecord
  2
ByBlock
 70
0
  3

 72
65
 73
0
 40
0.0
  0
LTYPE
  5
32
100
AcDbSymbolTableRecord
100
AcDbLinetypeTableRecord
  2
BORDERX2
 70
0
  3
Border (2x) ____  ____  .  ____  ____  .  ___
 72
65
 73
6
 40
88.8999999999999773
 49
25.3999999999999986
 74
0
 49
-12.6999999999999993
 74
0
 49
25.3999999999999986
 74
0
 49
-12.6499999999999986
 74
0
 49
0.1
 74
0
 49
-12.6499999999999986
 74
0
  0
LTYPE
  5
33
100
AcDbSymbolTableRecord
100
AcDbLinetypeTableRecord
  2
CENTERX2
 70
0
  3
Center (2x) ________  __  ________  __  _____
 72
65
 73
4
 40
101.6000000000000085
 49
63.5
 74
0
 49
-12.6999999999999993
 74
0
 49
12.6999999999999993
 74
0
 49
-12.6999999999999993
 74
0
  0
LTYPE
  5
34
100
AcDbSymbolTableRecord
100
AcDbLinetypeTableRecord
  2
CENTERTINY
 70
0
  3
Center (.15x) ___ _ ___ _ ___ _ ___ _ ___ _ ___
 72
65
 73
4
 40
7.6199999999999992
 49
4.7625000000000002
 74
0
 49
-0.9525
 74
0
 49
0.9525
 74
0
 49
-0.9525
 74
0
  0
LTYPE
  5
35
100
AcDbSymbolTableRecord
100
AcDbLinetypeTableRecord
  2
DASHDOTTINY
 70
0
  3
Dash dot (.15x) _._._._._._._._._._._._._._._.
 72
65
 73
4
 40
3.8100000000000001
 49
1.905
 74
0
 49
-0.9025
 74
0
 49
0.1
 74
0
 49
-0.9025
 74
0
  0
LTYPE
  5
36
100
AcDbSymbolTableRecord
100
AcDbLinetypeTableRecord
  2
DIVIDETINY
 70
0
  3
Divide (.15x) __..__..__..__..__..__..__..__.._
 72
65
 73
6
 40
4.7625000000000002
 49
1.905
 74
0
 49
-0.9025
 74
0
 49
0.1
 74
0
 49
-0.8524999999999999
 74
0
 49
0.1
 74
0
 49
-0.9025
 74
0
  0
LTYPE
  5
37
100
AcDbSymbolTableRecord
100
AcDbLinetypeTableRecord
  2
DASHDOT2
 70
0
  3
Dash dot (.5x) _._._._._._._._._._._._._._._.
 72
65
 73
4
 40
12.6999999999999993
 49
6.3499999999999996
 74
0
 49
-3.125
 74
0
 49
0.1
 74
0
 49
-3.125
 74
0
  0
LTYPE
  5
38
100
AcDbSymbolTableRecord
100
AcDbLinetypeTableRecord
  2
DIVIDEX2
 70
0
  3
Divide (2x) ________  .  .  ________  .  .  _
 72
65
 73
6
 40
63.5
 49
25.3999999999999986
 74
0
 49
-12.6499999999999986
 74
0
 49
0.1
 74
0
 49
-12.5999999999999979
 74
0
 49
0.1
 74
0
 49
-12.6499999999999986
 74
0
  0
LTYPE
  5
39
100
AcDbSymbolTableRecord
100
AcDbLinetypeTableRecord
  2
DASHEDX2
 70
0
  3
Dashed (2x) ____  ____  ____  ____  ____  ___
 72
65
 73
2
 40
38.0999999999999943
 49
25.3999999999999986
 74
0
 49
-12.6999999999999993
 74
0
  0
LTYPE
  5
3A
100
AcDbSymbolTableRecord
100
AcDbLinetypeTableRecord
  2
BORDER2
 70
0
  3
Border (.5x) __.__.__.__.__.__.__.__.__.__.__.
 72
65
 73
6
 40
22.2250000000000014
 49
6.3499999999999996
 74
0
 49
-3.1749999999999998
 74
0
 49
6.3499999999999996
 74
0
 49
-3.125
 74
0
 49
0.1
 74
0
 49
-3.125
 74
0
  0
LTYPE
  5
3B
100
AcDbSymbolTableRecord
100
AcDbLinetypeTableRecord
  2
DASHED
 70
0
  3
Dashed _ _ _ _ _ _ _ _ _ _ _ _ _ _ _ _ _
 72
65
 73
2
 40
19.0499999999999972
 49
12.6999999999999993
 74
0
 49
-6.3499999999999996
 74
0
  0
LTYPE
  5
3C
100
AcDbSymbolTableRecord
100
AcDbLinetypeTableRecord
  2
BORDERTINY
 70
0
  3
Border (.15x) __.__.__.__.__.__.__.__.__.__.__.
 72
65
 73
6
 40
6.6674999999999995
 49
1.905
 74
0
 49
-0.9525
 74
0
 49
1.905
 74
0
 49
-0.9025
 74
0
 49
0.1
 74
0
 49
-0.9025
 74
0
  0
LTYPE
  5
3D
100
AcDbSymbolTableRecord
100
AcDbLinetypeTableRecord
  2
DOT2
 70
0
  3
Dot (.5x) .....................................
 72
65
 73
2
 40
3.1749999999999998
 49
0.1
 74
0
 49
-3.0749999999999997
 74
0
  0
LTYPE
  5
3E
100
AcDbSymbolTableRecord
100
AcDbLinetypeTableRecord
  2
DIVIDE
 70
0
  3
Divide ____ . . ____ . . ____ . . ____ . . ____
 72
65
 73
6
 40
31.7500000000000036
 49
12.6999999999999993
 74
0
 49
-6.2999999999999998
 74
0
 49
0.1
 74
0
 49
-6.25
 74
0
 49
0.1
 74
0
 49
-6.2999999999999998
 74
0
  0
LTYPE
  5
3F
100
AcDbSymbolTableRecord
100
AcDbLinetypeTableRecord
  2
DIVIDE2
 70
0
  3
Divide (.5x) __..__..__..__..__..__..__..__.._
 72
65
 73
6
 40
15.8749999999999982
 49
6.3499999999999996
 74
0
 49
-3.125
 74
0
 49
0.1
 74
0
 49
-3.0750000000000002
 74
0
 49
0.1
 74
0
 49
-3.125
 74
0
  0
LTYPE
  5
40
100
AcDbSymbolTableRecord
100
AcDbLinetypeTableRecord
  2
DOTTINY
 70
0
  3
Dot (.15x) .....................................
 72
65
 73
2
 40
0.9525
 49
0.1
 74
0
 49
-0.8525
 74
0
  0
LTYPE
  5
41
100
AcDbSymbolTableRecord
100
AcDbLinetypeTableRecord
  2
DASHDOT
 70
0
  3
Dash dot __ . __ . __ . __ . __ . __ . __ . __
 72
65
 73
4
 40
25.4000000000000021
 49
12.6999999999999993
 74
0
 49
-6.2999999999999998
 74
0
 49
0.1
 74
0
 49
-6.2999999999999998
 74
0
  0
LTYPE
  5
42
100
AcDbSymbolTableRecord
100
AcDbLinetypeTableRecord
  2
DASHEDTINY
 70
0
  3
Dashed (.15x) _ _ _ _ _ _ _ _ _ _ _ _ _ _ _ _ _
 72
65
 73
2
 40
2.8574999999999999
 49
1.905
 74
0
 49
-0.9525
 74
0
  0
LTYPE
  5
43
100
AcDbSymbolTableRecord
100
AcDbLinetypeTableRecord
  2
DASHED2
 70
0
  3
Dashed (.5x) _ _ _ _ _ _ _ _ _ _ _ _ _ _ _ _ _
 72
65
 73
2
 40
9.5249999999999986
 49
6.3499999999999996
 74
0
 49
-3.1749999999999998
 74
0
  0
LTYPE
  5
15
100
AcDbSymbolTableRecord
100
AcDbLinetypeTableRecord
  2
ByLayer
 70
0
  3

 72
65
 73
0
 40
0.0
  0
LTYPE
  5
44
100
AcDbSymbolTableRecord
100
AcDbLinetypeTableRecord
  2
BORDER
 70
0
  3
Border __ __ . __ __ . __ __ . __ __ . __ __ .
 72
65
 73
6
 40
44.4499999999999957
 49
12.6999999999999993
 74
0
 49
-6.3499999999999996
 74
0
 49
12.6999999999999993
 74
0
 49
-6.2999999999999998
 74
0
 49
0.1
 74
0
 49
-6.2999999999999998
 74
0
  0
LTYPE
  5
45
100
AcDbSymbolTableRecord
100
AcDbLinetypeTableRecord
  2
DASHDOTX2
 70
0
  3
Dash dot (2x) ____  .  ____  .  ____  .  ___
 72
65
 73
4
 40
50.7999999999999972
 49
25.3999999999999986
 74
0
 49
-12.6499999999999986
 74
0
 49
0.1
 74
0
 49
-12.6499999999999986
 74
0
  0
LTYPE
  5
46
100
AcDbSymbolTableRecord
100
AcDbLinetypeTableRecord
  2
DOTX2
 70
0
  3
Dot (2x) .  .  .  .  .  .  .  .  .  .  .  .  .
 72
65
 73
2
 40
12.6999999999999993
 49
0.1
 74
0
 49
-12.5999999999999996
 74
0
  0
LTYPE
  5
47
100
AcDbSymbolTableRecord
100
AcDbLinetypeTableRecord
  2
CENTER
 70
0
  3
Center ____ _ ____ _ ____ _ ____ _ ____ _ ____
 72
65
 73
4
 40
50.8000000000000043
 49
31.75
 74
0
 49
-6.3499999999999996
 74
0
 49
6.3499999999999996
 74
0
 49
-6.3499999999999996
 74
0
  0
LTYPE
  5
48
100
AcDbSymbolTableRecord
100
AcDbLinetypeTableRecord
  2
DOT
 70
0
  3
Dot . . . . . . . . . . . . . . . . . . . . . .
 72
65
 73
2
 40
6.3499999999999996
 49
0.1
 74
0
 49
-6.25
 74
0
  0
ENDTAB
  0
TABLE
  2
LAYER
  5
2
100
AcDbSymbolTable
 70
12
  0
LAYER
  5
49
100
AcDbSymbolTableRecord
100
AcDbLayerTableRecord
  2
coupe_empanon
 70
0
 62
1
420
16711680
  6
Continuous
370
0
390
F
  0
LAYER
  5
10
100
AcDbSymbolTableRecord
100
AcDbLayerTableRecord
  2
0
 70
0
 62
7
420
16777215
  6
DASHDOTTINY
370
0
390
F
  0
LAYER
  5
4A
100
AcDbSymbolTableRecord
100
AcDbLayerTableRecord
  2
barbe_empanon
 70
0
 62
1
420
16711680
  6
Continuous
370
0
390
F
  0
LAYER
  5
4B
100
AcDbSymbolTableRecord
100
AcDbLayerTableRecord
  2
0_elevation_noue
 70
0
 62
7
420
16777215
  6
Continuous
370
0
390
F
  0
LAYER
  5
4C
100
AcDbSymbolTableRecord
100
AcDbLayerTableRecord
  2
coupe_poin\U+00e7on
 70
0
 62
1
420
16711680
  6
Continuous
370
0
390
F
  0
LAYER
  5
4D
100
AcDbSymbolTableRecord
100
AcDbLayerTableRecord
  2
0_chambree_panne
 70
0
 62
3
420
65280
  6
Continuous
370
0
390
F
  0
LAYER
  5
4E
100
AcDbSymbolTableRecord
100
AcDbLayerTableRecord
  2
engueulement_noue
 70
0
 62
1
420
16711680
  6
Continuous
370
0
390
F
  0
LAYER
  5
4F
100
AcDbSymbolTableRecord
100
AcDbLayerTableRecord
  2
0_elevation_ce
 70
0
 62
7
420
16777215
  6
Continuous
370
0
390
F
  0
LAYER
  5
50
100
AcDbSymbolTableRecord
100
AcDbLayerTableRecord
  2
faitage
 70
0
 62
1
420
16711680
  6
Continuous
370
0
390
F
  0
LAYER
  5
51
100
AcDbSymbolTableRecord
100
AcDbLayerTableRecord
  2
0_chambree_chevron
 70
0
 62
94
420
32768
  6
Continuous
370
0
390
F
  0
LAYER
  5
52
100
AcDbSymbolTableRecord
100
AcDbLayerTableRecord
  2
coupe_panne
 70
0
 62
1
420
16711680
  6
Continuous
370
0
390
F
  0
LAYER
  5
53
100
AcDbSymbolTableRecord
100
AcDbLayerTableRecord
  2
0_vue_plan
 70
0
 62
7
420
16777215
  6
Continuous
370
0
390
F
  0
ENDTAB
  0
TABLE
  2
STYLE
  5
3
100
AcDbSymbolTable
 70
24
  0
STYLE
  5
54
100
AcDbSymbolTableRecord
100
AcDbTextStyleTableRecord
  2
Standard
 70
0
 40
0.0
 41
1.0
 50
0.0
 71
0
 42
2.5
  3

  4

1001
ACAD
1000
txt
1071
0
  0
STYLE
  5
55
100
AcDbSymbolTableRecord
100
AcDbTextStyleTableRecord
  2
textstyle0
 70
0
 40
0.0
 41
1.0
 50
0.0
 71
0
 42
4.0
  3

  4

1001
ACAD
1000

1071
0
  0
STYLE
  5
56
100
AcDbSymbolTableRecord
100
AcDbTextStyleTableRecord
  2
textstyle1
 70
0
 40
0.0
 41
1.0
 50
0.0
 71
0
 42
5.0
  3

  4

1001
ACAD
1000
standard
1071
0
  0
STYLE
  5
57
100
AcDbSymbolTableRecord
100
AcDbTextStyleTableRecord
  2
textstyle2
 70
0
 40
0.0
 41
1.0
 50
0.0
 71
0
 42
5.0
  3

  4

1001
ACAD
1000
standard
1071
0
  0
STYLE
  5
58
100
AcDbSymbolTableRecord
100
AcDbTextStyleTableRecord
  2
textstyle3
 70
0
 40
0.0
 41
1.0
 50
0.0
 71
0
 42
5.0
  3

  4

1001
ACAD
1000
standard
1071
0
  0
STYLE
  5
59
100
AcDbSymbolTableRecord
100
AcDbTextStyleTableRecord
  2
textstyle4
 70
0
 40
0.0
 41
1.0
 50
0.0
 71
0
 42
5.0
  3

  4

1001
ACAD
1000
standard
1071
0
  0
STYLE
  5
5A
100
AcDbSymbolTableRecord
100
AcDbTextStyleTableRecord
  2
textstyle5
 70
0
 40
0.0
 41
1.0
 50
0.0
 71
0
 42
5.0
  3

  4

1001
ACAD
1000
standard
1071
0
  0
STYLE
  5
5B
100
AcDbSymbolTableRecord
100
AcDbTextStyleTableRecord
  2
textstyle6
 70
0
 40
0.0
 41
1.0
 50
0.0
 71
0
 42
5.0
  3

  4

1001
ACAD
1000
standard
1071
0
  0
STYLE
  5
5C
100
AcDbSymbolTableRecord
100
AcDbTextStyleTableRecord
  2
textstyle7
 70
0
 40
0.0
 41
1.0
 50
0.0
 71
0
 42
5.0
  3

  4

1001
ACAD
1000
standard
1071
0
  0
STYLE
  5
5D
100
AcDbSymbolTableRecord
100
AcDbTextStyleTableRecord
  2
textstyle8
 70
0
 40
0.0
 41
1.0
 50
0.0
 71
0
 42
5.0
  3

  4

1001
ACAD
1000
standard
1071
0
  0
STYLE
  5
5E
100
AcDbSymbolTableRecord
100
AcDbTextStyleTableRecord
  2
textstyle9
 70
0
 40
0.0
 41
1.0
 50
0.0
 71
0
 42
5.0
  3

  4

1001
ACAD
1000
standard
1071
0
  0
STYLE
  5
5F
100
AcDbSymbolTableRecord
100
AcDbTextStyleTableRecord
  2
textstyle10
 70
0
 40
0.0
 41
1.0
 50
0.0
 71
0
 42
5.0
  3

  4

1001
ACAD
1000
standard
1071
0
  0
STYLE
  5
60
100
AcDbSymbolTableRecord
100
AcDbTextStyleTableRecord
  2
textstyle11
 70
0
 40
0.0
 41
1.0
 50
0.0
 71
0
 42
5.0
  3

  4

1001
ACAD
1000
standard
1071
0
  0
STYLE
  5
61
100
AcDbSymbolTableRecord
100
AcDbTextStyleTableRecord
  2
textstyle12
 70
0
 40
0.0
 41
1.0
 50
0.0
 71
0
 42
5.0
  3

  4

1001
ACAD
1000
standard
1071
0
  0
STYLE
  5
62
100
AcDbSymbolTableRecord
100
AcDbTextStyleTableRecord
  2
textstyle13
 70
0
 40
0.0
 41
1.0
 50
0.0
 71
0
 42
5.0
  3

  4

1001
ACAD
1000
standard
1071
0
  0
STYLE
  5
63
100
AcDbSymbolTableRecord
100
AcDbTextStyleTableRecord
  2
textstyle14
 70
0
 40
0.0
 41
1.0
 50
0.0
 71
0
 42
5.0
  3

  4

1001
ACAD
1000
standard
1071
0
  0
STYLE
  5
64
100
AcDbSymbolTableRecord
100
AcDbTextStyleTableRecord
  2
textstyle15
 70
0
 40
0.0
 41
1.0
 50
0.0
 71
0
 42
5.0
  3

  4

1001
ACAD
1000
standard
1071
0
  0
STYLE
  5
65
100
AcDbSymbolTableRecord
100
AcDbTextStyleTableRecord
  2
textstyle16
 70
0
 40
0.0
 41
1.0
 50
0.0
 71
0
 42
5.0
  3

  4

1001
ACAD
1000
standard
1071
0
  0
STYLE
  5
66
100
AcDbSymbolTableRecord
100
AcDbTextStyleTableRecord
  2
textstyle17
 70
0
 40
0.0
 41
1.0
 50
0.0
 71
0
 42
5.0
  3

  4

1001
ACAD
1000
standard
1071
0
  0
STYLE
  5
67
100
AcDbSymbolTableRecord
100
AcDbTextStyleTableRecord
  2
textstyle18
 70
0
 40
0.0
 41
1.0
 50
0.0
 71
0
 42
5.0
  3

  4

1001
ACAD
1000
standard
1071
0
  0
STYLE
  5
68
100
AcDbSymbolTableRecord
100
AcDbTextStyleTableRecord
  2
textstyle19
 70
0
 40
0.0
 41
1.0
 50
0.0
 71
0
 42
5.0
  3

  4

1001
ACAD
1000
standard
1071
0
  0
STYLE
  5
69
100
AcDbSymbolTableRecord
100
AcDbTextStyleTableRecord
  2
textstyle20
 70
0
 40
0.0
 41
1.0
 50
0.0
 71
0
 42
5.0
  3

  4

1001
ACAD
1000
standard
1071
0
  0
STYLE
  5
6A
100
AcDbSymbolTableRecord
100
AcDbTextStyleTableRecord
  2
textstyle21
 70
0
 40
0.0
 41
1.0
 50
0.0
 71
0
 42
5.0
  3

  4

1001
ACAD
1000
standard
1071
0
  0
STYLE
  5
6B
100
AcDbSymbolTableRecord
100
AcDbTextStyleTableRecord
  2
textstyle22
 70
0
 40
0.0
 41
1.0
 50
0.0
 71
0
 42
5.0
  3

  4

1001
ACAD
1000
standard
1071
0
  0
ENDTAB
  0
TABLE
  2
VIEW
  5
6
100
AcDbSymbolTable
 70
0
  0
ENDTAB
  0
TABLE
  2
UCS
  5
7
100
AcDbSymbolTable
 70
0
  0
ENDTAB
  0
TABLE
  2
APPID
  5
9
100
AcDbSymbolTable
 70
1
  0
APPID
  5
12
100
AcDbSymbolTableRecord
100
AcDbRegAppTableRecord
  2
ACAD
 70
0
  0
APPID
  5
6C
100
AcDbSymbolTableRecord
100
AcDbRegAppTableRecord
  2
QCAD
 70
0
  0
ENDTAB
  0
TABLE
  2
DIMSTYLE
  5
A
100
AcDbSymbolTable
 70
1
100
AcDbDimStyleTable
 71
0
  0
DIMSTYLE
105
27
100
AcDbSymbolTableRecord
100
AcDbDimStyleTableRecord
  2
Standard
 41
2.5
 42
0.625
 43
3.75
 44
1.25
 70
0
 73
0
 74
0
 77
1
 78
8
140
2.5
141
2.5
143
0.03937007874016
147
0.625
171
3
172
1
271
2
272
2
274
3
278
44
283
0
284
8
340
54
  0
ENDTAB
  0
TABLE
  2
BLOCK_RECORD
  5
1
100
AcDbSymbolTable
 70
1
  0
BLOCK_RECORD
  5
1F
100
AcDbSymbolTableRecord
100
AcDbBlockTableRecord
  2
*Model_Space
340
22
  0
BLOCK_RECORD
  5
1B
100
AcDbSymbolTableRecord
100
AcDbBlockTableRecord
  2
*Paper_Space
340
1E
  0
BLOCK_RECORD
  5
23
100
AcDbSymbolTableRecord
100
AcDbBlockTableRecord
  2
*Paper_Space0
340
26
  0
ENDTAB
  0
ENDSEC
  0
SECTION
  2
BLOCKS
  0
BLOCK
  5
20
100
AcDbEntity
  8
0
100
AcDbBlockBegin
  2
*Model_Space
 70
0
 10
0.0
 20
0.0
 30
0.0
  3
*Model_Space
  1

  0
ENDBLK
  5
21
100
AcDbEntity
  8
0
100
AcDbBlockEnd
  0
BLOCK
  5
1C
100
AcDbEntity
 67
1
  8
0
100
AcDbBlockBegin
  2
*Paper_Space
 70
0
 10
0.0
 20
0.0
 30
0.0
  3
*Paper_Space
  1

  0
ENDBLK
  5
1D
100
AcDbEntity
 67
1
  8
0
100
AcDbBlockEnd
  0
BLOCK
  5
24
100
AcDbEntity
  8
0
100
AcDbBlockBegin
  2
*Paper_Space0
 70
0
 10
0.0
 20
0.0
 30
0.0
  3
*Paper_Space0
  1

  0
ENDBLK
  5
25
100
AcDbEntity
  8
0
100
AcDbBlockEnd
  0
ENDSEC
  0
SECTION
  2
ENTITIES
  0
LINE
  5
6D
100
AcDbEntity
  8
0
 62
256
370
-1
 48
1.0
  6
ByLayer
100
AcDbLine
 10
0.0
 20
0.0
 30
0.0
 11
800.0
 21
0.0
 31
0.0
  0
LINE
  5
6E
100
AcDbEntity
  8
0
 62
256
370
-1
 48
1.0
  6
ByLayer
100
AcDbLine
 10
0.0
 20
300.0
 30
0.0
 11
800.0
 21
300.0
 31
0.0
  0
LINE
  5
6F
100
AcDbEntity
  8
0
 62
256
370
-1
 48
1.0
  6
ByLayer
100
AcDbLine
 10
350.0
 20
0.0
 30
0.0
 11
350.0
 21
300.0
 31
0.0
  0
LINE
  5
70
100
AcDbEntity
  8
0
 62
256
370
-1
 48
1.0
  6
ByLayer
100
AcDbLine
 10
400.0
 20
0.0
 30
0.0
 11
400.0
 21
300.0
 31
0.0
  0
LINE
  5
71
100
AcDbEntity
  8
0_vue_plan
 62
256
370
-1
 48
1.0
  6
ByLayer
100
AcDbLine
 10
325.0
 20
275.0
 30
0.0
 11
325.0
 21
325.0
 31
0.0
  0
LINE
  5
72
100
AcDbEntity
  8
0_vue_plan
 62
256
370
-1
 48
1.0
  6
ByLayer
100
AcDbLine
 10
325.0
 20
325.0
 30
0.0
 11
375.0
 21
325.0
 31
0.0
  0
LINE
  5
73
100
AcDbEntity
  8
0_vue_plan
 62
256
370
-1
 48
1.0
  6
ByLayer
100
AcDbLine
 10
325.0
 20
275.0
 30
0.0
 11
375.0
 21
275.0
 31
0.0
  0
LINE
  5
74
100
AcDbEntity
  8
0_vue_plan
 62
256
370
-1
 48
1.0
  6
ByLayer
100
AcDbLine
 10
375.0
 20
275.0
 30
0.0
 11
375.0
 21
325.0
 31
0.0
  0
LINE
  5
75
100
AcDbEntity
  8
0
 62
256
370
-1
 48
1.0
  6
ByLayer
100
AcDbLine
 10
0.0
 20
0.0
 30
0.0
 11
0.0000000000000184
 21
300.0
 31
0.0
  0
LINE
  5
76
100
AcDbEntity
  8
0
 62
256
370
-1
 48
1.0
  6
ByLayer
100
AcDbLine
 10
700.0
 20
0.0
 30
0.0
 11
700.0
 21
300.0
 31
0.0
  0
LINE
  5
77
100
AcDbEntity
  8
0_vue_plan
 62
256
370
-1
 48
1.0
  6
ByLayer
100
AcDbLine
 10
-24.9999999999999893
 20
275.0
 30
0.0
 11
-24.9999999999999787
 21
325.0
 31
0.0
  0
LINE
  5
78
100
AcDbEntity
  8
0_vue_plan
 62
256
370
-1
 48
1.0
  6
ByLayer
100
AcDbLine
 10
-24.9999999999999893
 20
275.0
 30
0.0
 11
25.0000000000000213
 21
275.0
 31
0.0
  0
LINE
  5
79
100
AcDbEntity
  8
0_vue_plan
 62
256
370
-1
 48
1.0
  6
ByLayer
100
AcDbLine
 10
25.0000000000000213
 20
275.0
 30
0.0
 11
25.0000000000000213
 21
325.0
 31
0.0
  0
LINE
  5
7A
100
AcDbEntity
  8
0_vue_plan
 62
256
370
-1
 48
1.0
  6
ByLayer
100
AcDbLine
 10
-24.9999999999999787
 20
325.0
 30
0.0
 11
25.0000000000000213
 21
325.0
 31
0.0
  0
LINE
  5
7B
100
AcDbEntity
  8
0_elevation_ce
 62
256
370
-1
 48
1.0
  6
ByLayer
100
AcDbLine
 10
400.0
 20
325.0
 30
0.0
 11
725.0
 21
325.0
 31
0.0
  0
LINE
  5
7C
100
AcDbEntity
  8
0_elevation_ce
 62
256
370
-1
 48
1.0
  6
ByLayer
100
AcDbLine
 10
400.0
 20
325.0
 30
0.0
 11
400.0
 21
275.0
 31
0.0
  0
LINE
  5
7D
100
AcDbEntity
  8
0_elevation_ce
 62
256
370
-1
 48
1.0
  6
ByLayer
100
AcDbLine
 10
400.0
 20
275.0
 30
0.0
 11
675.0
 21
275.0
 31
0.0
  0
LINE
  5
7E
100
AcDbEntity
  8
0_elevation_ce
 62
256
370
-1
 48
1.0
  6
ByLayer
100
AcDbLine
 10
400.0
 20
134.3499999999999943
 30
0.0
 11
540.6499999999999773
 21
275.0
 31
0.0
  0
LINE
  5
7F
100
AcDbEntity
  8
0_elevation_ce
 62
256
370
-1
 48
1.0
  6
ByLayer
100
AcDbLine
 10
400.0
 20
134.3499999999999943
 30
0.0
 11
400.0
 21
84.852800000000002
 31
0.0
  0
LINE
  5
80
100
AcDbEntity
  8
0_elevation_ce
 62
256
370
-1
 48
1.0
  6
ByLayer
100
AcDbLine
 10
400.0
 20
84.852800000000002
 30
0.0
 11
590.1470000000000482
 21
275.0
 31
0.0
  0
LINE
  5
81
100
AcDbEntity
  8
0_elevation_ce
 62
256
370
-1
 48
1.0
  6
ByLayer
100
AcDbLine
 10
528.5800000000000409
 20
163.9350000000000023
 30
0.0
 11
503.8310000000000173
 21
188.6839999999999975
 31
0.0
  0
LINE
  5
82
100
AcDbEntity
  8
0_elevation_ce
 62
256
370
-1
 48
1.0
  6
ByLayer
100
AcDbLine
 10
510.9019999999999868
 20
146.257000000000005
 30
0.0
 11
486.15300000000002
 21
171.0060000000000002
 31
0.0
  0
LINE
  5
83
100
AcDbEntity
  8
0_elevation_ce
 62
256
370
-1
 48
1.0
  6
ByLayer
100
AcDbLine
 10
400.0
 20
35.3552999999999997
 30
0.0
 11
639.6449999999999818
 21
275.0
 31
0.0
  0
LINE
  5
84
100
AcDbEntity
  8
0_elevation_ce
 62
256
370
-1
 48
1.0
  6
ByLayer
100
AcDbLine
 10
400.0
 20
35.3552999999999997
 30
0.0
 11
400.0
 21
0.0
 31
0.0
  0
LINE
  5
85
100
AcDbEntity
  8
0_elevation_ce
 62
256
370
-1
 48
1.0
  6
ByLayer
100
AcDbLine
 10
400.0
 20
0.0
 30
0.0
 11
725.0
 21
325.0
 31
0.0
  0
LINE
  5
86
100
AcDbEntity
  8
0_elevation_ce
 62
256
370
-1
 48
1.0
  6
ByLayer
100
AcDbLine
 10
453.2029999999999745
 20
138.0560000000000116
 30
0.0
 11
508.9080000000000155
 21
148.2510000000000048
 31
0.0
  0
LINE
  5
87
100
AcDbEntity
  8
0_vue_plan
 62
256
370
-1
 48
1.0
  6
ByLayer
100
AcDbLine
 10
360.0
 20
-0.0000000000000024
 30
0.0
 11
360.0
 21
275.0
 31
0.0
  0
LINE
  5
88
100
AcDbEntity
  8
0_vue_plan
 62
256
370
-1
 48
1.0
  6
ByLayer
100
AcDbLine
 10
340.0
 20
0.0000000000000012
 30
0.0
 11
340.0
 21
275.0
 31
0.0
  0
LINE
  5
89
100
AcDbEntity
  8
0_vue_plan
 62
256
370
-1
 48
1.0
  6
ByLayer
100
AcDbLine
 10
337.5
 20
84.852800000000002
 30
0.0
 11
337.5
 21
275.0
 31
0.0
  0
LINE
  5
8A
100
AcDbEntity
  8
0_vue_plan
 62
256
370
-1
 48
1.0
  6
ByLayer
100
AcDbLine
 10
362.5
 20
84.852800000000002
 30
0.0
 11
362.5
 21
275.0
 31
0.0
  0
LINE
  5
8B
100
AcDbEntity
  8
0_vue_plan
 62
256
370
-1
 48
1.0
  6
ByLayer
100
AcDbLine
 10
337.5
 20
134.3499999999999943
 30
0.0
 11
362.5
 21
134.3499999999999943
 31
0.0
  0
LINE
  5
8C
100
AcDbEntity
  8
0_vue_plan
 62
256
370
-1
 48
1.0
  6
ByLayer
100
AcDbLine
 10
337.5
 20
84.852800000000002
 30
0.0
 11
362.5
 21
84.852800000000002
 31
0.0
  0
LINE
  5
8D
100
AcDbEntity
  8
0_vue_plan
 62
256
370
-1
 48
1.0
  6
ByLayer
100
AcDbLine
 10
340.0
 20
35.3552999999999997
 30
0.0
 11
360.0
 21
35.3552999999999926
 31
0.0
  0
LINE
  5
8E
100
AcDbEntity
  8
0_vue_plan
 62
256
370
-1
 48
1.0
  6
ByLayer
100
AcDbLine
 10
340.0
 20
0.0000000000000012
 30
0.0
 11
360.0
 21
0.0
 31
0.0
  0
LINE
  5
8F
100
AcDbEntity
  8
0_vue_plan
 62
256
370
-1
 48
1.0
  6
ByLayer
100
AcDbLine
 10
25.0000000000000213
 20
312.5
 30
0.0
 11
325.0
 21
312.5
 31
0.0
  0
LINE
  5
90
100
AcDbEntity
  8
0_vue_plan
 62
256
370
-1
 48
1.0
  6
ByLayer
100
AcDbLine
 10
25.0000000000000213
 20
287.5
 30
0.0
 11
325.0
 21
287.5
 31
0.0
  0
LINE
  5
91
100
AcDbEntity
  8
0_vue_plan
 62
256
370
-1
 48
1.0
  6
ByLayer
100
AcDbLine
 10
299.0009736455780853
 20
8.6736655130116542
 30
0.0
 11
25.0
 21
293.0142985414418035
 31
0.0
  0
LINE
  5
92
100
AcDbEntity
  8
0_vue_plan
 62
256
370
-1
 48
1.0
  6
ByLayer
100
AcDbLine
 10
280.9990263544219147
 20
-8.6736655130116738
 30
0.0
 11
7.6407668600651846
 21
275.0
 31
0.0
  0
LINE
  5
93
100
AcDbEntity
  8
0_vue_plan
 62
256
370
-1
 48
1.0
  6
ByLayer
100
AcDbLine
 10
25.0000000000000213
 20
300.0
 30
0.0
 11
325.0
 21
300.0
 31
0.0
  0
LINE
  5
94
100
AcDbEntity
  8
0_vue_plan
 62
256
370
-1
 48
1.0
  6
ByLayer
100
AcDbLine
 10
230.0
 20
62.2641509433962526
 30
0.0
 11
230.0
 21
300.0
 31
0.0
  0
LINE
  5
95
100
AcDbEntity
  8
0_vue_plan
 62
256
370
-1
 48
1.0
  6
ByLayer
100
AcDbLine
 10
250.0
 20
41.5094339622641826
 30
0.0
 11
250.0
 21
300.0
 31
0.0
  0
LINE
  5
96
100
AcDbEntity
  8
0_vue_plan
 62
256
370
-1
 48
1.0
  6
ByLayer
100
AcDbLine
 10
230.0
 20
62.2641509433962597
 30
0.0
 11
250.0
 21
41.5094339622641471
 31
0.0
  0
LINE
  5
97
100
AcDbEntity
  8
0_vue_plan
 62
256
370
-1
 48
1.0
  6
ByLayer
100
AcDbLine
 10
362.5
 20
171.0059453086585108
 30
0.0
 11
142.5716858425003011
 21
171.0059453086585108
 31
0.0
  0
LINE
  5
98
100
AcDbEntity
  8
0_vue_plan
 62
256
370
-1
 48
1.0
  6
ByLayer
100
AcDbLine
 10
362.5
 20
188.6839546056710049
 30
0.0
 11
125.5365132471972061
 21
188.6839546056710901
 31
0.0
  0
LINE
  5
99
100
AcDbEntity
  8
0_vue_plan
 62
256
370
-1
 48
1.0
  6
ByLayer
100
AcDbLine
 10
362.5
 20
146.2570805836220131
 30
0.0
 11
166.4205918502626957
 21
146.2570805836220131
 31
0.0
  0
LINE
  5
9A
100
AcDbEntity
  8
0_vue_plan
 62
256
370
-1
 48
1.0
  6
ByLayer
100
AcDbLine
 10
362.5
 20
163.9350695184978974
 30
0.0
 11
149.3854388766550016
 21
163.9350695184978974
 31
0.0
  0
LINE
  5
9B
100
AcDbEntity
  8
0_vue_plan
 62
256
370
-1
 48
1.0
  6
ByLayer
100
AcDbLine
 10
90.0
 20
207.5471698113207992
 30
0.0
 11
90.0
 21
300.0
 31
0.0
  0
LINE
  5
9C
100
AcDbEntity
  8
0_vue_plan
 62
256
370
-1
 48
1.0
  6
ByLayer
100
AcDbLine
 10
110.0
 20
186.7924528301888074
 30
0.0
 11
110.0
 21
300.0
 31
0.0
  0
LINE
  5
9D
100
AcDbEntity
  8
0_vue_plan
 62
256
370
-1
 48
1.0
  6
ByLayer
100
AcDbLine
 10
90.0
 20
207.5471698113207992
 30
0.0
 11
110.0
 21
186.7924528301888074
 31
0.0
  0
LINE
  5
9E
100
AcDbEntity
  8
0_elevation_noue
 62
256
370
-1
 48
1.0
  6
ByLayer
100
AcDbLine
 10
253.9961044112760078
 20
-34.6946610076573307
 30
0.0
 11
-59.1856955887239522
 21
290.3053389923426266
 31
0.0
  0
LINE
  5
9F
100
AcDbEntity
  8
0_elevation_noue
 62
256
370
-1
 48
1.0
  6
ByLayer
100
AcDbLine
 10
-275.6219926822918751
 20
81.7394648105016586
 30
0.0
 11
253.9961044112760078
 21
-34.6946610076573307
 31
0.0
  0
LINE
  5
A0
100
AcDbEntity
  8
0_elevation_noue
 62
256
370
-1
 48
1.0
  6
ByLayer
100
AcDbLine
 10
-59.1856955887239522
 20
290.3053389923426266
 30
0.0
 11
-275.6219926822918751
 21
81.7394648105016586
 31
0.0
  0
LINE
  5
A1
100
AcDbEntity
  8
0_chambree_panne
 62
256
370
-1
 48
1.0
  6
ByLayer
100
AcDbLine
 10
225.5919895035711988
 20
84.8527999999999736
 30
0.0
 11
180.5871222274458034
 21
41.4844758698521971
 31
0.0
  0
LINE
  5
A2
100
AcDbEntity
  8
0_chambree_panne
 62
256
370
-1
 48
1.0
  6
ByLayer
100
AcDbLine
 10
273.289580412662076
 20
35.3553000000000068
 30
0.0
 11
228.2847117007293036
 21
-8.0130255137439352
 31
0.0
  0
LINE
  5
A3
100
AcDbEntity
  8
0_chambree_panne
 62
256
370
-1
 48
1.0
  6
ByLayer
100
AcDbLine
 10
400.0
 20
84.8527999999999878
 30
0.0
 11
225.5919895035711988
 21
84.8528000000000162
 31
0.0
  0
LINE
  5
A4
100
AcDbEntity
  8
0_chambree_panne
 62
256
370
-1
 48
1.0
  6
ByLayer
100
AcDbLine
 10
400.0
 20
35.3552999999999926
 30
0.0
 11
273.289580412662076
 21
35.3553000000000068
 31
0.0
  0
LINE
  5
A5
100
AcDbEntity
  8
0_chambree_panne
 62
256
370
-1
 48
1.0
  6
ByLayer
100
AcDbLine
 10
-224.8898994467465116
 20
130.6267518175044131
 30
0.0
 11
180.5871222274458034
 21
41.4844758698522469
 31
0.0
  0
LINE
  5
A6
100
AcDbEntity
  8
0_chambree_panne
 62
256
370
-1
 48
1.0
  6
ByLayer
100
AcDbLine
 10
-257.8531484155136013
 20
98.8621682916994615
 30
0.0
 11
228.2847117007293036
 21
-8.0130255137439352
 31
0.0
  0
LINE
  5
A7
100
AcDbEntity
  8
0_chambree_chevron
 62
256
370
-1
 48
1.0
  6
ByLayer
100
AcDbLine
 10
400.0
 20
35.3552999999999926
 30
0.0
 11
273.289580412662076
 21
35.3553000000000068
 31
0.0
  0
LINE
  5
A8
100
AcDbEntity
  8
0_chambree_chevron
 62
256
370
-1
 48
1.0
  6
ByLayer
100
AcDbLine
 10
400.0
 20
-0.0
 30
0.0
 11
307.3592331399348154
 21
0.0000000000000113
 31
0.0
  0
LINE
  5
A9
100
AcDbEntity
  8
0_chambree_chevron
 62
256
370
-1
 48
1.0
  6
ByLayer
100
AcDbLine
 10
307.3592331399348154
 20
0.0000000000000113
 30
0.0
 11
262.3543646604413198
 21
-43.3683278075119176
 31
0.0
  0
LINE
  5
AA
100
AcDbEntity
  8
0_chambree_chevron
 62
256
370
-1
 48
1.0
  6
ByLayer
100
AcDbLine
 10
273.289580412662076
 20
35.3552999999999997
 30
0.0
 11
228.2847117007293036
 21
-8.0130255137439352
 31
0.0
  0
LINE
  5
AB
100
AcDbEntity
  8
0_chambree_chevron
 62
256
370
-1
 48
1.0
  6
ByLayer
100
AcDbLine
 10
-281.3982890650116815
 20
76.1732158921210925
 30
0.0
 11
262.3543646604413198
 21
-43.3683278075119176
 31
0.0
  0
LINE
  5
AC
100
AcDbEntity
  8
0_chambree_chevron
 62
256
370
-1
 48
1.0
  6
ByLayer
100
AcDbLine
 10
-257.8531484155136013
 20
98.8621682916994615
 30
0.0
 11
228.2847117007293036
 21
-8.0130255137439352
 31
0.0
  0
LINE
  5
AD
100
AcDbEntity
  8
engueulement_noue
 62
256
370
-1
 48
1.0
  6
ByLayer
100
AcDbLine
 10
42.3592331399347017
 20
275.0000000000001137
 30
0.0
 11
-180.0077434594005865
 21
60.7191077171146105
 31
0.0
  0
LINE
  5
AE
100
AcDbEntity
  8
engueulement_noue
 62
256
370
-1
 48
1.0
  6
ByLayer
100
AcDbLine
 10
25.0
 20
275.0
 30
0.0
 11
24.3572999999999986
 21
257.65300000000002
 31
0.0
  0
LINE
  5
AF
100
AcDbEntity
  8
engueulement_noue
 62
256
370
-1
 48
1.0
  6
ByLayer
100
AcDbLine
 10
25.0
 20
275.0
 30
0.0
 11
42.3592000000000013
 21
275.0
 31
0.0
  0
LINE
  5
B0
100
AcDbEntity
  8
0_elevation_noue
 62
256
370
-1
 48
1.0
  6
ByLayer
100
AcDbLine
 10
-224.8899999999999864
 20
130.6270000000000095
 30
0.0
 11
180.5869999999999891
 21
41.484499999999997
 31
0.0
  0
LINE
  5
B1
100
AcDbEntity
  8
engueulement_noue
 62
256
370
-1
 48
1.0
  6
ByLayer
100
AcDbLine
 10
25.0000136497594703
 20
293.0142843765971179
 30
0.0
 11
-209.3640000000000043
 21
67.1728999999999985
 31
0.0
  0
MTEXT
  5
B2
100
AcDbEntity
  8
engueulement_noue
 62
1
420
16711680
370
-1
 48
1.0
  6
ByLayer
100
AcDbMText
 10
5.2886389425012128
 20
271.4834657150623229
 30
0.0
 40
5.0
 41
5.0
 71
1
 72
1
  1
1o
  7
textstyle16
 50
0.0
 73
2
 44
1.0
  0
MTEXT
  5
B3
100
AcDbEntity
  8
engueulement_noue
 62
1
420
16711680
370
-1
 48
1.0
  6
ByLayer
100
AcDbMText
 10
23.5050619666720593
 20
252.0917895925578023
 30
0.0
 40
5.0
 41
6.1111111111111116
 71
1
 72
1
  1
2o
  7
textstyle17
 50
0.0
 73
2
 44
1.0
  0
MTEXT
  5
B4
100
AcDbEntity
  8
engueulement_noue
 62
1
420
16711680
370
-1
 48
1.0
  6
ByLayer
100
AcDbMText
 10
43.8641576127143082
 20
277.9416959888055771
 30
0.0
 40
5.0
 41
5.0
 71
1
 72
1
  1
1u
  7
textstyle18
 50
0.0
 73
2
 44
1.0
  0
MTEXT
  5
B5
100
AcDbEntity
  8
engueulement_noue
 62
1
420
16711680
370
-1
 48
1.0
  6
ByLayer
100
AcDbMText
 10
28.5034049608562796
 20
296.694533456185809
 30
0.0
 40
5.0
 41
6.1111111111111116
 71
1
 72
1
  1
2o
  7
textstyle12
 50
0.0
 73
2
 44
1.0
  0
MTEXT
  5
B6
100
AcDbEntity
  8
engueulement_noue
 62
1
420
16711680
370
-1
 48
1.0
  6
ByLayer
100
AcDbMText
 10
-183.1127833848948967
 20
54.4155912889074429
 30
0.0
 40
5.0
 41
16.6666666666666607
 71
1
 72
1
  1
2o/1u
  7
textstyle14
 50
0.0
 73
2
 44
1.0
  0
MTEXT
  5
B7
100
AcDbEntity
  8
engueulement_noue
 62
1
420
16711680
370
-1
 48
1.0
  6
ByLayer
100
AcDbMText
 10
-217.2304953834955938
 20
63.4848565037253394
 30
0.0
 40
5.0
 41
16.6666666666666714
 71
1
 72
1
  1
2u/1o
  7
textstyle15
 50
0.0
 73
2
 44
1.0
  0
LINE
  5
B8
100
AcDbEntity
  8
faitage
 62
256
370
-1
 48
1.0
  6
ByLayer
100
AcDbLine
 10
687.5
 20
287.5
 30
0.0
 11
700.0
 21
300.0
 31
0.0
  0
LINE
  5
B9
100
AcDbEntity
  8
faitage
 62
256
370
-1
 48
1.0
  6
ByLayer
100
AcDbLine
 10
664.645031296331581
 20
312.5
 30
0.0
 11
700.0
 21
312.5
 31
0.0
  0
LINE
  5
BA
100
AcDbEntity
  8
faitage
 62
256
370
-1
 48
1.0
  6
ByLayer
100
AcDbLine
 10
664.645031296331581
 20
287.5
 30
0.0
 11
664.645031296331581
 21
312.5
 31
0.0
  0
LINE
  5
BB
100
AcDbEntity
  8
faitage
 62
256
370
-1
 48
1.0
  6
ByLayer
100
AcDbLine
 10
664.645031296331581
 20
287.5
 30
0.0
 11
687.5
 21
287.5
 31
0.0
  0
LINE
  5
BC
100
AcDbEntity
  8
faitage
 62
256
370
-1
 48
1.0
  6
ByLayer
100
AcDbLine
 10
700.0
 20
300.0
 30
0.0
 11
700.0
 21
312.5
 31
0.0
  0
MTEXT
  5
BD
100
AcDbEntity
  8
coupe_panne
 62
256
370
-1
 48
1.0
  6
ByLayer
100
AcDbMText
 10
499.5844751181908805
 20
194.8823810181507099
 30
0.0
 40
5.0
 41
1.1111111111111109
 71
1
 72
1
  1
1
  7
textstyle19
 50
0.0
 73
2
 44
1.0
  0
MTEXT
  5
BE
100
AcDbEntity
  8
coupe_panne
 62
256
370
-1
 48
1.0
  6
ByLayer
100
AcDbMText
 10
124.5851233597303036
 20
195.9936696756732033
 30
0.0
 40
5.0
 41
1.1111111111111109
 71
1
 72
1
  1
1
  7
textstyle20
 50
0.0
 73
2
 44
1.0
  0
MTEXT
  5
BF
100
AcDbEntity
  8
coupe_panne
 62
256
370
-1
 48
1.0
  6
ByLayer
100
AcDbMText
 10
481.6278549394451147
 20
175.1028715513282066
 30
0.0
 40
5.0
 41
2.2222222222222219
 71
1
 72
1
  1
2
  7
textstyle21
 50
0.0
 73
2
 44
1.0
  0
MTEXT
  5
C0
100
AcDbEntity
  8
coupe_panne
 62
256
370
-1
 48
1.0
  6
ByLayer
100
AcDbMText
 10
142.0574272455461085
 20
177.0020350171778034
 30
0.0
 40
5.0
 41
2.2222222222222219
 71
1
 72
1
  1
2
  7
textstyle22
 50
0.0
 73
2
 44
1.0
  0
MTEXT
  5
C1
100
AcDbEntity
  8
coupe_panne
 62
256
370
-1
 48
1.0
  6
ByLayer
100
AcDbMText
 10
145.4759214840752861
 20
164.0877234494008121
 30
0.0
 40
5.0
 41
2.2222222222225319
 71
1
 72
1
  1
3
  7
textstyle4
 50
0.0
 73
2
 44
1.0
  0
MTEXT
  5
C2
100
AcDbEntity
  8
coupe_panne
 62
256
370
-1
 48
1.0
  6
ByLayer
100
AcDbMText
 10
532.5254358242128774
 20
163.3280580630610075
 30
0.0
 40
5.0
 41
2.2222222222225319
 71
1
 72
1
  1
3
  7
textstyle5
 50
0.0
 73
2
 44
1.0
  0
MTEXT
  5
C3
100
AcDbEntity
  8
coupe_panne
 62
256
370
-1
 48
1.0
  6
ByLayer
100
AcDbMText
 10
510.874972313528076
 20
143.196925325055787
 30
0.0
 40
5.0
 41
2.7777777777777781
 71
1
 72
1
  1
4
  7
textstyle6
 50
0.0
 73
2
 44
1.0
  0
MTEXT
  5
C4
100
AcDbEntity
  8
coupe_panne
 62
256
370
-1
 48
1.0
  6
ByLayer
100
AcDbMText
 10
167.8860503810998921
 20
140.1582637796965116
 30
0.0
 40
5.0
 41
2.7777777777777781
 71
1
 72
1
  1
4
  7
textstyle7
 50
0.0
 73
2
 44
1.0
  0
LINE
  5
C5
100
AcDbEntity
  8
coupe_empanon
 62
256
370
-1
 48
1.0
  6
ByLayer
100
AcDbLine
 10
459.5237325037059009
 20
59.5237325037058866
 30
0.0
 11
250.0
 21
59.5237325037059222
 31
0.0
  0
LINE
  5
C6
100
AcDbEntity
  8
coupe_empanon
 62
256
370
-1
 48
1.0
  6
ByLayer
100
AcDbLine
 10
480.2784494848378927
 20
80.2784494848379495
 30
0.0
 11
230.0
 21
80.2784494848379921
 31
0.0
  0
LINE
  5
C7
100
AcDbEntity
  8
0_vue_plan
 62
256
370
-1
 48
1.0
  6
DOTTINY
100
AcDbLine
 10
255.9303492506460884
 20
35.3553000000000068
 30
0.0
 11
-23.1817999999999991
 21
325.0
 31
0.0
  0
LINE
  5
C8
100
AcDbEntity
  8
barbe_empanon
 62
256
370
-1
 48
1.0
  6
ByLayer
100
AcDbLine
 10
290.0000010255749885
 20
0.0000009882813927
 30
0.0
 11
230.0
 21
62.2641529959535021
 31
0.0
  0
MTEXT
  5
C9
100
AcDbEntity
  8
coupe_empanon
 62
256
370
-1
 48
1.0
  6
ByLayer
100
AcDbMText
 10
458.9378853651039094
 20
85.2784494848379495
 30
0.0
 40
5.0
 41
2.222222222222455
 71
1
 72
1
  1
u
  7
textstyle11
 50
0.0
 73
2
 44
1.0
  0
MTEXT
  5
CA
100
AcDbEntity
  8
coupe_empanon
 62
256
370
-1
 48
1.0
  6
ByLayer
100
AcDbMText
 10
435.1594793287412131
 20
59.3699487264205814
 30
0.0
 40
5.0
 41
2.2222222222222219
 71
1
 72
1
  1
o
  7
textstyle13
 50
0.0
 73
2
 44
1.0
  0
LINE
  5
CB
100
AcDbEntity
  8
barbe_empanon
 62
256
370
-1
 48
1.0
  6
ByLayer
100
AcDbLine
 10
462.2641509433962028
 20
62.2641509433962312
 30
0.0
 11
230.0000034833090865
 21
62.2641509433962526
 31
0.0
  0
LINE
  5
CC
100
AcDbEntity
  8
barbe_empanon
 62
256
370
-1
 48
1.0
  6
ByLayer
100
AcDbLine
 10
441.5094363721008222
 20
41.5094363721007724
 30
0.0
 11
250.0
 21
41.5094363721008008
 31
0.0
  0
LINE
  5
CD
100
AcDbEntity
  8
barbe_empanon
 62
256
370
-1
 48
1.0
  6
ByLayer
100
AcDbLine
 10
290.0000010255749885
 20
0.000000988281372
 30
0.0
 11
307.3592331399348154
 21
0.0000000000000113
 31
0.0
  0
MTEXT
  5
CE
100
AcDbEntity
  8
barbe_empanon
 62
256
370
-1
 48
1.0
  6
ByLayer
100
AcDbMText
 10
441.5094363721008222
 20
41.5094363721007724
 30
0.0
 40
5.0
 41
7.2222222222222223
 71
1
 72
1
  1
Ao
  7
textstyle8
 50
0.0
 73
2
 44
1.0
  0
MTEXT
  5
CF
100
AcDbEntity
  8
barbe_empanon
 62
256
370
-1
 48
1.0
  6
ByLayer
100
AcDbMText
 10
462.2641509433962028
 20
62.2641509433962312
 30
0.0
 40
5.0
 41
7.2222222222222223
 71
1
 72
1
  1
Au
  7
textstyle9
 50
0.0
 73
2
 44
1.0
  0
MTEXT
  5
D0
100
AcDbEntity
  8
barbe_empanon
 62
256
370
-1
 48
1.0
  6
ByLayer
100
AcDbMText
 10
236.2694095390777136
 20
62.2641509433962526
 30
0.0
 40
5.0
 41
3.333333333333333
 71
1
 72
1
  1
A
  7
textstyle10
 50
0.0
 73
2
 44
1.0
  0
LINE
  5
D1
100
AcDbEntity
  8
barbe_empanon
 62
256
370
-1
 48
1.0
  6
ByLayer
100
AcDbLine
 10
326.6894622641506771
 20
35.3552999999999997
 30
0.0
 11
290.0000010255749885
 21
0.0000009882813933
 31
0.0
  0
LEADER
  5
D2
100
AcDbEntity
  8
barbe_empanon
 62
256
370
-1
 48
1.0
  6
ByLayer
100
AcDbLeader
  3
Standard
 71
1
 72
0
 73
3
 74
0
 75
0
 40
1.0
 41
10.0
 76
2
 10
326.6894622641506771
 20
35.3552999999999997
 10
253.9961044112760078
 20
-34.6946610076573307
1001
ACAD
1000
DSTYLE
1002
{
1070
40
1040
2.5
1002
}
  0
LEADER
  5
D3
100
AcDbEntity
  8
barbe_empanon
 62
256
370
-1
 48
1.0
  6
ByLayer
100
AcDbLeader
  3
Standard
 71
1
 72
0
 73
3
 74
0
 75
0
 40
1.0
 41
10.0
 76
2
 10
290.0000010255749885
 20
0.000000988281372
 10
307.3592331399348154
 20
0.0000000000000113
1001
ACAD
1000
DSTYLE
1002
{
1070
40
1040
2.5
1002
}
  0
LEADER
  5
D4
100
AcDbEntity
  8
barbe_empanon
 62
256
370
-1
 48
1.0
  6
ByLayer
100
AcDbLeader
  3
Standard
 71
1
 72
0
 73
3
 74
0
 75
0
 40
1.0
 41
10.0
 76
2
 10
230.0000034833090865
 20
62.2641509433962526
 10
289.9999999706128051
 20
0.0000009882814321
1001
ACAD
1000
DSTYLE
1002
{
1070
40
1040
2.5
1002
}
  0
LINE
  5
D5
100
AcDbEntity
  8
barbe_empanon
 62
256
370
-1
 48
1.0
  6
ByLayer
100
AcDbLine
 10
326.6894622641507908
 20
35.3552999999998789
 30
0.0
 11
230.0
 21
135.6934212175148957
 31
0.0
  0
LEADER
  5
D6
100
AcDbEntity
  8
barbe_empanon
 62
256
370
-1
 48
1.0
  6
ByLayer
100
AcDbLeader
  3
Standard
 71
1
 72
0
 73
3
 74
0
 75
0
 40
1.0
 41
10.0
 76
2
 10
230.0
 20
135.6934212175148957
 10
326.6894622641506771
 20
35.3553000000000068
1001
ACAD
1000
DSTYLE
1002
{
1070
40
1040
2.5
1002
}
  0
MTEXT
  5
D7
100
AcDbEntity
  8
barbe_empanon
 62
256
370
-1
 48
1.0
  6
ByLayer
100
AcDbMText
 10
239.0105580754855907
 20
132.7161548652950955
 30
0.0
 40
5.0
 41
2.7777777777777781
 71
1
 72
1
  1
B
  7
textstyle1
 50
0.0
 73
2
 44
1.0
  0
LEADER
  5
D8
100
AcDbEntity
  8
barbe_empanon
 62
256
370
-1
 48
1.0
  6
ByLayer
100
AcDbLeader
  3
Standard
 71
1
 72
0
 73
3
 74
0
 75
0
 40
1.0
 41
10.0
 76
2
 10
462.2641509433962028
 20
62.2641509433962312
 10
426.9088846293291226
 20
62.2641509433962383
1001
ACAD
1000
DSTYLE
1002
{
1070
40
1040
2.5
1002
}
  0
LEADER
  5
D9
100
AcDbEntity
  8
barbe_empanon
 62
256
370
-1
 48
1.0
  6
ByLayer
100
AcDbLeader
  3
Standard
 71
1
 72
0
 73
3
 74
0
 75
0
 40
1.0
 41
10.0
 76
2
 10
441.5094363721008222
 20
41.5094363721007724
 10
406.1541440761765216
 20
41.5094363721007795
1001
ACAD
1000
DSTYLE
1002
{
1070
40
1040
2.5
1002
}
  0
LEADER
  5
DA
100
AcDbEntity
  8
barbe_empanon
 62
256
370
-1
 48
1.0
  6
ByLayer
100
AcDbLeader
  3
Standard
 71
1
 72
0
 73
3
 74
0
 75
0
 40
1.0
 41
10.0
 76
2
 10
479.5835038631270777
 20
114.9387042363828044
 10
430.0858725915264245
 20
114.9387042363828044
1001
ACAD
1000
DSTYLE
1002
{
1070
40
1040
2.5
1002
}
  0
LEADER
  5
DB
100
AcDbEntity
  8
barbe_empanon
 62
256
370
-1
 48
1.0
  6
ByLayer
100
AcDbLeader
  3
Standard
 71
1
 72
0
 73
3
 74
0
 75
0
 40
1.0
 41
10.0
 76
2
 10
500.3382468261194163
 20
135.6934212175148105
 10
450.840567742500582
 20
135.6934212175148957
1001
ACAD
1000
DSTYLE
1002
{
1070
40
1040
2.5
1002
}
  0
MTEXT
  5
DC
100
AcDbEntity
  8
barbe_empanon
 62
256
370
-1
 48
1.0
  6
ByLayer
100
AcDbMText
 10
495.0834053780674822
 20
142.9106737173802912
 30
0.0
 40
5.0
 41
6.666666666666667
 71
1
 72
1
  1
Bu
  7
textstyle3
 50
0.0
 73
2
 44
1.0
  0
MTEXT
  5
DD
100
AcDbEntity
  8
barbe_empanon
 62
256
370
-1
 48
1.0
  6
ByLayer
100
AcDbMText
 10
473.0971478830858814
 20
121.3170279633804967
 30
0.0
 40
5.0
 41
6.666666666666667
 71
1
 72
1
  1
Bo
  7
textstyle2
 50
0.0
 73
2
 44
1.0
  0
LINE
  5
DE
100
AcDbEntity
  8
barbe_empanon
 62
256
370
-1
 48
1.0
  6
ByLayer
100
AcDbLine
 10
479.5835038631270777
 20
114.9387042363828044
 30
0.0
 11
441.5094363721008222
 21
41.5094363721007724
 31
0.0
  0
LINE
  5
DF
100
AcDbEntity
  8
barbe_empanon
 62
256
370
-1
 48
1.0
  6
ByLayer
100
AcDbLine
 10
500.3382468261194163
 20
135.6934212175148105
 30
0.0
 11
462.2641509433962028
 21
62.2641509433962312
 31
0.0
  0
LINE
  5
E0
100
AcDbEntity
  8
barbe_empanon
 62
256
370
-1
 48
1.0
  6
ByLayer
100
AcDbLine
 10
500.3382468261194163
 20
135.6934212175148105
 30
0.0
 11
230.0
 21
135.6934212175148957
 31
0.0
  0
LINE
  5
E1
100
AcDbEntity
  8
barbe_empanon
 62
256
370
-1
 48
1.0
  6
ByLayer
100
AcDbLine
 10
479.5835038631270777
 20
114.9387042363828044
 30
0.0
 11
250.0
 21
114.9387042363828044
 31
0.0
  0
POINT
  5
E2
100
AcDbEntity
  8
coupe_poin\U+00e7on
 62
256
370
-1
 48
1.0
  6
ByLayer
100
AcDbPoint
 10
0.0
 20
408.7637302620304922
 30
0.0
  0
LEADER
  5
E3
100
AcDbEntity
  8
coupe_poin\U+00e7on
 62
256
370
-1
 48
1.0
  6
ByLayer
100
AcDbLeader
  3
Standard
 71
1
 72
0
 73
3
 74
0
 75
0
 40
1.0
 41
10.0
 76
2
 10
-24.9999999999999787
 20
325.0
 10
0.0
 20
408.7637302620304922
1001
ACAD
1000
DSTYLE
1002
{
1070
40
1040
2.5
1002
}
  0
LEADER
  5
E4
100
AcDbEntity
  8
coupe_poin\U+00e7on
 62
256
370
-1
 48
1.0
  6
ByLayer
100
AcDbLeader
  3
Standard
 71
1
 72
0
 73
3
 74
0
 75
0
 40
1.0
 41
10.0
 76
2
 10
25.0000000000000213
 20
325.0
 10
0.0
 20
408.7637302620304922
1001
ACAD
1000
DSTYLE
1002
{
1070
40
1040
2.5
1002
}
  0
LEADER
  5
E5
100
AcDbEntity
  8
coupe_poin\U+00e7on
 62
256
370
-1
 48
1.0
  6
ByLayer
100
AcDbLeader
  3
Standard
 71
1
 72
0
 73
3
 74
0
 75
0
 40
1.0
 41
10.0
 76
2
 10
-24.9999999999999893
 20
275.0
 10
0.0
 20
408.7637302620304922
1001
ACAD
1000
DSTYLE
1002
{
1070
40
1040
2.5
1002
}
  0
LEADER
  5
E6
100
AcDbEntity
  8
coupe_poin\U+00e7on
 62
256
370
-1
 48
1.0
  6
ByLayer
100
AcDbLeader
  3
Standard
 71
1
 72
0
 73
3
 74
0
 75
0
 40
1.0
 41
10.0
 76
2
 10
725.0
 20
325.0
 10
0.0
 20
408.7637302620304922
1001
ACAD
1000
DSTYLE
1002
{
1070
40
1040
2.5
1002
}
  0
MTEXT
  5
E7
100
AcDbEntity
  8
coupe_poin\U+00e7on
 62
256
370
-1
 48
1.0
  6
ByLayer
100
AcDbMText
 10
-41.6769115560915893
 20
419.7093948911251005
 30
0.0
 40
4.0
 41
105.6666707809662995
 71
1
 72
1
  1
ces points partagent la m\U+00eame hauteur
  7
textstyle0
 50
0.0
 73
2
 44
1.0
  0
ENDSEC
  0
SECTION
  2
OBJECTS
  0
DICTIONARY
  5
C
100
AcDbDictionary
280
0
281
1
  3
ACAD_GROUP
350
D
  3
ACAD_LAYOUT
350
1A
  3
ACAD_MLINESTYLE
350
17
  3
ACAD_PLOTSETTINGS
350
19
  3
ACAD_PLOTSTYLENAME
350
E
  3
AcDbVariableDictionary
350
E8
  3
QCAD_OBJECTS
350
E9
  0
DICTIONARY
  5
D
100
AcDbDictionary
280
0
281
1
  0
ACDBDICTIONARYWDFLT
  5
E
100
AcDbDictionary
281
1
  3
Normal
350
F
100
AcDbDictionaryWithDefault
340
F
  0
ACDBPLACEHOLDER
  5
F
  0
DICTIONARY
  5
17
100
AcDbDictionary
280
0
281
1
  3
Standard
350
18
  0
MLINESTYLE
  5
18
100
AcDbMlineStyle
  2
STANDARD
 70
0
  3

 62
256
 51
90.0
 52
90.0
 71
2
 49
0.5
 62
256
  6
BYLAYER
 49
-0.5
 62
256
  6
BYLAYER
  0
DICTIONARY
  5
19
100
AcDbDictionary
280
0
281
1
  0
DICTIONARY
  5
1A
100
AcDbDictionary
281
1
  3
Layout1
350
1E
  3
Layout2
350
26
  3
Model
350
22
  0
LAYOUT
  5
1E
100
AcDbPlotSettings
  1

  2
none_device
  4

  6

 40
0.0
 41
0.0
 42
0.0
 43
0.0
 44
0.0
 45
0.0
 46
0.0
 47
0.0
 48
0.0
 49
0.0
140
0.0
141
0.0
142
1.0
143
1.0
 70
688
 72
0
 73
0
 74
5
  7

 75
16
147
1.0
148
0.0
149
0.0
100
AcDbLayout
  1
Layout1
 70
1
 71
1
 10
0.0
 20
0.0
 11
420.0
 21
297.0
 12
0.0
 22
0.0
 32
0.0
 14
100000000000000000000.0
 24
100000000000000000000.0
 34
100000000000000000000.0
 15
-100000000000000000000.0
 25
-100000000000000000000.0
 35
-100000000000000000000.0
146
0.0
 13
0.0
 23
0.0
 33
0.0
 16
1.0
 26
0.0
 36
0.0
 17
0.0
 27
1.0
 37
0.0
 76
0
330
1B
  0
LAYOUT
  5
22
100
AcDbPlotSettings
  1

  2
none_device
  4

  6

 40
0.0
 41
0.0
 42
0.0
 43
0.0
 44
0.0
 45
0.0
 46
0.0
 47
0.0
 48
0.0
 49
0.0
140
0.0
141
0.0
142
1.0
143
1.0
 70
1712
 72
0
 73
0
 74
0
  7

 75
0
147
1.0
148
0.0
149
0.0
100
AcDbLayout
  1
Model
 70
1
 71
0
 10
0.0
 20
0.0
 11
12.0
 21
9.0
 12
0.0
 22
0.0
 32
0.0
 14
0.0
 24
0.0
 34
0.0
 15
0.0
 25
0.0
 35
0.0
146
0.0
 13
0.0
 23
0.0
 33
0.0
 16
1.0
 26
0.0
 36
0.0
 17
0.0
 27
1.0
 37
0.0
 76
0
330
1F
  0
LAYOUT
  5
26
100
AcDbPlotSettings
  1

  2
none_device
  4

  6

 40
0.0
 41
0.0
 42
0.0
 43
0.0
 44
0.0
 45
0.0
 46
0.0
 47
0.0
 48
0.0
 49
0.0
140
0.0
141
0.0
142
1.0
143
1.0
 70
688
 72
0
 73
0
 74
5
  7

 75
16
147
1.0
148
0.0
149
0.0
100
AcDbLayout
  1
Layout2
 70
1
 71
2
 10
0.0
 20
0.0
 11
12.0
 21
9.0
 12
0.0
 22
0.0
 32
0.0
 14
0.0
 24
0.0
 34
0.0
 15
0.0
 25
0.0
 35
0.0
146
0.0
 13
0.0
 23
0.0
 33
0.0
 16
1.0
 26
0.0
 36
0.0
 17
0.0
 27
1.0
 37
0.0
 76
0
330
23
  0
DICTIONARY
  5
E8
100
AcDbDictionary
281
1
  3
DIMASSOC
350
EB
  3
HIDETEXT
350
EA
  0
DICTIONARYVAR
  5
EA
100
DictionaryVariables
280
0
  1
2
  0
DICTIONARYVAR
  5
EB
100
DictionaryVariables
280
0
  1
1
  0
DICTIONARY
  5
E9
100
AcDbDictionary
281
1
  3
ColorSettings/BackgroundColor
350
EC
  3
ColorSettings/ColorMode
350
ED
  3
Grid/DisplayGrid00
350
EE
  3
Grid/DisplayGrid01
350
EF
  3
Grid/DisplayGrid02
350
F0
  3
Grid/DisplayGrid03
350
F1
  3
Grid/GridSpacingX00
350
F2
  3
Grid/GridSpacingX01
350
F3
  3
Grid/GridSpacingX02
350
F4
  3
Grid/GridSpacingX03
350
F5
  3
Grid/GridSpacingY00
350
F6
  3
Grid/GridSpacingY01
350
F7
  3
Grid/GridSpacingY02
350
F8
  3
Grid/GridSpacingY03
350
F9
  3
Grid/IsometricGrid00
350
FA
  3
Grid/IsometricGrid01
350
FB
  3
Grid/IsometricGrid02
350
FC
  3
Grid/IsometricGrid03
350
FD
  3
Grid/IsometricProjection00
350
FE
  3
Grid/IsometricProjection01
350
FF
  3
Grid/IsometricProjection02
350
100
  3
Grid/IsometricProjection03
350
101
  3
Grid/MetaGridSpacingX00
350
102
  3
Grid/MetaGridSpacingX01
350
103
  3
Grid/MetaGridSpacingX02
350
104
  3
Grid/MetaGridSpacingX03
350
105
  3
Grid/MetaGridSpacingY00
350
106
  3
Grid/MetaGridSpacingY01
350
107
  3
Grid/MetaGridSpacingY02
350
108
  3
Grid/MetaGridSpacingY03
350
109
  3
MultiPageSettings/Columns
350
10A
  3
MultiPageSettings/GlueMarginsBottom
350
10B
  3
MultiPageSettings/GlueMarginsLeft
350
10C
  3
MultiPageSettings/GlueMarginsRight
350
10D
  3
MultiPageSettings/GlueMarginsTop
350
10E
  3
MultiPageSettings/PrintCropMarks
350
10F
  3
MultiPageSettings/Rows
350
110
  3
PageSettings/OffsetX
350
111
  3
PageSettings/OffsetY
350
112
  3
PageSettings/PageOrientation
350
113
  3
PageSettings/PaperHeight
350
114
  3
PageSettings/PaperWidth
350
115
  3
PageSettings/Scale
350
116
  3
PageSettings/ShowPaperBorders
350
117
  3
QCADVersion
350
118
  3
UnitSettings/PaperUnit
350
119
  3
ViewportCenter
350
11A
  3
ViewportHeight
350
11B
  3
ViewportWidth
350
11C
  0
XRECORD
  5
EC
330
E9
100
AcDbXrecord
280
1
1000
White
  0
XRECORD
  5
ED
330
E9
100
AcDbXrecord
280
1
1000
FullColor
  0
XRECORD
  5
EE
330
E9
100
AcDbXrecord
280
1
290
1
  0
XRECORD
  5
EF
330
E9
100
AcDbXrecord
280
1
290
1
  0
XRECORD
  5
F0
330
E9
100
AcDbXrecord
280
1
290
1
  0
XRECORD
  5
F1
330
E9
100
AcDbXrecord
280
1
290
1
  0
XRECORD
  5
F2
330
E9
100
AcDbXrecord
280
1
1000
auto
  0
XRECORD
  5
F3
330
E9
100
AcDbXrecord
280
1
1000
auto
  0
XRECORD
  5
F4
330
E9
100
AcDbXrecord
280
1
1000
auto
  0
XRECORD
  5
F5
330
E9
100
AcDbXrecord
280
1
1000
auto
  0
XRECORD
  5
F6
330
E9
100
AcDbXrecord
280
1
1000
auto
  0
XRECORD
  5
F7
330
E9
100
AcDbXrecord
280
1
1000
auto
  0
XRECORD
  5
F8
330
E9
100
AcDbXrecord
280
1
1000
auto
  0
XRECORD
  5
F9
330
E9
100
AcDbXrecord
280
1
1000
auto
  0
XRECORD
  5
FA
330
E9
100
AcDbXrecord
280
1
290
0
  0
XRECORD
  5
FB
330
E9
100
AcDbXrecord
280
1
290
0
  0
XRECORD
  5
FC
330
E9
100
AcDbXrecord
280
1
290
0
  0
XRECORD
  5
FD
330
E9
100
AcDbXrecord
280
1
290
0
  0
XRECORD
  5
FE
330
E9
100
AcDbXrecord
280
1
 90
65537
  0
XRECORD
  5
FF
330
E9
100
AcDbXrecord
280
1
 90
65537
  0
XRECORD
  5
100
330
E9
100
AcDbXrecord
280
1
 90
65537
  0
XRECORD
  5
101
330
E9
100
AcDbXrecord
280
1
 90
65537
  0
XRECORD
  5
102
330
E9
100
AcDbXrecord
280
1
1000
auto
  0
XRECORD
  5
103
330
E9
100
AcDbXrecord
280
1
1000
auto
  0
XRECORD
  5
104
330
E9
100
AcDbXrecord
280
1
1000
auto
  0
XRECORD
  5
105
330
E9
100
AcDbXrecord
280
1
1000
auto
  0
XRECORD
  5
106
330
E9
100
AcDbXrecord
280
1
1000
auto
  0
XRECORD
  5
107
330
E9
100
AcDbXrecord
280
1
1000
auto
  0
XRECORD
  5
108
330
E9
100
AcDbXrecord
280
1
1000
auto
  0
XRECORD
  5
109
330
E9
100
AcDbXrecord
280
1
1000
auto
  0
XRECORD
  5
10A
330
E9
100
AcDbXrecord
280
1
 90
1
  0
XRECORD
  5
10B
330
E9
100
AcDbXrecord
280
1
 40
0.5
  0
XRECORD
  5
10C
330
E9
100
AcDbXrecord
280
1
 40
0.5
  0
XRECORD
  5
10D
330
E9
100
AcDbXrecord
280
1
 40
0.5
  0
XRECORD
  5
10E
330
E9
100
AcDbXrecord
280
1
 40
0.5
  0
XRECORD
  5
10F
330
E9
100
AcDbXrecord
280
1
290
0
  0
XRECORD
  5
110
330
E9
100
AcDbXrecord
280
1
 90
1
  0
XRECORD
  5
111
330
E9
100
AcDbXrecord
280
1
 40
0.0
  0
XRECORD
  5
112
330
E9
100
AcDbXrecord
280
1
 40
0.0
  0
XRECORD
  5
113
330
E9
100
AcDbXrecord
280
1
1000
Portrait
  0
XRECORD
  5
114
330
E9
100
AcDbXrecord
280
1
 40
11.6929999999999996
  0
XRECORD
  5
115
330
E9
100
AcDbXrecord
280
1
 40
8.2680000000000007
  0
XRECORD
  5
116
330
E9
100
AcDbXrecord
280
1
1000
1" = 1"
  0
XRECORD
  5
117
330
E9
100
AcDbXrecord
280
1
290
1
  0
XRECORD
  5
118
330
E9
100
AcDbXrecord
280
1
1000
3.22.0
  0
XRECORD
  5
119
330
E9
100
AcDbXrecord
280
1
 90
1
  0
XRECORD
  5
11B
330
E9
100
AcDbXrecord
280
1
 40
717.1616268485538512
  0
XRECORD
  5
11C
330
E9
100
AcDbXrecord
280
1
 40
1194.5152649086323891
  0
ENDSEC
  0
EOF
