999
dxflib 3.17.0.0
  0
SECTION
  2
HEADER
  9
$ACADVER
  1
AC1015
  9
$HANDSEED
  5
FFFF
  9
$ANGBASE
 50
0.0
  9
$ANGDIR
 70
0
  9
$ATTMODE
 70
0
  9
$AUNITS
 70
0
  9
$AUPREC
 70
2
  9
$CECOLOR
 62
256
  9
$CELTSCALE
 40
1.0
  9
$CHAMFERA
 40
0.0
  9
$CHAMFERB
 40
0.0
  9
$CHAMFERC
 40
0.0
  9
$CHAMFERD
 40
0.0
  9
$CMLJUST
 70
0
  9
$CMLSCALE
 40
20.0
  9
$DIMADEC
 70
0
  9
$DIMALT
 70
0
  9
$DIMALTD
 70
3
  9
$DIMALTF
 40
0.03937
  9
$DIMALTRND
 40
0.0
  9
$DIMALTTD
 70
3
  9
$DIMALTTZ
 70
0
  9
$DIMALTU
 70
2
  9
$DIMALTZ
 70
0
  9
$DIMAPOST
  1

  9
$DIMASZ
 40
2.5
  9
$DIMATFIT
 70
3
  9
$DIMAUNIT
 70
0
  9
$DIMAZIN
 70
0
  9
$DIMBLK
  1

  9
$DIMBLK1
  1

  9
$DIMBLK2
  1

  9
$DIMCEN
 40
2.5
  9
$DIMCLRD
 70
0
  9
$DIMCLRE
 70
0
  9
$DIMCLRT
 70
0
  9
$DIMDEC
 70
2
  9
$DIMDLE
 40
0.0
  9
$DIMDLI
 40
3.75
  9
$DIMDSEP
 70
44
  9
$DIMEXE
 40
1.25
  9
$DIMEXO
 40
0.625
  9
$DIMFRAC
 70
0
  9
$DIMGAP
 40
0.625
  9
$DIMJUST
 70
0
  9
$DIMLDRBLK
  1
STANDARD
  9
$DIMLFAC
 40
1.0
  9
$DIMLIM
 70
0
  9
$DIMLUNIT
 70
2
  9
$DIMLWD
 70
-2
  9
$DIMLWE
 70
-2
  9
$DIMPOST
  1

  9
$DIMRND
 40
0.0
  9
$DIMSAH
 70
0
  9
$DIMSCALE
 40
2.5
  9
$DIMSD1
 70
0
  9
$DIMSD2
 70
0
  9
$DIMSE1
 70
0
  9
$DIMSE2
 70
0
  9
$DIMSOXD
 70
0
  9
$DIMTAD
 70
1
  9
$DIMTDEC
 70
2
  9
$DIMTFAC
 40
1.0
  9
$DIMTIH
 70
0
  9
$DIMTIX
 70
0
  9
$DIMTM
 40
0.0
  9
$DIMTOFL
 70
1
  9
$DIMTOH
 70
0
  9
$DIMTOL
 70
0
  9
$DIMTOLJ
 70
0
  9
$DIMTP
 40
0.0
  9
$DIMTSZ
 40
0.0
  9
$DIMTVP
 40
0.0
  9
$DIMTXSTY
  7
STANDARD
  9
$DIMTXT
 40
2.5
  9
$DIMTZIN
 70
8
  9
$DIMUPT
 70
0
  9
$DIMZIN
 70
8
  9
$DISPSILH
 70
0
  9
$DWGCODEPAGE
  3
ANSI_1252
  9
$ELEVATION
 40
0.0
  9
$EXTMAX
 10
1023.6513155774099459
 20
775.8907020790002207
 30
0.0
  9
$EXTMIN
 10
-317.7702882469205861
 20
-0.0000000000000159
 30
0.0
  9
$FILLETRAD
 40
0.0
  9
$FILLMODE
 70
1
  9
$INSBASE
 10
0.0
 20
0.0
 30
0.0
  9
$INSUNITS
 70
4
  9
$LIMCHECK
 70
0
  9
$LIMMAX
 10
420.0
 20
297.0
  9
$LIMMIN
 10
0.0
 20
0.0
  9
$LTSCALE
 40
1.0
  9
$LUNITS
 70
2
  9
$LUPREC
 70
4
  9
$MAXACTVP
 70
64
  9
$MEASUREMENT
 70
1
  9
$MIRRTEXT
 70
0
  9
$ORTHOMODE
 70
0
  9
$PDMODE
 70
34
  9
$PDSIZE
 40
0.0
  9
$PELEVATION
 40
0.0
  9
$PEXTMAX
 10
0.0
 20
0.0
 30
0.0
  9
$PEXTMIN
 10
0.0
 20
0.0
 30
0.0
  9
$PINSBASE
 10
0.0
 20
0.0
 30
0.0
  9
$PLIMCHECK
 70
0
  9
$PLIMMAX
 10
210.0
 20
297.0
  9
$PLIMMIN
 10
0.0
 20
0.0
  9
$PLINEGEN
 70
0
  9
$PLINEWID
 40
0.0
  9
$PROXYGRAPHICS
 70
1
  9
$PSLTSCALE
 70
1
  9
$PUCSNAME
  2

  9
$PUCSORG
 10
0.0
 20
0.0
 30
0.0
  9
$PUCSXDIR
 10
1.0
 20
0.0
 30
0.0
  9
$PUCSYDIR
 10
0.0
 20
1.0
 30
0.0
  9
$QTEXTMODE
 70
0
  9
$REGENMODE
 70
1
  9
$SHADEDGE
 70
3
  9
$SHADEDIF
 70
70
  9
$SKETCHINC
 40
1.0
  9
$SKPOLY
 70
0
  9
$SPLFRAME
 70
0
  9
$SPLINESEGS
 70
8
  9
$SPLINETYPE
 70
2
  9
$SURFTAB1
 70
6
  9
$SURFTAB2
 70
6
  9
$SURFTYPE
 70
6
  9
$SURFU
 70
6
  9
$SURFV
 70
6
  9
$TEXTSIZE
 40
2.5
  9
$TEXTSTYLE
  7
STANDARD
  9
$THICKNESS
 40
0.0
  9
$TILEMODE
 70
1
  9
$TRACEWID
 40
15.6799999999999997
  9
$TREEDEPTH
 70
3020
  9
$UCSNAME
  2

  9
$UCSORG
 10
0.0
 20
0.0
 30
0.0
  9
$UCSXDIR
 10
1.0
 20
0.0
 30
0.0
  9
$UCSYDIR
 10
0.0
 20
1.0
 30
0.0
  9
$UNITMODE
 70
0
  9
$USERI1
 70
0
  9
$USERI2
 70
0
  9
$USERI3
 70
0
  9
$USERI4
 70
0
  9
$USERI5
 70
0
  9
$USERR1
 40
0.0
  9
$USERR2
 40
0.0
  9
$USERR3
 40
0.0
  9
$USERR4
 40
0.0
  9
$USERR5
 40
0.0
  9
$USRTIMER
 70
1
  9
$VISRETAIN
 70
1
  0
ENDSEC
  0
SECTION
  2
TABLES
  0
TABLE
  2
VPORT
  5
8
100
AcDbSymbolTable
 70
1
  0
VPORT
  5
30
100
AcDbSymbolTableRecord
100
AcDbViewportTableRecord
  2
*Active
 70
0
 10
0.0
 20
0.0
 11
1.0
 21
1.0
 12
286.3055555555554861
 22
148.5
 13
0.0
 23
0.0
 14
10.0
 24
10.0
 15
10.0
 25
10.0
 16
0.0
 26
0.0
 36
1.0
 17
0.0
 27
0.0
 37
0.0
 40
297.0
 41
1.92798353909465
 42
50.0
 43
0.0
 44
0.0
 50
0.0
 51
0.0
 71
0
 72
100
 73
1
 74
3
 75
1
 76
1
 77
0
 78
0
281
0
 65
1
110
0.0
120
0.0
130
0.0
111
1.0
121
0.0
131
0.0
112
0.0
122
1.0
132
0.0
 79
0
146
0.0
  0
ENDTAB
  0
TABLE
  2
LTYPE
  5
5
100
AcDbSymbolTable
 70
27
  0
LTYPE
  5
16
100
AcDbSymbolTableRecord
100
AcDbLinetypeTableRecord
  2
Continuous
 70
0
  3
Solid line
 72
65
 73
0
 40
0.0
  0
LTYPE
  5
31
100
AcDbSymbolTableRecord
100
AcDbLinetypeTableRecord
  2
DASHED2
 70
0
  3
Dashed (.5x) _ _ _ _ _ _ _ _ _ _ _ _ _ _ _ _ _
 72
65
 73
2
 40
9.5249999999999986
 49
6.3499999999999996
 74
0
 49
-3.1749999999999998
 74
0
  0
LTYPE
  5
32
100
AcDbSymbolTableRecord
100
AcDbLinetypeTableRecord
  2
DOTTINY
 70
0
  3
Dot (.15x) .....................................
 72
65
 73
2
 40
0.9525
 49
0.1
 74
0
 49
-0.8525
 74
0
  0
LTYPE
  5
33
100
AcDbSymbolTableRecord
100
AcDbLinetypeTableRecord
  2
DIVIDEX2
 70
0
  3
Divide (2x) ________  .  .  ________  .  .  _
 72
65
 73
6
 40
63.5
 49
25.3999999999999986
 74
0
 49
-12.6499999999999986
 74
0
 49
0.1
 74
0
 49
-12.5999999999999979
 74
0
 49
0.1
 74
0
 49
-12.6499999999999986
 74
0
  0
LTYPE
  5
34
100
AcDbSymbolTableRecord
100
AcDbLinetypeTableRecord
  2
DASHDOTX2
 70
0
  3
Dash dot (2x) ____  .  ____  .  ____  .  ___
 72
65
 73
4
 40
50.7999999999999972
 49
25.3999999999999986
 74
0
 49
-12.6499999999999986
 74
0
 49
0.1
 74
0
 49
-12.6499999999999986
 74
0
  0
LTYPE
  5
35
100
AcDbSymbolTableRecord
100
AcDbLinetypeTableRecord
  2
CENTERX2
 70
0
  3
Center (2x) ________  __  ________  __  _____
 72
65
 73
4
 40
101.6000000000000085
 49
63.5
 74
0
 49
-12.6999999999999993
 74
0
 49
12.6999999999999993
 74
0
 49
-12.6999999999999993
 74
0
  0
LTYPE
  5
36
100
AcDbSymbolTableRecord
100
AcDbLinetypeTableRecord
  2
DASHDOT
 70
0
  3
Dash dot __ . __ . __ . __ . __ . __ . __ . __
 72
65
 73
4
 40
25.4000000000000021
 49
12.6999999999999993
 74
0
 49
-6.2999999999999998
 74
0
 49
0.1
 74
0
 49
-6.2999999999999998
 74
0
  0
LTYPE
  5
37
100
AcDbSymbolTableRecord
100
AcDbLinetypeTableRecord
  2
DOT
 70
0
  3
Dot . . . . . . . . . . . . . . . . . . . . . .
 72
65
 73
2
 40
6.3499999999999996
 49
0.1
 74
0
 49
-6.25
 74
0
  0
LTYPE
  5
38
100
AcDbSymbolTableRecord
100
AcDbLinetypeTableRecord
  2
DASHDOT2
 70
0
  3
Dash dot (.5x) _._._._._._._._._._._._._._._.
 72
65
 73
4
 40
12.6999999999999993
 49
6.3499999999999996
 74
0
 49
-3.125
 74
0
 49
0.1
 74
0
 49
-3.125
 74
0
  0
LTYPE
  5
39
100
AcDbSymbolTableRecord
100
AcDbLinetypeTableRecord
  2
CENTER
 70
0
  3
Center ____ _ ____ _ ____ _ ____ _ ____ _ ____
 72
65
 73
4
 40
50.8000000000000043
 49
31.75
 74
0
 49
-6.3499999999999996
 74
0
 49
6.3499999999999996
 74
0
 49
-6.3499999999999996
 74
0
  0
LTYPE
  5
14
100
AcDbSymbolTableRecord
100
AcDbLinetypeTableRecord
  2
ByBlock
 70
0
  3

 72
65
 73
0
 40
0.0
  0
LTYPE
  5
3A
100
AcDbSymbolTableRecord
100
AcDbLinetypeTableRecord
  2
DASHDOTTINY
 70
0
  3
Dash dot (.15x) _._._._._._._._._._._._._._._.
 72
65
 73
4
 40
3.8100000000000001
 49
1.905
 74
0
 49
-0.9025
 74
0
 49
0.1
 74
0
 49
-0.9025
 74
0
  0
LTYPE
  5
3B
100
AcDbSymbolTableRecord
100
AcDbLinetypeTableRecord
  2
DIVIDETINY
 70
0
  3
Divide (.15x) __..__..__..__..__..__..__..__.._
 72
65
 73
6
 40
4.7625000000000002
 49
1.905
 74
0
 49
-0.9025
 74
0
 49
0.1
 74
0
 49
-0.8524999999999999
 74
0
 49
0.1
 74
0
 49
-0.9025
 74
0
  0
LTYPE
  5
3C
100
AcDbSymbolTableRecord
100
AcDbLinetypeTableRecord
  2
DASHED
 70
0
  3
Dashed _ _ _ _ _ _ _ _ _ _ _ _ _ _ _ _ _
 72
65
 73
2
 40
19.0499999999999972
 49
12.6999999999999993
 74
0
 49
-6.3499999999999996
 74
0
  0
LTYPE
  5
3D
100
AcDbSymbolTableRecord
100
AcDbLinetypeTableRecord
  2
BORDER
 70
0
  3
Border __ __ . __ __ . __ __ . __ __ . __ __ .
 72
65
 73
6
 40
44.4499999999999957
 49
12.6999999999999993
 74
0
 49
-6.3499999999999996
 74
0
 49
12.6999999999999993
 74
0
 49
-6.2999999999999998
 74
0
 49
0.1
 74
0
 49
-6.2999999999999998
 74
0
  0
LTYPE
  5
3E
100
AcDbSymbolTableRecord
100
AcDbLinetypeTableRecord
  2
BORDERX2
 70
0
  3
Border (2x) ____  ____  .  ____  ____  .  ___
 72
65
 73
6
 40
88.8999999999999773
 49
25.3999999999999986
 74
0
 49
-12.6999999999999993
 74
0
 49
25.3999999999999986
 74
0
 49
-12.6499999999999986
 74
0
 49
0.1
 74
0
 49
-12.6499999999999986
 74
0
  0
LTYPE
  5
3F
100
AcDbSymbolTableRecord
100
AcDbLinetypeTableRecord
  2
BORDERTINY
 70
0
  3
Border (.15x) __.__.__.__.__.__.__.__.__.__.__.
 72
65
 73
6
 40
6.6674999999999995
 49
1.905
 74
0
 49
-0.9525
 74
0
 49
1.905
 74
0
 49
-0.9025
 74
0
 49
0.1
 74
0
 49
-0.9025
 74
0
  0
LTYPE
  5
40
100
AcDbSymbolTableRecord
100
AcDbLinetypeTableRecord
  2
DIVIDE2
 70
0
  3
Divide (.5x) __..__..__..__..__..__..__..__.._
 72
65
 73
6
 40
15.8749999999999982
 49
6.3499999999999996
 74
0
 49
-3.125
 74
0
 49
0.1
 74
0
 49
-3.0750000000000002
 74
0
 49
0.1
 74
0
 49
-3.125
 74
0
  0
LTYPE
  5
41
100
AcDbSymbolTableRecord
100
AcDbLinetypeTableRecord
  2
DOT2
 70
0
  3
Dot (.5x) .....................................
 72
65
 73
2
 40
3.1749999999999998
 49
0.1
 74
0
 49
-3.0749999999999997
 74
0
  0
LTYPE
  5
42
100
AcDbSymbolTableRecord
100
AcDbLinetypeTableRecord
  2
CENTERTINY
 70
0
  3
Center (.15x) ___ _ ___ _ ___ _ ___ _ ___ _ ___
 72
65
 73
4
 40
7.6199999999999992
 49
4.7625000000000002
 74
0
 49
-0.9525
 74
0
 49
0.9525
 74
0
 49
-0.9525
 74
0
  0
LTYPE
  5
43
100
AcDbSymbolTableRecord
100
AcDbLinetypeTableRecord
  2
DASHEDTINY
 70
0
  3
Dashed (.15x) _ _ _ _ _ _ _ _ _ _ _ _ _ _ _ _ _
 72
65
 73
2
 40
2.8574999999999999
 49
1.905
 74
0
 49
-0.9525
 74
0
  0
LTYPE
  5
44
100
AcDbSymbolTableRecord
100
AcDbLinetypeTableRecord
  2
CENTER2
 70
0
  3
Center (.5x) ___ _ ___ _ ___ _ ___ _ ___ _ ___
 72
65
 73
4
 40
28.5750000000000028
 49
19.0500000000000007
 74
0
 49
-3.1749999999999998
 74
0
 49
3.1749999999999998
 74
0
 49
-3.1749999999999998
 74
0
  0
LTYPE
  5
45
100
AcDbSymbolTableRecord
100
AcDbLinetypeTableRecord
  2
DOTX2
 70
0
  3
Dot (2x) .  .  .  .  .  .  .  .  .  .  .  .  .
 72
65
 73
2
 40
12.6999999999999993
 49
0.1
 74
0
 49
-12.5999999999999996
 74
0
  0
LTYPE
  5
46
100
AcDbSymbolTableRecord
100
AcDbLinetypeTableRecord
  2
BORDER2
 70
0
  3
Border (.5x) __.__.__.__.__.__.__.__.__.__.__.
 72
65
 73
6
 40
22.2250000000000014
 49
6.3499999999999996
 74
0
 49
-3.1749999999999998
 74
0
 49
6.3499999999999996
 74
0
 49
-3.125
 74
0
 49
0.1
 74
0
 49
-3.125
 74
0
  0
LTYPE
  5
15
100
AcDbSymbolTableRecord
100
AcDbLinetypeTableRecord
  2
ByLayer
 70
0
  3

 72
65
 73
0
 40
0.0
  0
LTYPE
  5
47
100
AcDbSymbolTableRecord
100
AcDbLinetypeTableRecord
  2
DASHEDX2
 70
0
  3
Dashed (2x) ____  ____  ____  ____  ____  ___
 72
65
 73
2
 40
38.0999999999999943
 49
25.3999999999999986
 74
0
 49
-12.6999999999999993
 74
0
  0
LTYPE
  5
48
100
AcDbSymbolTableRecord
100
AcDbLinetypeTableRecord
  2
DIVIDE
 70
0
  3
Divide ____ . . ____ . . ____ . . ____ . . ____
 72
65
 73
6
 40
31.7500000000000036
 49
12.6999999999999993
 74
0
 49
-6.2999999999999998
 74
0
 49
0.1
 74
0
 49
-6.25
 74
0
 49
0.1
 74
0
 49
-6.2999999999999998
 74
0
  0
ENDTAB
  0
TABLE
  2
LAYER
  5
2
100
AcDbSymbolTable
 70
12
  0
LAYER
  5
49
100
AcDbSymbolTableRecord
100
AcDbLayerTableRecord
  2
0_ch_panne
 70
0
 62
3
420
65280
  6
Continuous
370
0
390
F
  0
LAYER
  5
4A
100
AcDbSymbolTableRecord
100
AcDbLayerTableRecord
  2
1_arba_gauche
 70
0
 62
1
420
16711680
  6
Continuous
370
0
390
F
  0
LAYER
  5
4B
100
AcDbSymbolTableRecord
100
AcDbLayerTableRecord
  2
coupe_bord_pannes
 70
0
 62
4
420
65535
  6
Continuous
370
0
390
F
  0
LAYER
  5
4C
100
AcDbSymbolTableRecord
100
AcDbLayerTableRecord
  2
emprunte_us_panne_arba
 70
0
 62
5
420
255
  6
Continuous
370
0
390
F
  0
LAYER
  5
4D
100
AcDbSymbolTableRecord
100
AcDbLayerTableRecord
  2
barbe_panne_vertical
 70
0
 62
94
420
32768
  6
Continuous
370
0
390
F
  0
LAYER
  5
4E
100
AcDbSymbolTableRecord
100
AcDbLayerTableRecord
  2
0_vues
 70
0
 62
7
420
16777215
  6
Continuous
370
0
390
F
  0
LAYER
  5
4F
100
AcDbSymbolTableRecord
100
AcDbLayerTableRecord
  2
1_pannes_plan
 70
0
 62
1
420
16711680
  6
Continuous
370
0
390
F
  0
LAYER
  5
50
100
AcDbSymbolTableRecord
100
AcDbLayerTableRecord
  2
emprunte_ous_panne_arba
 70
0
 62
6
420
16711935
  6
CENTERTINY
370
0
390
F
  0
LAYER
  5
51
100
AcDbSymbolTableRecord
100
AcDbLayerTableRecord
  2
engueulement
 70
0
 62
2
420
16776960
  6
Continuous
370
0
390
F
  0
LAYER
  5
52
100
AcDbSymbolTableRecord
100
AcDbLayerTableRecord
  2
1_arba_droite
 70
0
 62
1
420
16711680
  6
Continuous
370
0
390
F
  0
LAYER
  5
53
100
AcDbSymbolTableRecord
100
AcDbLayerTableRecord
  2
barbe_panne_horizontal
 70
0
 62
54
420
8421376
  6
Continuous
370
0
390
F
  0
LAYER
  5
10
100
AcDbSymbolTableRecord
100
AcDbLayerTableRecord
  2
0
 70
0
 62
7
420
16777215
  6
DASHDOTTINY
370
0
390
F
  0
ENDTAB
  0
TABLE
  2
STYLE
  5
3
100
AcDbSymbolTable
 70
76
  0
STYLE
  5
54
100
AcDbSymbolTableRecord
100
AcDbTextStyleTableRecord
  2
Standard
 70
0
 40
0.0
 41
1.0
 50
0.0
 71
0
 42
2.5
  3

  4

1001
ACAD
1000
txt
1071
0
  0
STYLE
  5
55
100
AcDbSymbolTableRecord
100
AcDbTextStyleTableRecord
  2
textstyle0
 70
0
 40
0.0
 41
1.0
 50
0.0
 71
0
 42
3.0
  3

  4

1001
ACAD
1000
standard
1071
0
  0
STYLE
  5
56
100
AcDbSymbolTableRecord
100
AcDbTextStyleTableRecord
  2
textstyle1
 70
0
 40
0.0
 41
1.0
 50
0.0
 71
0
 42
3.0
  3

  4

1001
ACAD
1000

1071
0
  0
STYLE
  5
57
100
AcDbSymbolTableRecord
100
AcDbTextStyleTableRecord
  2
textstyle2
 70
0
 40
0.0
 41
1.0
 50
0.0
 71
0
 42
3.0
  3

  4

1001
ACAD
1000
standard
1071
0
  0
STYLE
  5
58
100
AcDbSymbolTableRecord
100
AcDbTextStyleTableRecord
  2
textstyle3
 70
0
 40
0.0
 41
1.0
 50
0.0
 71
0
 42
3.0
  3

  4

1001
ACAD
1000
STANDARD
1071
0
  0
STYLE
  5
59
100
AcDbSymbolTableRecord
100
AcDbTextStyleTableRecord
  2
textstyle4
 70
0
 40
0.0
 41
1.0
 50
0.0
 71
0
 42
3.0
  3

  4

1001
ACAD
1000
standard
1071
0
  0
STYLE
  5
5A
100
AcDbSymbolTableRecord
100
AcDbTextStyleTableRecord
  2
textstyle5
 70
0
 40
0.0
 41
1.0
 50
0.0
 71
0
 42
3.0
  3

  4

1001
ACAD
1000
standard
1071
0
  0
STYLE
  5
5B
100
AcDbSymbolTableRecord
100
AcDbTextStyleTableRecord
  2
textstyle6
 70
0
 40
0.0
 41
1.0
 50
0.0
 71
0
 42
3.0
  3

  4

1001
ACAD
1000
STANDARD
1071
0
  0
STYLE
  5
5C
100
AcDbSymbolTableRecord
100
AcDbTextStyleTableRecord
  2
textstyle7
 70
0
 40
0.0
 41
1.0
 50
0.0
 71
0
 42
3.0
  3

  4

1001
ACAD
1000
standard
1071
0
  0
STYLE
  5
5D
100
AcDbSymbolTableRecord
100
AcDbTextStyleTableRecord
  2
textstyle8
 70
0
 40
0.0
 41
1.0
 50
0.0
 71
0
 42
3.0
  3

  4

1001
ACAD
1000
standard
1071
0
  0
STYLE
  5
5E
100
AcDbSymbolTableRecord
100
AcDbTextStyleTableRecord
  2
textstyle9
 70
0
 40
0.0
 41
1.0
 50
0.0
 71
0
 42
3.0
  3

  4

1001
ACAD
1000
standard
1071
0
  0
STYLE
  5
5F
100
AcDbSymbolTableRecord
100
AcDbTextStyleTableRecord
  2
textstyle10
 70
0
 40
0.0
 41
1.0
 50
0.0
 71
0
 42
3.0
  3

  4

1001
ACAD
1000
standard
1071
0
  0
STYLE
  5
60
100
AcDbSymbolTableRecord
100
AcDbTextStyleTableRecord
  2
textstyle11
 70
0
 40
0.0
 41
1.0
 50
0.0
 71
0
 42
3.0
  3

  4

1001
ACAD
1000
standard
1071
0
  0
STYLE
  5
61
100
AcDbSymbolTableRecord
100
AcDbTextStyleTableRecord
  2
textstyle12
 70
0
 40
0.0
 41
1.0
 50
0.0
 71
0
 42
3.0
  3

  4

1001
ACAD
1000
standard
1071
0
  0
STYLE
  5
62
100
AcDbSymbolTableRecord
100
AcDbTextStyleTableRecord
  2
textstyle13
 70
0
 40
0.0
 41
1.0
 50
0.0
 71
0
 42
3.0
  3

  4

1001
ACAD
1000

1071
0
  0
STYLE
  5
63
100
AcDbSymbolTableRecord
100
AcDbTextStyleTableRecord
  2
textstyle14
 70
0
 40
0.0
 41
1.0
 50
0.0
 71
0
 42
8.0
  3

  4

1001
ACAD
1000
standard
1071
0
  0
STYLE
  5
64
100
AcDbSymbolTableRecord
100
AcDbTextStyleTableRecord
  2
textstyle15
 70
0
 40
0.0
 41
1.0
 50
0.0
 71
0
 42
8.0
  3

  4

1001
ACAD
1000
standard
1071
0
  0
STYLE
  5
65
100
AcDbSymbolTableRecord
100
AcDbTextStyleTableRecord
  2
textstyle16
 70
0
 40
0.0
 41
1.0
 50
0.0
 71
0
 42
3.0
  3

  4

1001
ACAD
1000
STANDARD
1071
0
  0
STYLE
  5
66
100
AcDbSymbolTableRecord
100
AcDbTextStyleTableRecord
  2
textstyle17
 70
0
 40
0.0
 41
1.0
 50
0.0
 71
0
 42
3.0
  3

  4

1001
ACAD
1000
STANDARD
1071
0
  0
STYLE
  5
67
100
AcDbSymbolTableRecord
100
AcDbTextStyleTableRecord
  2
textstyle18
 70
0
 40
0.0
 41
1.0
 50
0.0
 71
0
 42
3.0
  3

  4

1001
ACAD
1000
STANDARD
1071
0
  0
STYLE
  5
68
100
AcDbSymbolTableRecord
100
AcDbTextStyleTableRecord
  2
textstyle19
 70
0
 40
0.0
 41
1.0
 50
0.0
 71
0
 42
3.0
  3

  4

1001
ACAD
1000
STANDARD
1071
0
  0
STYLE
  5
69
100
AcDbSymbolTableRecord
100
AcDbTextStyleTableRecord
  2
textstyle20
 70
0
 40
0.0
 41
1.0
 50
0.0
 71
0
 42
3.0
  3

  4

1001
ACAD
1000
STANDARD
1071
0
  0
STYLE
  5
6A
100
AcDbSymbolTableRecord
100
AcDbTextStyleTableRecord
  2
textstyle21
 70
0
 40
0.0
 41
1.0
 50
0.0
 71
0
 42
3.0
  3

  4

1001
ACAD
1000
STANDARD
1071
0
  0
STYLE
  5
6B
100
AcDbSymbolTableRecord
100
AcDbTextStyleTableRecord
  2
textstyle22
 70
0
 40
0.0
 41
1.0
 50
0.0
 71
0
 42
3.0
  3

  4

1001
ACAD
1000
STANDARD
1071
0
  0
STYLE
  5
6C
100
AcDbSymbolTableRecord
100
AcDbTextStyleTableRecord
  2
textstyle23
 70
0
 40
0.0
 41
1.0
 50
0.0
 71
0
 42
3.0
  3

  4

1001
ACAD
1000
STANDARD
1071
0
  0
STYLE
  5
6D
100
AcDbSymbolTableRecord
100
AcDbTextStyleTableRecord
  2
textstyle24
 70
0
 40
0.0
 41
1.0
 50
0.0
 71
0
 42
3.0
  3

  4

1001
ACAD
1000
STANDARD
1071
0
  0
STYLE
  5
6E
100
AcDbSymbolTableRecord
100
AcDbTextStyleTableRecord
  2
textstyle25
 70
0
 40
0.0
 41
1.0
 50
0.0
 71
0
 42
3.0
  3

  4

1001
ACAD
1000
STANDARD
1071
0
  0
STYLE
  5
6F
100
AcDbSymbolTableRecord
100
AcDbTextStyleTableRecord
  2
textstyle26
 70
0
 40
0.0
 41
1.0
 50
0.0
 71
0
 42
3.0
  3

  4

1001
ACAD
1000
STANDARD
1071
0
  0
STYLE
  5
70
100
AcDbSymbolTableRecord
100
AcDbTextStyleTableRecord
  2
textstyle27
 70
0
 40
0.0
 41
1.0
 50
0.0
 71
0
 42
3.0
  3

  4

1001
ACAD
1000
STANDARD
1071
0
  0
STYLE
  5
71
100
AcDbSymbolTableRecord
100
AcDbTextStyleTableRecord
  2
textstyle28
 70
0
 40
0.0
 41
1.0
 50
0.0
 71
0
 42
3.0
  3

  4

1001
ACAD
1000
STANDARD
1071
0
  0
STYLE
  5
72
100
AcDbSymbolTableRecord
100
AcDbTextStyleTableRecord
  2
textstyle29
 70
0
 40
0.0
 41
1.0
 50
0.0
 71
0
 42
3.0
  3

  4

1001
ACAD
1000
STANDARD
1071
0
  0
STYLE
  5
73
100
AcDbSymbolTableRecord
100
AcDbTextStyleTableRecord
  2
textstyle30
 70
0
 40
0.0
 41
1.0
 50
0.0
 71
0
 42
3.0
  3

  4

1001
ACAD
1000
STANDARD
1071
0
  0
STYLE
  5
74
100
AcDbSymbolTableRecord
100
AcDbTextStyleTableRecord
  2
textstyle31
 70
0
 40
0.0
 41
1.0
 50
0.0
 71
0
 42
3.0
  3

  4

1001
ACAD
1000
STANDARD
1071
0
  0
STYLE
  5
75
100
AcDbSymbolTableRecord
100
AcDbTextStyleTableRecord
  2
textstyle32
 70
0
 40
0.0
 41
1.0
 50
0.0
 71
0
 42
3.0
  3

  4

1001
ACAD
1000
STANDARD
1071
0
  0
STYLE
  5
76
100
AcDbSymbolTableRecord
100
AcDbTextStyleTableRecord
  2
textstyle33
 70
0
 40
0.0
 41
1.0
 50
0.0
 71
0
 42
3.0
  3

  4

1001
ACAD
1000
STANDARD
1071
0
  0
STYLE
  5
77
100
AcDbSymbolTableRecord
100
AcDbTextStyleTableRecord
  2
textstyle34
 70
0
 40
0.0
 41
1.0
 50
0.0
 71
0
 42
3.0
  3

  4

1001
ACAD
1000
STANDARD
1071
0
  0
STYLE
  5
78
100
AcDbSymbolTableRecord
100
AcDbTextStyleTableRecord
  2
textstyle35
 70
0
 40
0.0
 41
1.0
 50
0.0
 71
0
 42
3.0
  3

  4

1001
ACAD
1000
STANDARD
1071
0
  0
STYLE
  5
79
100
AcDbSymbolTableRecord
100
AcDbTextStyleTableRecord
  2
textstyle36
 70
0
 40
0.0
 41
1.0
 50
0.0
 71
0
 42
3.0
  3

  4

1001
ACAD
1000
STANDARD
1071
0
  0
STYLE
  5
7A
100
AcDbSymbolTableRecord
100
AcDbTextStyleTableRecord
  2
textstyle37
 70
0
 40
0.0
 41
1.0
 50
0.0
 71
0
 42
3.0
  3

  4

1001
ACAD
1000
STANDARD
1071
0
  0
STYLE
  5
7B
100
AcDbSymbolTableRecord
100
AcDbTextStyleTableRecord
  2
textstyle38
 70
0
 40
0.0
 41
1.0
 50
0.0
 71
0
 42
3.0
  3

  4

1001
ACAD
1000
STANDARD
1071
0
  0
STYLE
  5
7C
100
AcDbSymbolTableRecord
100
AcDbTextStyleTableRecord
  2
textstyle39
 70
0
 40
0.0
 41
1.0
 50
0.0
 71
0
 42
3.0
  3

  4

1001
ACAD
1000
STANDARD
1071
0
  0
STYLE
  5
7D
100
AcDbSymbolTableRecord
100
AcDbTextStyleTableRecord
  2
textstyle40
 70
0
 40
0.0
 41
1.0
 50
0.0
 71
0
 42
3.0
  3

  4

1001
ACAD
1000
STANDARD
1071
0
  0
STYLE
  5
7E
100
AcDbSymbolTableRecord
100
AcDbTextStyleTableRecord
  2
textstyle41
 70
0
 40
0.0
 41
1.0
 50
0.0
 71
0
 42
3.0
  3

  4

1001
ACAD
1000
STANDARD
1071
0
  0
STYLE
  5
7F
100
AcDbSymbolTableRecord
100
AcDbTextStyleTableRecord
  2
textstyle42
 70
0
 40
0.0
 41
1.0
 50
0.0
 71
0
 42
3.0
  3

  4

1001
ACAD
1000
STANDARD
1071
0
  0
STYLE
  5
80
100
AcDbSymbolTableRecord
100
AcDbTextStyleTableRecord
  2
textstyle43
 70
0
 40
0.0
 41
1.0
 50
0.0
 71
0
 42
3.0
  3

  4

1001
ACAD
1000
STANDARD
1071
0
  0
STYLE
  5
81
100
AcDbSymbolTableRecord
100
AcDbTextStyleTableRecord
  2
textstyle44
 70
0
 40
0.0
 41
1.0
 50
0.0
 71
0
 42
3.0
  3

  4

1001
ACAD
1000
STANDARD
1071
0
  0
STYLE
  5
82
100
AcDbSymbolTableRecord
100
AcDbTextStyleTableRecord
  2
textstyle45
 70
0
 40
0.0
 41
1.0
 50
0.0
 71
0
 42
3.0
  3

  4

1001
ACAD
1000
STANDARD
1071
0
  0
STYLE
  5
83
100
AcDbSymbolTableRecord
100
AcDbTextStyleTableRecord
  2
textstyle46
 70
0
 40
0.0
 41
1.0
 50
0.0
 71
0
 42
3.0
  3

  4

1001
ACAD
1000
STANDARD
1071
0
  0
STYLE
  5
84
100
AcDbSymbolTableRecord
100
AcDbTextStyleTableRecord
  2
textstyle47
 70
0
 40
0.0
 41
1.0
 50
0.0
 71
0
 42
3.0
  3

  4

1001
ACAD
1000
STANDARD
1071
0
  0
STYLE
  5
85
100
AcDbSymbolTableRecord
100
AcDbTextStyleTableRecord
  2
textstyle48
 70
0
 40
0.0
 41
1.0
 50
0.0
 71
0
 42
3.0
  3

  4

1001
ACAD
1000
STANDARD
1071
0
  0
STYLE
  5
86
100
AcDbSymbolTableRecord
100
AcDbTextStyleTableRecord
  2
textstyle49
 70
0
 40
0.0
 41
1.0
 50
0.0
 71
0
 42
3.0
  3

  4

1001
ACAD
1000
STANDARD
1071
0
  0
STYLE
  5
87
100
AcDbSymbolTableRecord
100
AcDbTextStyleTableRecord
  2
textstyle50
 70
0
 40
0.0
 41
1.0
 50
0.0
 71
0
 42
3.0
  3

  4

1001
ACAD
1000
STANDARD
1071
0
  0
STYLE
  5
88
100
AcDbSymbolTableRecord
100
AcDbTextStyleTableRecord
  2
textstyle51
 70
0
 40
0.0
 41
1.0
 50
0.0
 71
0
 42
3.0
  3

  4

1001
ACAD
1000
STANDARD
1071
0
  0
STYLE
  5
89
100
AcDbSymbolTableRecord
100
AcDbTextStyleTableRecord
  2
textstyle52
 70
0
 40
0.0
 41
1.0
 50
0.0
 71
0
 42
3.0
  3

  4

1001
ACAD
1000
STANDARD
1071
0
  0
STYLE
  5
8A
100
AcDbSymbolTableRecord
100
AcDbTextStyleTableRecord
  2
textstyle53
 70
0
 40
0.0
 41
1.0
 50
0.0
 71
0
 42
3.0
  3

  4

1001
ACAD
1000
STANDARD
1071
0
  0
STYLE
  5
8B
100
AcDbSymbolTableRecord
100
AcDbTextStyleTableRecord
  2
textstyle54
 70
0
 40
0.0
 41
1.0
 50
0.0
 71
0
 42
3.0
  3

  4

1001
ACAD
1000
STANDARD
1071
0
  0
STYLE
  5
8C
100
AcDbSymbolTableRecord
100
AcDbTextStyleTableRecord
  2
textstyle55
 70
0
 40
0.0
 41
1.0
 50
0.0
 71
0
 42
3.0
  3

  4

1001
ACAD
1000
STANDARD
1071
0
  0
STYLE
  5
8D
100
AcDbSymbolTableRecord
100
AcDbTextStyleTableRecord
  2
textstyle56
 70
0
 40
0.0
 41
1.0
 50
0.0
 71
0
 42
3.0
  3

  4

1001
ACAD
1000
STANDARD
1071
0
  0
STYLE
  5
8E
100
AcDbSymbolTableRecord
100
AcDbTextStyleTableRecord
  2
textstyle57
 70
0
 40
0.0
 41
1.0
 50
0.0
 71
0
 42
3.0
  3

  4

1001
ACAD
1000
STANDARD
1071
0
  0
STYLE
  5
8F
100
AcDbSymbolTableRecord
100
AcDbTextStyleTableRecord
  2
textstyle58
 70
0
 40
0.0
 41
1.0
 50
0.0
 71
0
 42
3.0
  3

  4

1001
ACAD
1000
STANDARD
1071
0
  0
STYLE
  5
90
100
AcDbSymbolTableRecord
100
AcDbTextStyleTableRecord
  2
textstyle59
 70
0
 40
0.0
 41
1.0
 50
0.0
 71
0
 42
3.0
  3

  4

1001
ACAD
1000
STANDARD
1071
0
  0
STYLE
  5
91
100
AcDbSymbolTableRecord
100
AcDbTextStyleTableRecord
  2
textstyle60
 70
0
 40
0.0
 41
1.0
 50
0.0
 71
0
 42
3.0
  3

  4

1001
ACAD
1000
STANDARD
1071
0
  0
STYLE
  5
92
100
AcDbSymbolTableRecord
100
AcDbTextStyleTableRecord
  2
textstyle61
 70
0
 40
0.0
 41
1.0
 50
0.0
 71
0
 42
3.0
  3

  4

1001
ACAD
1000
STANDARD
1071
0
  0
STYLE
  5
93
100
AcDbSymbolTableRecord
100
AcDbTextStyleTableRecord
  2
textstyle62
 70
0
 40
0.0
 41
1.0
 50
0.0
 71
0
 42
3.0
  3

  4

1001
ACAD
1000
STANDARD
1071
0
  0
STYLE
  5
94
100
AcDbSymbolTableRecord
100
AcDbTextStyleTableRecord
  2
textstyle63
 70
0
 40
0.0
 41
1.0
 50
0.0
 71
0
 42
3.0
  3

  4

1001
ACAD
1000
STANDARD
1071
0
  0
STYLE
  5
95
100
AcDbSymbolTableRecord
100
AcDbTextStyleTableRecord
  2
textstyle64
 70
0
 40
0.0
 41
1.0
 50
0.0
 71
0
 42
3.0
  3

  4

1001
ACAD
1000
STANDARD
1071
0
  0
STYLE
  5
96
100
AcDbSymbolTableRecord
100
AcDbTextStyleTableRecord
  2
textstyle65
 70
0
 40
0.0
 41
1.0
 50
0.0
 71
0
 42
3.0
  3

  4

1001
ACAD
1000
STANDARD
1071
0
  0
STYLE
  5
97
100
AcDbSymbolTableRecord
100
AcDbTextStyleTableRecord
  2
textstyle66
 70
0
 40
0.0
 41
1.0
 50
0.0
 71
0
 42
3.0
  3

  4

1001
ACAD
1000
STANDARD
1071
0
  0
STYLE
  5
98
100
AcDbSymbolTableRecord
100
AcDbTextStyleTableRecord
  2
textstyle67
 70
0
 40
0.0
 41
1.0
 50
0.0
 71
0
 42
3.0
  3

  4

1001
ACAD
1000
STANDARD
1071
0
  0
STYLE
  5
99
100
AcDbSymbolTableRecord
100
AcDbTextStyleTableRecord
  2
textstyle68
 70
0
 40
0.0
 41
1.0
 50
0.0
 71
0
 42
3.0
  3

  4

1001
ACAD
1000
STANDARD
1071
0
  0
STYLE
  5
9A
100
AcDbSymbolTableRecord
100
AcDbTextStyleTableRecord
  2
textstyle69
 70
0
 40
0.0
 41
1.0
 50
0.0
 71
0
 42
3.0
  3

  4

1001
ACAD
1000
STANDARD
1071
0
  0
STYLE
  5
9B
100
AcDbSymbolTableRecord
100
AcDbTextStyleTableRecord
  2
textstyle70
 70
0
 40
0.0
 41
1.0
 50
0.0
 71
0
 42
3.0
  3

  4

1001
ACAD
1000
STANDARD
1071
0
  0
STYLE
  5
9C
100
AcDbSymbolTableRecord
100
AcDbTextStyleTableRecord
  2
textstyle71
 70
0
 40
0.0
 41
1.0
 50
0.0
 71
0
 42
3.0
  3

  4

1001
ACAD
1000
STANDARD
1071
0
  0
STYLE
  5
9D
100
AcDbSymbolTableRecord
100
AcDbTextStyleTableRecord
  2
textstyle72
 70
0
 40
0.0
 41
1.0
 50
0.0
 71
0
 42
3.0
  3

  4

1001
ACAD
1000
STANDARD
1071
0
  0
STYLE
  5
9E
100
AcDbSymbolTableRecord
100
AcDbTextStyleTableRecord
  2
textstyle73
 70
0
 40
0.0
 41
1.0
 50
0.0
 71
0
 42
3.0
  3

  4

1001
ACAD
1000
STANDARD
1071
0
  0
STYLE
  5
9F
100
AcDbSymbolTableRecord
100
AcDbTextStyleTableRecord
  2
textstyle74
 70
0
 40
0.0
 41
1.0
 50
0.0
 71
0
 42
3.0
  3

  4

1001
ACAD
1000
STANDARD
1071
0
  0
ENDTAB
  0
TABLE
  2
VIEW
  5
6
100
AcDbSymbolTable
 70
0
  0
ENDTAB
  0
TABLE
  2
UCS
  5
7
100
AcDbSymbolTable
 70
0
  0
ENDTAB
  0
TABLE
  2
APPID
  5
9
100
AcDbSymbolTable
 70
1
  0
APPID
  5
12
100
AcDbSymbolTableRecord
100
AcDbRegAppTableRecord
  2
ACAD
 70
0
  0
APPID
  5
A0
100
AcDbSymbolTableRecord
100
AcDbRegAppTableRecord
  2
QCAD
 70
0
  0
ENDTAB
  0
TABLE
  2
DIMSTYLE
  5
A
100
AcDbSymbolTable
 70
1
100
AcDbDimStyleTable
 71
0
  0
DIMSTYLE
105
27
100
AcDbSymbolTableRecord
100
AcDbDimStyleTableRecord
  2
Standard
 41
2.5
 42
0.625
 43
3.75
 44
1.25
 70
0
 73
0
 74
0
 77
1
 78
8
140
2.5
141
2.5
143
0.03937007874016
147
0.625
171
3
172
1
271
2
272
2
274
3
278
44
283
0
284
8
340
54
  0
ENDTAB
  0
TABLE
  2
BLOCK_RECORD
  5
1
100
AcDbSymbolTable
 70
1
  0
BLOCK_RECORD
  5
1F
100
AcDbSymbolTableRecord
100
AcDbBlockTableRecord
  2
*Model_Space
340
22
  0
BLOCK_RECORD
  5
1B
100
AcDbSymbolTableRecord
100
AcDbBlockTableRecord
  2
*Paper_Space
340
1E
  0
BLOCK_RECORD
  5
23
100
AcDbSymbolTableRecord
100
AcDbBlockTableRecord
  2
*Paper_Space0
340
26
  0
ENDTAB
  0
ENDSEC
  0
SECTION
  2
BLOCKS
  0
BLOCK
  5
20
100
AcDbEntity
  8
0
100
AcDbBlockBegin
  2
*Model_Space
 70
0
 10
0.0
 20
0.0
 30
0.0
  3
*Model_Space
  1

  0
ENDBLK
  5
21
100
AcDbEntity
  8
0
100
AcDbBlockEnd
  0
BLOCK
  5
1C
100
AcDbEntity
 67
1
  8
0
100
AcDbBlockBegin
  2
*Paper_Space
 70
0
 10
0.0
 20
0.0
 30
0.0
  3
*Paper_Space
  1

  0
ENDBLK
  5
1D
100
AcDbEntity
 67
1
  8
0
100
AcDbBlockEnd
  0
BLOCK
  5
24
100
AcDbEntity
  8
0
100
AcDbBlockBegin
  2
*Paper_Space0
 70
0
 10
0.0
 20
0.0
 30
0.0
  3
*Paper_Space0
  1

  0
ENDBLK
  5
25
100
AcDbEntity
  8
0
100
AcDbBlockEnd
  0
ENDSEC
  0
SECTION
  2
ENTITIES
  0
LINE
  5
A1
100
AcDbEntity
  8
0
 62
256
370
-1
 48
1.0
  6
ByLayer
100
AcDbLine
 10
0.0
 20
0.0
 30
0.0
 11
0.0000000000000214
 21
350.0
 31
0.0
  0
LINE
  5
A2
100
AcDbEntity
  8
0
 62
256
370
-1
 48
1.0
  6
ByLayer
100
AcDbLine
 10
350.0
 20
0.0
 30
0.0
 11
350.0
 21
350.0
 31
0.0
  0
POINT
  5
A3
100
AcDbEntity
  8
0
 62
256
370
-1
 48
1.0
  6
ByLayer
100
AcDbPoint
 10
174.4651699752477896
 20
350.0
 30
0.0
  0
LINE
  5
A4
100
AcDbEntity
  8
0
 62
256
370
-1
 48
1.0
  6
ByLayer
100
AcDbLine
 10
174.4651699752477896
 20
350.0
 30
0.0
 11
0.0
 21
0.0
 31
0.0
  0
LINE
  5
A5
100
AcDbEntity
  8
0
 62
256
370
-1
 48
1.0
  6
ByLayer
100
AcDbLine
 10
174.4651699752477896
 20
0.0
 30
0.0
 11
174.4651699752477896
 21
350.0
 31
0.0
  0
LINE
  5
A6
100
AcDbEntity
  8
0_vues
 62
256
370
-1
 48
1.0
  6
ByLayer
100
AcDbLine
 10
149.4651699752477896
 20
350.0
 30
0.0
 11
199.4651699752477896
 21
350.0
 31
0.0
  0
LINE
  5
A7
100
AcDbEntity
  8
0_vues
 62
256
370
-1
 48
1.0
  6
ByLayer
100
AcDbLine
 10
199.4651699752477896
 20
300.0
 30
0.0
 11
199.4651699752479033
 21
350.0
 31
0.0
  0
LINE
  5
A8
100
AcDbEntity
  8
0_vues
 62
256
370
-1
 48
1.0
  6
ByLayer
100
AcDbLine
 10
149.4651699752477896
 20
300.0
 30
0.0
 11
149.4651699752477896
 21
350.0
 31
0.0
  0
LINE
  5
A9
100
AcDbEntity
  8
0_vues
 62
256
370
-1
 48
1.0
  6
ByLayer
100
AcDbLine
 10
149.4651699752477896
 20
300.0
 30
0.0
 11
199.4651699752479033
 21
300.0
 31
0.0
  0
LINE
  5
AA
100
AcDbEntity
  8
0_vues
 62
256
370
-1
 48
1.0
  6
ByLayer
100
AcDbLine
 10
161.9651699752477896
 20
0.0000000000000015
 30
0.0
 11
186.9651699752477896
 21
0.0
 31
0.0
  0
LINE
  5
AB
100
AcDbEntity
  8
0_vues
 62
256
370
-1
 48
1.0
  6
ByLayer
100
AcDbLine
 10
186.9651699752477896
 20
-0.0000000000000031
 30
0.0
 11
186.9651699752477896
 21
300.0
 31
0.0
  0
LINE
  5
AC
100
AcDbEntity
  8
0_vues
 62
256
370
-1
 48
1.0
  6
ByLayer
100
AcDbLine
 10
161.9651699752477896
 20
0.0000000000000015
 30
0.0
 11
161.9651699752477896
 21
300.0
 31
0.0
  0
LINE
  5
AD
100
AcDbEntity
  8
0
 62
256
370
-1
 48
1.0
  6
ByLayer
100
AcDbLine
 10
174.4651699752477896
 20
350.0
 30
0.0
 11
710.7932619345076546
 21
618.9836013130534411
 31
0.0
  0
LINE
  5
AE
100
AcDbEntity
  8
0
 62
256
370
-1
 48
1.0
  6
ByLayer
100
AcDbLine
 10
350.0
 20
-0.0000000000000159
 30
0.0
 11
886.3280919592602913
 21
268.9836013130524748
 31
0.0
  0
LINE
  5
AF
100
AcDbEntity
  8
0
 62
256
370
-1
 48
1.0
  6
ByLayer
100
AcDbLine
 10
0.0
 20
350.0
 30
0.0
 11
400.0
 21
350.0
 31
0.0
  0
LINE
  5
B0
100
AcDbEntity
  8
0
 62
256
370
-1
 48
1.0
  6
ByLayer
100
AcDbLine
 10
0.0
 20
0.0
 30
0.0
 11
400.0
 21
0.0
 31
0.0
  0
LINE
  5
B1
100
AcDbEntity
  8
0_vues
 62
256
370
-1
 48
1.0
  6
ByLayer
100
AcDbLine
 10
400.0
 20
0.0
 30
0.0
 11
400.0
 21
350.0
 31
0.0
  0
LINE
  5
B2
100
AcDbEntity
  8
0_vues
 62
256
370
-1
 48
1.0
  6
ByLayer
100
AcDbLine
 10
400.0
 20
350.0
 30
0.0
 11
750.0
 21
350.0
 31
0.0
  0
LINE
  5
B3
100
AcDbEntity
  8
0_vues
 62
256
370
-1
 48
1.0
  6
ByLayer
100
AcDbLine
 10
750.0
 20
350.0
 30
0.0
 11
400.0
 21
0.0
 31
0.0
  0
LINE
  5
B4
100
AcDbEntity
  8
0_vues
 62
256
370
-1
 48
1.0
  6
ByLayer
100
AcDbLine
 10
710.793261934508223
 20
618.9836013130524179
 30
0.0
 11
886.328091959260405
 21
268.9836013130524179
 31
0.0
  0
LINE
  5
B5
100
AcDbEntity
  8
0
 62
256
370
-1
 48
1.0
  6
ByLayer
100
AcDbLine
 10
-4.5295421055399743
 20
439.2238367652715851
 30
0.0
 11
174.4651699752479033
 21
350.0
 31
0.0
  0
LINE
  5
B6
100
AcDbEntity
  8
0
 62
256
370
-1
 48
1.0
  6
ByLayer
100
AcDbLine
 10
-178.9947120807877923
 20
89.2238367652718978
 30
0.0
 11
0.0
 21
0.0
 31
0.0
  0
LINE
  5
B7
100
AcDbEntity
  8
0_vues
 62
256
370
-1
 48
1.0
  6
ByLayer
100
AcDbLine
 10
-4.5295421055399174
 20
439.2238367652719262
 30
0.0
 11
-178.9947120807877923
 21
89.2238367652719404
 31
0.0
  0
LINE
  5
B8
100
AcDbEntity
  8
0_vues
 62
256
370
-1
 48
1.0
  6
ByLayer
100
AcDbLine
 10
710.7932619345083367
 20
618.9836013130524179
 30
0.0
 11
1023.6513155774099459
 21
775.8907020790002207
 31
0.0
  0
LINE
  5
B9
100
AcDbEntity
  8
0_vues
 62
256
370
-1
 48
1.0
  6
ByLayer
100
AcDbLine
 10
-317.7702882469205861
 20
595.3655511044937612
 30
0.0
 11
-4.529542105539889
 21
439.223836765271983
 31
0.0
  0
LINE
  5
BA
100
AcDbEntity
  8
0_vues
 62
256
370
-1
 48
1.0
  6
ByLayer
100
AcDbLine
 10
-317.7702882469205861
 20
595.3655511044937612
 30
0.0
 11
-178.9947120807877923
 21
89.2238367652719404
 31
0.0
  0
LINE
  5
BB
100
AcDbEntity
  8
0_vues
 62
256
370
-1
 48
1.0
  6
ByLayer
100
AcDbLine
 10
1023.6513155774099459
 20
775.8907020790002207
 30
0.0
 11
886.328091959260405
 21
268.9836013130524179
 31
0.0
  0
LINE
  5
BC
100
AcDbEntity
  8
0_vues
 62
256
370
-1
 48
1.0
  6
ByLayer
100
AcDbLine
 10
400.0
 20
300.0
 30
0.0
 11
700.0
 21
300.0
 31
0.0
  0
LINE
  5
BD
100
AcDbEntity
  8
0_vues
 62
256
370
-1
 48
1.0
  6
ByLayer
100
AcDbLine
 10
615.1471862576142939
 20
300.0
 30
0.0
 11
400.0
 21
84.8528137423857487
 31
0.0
  0
LINE
  5
BE
100
AcDbEntity
  8
0_vues
 62
256
370
-1
 48
1.0
  6
ByLayer
100
AcDbLine
 10
664.6446609406725656
 20
300.0
 30
0.0
 11
400.0
 21
35.3553390593273917
 31
0.0
  0
LINE
  5
BF
100
AcDbEntity
  8
0_vues
 62
256
370
-1
 48
1.0
  6
ByLayer
100
AcDbLine
 10
568.3548570652676517
 20
253.2076708076533862
 30
0.0
 11
593.1035944067967876
 21
228.4589334661243072
 31
0.0
  0
LINE
  5
C0
100
AcDbEntity
  8
0_vues
 62
256
370
-1
 48
1.0
  6
ByLayer
100
AcDbLine
 10
547.141653629671282
 20
231.9944673720569881
 30
0.0
 11
571.8903909712003042
 21
207.2457300305277954
 31
0.0
  0
LINE
  5
C1
100
AcDbEntity
  8
0_vues
 62
256
370
-1
 48
1.0
  6
ByLayer
100
AcDbLine
 10
505.9960801072119239
 20
165.8488938495976015
 30
0.0
 11
480.9960801072119239
 21
165.8488938495976015
 31
0.0
  0
LINE
  5
C2
100
AcDbEntity
  8
0_vues
 62
256
370
-1
 48
1.0
  6
ByLayer
100
AcDbLine
 10
505.9960801072119239
 20
135.8488938495976015
 30
0.0
 11
480.9960801072119807
 21
135.8488938495976015
 31
0.0
  0
LINE
  5
C3
100
AcDbEntity
  8
0_vues
 62
256
370
-1
 48
1.0
  6
ByLayer
100
AcDbLine
 10
480.9960801072119807
 20
135.8488938495976015
 30
0.0
 11
480.9960801072119239
 21
165.8488938495976015
 31
0.0
  0
LINE
  5
C4
100
AcDbEntity
  8
0_vues
 62
256
370
-1
 48
1.0
  6
ByLayer
100
AcDbLine
 10
505.9960801072119239
 20
135.8488938495976015
 30
0.0
 11
505.9960801072119239
 21
165.8488938495976015
 31
0.0
  0
LINE
  5
C5
100
AcDbEntity
  8
0_ch_panne
 62
256
370
-1
 48
1.0
  6
ByLayer
100
AcDbLine
 10
350.0
 20
84.8528137423857345
 30
0.0
 11
0.0000000000000052
 21
84.8528137423857345
 31
0.0
  0
LINE
  5
C6
100
AcDbEntity
  8
0_ch_panne
 62
256
370
-1
 48
1.0
  6
ByLayer
100
AcDbLine
 10
350.0
 20
35.3553390593273917
 30
0.0
 11
0.0000000000000022
 21
35.3553390593274415
 31
0.0
  0
LINE
  5
C7
100
AcDbEntity
  8
0_ch_panne
 62
256
370
-1
 48
1.0
  6
ByLayer
100
AcDbLine
 10
-234.8421281211172129
 20
554.0281923842583183
 30
0.0
 11
-132.8063546263182104
 21
181.8837362246190139
 31
0.0
  0
LINE
  5
C8
100
AcDbEntity
  8
0_ch_panne
 62
256
370
-1
 48
1.0
  6
ByLayer
100
AcDbLine
 10
-279.1410592692179762
 20
576.1099653913296379
 30
0.0
 11
-157.4794555803904075
 21
132.3862615415607138
 31
0.0
  0
LINE
  5
C9
100
AcDbEntity
  8
0_ch_panne
 62
256
370
-1
 48
1.0
  6
ByLayer
100
AcDbLine
 10
940.7902622603079408
 20
734.3335566227445952
 30
0.0
 11
839.8373568149089579
 21
361.6817700937356221
 31
0.0
  0
LINE
  5
CA
100
AcDbEntity
  8
0_ch_panne
 62
256
370
-1
 48
1.0
  6
ByLayer
100
AcDbLine
 10
985.0350725162520575
 20
756.5235716163290363
 30
0.0
 11
864.6617305438952599
 21
312.1842954106770094
 31
0.0
  0
MTEXT
  5
CB
100
AcDbEntity
  8
0_vues
 62
256
370
-1
 48
1.0
  6
ByLayer
100
AcDbMText
 10
569.2481955648752319
 20
232.3220121410006129
 30
0.0
 40
8.0
 41
1.7777777777777779
 71
1
 72
1
  1
1
  7
textstyle15
 50
0.0
 73
2
 44
1.0
  0
MTEXT
  5
CC
100
AcDbEntity
  8
0_vues
 62
256
370
-1
 48
1.0
  6
ByLayer
100
AcDbMText
 10
491.6099721197958843
 20
153.4984723074468036
 30
0.0
 40
8.0
 41
3.5555555555555549
 71
1
 72
1
  1
2
  7
textstyle14
 50
0.0
 73
2
 44
1.0
  0
MTEXT
  5
CD
100
AcDbEntity
  8
0_vues
 62
256
370
-1
 48
1.0
  6
ByLayer
100
AcDbMText
 10
566.4037418750898496
 20
257.4145698606741917
 30
0.0
 40
3.0
 41
2.0
 71
1
 72
1
  1
A
  7
textstyle8
 50
0.0
 73
2
 44
1.0
  0
MTEXT
  5
CE
100
AcDbEntity
  8
0_vues
 62
256
370
-1
 48
1.0
  6
ByLayer
100
AcDbMText
 10
594.597857719135277
 20
227.3866903844958074
 30
0.0
 40
3.0
 41
1.666666666666667
 71
1
 72
1
  1
B
  7
textstyle7
 50
0.0
 73
2
 44
1.0
  0
MTEXT
  5
CF
100
AcDbEntity
  8
0_vues
 62
256
370
-1
 48
1.0
  6
ByLayer
100
AcDbMText
 10
573.0511350415721381
 20
205.839967706932697
 30
0.0
 40
3.0
 41
1.3333333333335191
 71
1
 72
1
  1
C
  7
textstyle10
 50
0.0
 73
2
 44
1.0
  0
MTEXT
  5
D0
100
AcDbEntity
  8
0_vues
 62
256
370
-1
 48
1.0
  6
ByLayer
100
AcDbMText
 10
544.3985782894934573
 20
234.7217449130278908
 30
0.0
 40
3.0
 41
1.666666666666853
 71
1
 72
1
  1
D
  7
textstyle9
 50
0.0
 73
2
 44
1.0
  0
MTEXT
  5
D1
100
AcDbEntity
  8
0_vues
 62
256
370
-1
 48
1.0
  6
ByLayer
100
AcDbMText
 10
506.5772033767498215
 20
169.1646950642721094
 30
0.0
 40
3.0
 41
2.0
 71
1
 72
1
  1
A
  7
textstyle12
 50
0.0
 73
2
 44
1.0
  0
MTEXT
  5
D2
100
AcDbEntity
  8
0_vues
 62
256
370
-1
 48
1.0
  6
ByLayer
100
AcDbMText
 10
507.7233056468328982
 20
135.0108474157943874
 30
0.0
 40
3.0
 41
1.666666666666667
 71
1
 72
1
  1
B
  7
textstyle11
 50
0.0
 73
2
 44
1.0
  0
MTEXT
  5
D3
100
AcDbEntity
  8
1_arba_gauche
 62
256
370
-1
 48
1.0
  6
ByLayer
100
AcDbMText
 10
-55.5323311225542966
 20
133.5420343661425022
 30
0.0
 40
3.0
 41
90.4166666666683625
 71
1
 72
1
  1
Entaille d'arba arrive \U+00e0 l'ar\U+00eate de la panne
  7
textstyle13
 50
0.0
 73
2
 44
1.0
  0
LEADER
  5
D4
100
AcDbEntity
  8
1_arba_gauche
 62
256
370
-1
 48
1.0
  6
ByLayer
100
AcDbLeader
  3
Standard
 71
1
 72
0
 73
3
 74
0
 75
0
 40
1.0
 41
10.0
 76
2
 10
22.7430942238521787
 20
84.8528137423857345
 10
18.5107770408514298
 20
127.3717753525253045
1001
ACAD
1000
DSTYLE
1002
{
1070
40
1040
2.5
1002
}
  0
LINE
  5
D5
100
AcDbEntity
  8
0_vues
 62
256
370
-1
 48
1.0
  6
ByLayer
100
AcDbLine
 10
-248.8163987220924014
 20
560.9939738004844685
 30
0.0
 11
-140.5895805498666107
 21
166.2695647906963927
 31
0.0
  0
MTEXT
  5
D6
100
AcDbEntity
  8
0_vues
 62
256
370
-1
 48
1.0
  6
ByLayer
100
AcDbMText
 10
-261.8732231906727748
 20
586.0894767868207964
 30
0.0
 40
3.0
 41
24.2500046285853301
 71
1
 72
1
  1
dessus arba
  7
textstyle0
 50
0.0
 73
2
 44
1.0
  0
LEADER
  5
D7
100
AcDbEntity
  8
0_vues
 62
256
370
-1
 48
1.0
  6
ByLayer
100
AcDbLeader
  3
Standard
 71
1
 72
0
 73
3
 74
0
 75
0
 40
1.0
 41
10.0
 76
2
 10
-248.8163987220924014
 20
560.9939738004844685
 10
-248.1325589047469009
 20
580.8858128533861418
1001
ACAD
1000
DSTYLE
1002
{
1070
40
1040
2.5
1002
}
  0
MTEXT
  5
D8
100
AcDbEntity
  8
1_arba_droite
 62
256
370
-1
 48
1.0
  6
ByLayer
100
AcDbMText
 10
320.7572318599745245
 20
148.2350653765417121
 30
0.0
 40
3.0
 41
87.2500061714479216
 71
1
 72
1
  1
croisement axe arba et chambr\U+00e9e dessous\Ppour avoir panne \U+00e0 l'axe
  7
textstyle1
 50
0.0
 73
2
 44
1.0
  0
LEADER
  5
D9
100
AcDbEntity
  8
1_arba_droite
 62
256
370
-1
 48
1.0
  6
ByLayer
100
AcDbLeader
  3
Standard
 71
1
 72
0
 73
3
 74
0
 75
0
 40
1.0
 41
10.0
 76
2
 10
307.4439307503096188
 20
84.8528137423857345
 10
330.7346977856134913
 20
131.291652757319298
1001
ACAD
1000
DSTYLE
1002
{
1070
40
1040
2.5
1002
}
  0
LINE
  5
DA
100
AcDbEntity
  8
0_vues
 62
256
370
-1
 48
1.0
  6
ByLayer
100
AcDbLine
 10
947.8030694243633434
 20
737.8506763757127374
 30
0.0
 11
843.7720227095702512
 21
353.8364150554377829
 31
0.0
  0
MTEXT
  5
DB
100
AcDbEntity
  8
0_vues
 62
256
370
-1
 48
1.0
  6
ByLayer
100
AcDbMText
 10
937.6716015793389261
 20
758.1999391025989325
 30
0.0
 40
3.0
 41
24.2500046285853301
 71
1
 72
1
  1
dessus arba
  7
textstyle2
 50
0.0
 73
2
 44
1.0
  0
LEADER
  5
DC
100
AcDbEntity
  8
0_vues
 62
256
370
-1
 48
1.0
  6
ByLayer
100
AcDbLeader
  3
Standard
 71
1
 72
0
 73
3
 74
0
 75
0
 40
1.0
 41
10.0
 76
2
 10
947.8030694243633434
 20
737.8506763757127374
 10
947.749923878248751
 20
753.9360335145986483
1001
ACAD
1000
DSTYLE
1002
{
1070
40
1040
2.5
1002
}
  0
LINE
  5
DD
100
AcDbEntity
  8
0_vues
 62
256
370
-1
 48
1.0
  6
ByLayer
100
AcDbLine
 10
-200.7740356197874974
 20
537.0462051014677627
 30
0.0
 11
-113.831506615024395
 21
219.9497685730530065
 31
0.0
  0
LINE
  5
DE
100
AcDbEntity
  8
0_vues
 62
256
370
-1
 48
1.0
  6
ByLayer
100
AcDbLine
 10
899.8454639652065907
 20
713.7985903109491801
 30
0.0
 11
816.8645161753902357
 21
407.4874613214980741
 31
0.0
  0
LINE
  5
DF
100
AcDbEntity
  8
0_vues
 62
256
370
-1
 48
1.0
  6
ByLayer
100
AcDbLine
 10
264.893521533985222
 20
130.6585049701471917
 30
0.0
 11
296.1793268982754057
 21
146.349215046741989
 31
0.0
  0
LINE
  5
E0
100
AcDbEntity
  8
0_vues
 62
256
370
-1
 48
1.0
  6
ByLayer
100
AcDbLine
 10
291.8010280681644986
 20
77.0074587040883785
 30
0.0
 11
323.0868334324546822
 21
92.6981687806830763
 31
0.0
  0
LINE
  5
E1
100
AcDbEntity
  8
0_vues
 62
256
370
-1
 48
1.0
  6
ByLayer
100
AcDbLine
 10
49.5011681586943766
 20
138.5330175247422915
 30
0.0
 11
80.8252427728322687
 21
122.9188460908196987
 31
0.0
  0
LINE
  5
E2
100
AcDbEntity
  8
0_vues
 62
256
370
-1
 48
1.0
  6
ByLayer
100
AcDbLine
 10
22.7430942238521787
 20
84.8528137423857345
 30
0.0
 11
54.0671688379900388
 21
69.2386423084631275
 31
0.0
  0
LINE
  5
E3
100
AcDbEntity
  8
0_vues
 62
256
370
-1
 48
1.0
  6
ByLayer
100
AcDbLine
 10
179.9640056876920085
 20
300.0
 30
0.0
 11
291.8010280681644986
 21
77.0074587040883927
 31
0.0
  0
LINE
  5
E4
100
AcDbEntity
  8
0_vues
 62
256
370
-1
 48
1.0
  6
ByLayer
100
AcDbLine
 10
199.4651699752479033
 20
339.1881799307279834
 30
0.0
 11
323.0868334324546822
 21
92.6981687806830763
 31
0.0
  0
LINE
  5
E5
100
AcDbEntity
  8
0_vues
 62
256
370
-1
 48
1.0
  6
ByLayer
100
AcDbLine
 10
169.0952245333413089
 20
300.0
 30
0.0
 11
54.0671688379900388
 21
69.2386423084631275
 31
0.0
  0
LINE
  5
E6
100
AcDbEntity
  8
0_vues
 62
256
370
-1
 48
1.0
  6
ByLayer
100
AcDbLine
 10
149.4651699752477896
 20
339.0739085275569096
 30
0.0
 11
22.7430942238521787
 21
84.8528137423857345
 31
0.0
  0
LINE
  5
E7
100
AcDbEntity
  8
0_vues
 62
256
370
-1
 48
1.0
  6
ByLayer
100
AcDbLine
 10
161.9651699752477896
 20
35.3553390593274202
 30
0.0
 11
186.9651699752477896
 21
35.3553390593274131
 31
0.0
  0
MTEXT
  5
E8
100
AcDbEntity
  8
0_vues
 62
256
370
-1
 48
1.0
  6
ByLayer
100
AcDbMText
 10
-202.5073894037095101
 20
545.4744495722815145
 30
0.0
 40
3.0
 41
26.5833379619186694
 71
1
 72
1
  1
dessous arba
  7
textstyle4
 50
0.0
 73
2
 44
1.0
  0
MTEXT
  5
E9
100
AcDbEntity
  8
0_vues
 62
256
370
-1
 48
1.0
  6
ByLayer
100
AcDbMText
 10
885.3732159620110451
 20
731.9585270198066382
 30
0.0
 40
3.0
 41
26.5833379619186694
 71
1
 72
1
  1
dessous arba
  7
textstyle5
 50
0.0
 73
2
 44
1.0
  0
LEADER
  5
EA
100
AcDbEntity
  8
0_vues
 62
256
370
-1
 48
1.0
  6
ByLayer
100
AcDbLeader
  3
Standard
 71
1
 72
0
 73
3
 74
0
 75
0
 40
1.0
 41
10.0
 76
2
 10
899.8454639652065907
 20
713.7985903109491801
 10
891.5098035196992896
 20
726.5037825240838174
1001
ACAD
1000
DSTYLE
1002
{
1070
40
1040
2.5
1002
}
  0
LEADER
  5
EB
100
AcDbEntity
  8
0_vues
 62
256
370
-1
 48
1.0
  6
ByLayer
100
AcDbLeader
  3
Standard
 71
1
 72
0
 73
3
 74
0
 75
0
 40
1.0
 41
10.0
 76
2
 10
-200.7740356197874974
 20
537.0462051014677627
 10
-184.8636478898058044
 20
540.0866631645111511
1001
ACAD
1000
DSTYLE
1002
{
1070
40
1040
2.5
1002
}
  0
MTEXT
  5
EC
100
AcDbEntity
  8
0_vues
 62
256
370
-1
 48
1.0
  6
ByLayer
100
AcDbMText
 10
478.465423466511993
 20
135.5709527197830937
 30
0.0
 40
3.0
 41
1.3333333333335191
 71
1
 72
1
  1
C
  7
textstyle6
 50
0.0
 73
2
 44
1.0
  0
MTEXT
  5
ED
100
AcDbEntity
  8
0_vues
 62
256
370
-1
 48
1.0
  6
ByLayer
100
AcDbMText
 10
477.4305306976585825
 20
168.6875213230889017
 30
0.0
 40
3.0
 41
1.666666666666853
 71
1
 72
1
  1
D
  7
textstyle3
 50
0.0
 73
2
 44
1.0
  0
LINE
  5
EE
100
AcDbEntity
  8
coupe_bord_pannes
 62
256
370
-1
 48
1.0
  6
ByLayer
100
AcDbLine
 10
235.7063749118775888
 20
266.9266138014772878
 30
0.0
 11
306.5611499149882775
 21
125.6488329326216018
 31
0.0
  0
LINE
  5
EF
100
AcDbEntity
  8
coupe_bord_pannes
 62
256
370
-1
 48
1.0
  6
ByLayer
100
AcDbLine
 10
247.5868101305636912
 20
253.2076708076533862
 30
0.0
 11
237.5868101305636912
 21
253.2076708076533862
 31
0.0
  0
LINE
  5
F0
100
AcDbEntity
  8
coupe_bord_pannes
 62
256
370
-1
 48
1.0
  6
ByLayer
100
AcDbLine
 10
258.225827442986315
 20
231.9944673720569881
 30
0.0
 11
248.2258274429862865
 21
231.9944673720569881
 31
0.0
  0
LINE
  5
F1
100
AcDbEntity
  8
coupe_bord_pannes
 62
256
370
-1
 48
1.0
  6
ByLayer
100
AcDbLine
 10
259.9989969950567001
 20
228.4589334661243072
 30
0.0
 11
249.9989969950567001
 21
228.4589334661243072
 31
0.0
  0
LINE
  5
F2
100
AcDbEntity
  8
coupe_bord_pannes
 62
256
370
-1
 48
1.0
  6
ByLayer
100
AcDbLine
 10
270.6380143074794091
 20
207.2457300305277954
 30
0.0
 11
260.6380143074794091
 21
207.2457300305277954
 31
0.0
  0
LINE
  5
F3
100
AcDbEntity
  8
coupe_bord_pannes
 62
256
370
-1
 48
1.0
  6
ByLayer
100
AcDbLine
 10
291.3996903148566844
 20
165.8488938495976015
 30
0.0
 11
281.3996903148566844
 21
165.8488938495976015
 31
0.0
  0
LINE
  5
F4
100
AcDbEntity
  8
coupe_bord_pannes
 62
256
370
-1
 48
1.0
  6
ByLayer
100
AcDbLine
 10
306.4455328884068877
 20
135.8488938495976015
 30
0.0
 11
296.4455328884068877
 21
135.8488938495976015
 31
0.0
  0
LINE
  5
F5
100
AcDbEntity
  8
coupe_bord_pannes
 62
256
370
-1
 48
1.0
  6
ByLayer
100
AcDbLine
 10
68.1173653188050565
 20
165.8488938495976015
 30
0.0
 11
58.1173653188050565
 21
165.8488938495976015
 31
0.0
  0
LINE
  5
F6
100
AcDbEntity
  8
coupe_bord_pannes
 62
256
370
-1
 48
1.0
  6
ByLayer
100
AcDbLine
 10
53.1632078923552314
 20
135.8488938495976015
 30
0.0
 11
43.1632078923552314
 21
135.8488938495976015
 31
0.0
  0
LINE
  5
F7
100
AcDbEntity
  8
coupe_bord_pannes
 62
256
370
-1
 48
1.0
  6
ByLayer
100
AcDbLine
 10
88.7525254923578331
 20
207.2457300305277954
 30
0.0
 11
78.7525254923578331
 21
207.2457300305277954
 31
0.0
  0
LINE
  5
F8
100
AcDbEntity
  8
coupe_bord_pannes
 62
256
370
-1
 48
1.0
  6
ByLayer
100
AcDbLine
 10
99.3267116155316927
 20
228.4589334661243072
 30
0.0
 11
89.3267116155316927
 21
228.4589334661243072
 31
0.0
  0
LINE
  5
F9
100
AcDbEntity
  8
coupe_bord_pannes
 62
256
370
-1
 48
1.0
  6
ByLayer
100
AcDbLine
 10
101.0890759693940026
 20
231.9944673720569881
 30
0.0
 11
91.0890759693939884
 21
231.9944673720569881
 31
0.0
  0
LINE
  5
FA
100
AcDbEntity
  8
coupe_bord_pannes
 62
256
370
-1
 48
1.0
  6
ByLayer
100
AcDbLine
 10
111.6632620925678054
 20
253.2076708076533862
 30
0.0
 11
101.6632620925678054
 21
253.2076708076533862
 31
0.0
  0
MTEXT
  5
FB
100
AcDbEntity
  8
coupe_bord_pannes
 62
256
370
-1
 48
1.0
  6
ByLayer
100
AcDbMText
 10
242.5588090080696873
 20
257.2350845806150801
 30
0.0
 40
3.0
 41
3.666666666666667
 71
1
 72
1
  1
1A
  7
textstyle66
 50
0.0
 73
2
 44
1.0
  0
MTEXT
  5
FC
100
AcDbEntity
  8
coupe_bord_pannes
 62
256
370
-1
 48
1.0
  6
ByLayer
100
AcDbMText
 10
101.5861090834098945
 20
258.0836284821763797
 30
0.0
 40
3.0
 41
3.666666666666667
 71
1
 72
1
  1
1A
  7
textstyle65
 50
0.0
 73
2
 44
1.0
  0
MTEXT
  5
FD
100
AcDbEntity
  8
coupe_bord_pannes
 62
256
370
-1
 48
1.0
  6
ByLayer
100
AcDbMText
 10
254.2386568816299928
 20
236.9904440674081911
 30
0.0
 40
3.0
 41
3.33333333333352
 71
1
 72
1
  1
1D
  7
textstyle58
 50
0.0
 73
2
 44
1.0
  0
MTEXT
  5
FE
100
AcDbEntity
  8
coupe_bord_pannes
 62
256
370
-1
 48
1.0
  6
ByLayer
100
AcDbMText
 10
92.4504206842291154
 20
236.3005155548393077
 30
0.0
 40
3.0
 41
3.33333333333352
 71
1
 72
1
  1
1D
  7
textstyle57
 50
0.0
 73
2
 44
1.0
  0
MTEXT
  5
FF
100
AcDbEntity
  8
coupe_bord_pannes
 62
256
370
-1
 48
1.0
  6
ByLayer
100
AcDbMText
 10
256.7006901305139763
 20
227.6322859417741995
 30
0.0
 40
3.0
 41
3.333333333333333
 71
1
 72
1
  1
1B
  7
textstyle60
 50
0.0
 73
2
 44
1.0
  0
MTEXT
  5
100
100
AcDbEntity
  8
coupe_bord_pannes
 62
256
370
-1
 48
1.0
  6
ByLayer
100
AcDbMText
 10
88.4875144404394405
 20
227.4024632541363928
 30
0.0
 40
3.0
 41
3.333333333333333
 71
1
 72
1
  1
1B
  7
textstyle59
 50
0.0
 73
2
 44
1.0
  0
MTEXT
  5
101
100
AcDbEntity
  8
coupe_bord_pannes
 62
256
370
-1
 48
1.0
  6
ByLayer
100
AcDbMText
 10
266.2497311200517061
 20
211.0618912834586922
 30
0.0
 40
3.0
 41
3.0
 71
1
 72
1
  1
1C
  7
textstyle62
 50
0.0
 73
2
 44
1.0
  0
MTEXT
  5
102
100
AcDbEntity
  8
coupe_bord_pannes
 62
256
370
-1
 48
1.0
  6
ByLayer
100
AcDbMText
 10
80.1838588974417377
 20
211.3427454302097885
 30
0.0
 40
3.0
 41
3.0
 71
1
 72
1
  1
1C
  7
textstyle61
 50
0.0
 73
2
 44
1.0
  0
MTEXT
  5
103
100
AcDbEntity
  8
coupe_bord_pannes
 62
256
370
-1
 48
1.0
  6
ByLayer
100
AcDbMText
 10
287.5589912774979098
 20
169.9212221185215128
 30
0.0
 40
3.0
 41
7.0000000000001856
 71
1
 72
1
  1
2AD
  7
textstyle64
 50
0.0
 73
2
 44
1.0
  0
MTEXT
  5
104
100
AcDbEntity
  8
coupe_bord_pannes
 62
256
370
-1
 48
1.0
  6
ByLayer
100
AcDbMText
 10
56.6404073728404995
 20
170.1027618857420975
 30
0.0
 40
3.0
 41
7.0000000000001856
 71
1
 72
1
  1
2AD
  7
textstyle63
 50
0.0
 73
2
 44
1.0
  0
MTEXT
  5
105
100
AcDbEntity
  8
coupe_bord_pannes
 62
256
370
-1
 48
1.0
  6
ByLayer
100
AcDbMText
 10
301.9006328879286798
 20
140.5117798287774065
 30
0.0
 40
3.0
 41
6.333333333333333
 71
1
 72
1
  1
2BC
  7
textstyle74
 50
0.0
 73
2
 44
1.0
  0
MTEXT
  5
106
100
AcDbEntity
  8
coupe_bord_pannes
 62
256
370
-1
 48
1.0
  6
ByLayer
100
AcDbMText
 10
42.2987657624097295
 20
139.9671605271155101
 30
0.0
 40
3.0
 41
6.333333333333333
 71
1
 72
1
  1
2BC
  7
textstyle73
 50
0.0
 73
2
 44
1.0
  0
LINE
  5
107
100
AcDbEntity
  8
barbe_panne_vertical
 62
256
370
-1
 48
1.0
  6
ByLayer
100
AcDbLine
 10
198.0426730715570045
 20
263.9528315636247271
 30
0.0
 11
268.8154601949311768
 21
122.8385268430853046
 31
0.0
  0
LINE
  5
108
100
AcDbEntity
  8
barbe_panne_vertical
 62
256
370
-1
 48
1.0
  6
ByLayer
100
AcDbLine
 10
208.4316729769514041
 20
253.2076708076533862
 30
0.0
 11
198.4316729769514041
 21
253.2076708076533862
 31
0.0
  0
LINE
  5
109
100
AcDbEntity
  8
barbe_panne_vertical
 62
256
370
-1
 48
1.0
  6
ByLayer
100
AcDbLine
 10
219.070690289374113
 20
231.9944673720569881
 30
0.0
 11
209.070690289374113
 21
231.9944673720569881
 31
0.0
  0
LINE
  5
10A
100
AcDbEntity
  8
barbe_panne_vertical
 62
256
370
-1
 48
1.0
  6
ByLayer
100
AcDbLine
 10
220.8438598414444982
 20
228.4589334661243072
 30
0.0
 11
210.8438598414444982
 21
228.4589334661243072
 31
0.0
  0
LINE
  5
10B
100
AcDbEntity
  8
barbe_panne_vertical
 62
256
370
-1
 48
1.0
  6
ByLayer
100
AcDbLine
 10
231.4828771538670935
 20
207.2457300305277954
 30
0.0
 11
221.4828771538670935
 21
207.2457300305277954
 31
0.0
  0
LINE
  5
10C
100
AcDbEntity
  8
barbe_panne_vertical
 62
256
370
-1
 48
1.0
  6
ByLayer
100
AcDbLine
 10
252.2445531612443972
 20
165.8488938495976015
 30
0.0
 11
242.2445531612443972
 21
165.8488938495976015
 31
0.0
  0
LINE
  5
10D
100
AcDbEntity
  8
barbe_panne_vertical
 62
256
370
-1
 48
1.0
  6
ByLayer
100
AcDbLine
 10
267.290395734794572
 20
135.8488938495976015
 30
0.0
 11
257.290395734794572
 21
135.8488938495976015
 31
0.0
  0
MTEXT
  5
10E
100
AcDbEntity
  8
barbe_panne_vertical
 62
256
370
-1
 48
1.0
  6
ByLayer
100
AcDbMText
 10
203.5999683973128924
 20
258.0356087027544163
 30
0.0
 40
3.0
 41
3.666666666666667
 71
1
 72
1
  1
1A
  7
textstyle67
 50
0.0
 73
2
 44
1.0
  0
MTEXT
  5
10F
100
AcDbEntity
  8
barbe_panne_vertical
 62
256
370
-1
 48
1.0
  6
ByLayer
100
AcDbMText
 10
214.2736233591641906
 20
236.9551401530981991
 30
0.0
 40
3.0
 41
3.33333333333352
 71
1
 72
1
  1
1D
  7
textstyle69
 50
0.0
 73
2
 44
1.0
  0
MTEXT
  5
110
100
AcDbEntity
  8
barbe_panne_vertical
 62
256
370
-1
 48
1.0
  6
ByLayer
100
AcDbMText
 10
219.0767680919973088
 20
226.8151679393394886
 30
0.0
 40
3.0
 41
3.333333333333333
 71
1
 72
1
  1
1B
  7
textstyle68
 50
0.0
 73
2
 44
1.0
  0
MTEXT
  5
111
100
AcDbEntity
  8
barbe_panne_vertical
 62
256
370
-1
 48
1.0
  6
ByLayer
100
AcDbMText
 10
227.348850687431991
 20
211.3383682446551006
 30
0.0
 40
3.0
 41
3.0
 71
1
 72
1
  1
1C
  7
textstyle71
 50
0.0
 73
2
 44
1.0
  0
MTEXT
  5
112
100
AcDbEntity
  8
barbe_panne_vertical
 62
256
370
-1
 48
1.0
  6
ByLayer
100
AcDbMText
 10
248.1624778630419996
 20
170.2447966415276994
 30
0.0
 40
3.0
 41
7.0000000000001856
 71
1
 72
1
  1
2AD
  7
textstyle70
 50
0.0
 73
2
 44
1.0
  0
MTEXT
  5
113
100
AcDbEntity
  8
barbe_panne_vertical
 62
256
370
-1
 48
1.0
  6
ByLayer
100
AcDbMText
 10
262.8387534355874777
 20
140.3585627483442124
 30
0.0
 40
3.0
 41
6.333333333333333
 71
1
 72
1
  1
2BC
  7
textstyle72
 50
0.0
 73
2
 44
1.0
  0
LINE
  5
114
100
AcDbEntity
  8
1_pannes_plan
 62
256
370
-1
 48
1.0
  6
ByLayer
100
AcDbLine
 10
505.9960801072119239
 20
165.8488938495976015
 30
0.0
 11
400.0
 21
59.8528137423856634
 31
0.0
  0
LINE
  5
115
100
AcDbEntity
  8
1_pannes_plan
 62
256
370
-1
 48
1.0
  6
ByLayer
100
AcDbLine
 10
480.9960801072119807
 20
135.8488938495976015
 30
0.0
 11
400.0
 21
54.8528137423856776
 31
0.0
  0
LINE
  5
116
100
AcDbEntity
  8
1_pannes_plan
 62
256
370
-1
 48
1.0
  6
ByLayer
100
AcDbLine
 10
505.9960801072119239
 20
135.8488938495976868
 30
0.0
 11
400.0
 21
29.8528137423856599
 31
0.0
  0
MTEXT
  5
117
100
AcDbEntity
  8
1_pannes_plan
 62
256
370
-1
 48
1.0
  6
ByLayer
100
AcDbMText
 10
384.7495733748800717
 20
87.3117325845355623
 30
0.0
 40
3.0
 41
13.6666666666670409
 71
1
 72
1
  1
1AD/2D
  7
textstyle49
 50
0.0
 73
2
 44
1.0
  0
MTEXT
  5
118
100
AcDbEntity
  8
1_pannes_plan
 62
256
370
-1
 48
1.0
  6
ByLayer
100
AcDbMText
 10
393.604216420544617
 20
63.1284589000522871
 30
0.0
 40
3.0
 41
4.3333333333333321
 71
1
 72
1
  1
2A
  7
textstyle48
 50
0.0
 73
2
 44
1.0
  0
MTEXT
  5
119
100
AcDbEntity
  8
1_pannes_plan
 62
256
370
-1
 48
1.0
  6
ByLayer
100
AcDbMText
 10
394.984073445682327
 20
56.2291737743635096
 30
0.0
 40
3.0
 41
3.6666666666666661
 71
1
 72
1
  1
2C
  7
textstyle51
 50
0.0
 73
2
 44
1.0
  0
MTEXT
  5
11A
100
AcDbEntity
  8
1_pannes_plan
 62
256
370
-1
 48
1.0
  6
ByLayer
100
AcDbMText
 10
394.6391091893979137
 20
30.3568545530306118
 30
0.0
 40
3.0
 41
3.9999999999999991
 71
1
 72
1
  1
2B
  7
textstyle50
 50
0.0
 73
2
 44
1.0
  0
MTEXT
  5
11B
100
AcDbEntity
  8
1_pannes_plan
 62
256
370
-1
 48
1.0
  6
ByLayer
100
AcDbMText
 10
392.1803591267558886
 20
37.3603394747067483
 30
0.0
 40
3.0
 41
5.6666666666666661
 71
1
 72
1
  1
1BC
  7
textstyle52
 50
0.0
 73
2
 44
1.0
  0
LINE
  5
11C
100
AcDbEntity
  8
1_arba_gauche
 62
256
370
-1
 48
1.0
  6
ByLayer
100
AcDbLine
 10
-140.5895805498666107
 20
166.2695647906965064
 30
0.0
 11
22.7430942238521787
 21
84.8528137423857345
 31
0.0
  0
LINE
  5
11D
100
AcDbEntity
  8
1_pannes_plan
 62
256
370
-1
 48
1.0
  6
ByLayer
100
AcDbLine
 10
400.0
 20
29.8528137423856492
 30
0.0
 11
197.779085333103211
 21
29.8528137423856386
 31
0.0
  0
LINE
  5
11E
100
AcDbEntity
  8
1_pannes_plan
 62
256
370
-1
 48
1.0
  6
ByLayer
100
AcDbLine
 10
400.0
 20
54.8528137423856919
 30
0.0
 11
247.6267423409244088
 21
54.8528137423856776
 31
0.0
  0
LINE
  5
11F
100
AcDbEntity
  8
1_pannes_plan
 62
256
370
-1
 48
1.0
  6
ByLayer
100
AcDbLine
 10
400.0
 20
59.8528137423856776
 30
0.0
 11
257.59627374248862
 21
59.8528137423856776
 31
0.0
  0
LINE
  5
120
100
AcDbEntity
  8
1_arba_droite
 62
256
370
-1
 48
1.0
  6
ByLayer
100
AcDbLine
 10
197.779085333103211
 20
29.8528137423856386
 30
0.0
 11
843.7720227095702512
 21
353.8364150554377829
 31
0.0
  0
LINE
  5
121
100
AcDbEntity
  8
barbe_panne_horizontal
 62
256
370
-1
 48
1.0
  6
ByLayer
100
AcDbLine
 10
202.1889982076120873
 20
170.329728406399596
 30
0.0
 11
206.4257276484925114
 21
161.8820869662419
 31
0.0
  0
LINE
  5
122
100
AcDbEntity
  8
barbe_panne_horizontal
 62
256
370
-1
 48
1.0
  6
ByLayer
100
AcDbLine
 10
200.244561187279686
 20
165.8488938495976015
 30
0.0
 11
208.9383851701242918
 21
165.8488938495976015
 31
0.0
  0
LINE
  5
123
100
AcDbEntity
  8
barbe_panne_horizontal
 62
256
370
-1
 48
1.0
  6
ByLayer
100
AcDbLine
 10
205.4740804884179113
 20
138.9012709420015881
 30
0.0
 11
208.7714579747139112
 21
132.3266092635140012
 31
0.0
  0
LINE
  5
124
100
AcDbEntity
  8
barbe_panne_horizontal
 62
256
370
-1
 48
1.0
  6
ByLayer
100
AcDbLine
 10
203.4139520132818859
 20
135.8488938495976015
 30
0.0
 11
209.4812441455459862
 21
135.8488938495976015
 31
0.0
  0
LINE
  5
125
100
AcDbEntity
  8
barbe_panne_horizontal
 62
256
370
-1
 48
1.0
  6
ByLayer
100
AcDbLine
 10
220.3930834484256138
 20
258.424044884166392
 30
0.0
 11
226.2886237044723998
 21
246.6688901417975046
 31
0.0
  0
LINE
  5
126
100
AcDbEntity
  8
barbe_panne_horizontal
 62
256
370
-1
 48
1.0
  6
ByLayer
100
AcDbLine
 10
218.5738797336562129
 20
253.2076708076533862
 30
0.0
 11
228.0139476291296887
 21
253.2076708076533862
 31
0.0
  0
LINE
  5
127
100
AcDbEntity
  8
barbe_panne_horizontal
 62
256
370
-1
 48
1.0
  6
ByLayer
100
AcDbLine
 10
231.23887468640919
 20
236.7985536197886915
 30
0.0
 11
235.3886669252752881
 21
228.5242568127202958
 31
0.0
  0
LINE
  5
128
100
AcDbEntity
  8
barbe_panne_horizontal
 62
256
370
-1
 48
1.0
  6
ByLayer
100
AcDbLine
 10
227.6508680946884056
 20
231.9944673720569881
 30
0.0
 11
238.3617143607064861
 21
231.9944673720569881
 31
0.0
  0
LINE
  5
129
100
AcDbEntity
  8
barbe_panne_horizontal
 62
256
370
-1
 48
1.0
  6
ByLayer
100
AcDbLine
 10
264.100719111959279
 20
171.2751156370210026
 30
0.0
 11
268.7550317196092919
 21
161.9948524980883917
 31
0.0
  0
LINE
  5
12A
100
AcDbEntity
  8
barbe_panne_horizontal
 62
256
370
-1
 48
1.0
  6
ByLayer
100
AcDbLine
 10
261.5045465653591918
 20
165.8488938495976015
 30
0.0
 11
272.1782015272106037
 21
165.8488938495976015
 31
0.0
  0
LINE
  5
12B
100
AcDbEntity
  8
barbe_panne_horizontal
 62
256
370
-1
 48
1.0
  6
ByLayer
100
AcDbLine
 10
110.9668375818912978
 20
230.3270072664797112
 30
0.0
 11
114.5432236155124031
 21
223.196028693219489
 31
0.0
  0
LINE
  5
12C
100
AcDbEntity
  8
barbe_panne_horizontal
 62
256
370
-1
 48
1.0
  6
ByLayer
100
AcDbLine
 10
108.6609992818204944
 20
228.4589334661243072
 30
0.0
 11
118.5179365816833013
 21
228.4589334661243072
 31
0.0
  0
LINE
  5
12D
100
AcDbEntity
  8
barbe_panne_horizontal
 62
256
370
-1
 48
1.0
  6
ByLayer
100
AcDbLine
 10
120.5654155373175058
 20
211.1883423990830124
 30
0.0
 11
125.4587518626661051
 21
201.4314883682874893
 31
0.0
  0
LINE
  5
12E
100
AcDbEntity
  8
barbe_panne_horizontal
 62
256
370
-1
 48
1.0
  6
ByLayer
100
AcDbLine
 10
117.8138696316930947
 20
207.2457300305277954
 30
0.0
 11
127.9054959148859041
 21
207.2457300305277954
 31
0.0
  0
LINE
  5
12F
100
AcDbEntity
  8
barbe_panne_horizontal
 62
256
370
-1
 48
1.0
  6
ByLayer
100
AcDbLine
 10
142.9479080161731019
 20
139.1810425515593863
 30
0.0
 11
146.4768392387312872
 21
132.1446844241085898
 31
0.0
  0
LINE
  5
130
100
AcDbEntity
  8
barbe_panne_horizontal
 62
256
370
-1
 48
1.0
  6
ByLayer
100
AcDbLine
 10
139.6399450813892997
 20
135.8488938495976015
 30
0.0
 11
149.9662603479121969
 21
135.8488938495976015
 31
0.0
  0
MTEXT
  5
131
100
AcDbEntity
  8
barbe_panne_horizontal
 62
256
370
-1
 48
1.0
  6
ByLayer
100
AcDbMText
 10
144.1143550880474891
 20
140.7769700228504917
 30
0.0
 40
3.0
 41
3.9999999999999991
 71
1
 72
1
  1
2B
  7
textstyle54
 50
0.0
 73
2
 44
1.0
  0
MTEXT
  5
132
100
AcDbEntity
  8
barbe_panne_horizontal
 62
256
370
-1
 48
1.0
  6
ByLayer
100
AcDbMText
 10
122.5730514854130035
 20
212.0756509611476872
 30
0.0
 40
3.0
 41
3.0
 71
1
 72
1
  1
1C
  7
textstyle53
 50
0.0
 73
2
 44
1.0
  0
MTEXT
  5
133
100
AcDbEntity
  8
barbe_panne_horizontal
 62
256
370
-1
 48
1.0
  6
ByLayer
100
AcDbMText
 10
114.9880854281473006
 20
226.9421844333884053
 30
0.0
 40
3.0
 41
3.333333333333333
 71
1
 72
1
  1
1B
  7
textstyle56
 50
0.0
 73
2
 44
1.0
  0
MTEXT
  5
134
100
AcDbEntity
  8
barbe_panne_horizontal
 62
256
370
-1
 48
1.0
  6
ByLayer
100
AcDbMText
 10
207.2212726844977055
 20
140.4735713805598891
 30
0.0
 40
3.0
 41
3.6666666666666661
 71
1
 72
1
  1
2C
  7
textstyle55
 50
0.0
 73
2
 44
1.0
  0
MTEXT
  5
135
100
AcDbEntity
  8
barbe_panne_horizontal
 62
256
370
-1
 48
1.0
  6
ByLayer
100
AcDbMText
 10
205.4008808307538914
 20
171.4202328942037923
 30
0.0
 40
3.0
 41
4.3333333333333321
 71
1
 72
1
  1
2A
  7
textstyle37
 50
0.0
 73
2
 44
1.0
  0
MTEXT
  5
136
100
AcDbEntity
  8
barbe_panne_horizontal
 62
256
370
-1
 48
1.0
  6
ByLayer
100
AcDbMText
 10
266.687406573460521
 20
172.6338274633662877
 30
0.0
 40
3.0
 41
4.0000000000001856
 71
1
 72
1
  1
2D
  7
textstyle36
 50
0.0
 73
2
 44
1.0
  0
MTEXT
  5
137
100
AcDbEntity
  8
barbe_panne_horizontal
 62
256
370
-1
 48
1.0
  6
ByLayer
100
AcDbMText
 10
222.6946034413196003
 20
258.4956432316134851
 30
0.0
 40
3.0
 41
3.666666666666667
 71
1
 72
1
  1
1A
  7
textstyle39
 50
0.0
 73
2
 44
1.0
  0
MTEXT
  5
138
100
AcDbEntity
  8
barbe_panne_horizontal
 62
256
370
-1
 48
1.0
  6
ByLayer
100
AcDbMText
 10
234.527150490654094
 20
236.6509409866885107
 30
0.0
 40
3.0
 41
3.33333333333352
 71
1
 72
1
  1
1D
  7
textstyle38
 50
0.0
 73
2
 44
1.0
  0
LINE
  5
139
100
AcDbEntity
  8
engueulement
 62
256
370
-1
 48
1.0
  6
ByLayer
100
AcDbLine
 10
149.4651699752477896
 20
300.0
 30
0.0
 11
129.98792399565491
 21
300.0
 31
0.0
  0
LINE
  5
13A
100
AcDbEntity
  8
engueulement
 62
256
370
-1
 48
1.0
  6
ByLayer
100
AcDbLine
 10
149.5415742644981094
 20
300.0
 30
0.0
 11
149.5415742644981094
 21
260.7728144530735221
 31
0.0
  0
LINE
  5
13B
100
AcDbEntity
  8
engueulement
 62
256
370
-1
 48
1.0
  6
ByLayer
100
AcDbLine
 10
199.4651699752477896
 20
300.0
 30
0.0
 11
199.4651699752477896
 21
261.1165060536300189
 31
0.0
  0
LINE
  5
13C
100
AcDbEntity
  8
engueulement
 62
256
370
-1
 48
1.0
  6
ByLayer
100
AcDbLine
 10
199.4651699752477896
 20
300.0
 30
0.0
 11
219.1191428413042956
 21
300.0
 31
0.0
  0
MTEXT
  5
13D
100
AcDbEntity
  8
engueulement
 62
256
370
-1
 48
1.0
  6
ByLayer
100
AcDbMText
 10
143.5979558715310134
 20
346.0147963225513195
 30
0.0
 40
3.0
 41
5.3333333333333339
 71
1
 72
1
  1
E1o
  7
textstyle29
 50
0.0
 73
2
 44
1.0
  0
MTEXT
  5
13E
100
AcDbEntity
  8
engueulement
 62
256
370
-1
 48
1.0
  6
ByLayer
100
AcDbMText
 10
123.8143975574775055
 20
302.8649595425367238
 30
0.0
 40
3.0
 41
6.0
 71
1
 72
1
  1
E2o
  7
textstyle28
 50
0.0
 73
2
 44
1.0
  0
MTEXT
  5
13F
100
AcDbEntity
  8
engueulement
 62
256
370
-1
 48
1.0
  6
ByLayer
100
AcDbMText
 10
150.2009493312438053
 20
258.8619486130655218
 30
0.0
 40
3.0
 41
5.333333333333333
 71
1
 72
1
  1
E1u
  7
textstyle31
 50
0.0
 73
2
 44
1.0
  0
MTEXT
  5
140
100
AcDbEntity
  8
engueulement
 62
256
370
-1
 48
1.0
  6
ByLayer
100
AcDbMText
 10
-217.8778388963563089
 20
527.3456695523574354
 30
0.0
 40
3.0
 41
5.3333333333333339
 71
1
 72
1
  1
E1o
  7
textstyle30
 50
0.0
 73
2
 44
1.0
  0
MTEXT
  5
141
100
AcDbEntity
  8
engueulement
 62
256
370
-1
 48
1.0
  6
ByLayer
100
AcDbMText
 10
-204.8273517723029897
 20
471.806424290561722
 30
0.0
 40
3.0
 41
6.0
 71
1
 72
1
  1
E2o
  7
textstyle33
 50
0.0
 73
2
 44
1.0
  0
MTEXT
  5
142
100
AcDbEntity
  8
engueulement
 62
256
370
-1
 48
1.0
  6
ByLayer
100
AcDbMText
 10
-197.9280666466140985
 20
439.0348199435393894
 30
0.0
 40
3.0
 41
5.333333333333333
 71
1
 72
1
  1
E1u
  7
textstyle32
 50
0.0
 73
2
 44
1.0
  0
MTEXT
  5
143
100
AcDbEntity
  8
engueulement
 62
256
370
-1
 48
1.0
  6
ByLayer
100
AcDbMText
 10
166.2421760308374132
 20
305.2665319089534819
 30
0.0
 40
3.0
 41
5.9999999999999991
 71
1
 72
1
  1
E2u
  7
textstyle35
 50
0.0
 73
2
 44
1.0
  0
MTEXT
  5
144
100
AcDbEntity
  8
engueulement
 62
256
370
-1
 48
1.0
  6
ByLayer
100
AcDbMText
 10
-212.4057337408451929
 20
493.9233833596791214
 30
0.0
 40
3.0
 41
5.9999999999999991
 71
1
 72
1
  1
E2u
  7
textstyle34
 50
0.0
 73
2
 44
1.0
  0
LINE
  5
145
100
AcDbEntity
  8
engueulement
 62
256
370
-1
 48
1.0
  6
ByLayer
100
AcDbLine
 10
-241.3886631281457937
 20
533.9035668928743235
 30
0.0
 11
-193.3463000258406055
 21
509.9557981938563103
 31
0.0
  0
LINE
  5
146
100
AcDbEntity
  8
engueulement
 62
256
370
-1
 48
1.0
  6
ByLayer
100
AcDbLine
 10
-232.0868387513596929
 20
499.977991034246827
 30
0.0
 11
-184.0444756490545046
 21
476.0302223352288138
 31
0.0
  0
LINE
  5
147
100
AcDbEntity
  8
engueulement
 62
256
370
-1
 48
1.0
  6
ByLayer
100
AcDbLine
 10
-225.895794073932791
 20
477.3980381840979135
 30
0.0
 11
-177.8534309716276027
 21
453.4502694850797866
 31
0.0
  0
LINE
  5
148
100
AcDbEntity
  8
engueulement
 62
256
370
-1
 48
1.0
  6
ByLayer
100
AcDbLine
 10
-216.5331951066436886
 20
443.2508054873200081
 30
0.0
 11
-168.4908320043385004
 21
419.3030367883021086
 31
0.0
  0
MTEXT
  5
149
100
AcDbEntity
  8
engueulement
 62
256
370
-1
 48
1.0
  6
ByLayer
100
AcDbMText
 10
197.3286438553614062
 20
343.467430308913606
 30
0.0
 40
3.0
 41
5.3333333333333339
 71
1
 72
1
  1
E1o
  7
textstyle45
 50
0.0
 73
2
 44
1.0
  0
MTEXT
  5
14A
100
AcDbEntity
  8
engueulement
 62
256
370
-1
 48
1.0
  6
ByLayer
100
AcDbMText
 10
914.6621071934366682
 20
706.3992090660184431
 30
0.0
 40
3.0
 41
5.3333333333333339
 71
1
 72
1
  1
E1o
  7
textstyle44
 50
0.0
 73
2
 44
1.0
  0
MTEXT
  5
14B
100
AcDbEntity
  8
engueulement
 62
256
370
-1
 48
1.0
  6
ByLayer
100
AcDbMText
 10
201.0440367312992862
 20
267.0954656368597284
 30
0.0
 40
3.0
 41
5.333333333333333
 71
1
 72
1
  1
E1u
  7
textstyle47
 50
0.0
 73
2
 44
1.0
  0
MTEXT
  5
14C
100
AcDbEntity
  8
engueulement
 62
256
370
-1
 48
1.0
  6
ByLayer
100
AcDbMText
 10
885.3796790855857353
 20
611.3335879400473232
 30
0.0
 40
3.0
 41
5.333333333333333
 71
1
 72
1
  1
E1u
  7
textstyle46
 50
0.0
 73
2
 44
1.0
  0
MTEXT
  5
14D
100
AcDbEntity
  8
engueulement
 62
256
370
-1
 48
1.0
  6
ByLayer
100
AcDbMText
 10
220.5708171730865956
 20
304.2606498618051205
 30
0.0
 40
3.0
 41
6.0
 71
1
 72
1
  1
E2o
  7
textstyle41
 50
0.0
 73
2
 44
1.0
  0
MTEXT
  5
14E
100
AcDbEntity
  8
engueulement
 62
256
370
-1
 48
1.0
  6
ByLayer
100
AcDbMText
 10
891.0818124075809692
 20
644.4187162252985672
 30
0.0
 40
3.0
 41
6.0
 71
1
 72
1
  1
E2o
  7
textstyle40
 50
0.0
 73
2
 44
1.0
  0
MTEXT
  5
14F
100
AcDbEntity
  8
engueulement
 62
256
370
-1
 48
1.0
  6
ByLayer
100
AcDbMText
 10
179.5370722475028913
 20
304.8609893457598901
 30
0.0
 40
3.0
 41
5.9999999999999991
 71
1
 72
1
  1
E2u
  7
textstyle43
 50
0.0
 73
2
 44
1.0
  0
MTEXT
  5
150
100
AcDbEntity
  8
engueulement
 62
256
370
-1
 48
1.0
  6
ByLayer
100
AcDbMText
 10
901.0376108322154778
 20
670.8344170686668804
 30
0.0
 40
3.0
 41
5.9999999999999991
 71
1
 72
1
  1
E2u
  7
textstyle42
 50
0.0
 73
2
 44
1.0
  0
LINE
  5
151
100
AcDbEntity
  8
engueulement
 62
256
370
-1
 48
1.0
  6
ByLayer
100
AcDbLine
 10
892.5252827384061902
 20
686.7772916187722103
 30
0.0
 11
940.4828881975629429
 21
710.8293776835354265
 31
0.0
  0
LINE
  5
152
100
AcDbEntity
  8
engueulement
 62
256
370
-1
 48
1.0
  6
ByLayer
100
AcDbLine
 10
883.3060018605782489
 20
652.7457649927897592
 30
0.0
 11
931.2636073197347741
 21
676.7978510575528617
 31
0.0
  0
LINE
  5
153
100
AcDbEntity
  8
engueulement
 62
256
370
-1
 48
1.0
  6
ByLayer
100
AcDbLine
 10
877.1497193217902577
 20
630.020815410259388
 30
0.0
 11
925.107324780946783
 21
654.0729014750224906
 31
0.0
  0
LINE
  5
154
100
AcDbEntity
  8
engueulement
 62
256
370
-1
 48
1.0
  6
ByLayer
100
AcDbLine
 10
868.0499826198572464
 20
596.4305673242049579
 30
0.0
 11
916.0075880790138854
 21
620.4826533889681741
 31
0.0
  0
MTEXT
  5
155
100
AcDbEntity
  8
0_vues
 62
256
370
-1
 48
1.0
  6
ByLayer
100
AcDbMText
 10
590.4498439415481243
 20
362.1187864656624242
 30
0.0
 40
3.0
 41
5.9999999999999991
 71
1
 72
1
  1
Z1B
  7
textstyle21
 50
0.0
 73
2
 44
1.0
  0
MTEXT
  5
156
100
AcDbEntity
  8
0_vues
 62
256
370
-1
 48
1.0
  6
ByLayer
100
AcDbMText
 10
571.273602786346828
 20
361.2268682723973257
 30
0.0
 40
3.0
 41
5.6666666666666661
 71
1
 72
1
  1
Z1C
  7
textstyle20
 50
0.0
 73
2
 44
1.0
  0
MTEXT
  5
157
100
AcDbEntity
  8
0_vues
 62
256
370
-1
 48
1.0
  6
ByLayer
100
AcDbMText
 10
563.2341800918189847
 20
360.4541862843882996
 30
0.0
 40
3.0
 41
6.3333333333333321
 71
1
 72
1
  1
Z1A
  7
textstyle23
 50
0.0
 73
2
 44
1.0
  0
MTEXT
  5
158
100
AcDbEntity
  8
0_vues
 62
256
370
-1
 48
1.0
  6
ByLayer
100
AcDbMText
 10
544.7996352002343201
 20
360.8464106437837131
 30
0.0
 40
3.0
 41
6.0000000000001856
 71
1
 72
1
  1
Z1D
  7
textstyle22
 50
0.0
 73
2
 44
1.0
  0
MTEXT
  5
159
100
AcDbEntity
  8
0_vues
 62
256
370
-1
 48
1.0
  6
ByLayer
100
AcDbMText
 10
503.9451448447388771
 20
359.8307897566888869
 30
0.0
 40
3.0
 41
9.6666666666666679
 71
1
 72
1
  1
Z2AB
  7
textstyle25
 50
0.0
 73
2
 44
1.0
  0
MTEXT
  5
15A
100
AcDbEntity
  8
0_vues
 62
256
370
-1
 48
1.0
  6
ByLayer
100
AcDbMText
 10
476.9448210248276041
 20
360.846410643784111
 30
0.0
 40
3.0
 41
9.0000000000001865
 71
1
 72
1
  1
Z2CD
  7
textstyle24
 50
0.0
 73
2
 44
1.0
  0
LINE
  5
15B
100
AcDbEntity
  8
0_vues
 62
256
370
-1
 48
1.0
  6
ByLayer
100
AcDbLine
 10
480.996080107211526
 20
355.0
 30
0.0
 11
480.996080107211526
 21
345.0
 31
0.0
  0
LINE
  5
15C
100
AcDbEntity
  8
0_vues
 62
256
370
-1
 48
1.0
  6
ByLayer
100
AcDbLine
 10
505.9960801072119239
 20
345.0
 30
0.0
 11
505.9960801072119239
 21
355.0
 31
0.0
  0
LINE
  5
15D
100
AcDbEntity
  8
0_vues
 62
256
370
-1
 48
1.0
  6
ByLayer
100
AcDbLine
 10
547.141653629671282
 20
345.0
 30
0.0
 11
547.141653629671282
 21
355.0
 31
0.0
  0
LINE
  5
15E
100
AcDbEntity
  8
0_vues
 62
256
370
-1
 48
1.0
  6
ByLayer
100
AcDbLine
 10
568.3548570652676517
 20
345.0
 30
0.0
 11
568.3548570652676517
 21
355.0
 31
0.0
  0
LINE
  5
15F
100
AcDbEntity
  8
0_vues
 62
256
370
-1
 48
1.0
  6
ByLayer
100
AcDbLine
 10
571.8903909712003042
 20
345.0
 30
0.0
 11
571.8903909712003042
 21
355.0
 31
0.0
  0
LINE
  5
160
100
AcDbEntity
  8
0_vues
 62
256
370
-1
 48
1.0
  6
ByLayer
100
AcDbLine
 10
593.1035944067967876
 20
345.0
 30
0.0
 11
593.1035944067967876
 21
355.0
 31
0.0
  0
MTEXT
  5
161
100
AcDbEntity
  8
0_vues
 62
256
370
-1
 48
1.0
  6
ByLayer
100
AcDbMText
 10
-74.7930336592691702
 20
479.834971119156819
 30
0.0
 40
3.0
 41
9.0000000000001865
 71
1
 72
1
  1
Z2CD
  7
textstyle17
 50
0.0
 73
2
 44
1.0
  0
MTEXT
  5
162
100
AcDbEntity
  8
0_vues
 62
256
370
-1
 48
1.0
  6
ByLayer
100
AcDbMText
 10
-97.1726610797776544
 20
490.9905868388755721
 30
0.0
 40
3.0
 41
9.6666666666666679
 71
1
 72
1
  1
Z2AB
  7
textstyle16
 50
0.0
 73
2
 44
1.0
  0
MTEXT
  5
163
100
AcDbEntity
  8
0_vues
 62
256
370
-1
 48
1.0
  6
ByLayer
100
AcDbMText
 10
-134.0581572626001901
 20
509.3769707278963779
 30
0.0
 40
3.0
 41
6.0000000000001856
 71
1
 72
1
  1
Z1D
  7
textstyle19
 50
0.0
 73
2
 44
1.0
  0
MTEXT
  5
164
100
AcDbEntity
  8
0_vues
 62
256
370
-1
 48
1.0
  6
ByLayer
100
AcDbMText
 10
-152.9725158510590859
 20
518.8052472596340294
 30
0.0
 40
3.0
 41
6.3333333333333321
 71
1
 72
1
  1
Z1A
  7
textstyle18
 50
0.0
 73
2
 44
1.0
  0
MTEXT
  5
165
100
AcDbEntity
  8
0_vues
 62
256
370
-1
 48
1.0
  6
ByLayer
100
AcDbMText
 10
-158.2651278026750106
 20
523.7080985058909164
 30
0.0
 40
3.0
 41
5.6666666666666661
 71
1
 72
1
  1
Z1C
  7
textstyle27
 50
0.0
 73
2
 44
1.0
  0
MTEXT
  5
166
100
AcDbEntity
  8
0_vues
 62
256
370
-1
 48
1.0
  6
ByLayer
100
AcDbMText
 10
-175.0959811467674001
 20
529.8331733546543774
 30
0.0
 40
3.0
 41
5.9999999999999991
 71
1
 72
1
  1
Z1B
  7
textstyle26
 50
0.0
 73
2
 44
1.0
  0
LINE
  5
167
100
AcDbEntity
  8
1_pannes_plan
 62
256
370
-1
 48
1.0
  6
ByLayer
100
AcDbLine
 10
568.3548570652676517
 20
253.2076708076533862
 30
0.0
 11
106.6632620925678054
 21
253.2076708076533862
 31
0.0
  0
LINE
  5
168
100
AcDbEntity
  8
1_pannes_plan
 62
256
370
-1
 48
1.0
  6
ByLayer
100
AcDbLine
 10
547.141653629671282
 20
231.9944673720569881
 30
0.0
 11
96.08907596939396
 21
231.9944673720569881
 31
0.0
  0
LINE
  5
169
100
AcDbEntity
  8
1_pannes_plan
 62
256
370
-1
 48
1.0
  6
ByLayer
100
AcDbLine
 10
593.1035944067969012
 20
228.4589334661243072
 30
0.0
 11
94.3267116155316785
 21
228.4589334661243072
 31
0.0
  0
LINE
  5
16A
100
AcDbEntity
  8
1_pannes_plan
 62
256
370
-1
 48
1.0
  6
ByLayer
100
AcDbLine
 10
571.8903909712003042
 20
207.2457300305277954
 30
0.0
 11
83.7525254923578188
 21
207.2457300305277954
 31
0.0
  0
LINE
  5
16B
100
AcDbEntity
  8
1_pannes_plan
 62
256
370
-1
 48
1.0
  6
ByLayer
100
AcDbLine
 10
505.9960801072119239
 20
165.8488938495976015
 30
0.0
 11
63.1173653188050423
 21
165.8488938495976015
 31
0.0
  0
LINE
  5
16C
100
AcDbEntity
  8
1_pannes_plan
 62
256
370
-1
 48
1.0
  6
ByLayer
100
AcDbLine
 10
505.9960801072119239
 20
135.8488938495976015
 30
0.0
 11
48.1632078923552314
 21
135.8488938495976015
 31
0.0
  0
LINE
  5
16D
100
AcDbEntity
  8
1_pannes_plan
 62
256
370
-1
 48
1.0
  6
ByLayer
100
AcDbLine
 10
111.9037290590887039
 20
228.4589334661243072
 30
0.0
 11
208.7506051201337129
 21
35.3553390593274273
 31
0.0
  0
LINE
  5
16E
100
AcDbEntity
  8
1_pannes_plan
 62
256
370
-1
 48
1.0
  6
ByLayer
100
AcDbLine
 10
144.6190741762189873
 20
135.8488938495976015
 30
0.0
 11
197.7790853331030974
 21
29.8528137423856492
 31
0.0
  0
LINE
  5
16F
100
AcDbEntity
  8
1_pannes_plan
 62
256
370
-1
 48
1.0
  6
ByLayer
100
AcDbLine
 10
207.0049333286652882
 20
135.8488938495976015
 30
0.0
 11
247.6267423409242951
 21
54.8528137423857132
 31
0.0
  0
LINE
  5
170
100
AcDbEntity
  8
1_pannes_plan
 62
256
370
-1
 48
1.0
  6
ByLayer
100
AcDbLine
 10
204.436262585604311
 20
165.8488938495976015
 30
0.0
 11
257.5962737424885063
 21
59.8528137423857203
 31
0.0
  0
LINE
  5
171
100
AcDbEntity
  8
1_pannes_plan
 62
256
370
-1
 48
1.0
  6
ByLayer
100
AcDbLine
 10
223.0092415537575903
 20
253.2076708076533862
 30
0.0
 11
307.4439307503096188
 21
84.8528137423857487
 31
0.0
  0
LINE
  5
172
100
AcDbEntity
  8
coupe_bord_pannes
 62
256
370
-1
 48
1.0
  6
ByLayer
100
AcDbLine
 10
106.6632620925678054
 20
253.2076708076533862
 30
0.0
 11
43.9481849329194887
 21
127.393005284494194
 31
0.0
  0
LINE
  5
173
100
AcDbEntity
  8
1_pannes_plan
 62
256
370
-1
 48
1.0
  6
ByLayer
100
AcDbLine
 10
-241.802998118543286
 20
396.0101533017988231
 30
0.0
 11
94.3267116155316785
 21
228.4589334661243072
 31
0.0
  0
LINE
  5
174
100
AcDbEntity
  8
1_pannes_plan
 62
256
370
-1
 48
1.0
  6
ByLayer
100
AcDbLine
 10
-234.0197721949955962
 20
411.6243247357206201
 30
0.0
 11
133.4340121532179921
 21
228.4589334661243072
 31
0.0
  0
LINE
  5
175
100
AcDbEntity
  8
1_pannes_plan
 62
256
370
-1
 48
1.0
  6
ByLayer
100
AcDbLine
 10
-199.5597564222524909
 20
425.345135982227589
 30
0.0
 11
145.7705626302540907
 21
253.2076708076533862
 31
0.0
  0
LINE
  5
176
100
AcDbEntity
  8
1_pannes_plan
 62
256
370
-1
 48
1.0
  6
ByLayer
100
AcDbLine
 10
-207.3429823457994132
 20
409.7309645483073837
 30
0.0
 11
106.6632620925678054
 21
253.2076708076533862
 31
0.0
  0
LINE
  5
177
100
AcDbEntity
  8
1_pannes_plan
 62
256
370
-1
 48
1.0
  6
ByLayer
100
AcDbLine
 10
-191.2195839569675115
 20
394.7036560148923741
 30
0.0
 11
135.1963765070802879
 21
231.9944673720569881
 31
0.0
  0
LINE
  5
178
100
AcDbEntity
  8
1_pannes_plan
 62
256
370
-1
 48
1.0
  6
ByLayer
100
AcDbLine
 10
96.0890759693939742
 20
231.9944673720569028
 30
0.0
 11
-199.0028098805128991
 21
379.0894845809752951
 31
0.0
  0
LINE
  5
179
100
AcDbEntity
  8
0_vues
 62
256
370
-1
 48
1.0
  6
DASHDOTTINY
100
AcDbLine
 10
-241.8029999999999973
 20
396.0099999999999909
 30
0.0
 11
-175.0960000000000036
 21
529.83299999999997
 31
0.0
  0
LINE
  5
17A
100
AcDbEntity
  8
0_vues
 62
256
370
-1
 48
1.0
  6
DASHDOTTINY
100
AcDbLine
 10
-207.3429999999999893
 20
409.7309999999999945
 30
0.0
 11
-152.9730000000000132
 21
518.80499999999995
 31
0.0
  0
LINE
  5
17B
100
AcDbEntity
  8
0_vues
 62
256
370
-1
 48
1.0
  6
DASHDOTTINY
100
AcDbLine
 10
-199.0029999999999859
 20
379.0889999999999986
 30
0.0
 11
-134.0579999999999927
 21
509.3770000000000095
 31
0.0
  0
LINE
  5
17C
100
AcDbEntity
  8
1_pannes_plan
 62
256
370
-1
 48
1.0
  6
ByLayer
100
AcDbLine
 10
-233.4599806916675107
 20
365.3672552010144159
 30
0.0
 11
83.7525254923578188
 21
207.2457300305277954
 31
0.0
  0
LINE
  5
17D
100
AcDbEntity
  8
0_vues
 62
256
370
-1
 48
1.0
  6
DASHDOTTINY
100
AcDbLine
 10
-233.4599806916675107
 20
365.3672552010144159
 30
0.0
 11
-156.179000000000002
 21
520.4039999999999964
 31
0.0
  0
LINE
  5
17E
100
AcDbEntity
  8
1_pannes_plan
 62
256
370
-1
 48
1.0
  6
ByLayer
100
AcDbLine
 10
-195.0892080837442109
 20
294.5576187564602719
 30
0.0
 11
63.1173653188050423
 21
165.8488938495976015
 31
0.0
  0
LINE
  5
17F
100
AcDbEntity
  8
1_pannes_plan
 62
256
370
-1
 48
1.0
  6
ByLayer
100
AcDbLine
 10
-210.0433636164989935
 20
264.5576178125082265
 30
0.0
 11
48.1632078923552172
 21
135.8488938495976015
 31
0.0
  0
LINE
  5
180
100
AcDbEntity
  8
0_vues
 62
256
370
-1
 48
1.0
  6
DASHDOTTINY
100
AcDbLine
 10
-97.1727000000000061
 20
490.9909999999999854
 30
0.0
 11
-210.0433636164989935
 21
264.5576178125082265
 31
0.0
  0
LINE
  5
181
100
AcDbEntity
  8
0_vues
 62
256
370
-1
 48
1.0
  6
DASHDOTTINY
100
AcDbLine
 10
-74.7930000000000064
 20
479.8349999999999795
 30
0.0
 11
-187.6634671216775985
 21
253.4018679668008929
 31
0.0
  0
LINE
  5
182
100
AcDbEntity
  8
1_pannes_plan
 62
256
370
-1
 48
1.0
  6
ByLayer
100
AcDbLine
 10
-187.3059831458114104
 20
310.1717906816843993
 30
0.0
 11
102.2246658564913986
 21
165.8488938495976015
 31
0.0
  0
LINE
  5
183
100
AcDbEntity
  8
1_pannes_plan
 62
256
370
-1
 48
1.0
  6
ByLayer
100
AcDbLine
 10
87.2705084300415592
 20
135.8488938495976015
 30
0.0
 11
-202.2601386785669035
 21
280.1717897377308759
 31
0.0
  0
LINE
  5
184
100
AcDbEntity
  8
emprunte_us_panne_arba
 62
256
370
-1
 48
1.0
  6
ByLayer
100
AcDbLine
 10
-200.8979069911360114
 20
422.6607949049359831
 30
0.0
 11
-198.2211918881779127
 21
428.0306362673596823
 31
0.0
  0
LINE
  5
185
100
AcDbEntity
  8
emprunte_us_panne_arba
 62
256
370
-1
 48
1.0
  6
ByLayer
100
AcDbLine
 10
-196.8748981683347949
 20
424.006817563134689
 30
0.0
 11
-202.244745930266987
 21
426.6835198278013763
 31
0.0
  0
LINE
  5
186
100
AcDbEntity
  8
emprunte_us_panne_arba
 62
256
370
-1
 48
1.0
  6
ByLayer
100
AcDbLine
 10
-188.4949180916871114
 20
393.444907287330409
 30
0.0
 11
-193.8647579526736138
 21
396.1216254023660213
 31
0.0
  0
LINE
  5
187
100
AcDbEntity
  8
emprunte_us_panne_arba
 62
256
370
-1
 48
1.0
  6
ByLayer
100
AcDbLine
 10
-189.8812248994495917
 20
397.3885759453856963
 30
0.0
 11
-192.5579430144852893
 21
392.0187360843992224
 31
0.0
  0
LINE
  5
188
100
AcDbEntity
  8
emprunte_us_panne_arba
 62
256
370
-1
 48
1.0
  6
ByLayer
100
AcDbLine
 10
-231.334851457902289
 20
410.2859672963471098
 30
0.0
 11
-236.7046929320887898
 21
412.9626821750940735
 31
0.0
  0
LINE
  5
189
100
AcDbEntity
  8
emprunte_us_panne_arba
 62
256
370
-1
 48
1.0
  6
ByLayer
100
AcDbLine
 10
-232.6956338681983141
 20
414.280572171677818
 30
0.0
 11
-235.3723487469453062
 21
408.9107306974910898
 31
0.0
  0
LINE
  5
18A
100
AcDbEntity
  8
1_pannes_plan
 62
256
370
-1
 48
1.0
  6
ByLayer
100
AcDbLine
 10
-225.6767936715806115
 20
380.9814460272195902
 30
0.0
 11
122.8598260300442035
 21
207.2457300305277954
 31
0.0
  0
LINE
  5
18B
100
AcDbEntity
  8
emprunte_us_panne_arba
 62
256
370
-1
 48
1.0
  6
ByLayer
100
AcDbLine
 10
-222.9681901407786029
 20
379.690599672849487
 30
0.0
 11
-228.3380381723503945
 21
382.3673013965805012
 31
0.0
  0
LINE
  5
18C
100
AcDbEntity
  8
emprunte_us_panne_arba
 62
256
370
-1
 48
1.0
  6
ByLayer
100
AcDbLine
 10
-224.3147632946989916
 20
383.7138745505009183
 30
0.0
 11
-226.9914650184300058
 21
378.3440265189291267
 31
0.0
  0
LINE
  5
18D
100
AcDbEntity
  8
emprunte_us_panne_arba
 62
256
370
-1
 48
1.0
  6
ByLayer
100
AcDbLine
 10
-189.9909039115044891
 20
311.5101480636827773
 30
0.0
 11
-184.6210623801181896
 21
308.8334332996860212
 31
0.0
  0
LINE
  5
18E
100
AcDbEntity
  8
emprunte_us_panne_arba
 62
256
370
-1
 48
1.0
  6
ByLayer
100
AcDbLine
 10
-167.6110190019078061
 20
300.3544039928850111
 30
0.0
 11
-162.2411774705215066
 21
297.6776892288880845
 31
0.0
  0
LINE
  5
18F
100
AcDbEntity
  8
emprunte_us_panne_arba
 62
256
370
-1
 48
1.0
  6
ByLayer
100
AcDbLine
 10
-188.6443405278097885
 20
307.4868699159911785
 30
0.0
 11
-185.9676257638128902
 21
312.8567114473776201
 31
0.0
  0
LINE
  5
190
100
AcDbEntity
  8
emprunte_us_panne_arba
 62
256
370
-1
 48
1.0
  6
ByLayer
100
AcDbLine
 10
-166.2597911056784881
 20
296.3288007167013802
 30
0.0
 11
-163.5830763416815898
 21
301.6986422480877081
 31
0.0
  0
LINE
  5
191
100
AcDbEntity
  8
emprunte_us_panne_arba
 62
256
370
-1
 48
1.0
  6
ByLayer
100
AcDbLine
 10
-204.9450594442600107
 20
281.5101471197294245
 30
0.0
 11
-199.5752179128737964
 21
278.8334323557324979
 31
0.0
  0
LINE
  5
192
100
AcDbEntity
  8
emprunte_us_panne_arba
 62
256
370
-1
 48
1.0
  6
ByLayer
100
AcDbLine
 10
-203.59849606056531
 20
277.4868689720378256
 30
0.0
 11
-200.9217812965684971
 21
282.8567105034240967
 31
0.0
  0
LINE
  5
193
100
AcDbEntity
  8
emprunte_us_panne_arba
 62
256
370
-1
 48
1.0
  6
ByLayer
100
AcDbLine
 10
-182.5651672550928879
 20
270.3543985689051965
 30
0.0
 11
-177.1953250438666032
 21
267.6776851687569092
 31
0.0
  0
LINE
  5
194
100
AcDbEntity
  8
emprunte_us_panne_arba
 62
256
370
-1
 48
1.0
  6
ByLayer
100
AcDbLine
 10
-178.5418885980006962
 20
271.7009625500427887
 30
0.0
 11
-181.2186037009587949
 21
266.331121187619317
 31
0.0
  0
LINE
  5
195
100
AcDbEntity
  8
emprunte_us_panne_arba
 62
256
370
-1
 48
1.0
  6
ByLayer
100
AcDbLine
 10
-202.2601386785667898
 20
280.1717897377308759
 30
0.0
 11
-179.8802461494796887
 21
269.0160418688311097
 31
0.0
  0
LINE
  5
196
100
AcDbEntity
  8
emprunte_us_panne_arba
 62
256
370
-1
 48
1.0
  6
ByLayer
100
AcDbLine
 10
-179.8802461494796887
 20
269.0160418688311097
 30
0.0
 11
-164.92143372368011
 21
299.0137214823944873
 31
0.0
  0
LINE
  5
197
100
AcDbEntity
  8
emprunte_us_panne_arba
 62
256
370
-1
 48
1.0
  6
ByLayer
100
AcDbLine
 10
-164.92143372368011
 20
299.0137214823944873
 30
0.0
 11
-187.3059831458112967
 21
310.1717906816843993
 31
0.0
  0
LINE
  5
198
100
AcDbEntity
  8
emprunte_us_panne_arba
 62
256
370
-1
 48
1.0
  6
ByLayer
100
AcDbLine
 10
-187.3059831458112967
 20
310.1717906816843993
 30
0.0
 11
-202.2601384784690879
 21
280.1717896379877857
 31
0.0
  0
LINE
  5
199
100
AcDbEntity
  8
emprunte_us_panne_arba
 62
256
370
-1
 48
1.0
  6
ByLayer
100
AcDbLine
 10
-234.0339913075717959
 20
411.5956514345845108
 30
0.0
 11
-199.559822049300891
 21
425.3451686954680895
 31
0.0
  0
LINE
  5
19A
100
AcDbEntity
  8
emprunte_us_panne_arba
 62
256
370
-1
 48
1.0
  6
ByLayer
100
AcDbLine
 10
-199.559822049300891
 20
425.3451686954680895
 30
0.0
 11
-191.1798601530774135
 21
394.7833470605655179
 31
0.0
  0
LINE
  5
19B
100
AcDbEntity
  8
emprunte_us_panne_arba
 62
256
370
-1
 48
1.0
  6
ByLayer
100
AcDbLine
 10
-191.1798601530774135
 20
394.7833470605655179
 30
0.0
 11
-225.6531141565644987
 21
381.0289505347150225
 31
0.0
  0
LINE
  5
19C
100
AcDbEntity
  8
emprunte_us_panne_arba
 62
256
370
-1
 48
1.0
  6
ByLayer
100
AcDbLine
 10
-225.6531141565644987
 20
381.0289505347150225
 30
0.0
 11
-234.0339913075717959
 21
411.5956514345845108
 31
0.0
  0
LINE
  5
19D
100
AcDbEntity
  8
emprunte_ous_panne_arba
 62
256
370
-1
 48
1.0
  6
ByLayer
100
AcDbLine
 10
-197.7741287542187081
 20
295.8959760686370259
 30
0.0
 11
-192.4042872049789139
 21
293.2192613404566259
 31
0.0
  0
LINE
  5
19E
100
AcDbEntity
  8
emprunte_ous_panne_arba
 62
256
370
-1
 48
1.0
  6
ByLayer
100
AcDbLine
 10
-175.3916447558316065
 20
284.745436443030826
 30
0.0
 11
-170.0218032065918123
 21
282.068721714850426
 31
0.0
  0
LINE
  5
19F
100
AcDbEntity
  8
emprunte_ous_panne_arba
 62
256
370
-1
 48
1.0
  6
ByLayer
100
AcDbLine
 10
-190.3483878962975098
 20
254.7402253308912066
 30
0.0
 11
-184.9785463470576872
 21
252.0635106027108066
 31
0.0
  0
LINE
  5
1A0
100
AcDbEntity
  8
emprunte_ous_panne_arba
 62
256
370
-1
 48
1.0
  6
ByLayer
100
AcDbLine
 10
-212.7282843911189048
 20
265.8959751765984265
 30
0.0
 11
-207.3584428418791106
 21
263.2192604484180265
 31
0.0
  0
LINE
  5
1A1
100
AcDbEntity
  8
emprunte_ous_panne_arba
 62
256
370
-1
 48
1.0
  6
ByLayer
100
AcDbLine
 10
-236.1449014662873935
 20
366.7056125651046159
 30
0.0
 11
-230.7750599170475994
 21
364.0288978369242159
 31
0.0
  0
LINE
  5
1A2
100
AcDbEntity
  8
emprunte_ous_panne_arba
 62
256
370
-1
 48
1.0
  6
ByLayer
100
AcDbLine
 10
-244.4879207746199086
 20
397.3483573640901909
 30
0.0
 11
-239.118079225380086
 21
394.6716426359097909
 31
0.0
  0
LINE
  5
1A3
100
AcDbEntity
  8
emprunte_ous_panne_arba
 62
256
370
-1
 48
1.0
  6
ByLayer
100
AcDbLine
 10
-210.0274792947714104
 20
411.0691106472156093
 30
0.0
 11
-204.6576377455315878
 21
408.3923959190352093
 31
0.0
  0
LINE
  5
1A4
100
AcDbEntity
  8
emprunte_ous_panne_arba
 62
256
370
-1
 48
1.0
  6
ByLayer
100
AcDbLine
 10
-201.6164092116171105
 20
380.3922902085915894
 30
0.0
 11
-196.2465676623772879
 21
377.7155754804111893
 31
0.0
  0
LINE
  5
1A5
100
AcDbEntity
  8
emprunte_ous_panne_arba
 62
256
370
-1
 48
1.0
  6
ByLayer
100
AcDbLine
 10
-208.6813680050904054
 20
407.0460578780110268
 30
0.0
 11
-206.0046532769100054
 21
412.4158994272507925
 31
0.0
  0
LINE
  5
1A6
100
AcDbEntity
  8
emprunte_ous_panne_arba
 62
256
370
-1
 48
1.0
  6
ByLayer
100
AcDbLine
 10
-200.3413573640901859
 20
376.4040792253800873
 30
0.0
 11
-197.6646426359097859
 21
381.7739207746199099
 31
0.0
  0
LINE
  5
1A7
100
AcDbEntity
  8
emprunte_ous_panne_arba
 62
256
370
-1
 48
1.0
  6
ByLayer
100
AcDbLine
 10
-234.7983380557577107
 20
362.6823344263943909
 30
0.0
 11
-232.1216233275773106
 21
368.0521759756343272
 31
0.0
  0
LINE
  5
1A8
100
AcDbEntity
  8
emprunte_ous_panne_arba
 62
256
370
-1
 48
1.0
  6
ByLayer
100
AcDbLine
 10
-243.1413573640901973
 20
393.3250792253800796
 30
0.0
 11
-240.4646426359097973
 21
398.6949207746199022
 31
0.0
  0
LINE
  5
1A9
100
AcDbEntity
  8
emprunte_ous_panne_arba
 62
256
370
-1
 48
1.0
  6
ByLayer
100
AcDbLine
 10
-211.3817209805893071
 20
261.8726970378882015
 30
0.0
 11
-208.7050062524089071
 21
267.2425385871280241
 31
0.0
  0
LINE
  5
1AA
100
AcDbEntity
  8
emprunte_ous_panne_arba
 62
256
370
-1
 48
1.0
  6
ByLayer
100
AcDbLine
 10
-196.4275654478344109
 20
291.8726979818404175
 30
0.0
 11
-193.7508507196540108
 21
297.2425395310801832
 31
0.0
  0
LINE
  5
1AB
100
AcDbEntity
  8
emprunte_ous_panne_arba
 62
256
370
-1
 48
1.0
  6
ByLayer
100
AcDbLine
 10
-174.0450813453020089
 20
280.722158304320601
 30
0.0
 11
-171.3683666171216089
 21
286.0919998535604236
 31
0.0
  0
LINE
  5
1AC
100
AcDbEntity
  8
emprunte_ous_panne_arba
 62
256
370
-1
 48
1.0
  6
ByLayer
100
AcDbLine
 10
-189.0018244857677985
 20
250.71694719218101
 30
0.0
 11
-186.3251097575873985
 21
256.0867887414207758
 31
0.0
  0
LINE
  5
1AD
100
AcDbEntity
  8
emprunte_ous_panne_arba
 62
256
370
-1
 48
1.0
  6
ByLayer
100
AcDbLine
 10
-172.7044864090391911
 20
283.4059637122514914
 30
0.0
 11
-187.6634671216775132
 21
253.4018679668010066
 31
0.0
  0
LINE
  5
1AE
100
AcDbEntity
  8
emprunte_ous_panne_arba
 62
256
370
-1
 48
1.0
  6
ByLayer
100
AcDbLine
 10
-187.6634671216775132
 20
253.4018679668010066
 30
0.0
 11
-210.0433645608744087
 21
264.5576159179669844
 31
0.0
  0
LINE
  5
1AF
100
AcDbEntity
  8
emprunte_ous_panne_arba
 62
256
370
-1
 48
1.0
  6
ByLayer
100
AcDbLine
 10
-210.0433645608744087
 20
264.5576159179669844
 30
0.0
 11
-195.0892079795987968
 21
294.5576187045467123
 31
0.0
  0
LINE
  5
1B0
100
AcDbEntity
  8
emprunte_ous_panne_arba
 62
256
370
-1
 48
1.0
  6
ByLayer
100
AcDbLine
 10
-195.0892079795987968
 20
294.5576187045467123
 30
0.0
 11
-172.7067239812118089
 21
283.4070790789405123
 31
0.0
  0
LINE
  5
1B1
100
AcDbEntity
  8
emprunte_ous_panne_arba
 62
256
370
-1
 48
1.0
  6
ByLayer
100
AcDbLine
 10
-233.4599806919399896
 20
365.3672552004675254
 30
0.0
 11
-199.0030000511330002
 21
379.0889998974204786
 31
0.0
  0
LINE
  5
1B2
100
AcDbEntity
  8
emprunte_ous_panne_arba
 62
256
370
-1
 48
1.0
  6
ByLayer
100
AcDbLine
 10
-199.0030000511330002
 20
379.0889998974204786
 30
0.0
 11
-207.3425585201514991
 21
409.7307532831254093
 31
0.0
  0
LINE
  5
1B3
100
AcDbEntity
  8
emprunte_ous_panne_arba
 62
256
370
-1
 48
1.0
  6
ByLayer
100
AcDbLine
 10
-207.3425585201514991
 20
409.7307532831254093
 30
0.0
 11
-241.8029992097393119
 21
396.0100015853665809
 31
0.0
  0
LINE
  5
1B4
100
AcDbEntity
  8
emprunte_ous_panne_arba
 62
256
370
-1
 48
1.0
  6
ByLayer
100
AcDbLine
 10
-241.8029992097393119
 20
396.0100015853665809
 30
0.0
 11
-233.4599806916675107
 21
365.3672552010144159
 31
0.0
  0
LEADER
  5
1B5
100
AcDbEntity
  8
1_pannes_plan
 62
256
370
-1
 48
1.0
  6
ByLayer
100
AcDbLeader
  3
Standard
 71
1
 72
0
 73
3
 74
0
 75
0
 40
1.0
 41
10.0
 76
2
 10
400.0
 20
29.8528137423856599
 10
413.8136998268673779
 20
43.6665135692530129
1001
ACAD
1000
DSTYLE
1002
{
1070
40
1040
2.5
1002
}
  0
LEADER
  5
1B6
100
AcDbEntity
  8
1_pannes_plan
 62
256
370
-1
 48
1.0
  6
ByLayer
100
AcDbLeader
  3
Standard
 71
1
 72
0
 73
3
 74
0
 75
0
 40
1.0
 41
10.0
 76
2
 10
400.0
 20
54.8528137423856776
 10
411.29838702400491
 20
66.1512007663905734
1001
ACAD
1000
DSTYLE
1002
{
1070
40
1040
2.5
1002
}
  0
LEADER
  5
1B7
100
AcDbEntity
  8
1_pannes_plan
 62
256
370
-1
 48
1.0
  6
ByLayer
100
AcDbLeader
  3
Standard
 71
1
 72
0
 73
3
 74
0
 75
0
 40
1.0
 41
10.0
 76
2
 10
400.0
 20
59.8528137423856634
 10
412.6107221356393211
 20
72.4635358780249135
1001
ACAD
1000
DSTYLE
1002
{
1070
40
1040
2.5
1002
}
  0
LEADER
  5
1B8
100
AcDbEntity
  8
1_pannes_plan
 62
256
370
-1
 48
1.0
  6
ByLayer
100
AcDbLeader
  3
Standard
 71
1
 72
0
 73
3
 74
0
 75
0
 40
1.0
 41
10.0
 76
2
 10
400.0
 20
84.8528137423857487
 10
415.9954517674490262
 20
100.8482655098347038
1001
ACAD
1000
DSTYLE
1002
{
1070
40
1040
2.5
1002
}
  0
LEADER
  5
1B9
100
AcDbEntity
  8
1_pannes_plan
 62
256
370
-1
 48
1.0
  6
ByLayer
100
AcDbLeader
  3
Standard
 71
1
 72
0
 73
3
 74
0
 75
0
 40
1.0
 41
10.0
 76
2
 10
400.0
 20
35.3553390593273917
 10
422.7624171006423808
 20
58.1177561599697583
1001
ACAD
1000
DSTYLE
1002
{
1070
40
1040
2.5
1002
}
  0
LEADER
  5
1BA
100
AcDbEntity
  8
1_pannes_plan
 62
256
370
-1
 48
1.0
  6
ByLayer
100
AcDbLeader
  3
Standard
 71
1
 72
0
 73
3
 74
0
 75
0
 40
1.0
 41
10.0
 76
2
 10
197.779085333103211
 20
29.8528137423856386
 10
231.8159802231932076
 20
29.8528137423856386
1001
ACAD
1000
DSTYLE
1002
{
1070
40
1040
2.5
1002
}
  0
LEADER
  5
1BB
100
AcDbEntity
  8
1_pannes_plan
 62
256
370
-1
 48
1.0
  6
ByLayer
100
AcDbLeader
  3
Standard
 71
1
 72
0
 73
3
 74
0
 75
0
 40
1.0
 41
10.0
 76
2
 10
208.7506051201337129
 20
35.3553390593274131
 10
237.335408323745412
 20
35.3553390593274131
1001
ACAD
1000
DSTYLE
1002
{
1070
40
1040
2.5
1002
}
  0
LEADER
  5
1BC
100
AcDbEntity
  8
1_pannes_plan
 62
256
370
-1
 48
1.0
  6
ByLayer
100
AcDbLeader
  3
Standard
 71
1
 72
0
 73
3
 74
0
 75
0
 40
1.0
 41
10.0
 76
2
 10
247.6267423409244088
 20
54.8528137423856776
 10
291.4947965604141018
 20
54.8528137423856776
1001
ACAD
1000
DSTYLE
1002
{
1070
40
1040
2.5
1002
}
  0
LEADER
  5
1BD
100
AcDbEntity
  8
1_pannes_plan
 62
256
370
-1
 48
1.0
  6
ByLayer
100
AcDbLeader
  3
Standard
 71
1
 72
0
 73
3
 74
0
 75
0
 40
1.0
 41
10.0
 76
2
 10
257.59627374248862
 20
59.8528137423856776
 10
287.0102612287154216
 20
59.8528137423856776
1001
ACAD
1000
DSTYLE
1002
{
1070
40
1040
2.5
1002
}
  0
LEADER
  5
1BE
100
AcDbEntity
  8
1_pannes_plan
 62
256
370
-1
 48
1.0
  6
ByLayer
100
AcDbLeader
  3
Standard
 71
1
 72
0
 73
3
 74
0
 75
0
 40
1.0
 41
10.0
 76
2
 10
307.4439307503096188
 20
84.8528137423857345
 10
331.1656860331332268
 20
84.8528137423857345
1001
ACAD
1000
DSTYLE
1002
{
1070
40
1040
2.5
1002
}
  0
LEADER
  5
1BF
100
AcDbEntity
  8
1_pannes_plan
 62
256
370
-1
 48
1.0
  6
ByLayer
100
AcDbLeader
  3
Standard
 71
1
 72
0
 73
3
 74
0
 75
0
 40
1.0
 41
10.0
 76
2
 10
223.0092415537575903
 20
253.2076708076533862
 10
242.1139795241134891
 20
215.114613784829686
1001
ACAD
1000
DSTYLE
1002
{
1070
40
1040
2.5
1002
}
  0
LEADER
  5
1C0
100
AcDbEntity
  8
1_pannes_plan
 62
256
370
-1
 48
1.0
  6
ByLayer
100
AcDbLeader
  3
Standard
 71
1
 72
0
 73
3
 74
0
 75
0
 40
1.0
 41
10.0
 76
2
 10
204.436262585604311
 20
165.8488938495976015
 10
214.0931437447850101
 20
146.5939778580726056
1001
ACAD
1000
DSTYLE
1002
{
1070
40
1040
2.5
1002
}
  0
LEADER
  5
1C1
100
AcDbEntity
  8
1_pannes_plan
 62
256
370
-1
 48
1.0
  6
ByLayer
100
AcDbLeader
  3
Standard
 71
1
 72
0
 73
3
 74
0
 75
0
 40
1.0
 41
10.0
 76
2
 10
207.0049333286654019
 20
135.8488938495976015
 10
217.416725336091389
 20
115.0887563766796973
1001
ACAD
1000
DSTYLE
1002
{
1070
40
1040
2.5
1002
}
  0
LEADER
  5
1C2
100
AcDbEntity
  8
1_pannes_plan
 62
256
370
-1
 48
1.0
  6
ByLayer
100
AcDbLeader
  3
Standard
 71
1
 72
0
 73
3
 74
0
 75
0
 40
1.0
 41
10.0
 76
2
 10
144.6190741762189873
 20
135.8488938495976015
 10
154.8807748108075089
 20
115.3880245076013011
1001
ACAD
1000
DSTYLE
1002
{
1070
40
1040
2.5
1002
}
  0
LEADER
  5
1C3
100
AcDbEntity
  8
1_pannes_plan
 62
256
370
-1
 48
1.0
  6
ByLayer
100
AcDbLeader
  3
Standard
 71
1
 72
0
 73
3
 74
0
 75
0
 40
1.0
 41
10.0
 76
2
 10
111.9037290590886045
 20
228.4589334661243072
 10
117.7004897525021931
 20
216.9007359140564972
1001
ACAD
1000
DSTYLE
1002
{
1070
40
1040
2.5
1002
}
  0
LEADER
  5
1C4
100
AcDbEntity
  8
1_pannes_plan
 62
256
370
-1
 48
1.0
  6
ByLayer
100
AcDbLeader
  3
Standard
 71
1
 72
0
 73
3
 74
0
 75
0
 40
1.0
 41
10.0
 76
2
 10
145.7705626302540907
 20
253.2076708076533862
 10
161.9651699752477896
 20
253.2076708076533862
1001
ACAD
1000
DSTYLE
1002
{
1070
40
1040
2.5
1002
}
  0
LEADER
  5
1C5
100
AcDbEntity
  8
1_pannes_plan
 62
256
370
-1
 48
1.0
  6
ByLayer
100
AcDbLeader
  3
Standard
 71
1
 72
0
 73
3
 74
0
 75
0
 40
1.0
 41
10.0
 76
2
 10
135.1963765070802879
 20
231.9944673720569881
 10
152.8191655340399109
 20
231.9944673720569881
1001
ACAD
1000
DSTYLE
1002
{
1070
40
1040
2.5
1002
}
  0
LEADER
  5
1C6
100
AcDbEntity
  8
1_pannes_plan
 62
256
370
-1
 48
1.0
  6
ByLayer
100
AcDbLeader
  3
Standard
 71
1
 72
0
 73
3
 74
0
 75
0
 40
1.0
 41
10.0
 76
2
 10
133.4340121532179921
 20
228.4589334661243072
 10
149.7144872274791965
 20
228.4589334661243072
1001
ACAD
1000
DSTYLE
1002
{
1070
40
1040
2.5
1002
}
  0
LEADER
  5
1C7
100
AcDbEntity
  8
1_pannes_plan
 62
256
370
-1
 48
1.0
  6
ByLayer
100
AcDbLeader
  3
Standard
 71
1
 72
0
 73
3
 74
0
 75
0
 40
1.0
 41
10.0
 76
2
 10
122.8598260300440046
 20
207.2457300305277954
 10
143.8500948706424936
 20
207.2457300305277954
1001
ACAD
1000
DSTYLE
1002
{
1070
40
1040
2.5
1002
}
  0
LEADER
  5
1C8
100
AcDbEntity
  8
1_pannes_plan
 62
256
370
-1
 48
1.0
  6
ByLayer
100
AcDbLeader
  3
Standard
 71
1
 72
0
 73
3
 74
0
 75
0
 40
1.0
 41
10.0
 76
2
 10
102.2246658564913986
 20
165.8488938495976015
 10
122.4623109810026023
 20
165.8488938495976015
1001
ACAD
1000
DSTYLE
1002
{
1070
40
1040
2.5
1002
}
  0
LEADER
  5
1C9
100
AcDbEntity
  8
1_pannes_plan
 62
256
370
-1
 48
1.0
  6
ByLayer
100
AcDbLeader
  3
Standard
 71
1
 72
0
 73
3
 74
0
 75
0
 40
1.0
 41
10.0
 76
2
 10
87.2705084300415592
 20
135.8488938495976015
 10
112.1133832924671054
 20
135.8488938495976015
1001
ACAD
1000
DSTYLE
1002
{
1070
40
1040
2.5
1002
}
  0
LEADER
  5
1CA
100
AcDbEntity
  8
1_pannes_plan
 62
256
370
-1
 48
1.0
  6
ByLayer
100
AcDbLeader
  3
Standard
 71
1
 72
0
 73
3
 74
0
 75
0
 40
1.0
 41
10.0
 76
2
 10
-19.8271237387105508
 20
169.7401646058476103
 10
12.8939199753235396
 20
153.4296433106003121
1001
ACAD
1000
DSTYLE
1002
{
1070
40
1040
2.5
1002
}
  0
LEADER
  5
1CB
100
AcDbEntity
  8
1_pannes_plan
 62
256
370
-1
 48
1.0
  6
ByLayer
100
AcDbLeader
  3
Standard
 71
1
 72
0
 73
3
 74
0
 75
0
 40
1.0
 41
10.0
 76
2
 10
-10.0920037617279004
 20
184.3813716746093974
 10
15.4500812761580892
 20
171.649359652732187
1001
ACAD
1000
DSTYLE
1002
{
1070
40
1040
2.5
1002
}
  0
LEADER
  5
1CC
100
AcDbEntity
  8
1_pannes_plan
 62
256
370
-1
 48
1.0
  6
ByLayer
100
AcDbLeader
  3
Standard
 71
1
 72
0
 73
3
 74
0
 75
0
 40
1.0
 41
10.0
 76
2
 10
0.0000000000000121
 20
197.311127760269386
 10
29.8177048357883585
 20
182.4478393532762937
1001
ACAD
1000
DSTYLE
1002
{
1070
40
1040
2.5
1002
}
  0
LEADER
  5
1CD
100
AcDbEntity
  8
1_pannes_plan
 62
256
370
-1
 48
1.0
  6
ByLayer
100
AcDbLeader
  3
Standard
 71
1
 72
0
 73
3
 74
0
 75
0
 40
1.0
 41
10.0
 76
2
 10
8.6248318743854213
 20
212.5057822648633987
 10
32.9247945783354226
 20
200.3929333404726094
1001
ACAD
1000
DSTYLE
1002
{
1070
40
1040
2.5
1002
}
  0
LEADER
  5
1CE
100
AcDbEntity
  8
1_pannes_plan
 62
256
370
-1
 48
1.0
  6
ByLayer
100
AcDbLeader
  3
Standard
 71
1
 72
0
 73
3
 74
0
 75
0
 40
1.0
 41
10.0
 76
2
 10
23.9947886600342883
 20
237.0332834984918975
 10
49.5360292512259832
 20
224.3016924095749118
1001
ACAD
1000
DSTYLE
1002
{
1070
40
1040
2.5
1002
}
  0
LEADER
  5
1CF
100
AcDbEntity
  8
1_pannes_plan
 62
256
370
-1
 48
1.0
  6
ByLayer
100
AcDbLeader
  3
Standard
 71
1
 72
0
 73
3
 74
0
 75
0
 40
1.0
 41
10.0
 76
2
 10
32.3466764058758471
 20
252.3639929853150079
 10
56.5080625527034783
 20
240.320220582618191
1001
ACAD
1000
DSTYLE
1002
{
1070
40
1040
2.5
1002
}
  0
LEADER
  5
1D0
100
AcDbEntity
  8
1_pannes_plan
 62
256
370
-1
 48
1.0
  6
ByLayer
100
AcDbLeader
  3
Standard
 71
1
 72
0
 73
3
 74
0
 75
0
 40
1.0
 41
10.0
 76
2
 10
37.7714356375218188
 20
256.6501501418400721
 10
65.1082603444448011
 20
243.023510801620489
1001
ACAD
1000
DSTYLE
1002
{
1070
40
1040
2.5
1002
}
  0
LEADER
  5
1D1
100
AcDbEntity
  8
1_pannes_plan
 62
256
370
-1
 48
1.0
  6
ByLayer
100
AcDbLeader
  3
Standard
 71
1
 72
0
 73
3
 74
0
 75
0
 40
1.0
 41
10.0
 76
2
 10
41.1967186768534077
 20
259.3567657874435213
 10
67.1520000460236162
 20
246.4187869993641868
1001
ACAD
1000
DSTYLE
1002
{
1070
40
1040
2.5
1002
}
  0
LEADER
  5
1D2
100
AcDbEntity
  8
1_pannes_plan
 62
256
370
-1
 48
1.0
  6
ByLayer
100
AcDbLeader
  3
Standard
 71
1
 72
0
 73
3
 74
0
 75
0
 40
1.0
 41
10.0
 76
2
 10
47.5057111678101833
 20
271.2917781435623965
 10
75.8091939878130177
 20
257.1832868833245129
1001
ACAD
1000
DSTYLE
1002
{
1070
40
1040
2.5
1002
}
  0
LEADER
  5
1D3
100
AcDbEntity
  8
1_pannes_plan
 62
256
370
-1
 48
1.0
  6
ByLayer
100
AcDbLeader
  3
Standard
 71
1
 72
0
 73
3
 74
0
 75
0
 40
1.0
 41
10.0
 76
2
 10
52.8634659866065704
 20
273.0351108820883042
 10
80.7529080286308272
 20
259.1330073210127125
1001
ACAD
1000
DSTYLE
1002
{
1070
40
1040
2.5
1002
}
  0
LEADER
  5
1D4
100
AcDbEntity
  8
1_pannes_plan
 62
256
370
-1
 48
1.0
  6
ByLayer
100
AcDbLeader
  3
Standard
 71
1
 72
0
 73
3
 74
0
 75
0
 40
1.0
 41
10.0
 76
2
 10
55.5251385427472428
 20
278.6985891428951732
 10
81.7558841327738151
 20
265.6232991773482013
1001
ACAD
1000
DSTYLE
1002
{
1070
40
1040
2.5
1002
}
  0
LEADER
  5
1D5
100
AcDbEntity
  8
1_pannes_plan
 62
256
370
-1
 48
1.0
  6
ByLayer
100
AcDbLeader
  3
Standard
 71
1
 72
0
 73
3
 74
0
 75
0
 40
1.0
 41
10.0
 76
2
 10
64.9814165120965015
 20
293.4787911209655249
 10
102.398018681101405
 20
274.8276658143611257
1001
ACAD
1000
DSTYLE
1002
{
1070
40
1040
2.5
1002
}
  0
ENDSEC
  0
SECTION
  2
OBJECTS
  0
DICTIONARY
  5
C
100
AcDbDictionary
280
0
281
1
  3
ACAD_GROUP
350
D
  3
ACAD_LAYOUT
350
1A
  3
ACAD_MLINESTYLE
350
17
  3
ACAD_PLOTSETTINGS
350
19
  3
ACAD_PLOTSTYLENAME
350
E
  3
AcDbVariableDictionary
350
1D6
  3
QCAD_OBJECTS
350
1D7
  0
DICTIONARY
  5
D
100
AcDbDictionary
280
0
281
1
  0
ACDBDICTIONARYWDFLT
  5
E
100
AcDbDictionary
281
1
  3
Normal
350
F
100
AcDbDictionaryWithDefault
340
F
  0
ACDBPLACEHOLDER
  5
F
  0
DICTIONARY
  5
17
100
AcDbDictionary
280
0
281
1
  3
Standard
350
18
  0
MLINESTYLE
  5
18
100
AcDbMlineStyle
  2
STANDARD
 70
0
  3

 62
256
 51
90.0
 52
90.0
 71
2
 49
0.5
 62
256
  6
BYLAYER
 49
-0.5
 62
256
  6
BYLAYER
  0
DICTIONARY
  5
19
100
AcDbDictionary
280
0
281
1
  0
DICTIONARY
  5
1A
100
AcDbDictionary
281
1
  3
Layout1
350
1E
  3
Layout2
350
26
  3
Model
350
22
  0
LAYOUT
  5
1E
100
AcDbPlotSettings
  1

  2
none_device
  4

  6

 40
0.0
 41
0.0
 42
0.0
 43
0.0
 44
0.0
 45
0.0
 46
0.0
 47
0.0
 48
0.0
 49
0.0
140
0.0
141
0.0
142
1.0
143
1.0
 70
688
 72
0
 73
0
 74
5
  7

 75
16
147
1.0
148
0.0
149
0.0
100
AcDbLayout
  1
Layout1
 70
1
 71
1
 10
0.0
 20
0.0
 11
420.0
 21
297.0
 12
0.0
 22
0.0
 32
0.0
 14
100000000000000000000.0
 24
100000000000000000000.0
 34
100000000000000000000.0
 15
-100000000000000000000.0
 25
-100000000000000000000.0
 35
-100000000000000000000.0
146
0.0
 13
0.0
 23
0.0
 33
0.0
 16
1.0
 26
0.0
 36
0.0
 17
0.0
 27
1.0
 37
0.0
 76
0
330
1B
  0
LAYOUT
  5
22
100
AcDbPlotSettings
  1

  2
none_device
  4

  6

 40
0.0
 41
0.0
 42
0.0
 43
0.0
 44
0.0
 45
0.0
 46
0.0
 47
0.0
 48
0.0
 49
0.0
140
0.0
141
0.0
142
1.0
143
1.0
 70
1712
 72
0
 73
0
 74
0
  7

 75
0
147
1.0
148
0.0
149
0.0
100
AcDbLayout
  1
Model
 70
1
 71
0
 10
0.0
 20
0.0
 11
12.0
 21
9.0
 12
0.0
 22
0.0
 32
0.0
 14
0.0
 24
0.0
 34
0.0
 15
0.0
 25
0.0
 35
0.0
146
0.0
 13
0.0
 23
0.0
 33
0.0
 16
1.0
 26
0.0
 36
0.0
 17
0.0
 27
1.0
 37
0.0
 76
0
330
1F
  0
LAYOUT
  5
26
100
AcDbPlotSettings
  1

  2
none_device
  4

  6

 40
0.0
 41
0.0
 42
0.0
 43
0.0
 44
0.0
 45
0.0
 46
0.0
 47
0.0
 48
0.0
 49
0.0
140
0.0
141
0.0
142
1.0
143
1.0
 70
688
 72
0
 73
0
 74
5
  7

 75
16
147
1.0
148
0.0
149
0.0
100
AcDbLayout
  1
Layout2
 70
1
 71
2
 10
0.0
 20
0.0
 11
12.0
 21
9.0
 12
0.0
 22
0.0
 32
0.0
 14
0.0
 24
0.0
 34
0.0
 15
0.0
 25
0.0
 35
0.0
146
0.0
 13
0.0
 23
0.0
 33
0.0
 16
1.0
 26
0.0
 36
0.0
 17
0.0
 27
1.0
 37
0.0
 76
0
330
23
  0
DICTIONARY
  5
1D6
100
AcDbDictionary
281
1
  3
DIMASSOC
350
1D9
  3
HIDETEXT
350
1D8
  0
DICTIONARYVAR
  5
1D8
100
DictionaryVariables
280
0
  1
2
  0
DICTIONARYVAR
  5
1D9
100
DictionaryVariables
280
0
  1
1
  0
DICTIONARY
  5
1D7
100
AcDbDictionary
281
1
  3
ColorSettings/BackgroundColor
350
1DA
  3
ColorSettings/ColorMode
350
1DB
  3
Grid/DisplayGrid00
350
1DC
  3
Grid/DisplayGrid01
350
1DD
  3
Grid/DisplayGrid02
350
1DE
  3
Grid/DisplayGrid03
350
1DF
  3
Grid/GridSpacingX00
350
1E0
  3
Grid/GridSpacingX01
350
1E1
  3
Grid/GridSpacingX02
350
1E2
  3
Grid/GridSpacingX03
350
1E3
  3
Grid/GridSpacingY00
350
1E4
  3
Grid/GridSpacingY01
350
1E5
  3
Grid/GridSpacingY02
350
1E6
  3
Grid/GridSpacingY03
350
1E7
  3
Grid/IsometricGrid00
350
1E8
  3
Grid/IsometricGrid01
350
1E9
  3
Grid/IsometricGrid02
350
1EA
  3
Grid/IsometricGrid03
350
1EB
  3
Grid/IsometricProjection00
350
1EC
  3
Grid/IsometricProjection01
350
1ED
  3
Grid/IsometricProjection02
350
1EE
  3
Grid/IsometricProjection03
350
1EF
  3
Grid/MetaGridSpacingX00
350
1F0
  3
Grid/MetaGridSpacingX01
350
1F1
  3
Grid/MetaGridSpacingX02
350
1F2
  3
Grid/MetaGridSpacingX03
350
1F3
  3
Grid/MetaGridSpacingY00
350
1F4
  3
Grid/MetaGridSpacingY01
350
1F5
  3
Grid/MetaGridSpacingY02
350
1F6
  3
Grid/MetaGridSpacingY03
350
1F7
  3
MultiPageSettings/Columns
350
1F8
  3
MultiPageSettings/GlueMarginsBottom
350
1F9
  3
MultiPageSettings/GlueMarginsLeft
350
1FA
  3
MultiPageSettings/GlueMarginsRight
350
1FB
  3
MultiPageSettings/GlueMarginsTop
350
1FC
  3
MultiPageSettings/PrintCropMarks
350
1FD
  3
MultiPageSettings/Rows
350
1FE
  3
PageSettings/OffsetX
350
1FF
  3
PageSettings/OffsetY
350
200
  3
PageSettings/PageOrientation
350
201
  3
PageSettings/PaperHeight
350
202
  3
PageSettings/PaperWidth
350
203
  3
PageSettings/Scale
350
204
  3
PageSettings/ShowPaperBorders
350
205
  3
UnitSettings/PaperUnit
350
206
  3
ViewportCenter
350
207
  3
ViewportHeight
350
208
  3
ViewportWidth
350
209
  0
XRECORD
  5
1DA
330
1D7
100
AcDbXrecord
280
1
1000
White
  0
XRECORD
  5
1DB
330
1D7
100
AcDbXrecord
280
1
1000
FullColor
  0
XRECORD
  5
1DC
330
1D7
100
AcDbXrecord
280
1
290
1
  0
XRECORD
  5
1DD
330
1D7
100
AcDbXrecord
280
1
290
1
  0
XRECORD
  5
1DE
330
1D7
100
AcDbXrecord
280
1
290
1
  0
XRECORD
  5
1DF
330
1D7
100
AcDbXrecord
280
1
290
1
  0
XRECORD
  5
1E0
330
1D7
100
AcDbXrecord
280
1
1000
auto
  0
XRECORD
  5
1E1
330
1D7
100
AcDbXrecord
280
1
1000
auto
  0
XRECORD
  5
1E2
330
1D7
100
AcDbXrecord
280
1
1000
auto
  0
XRECORD
  5
1E3
330
1D7
100
AcDbXrecord
280
1
1000
auto
  0
XRECORD
  5
1E4
330
1D7
100
AcDbXrecord
280
1
1000
auto
  0
XRECORD
  5
1E5
330
1D7
100
AcDbXrecord
280
1
1000
auto
  0
XRECORD
  5
1E6
330
1D7
100
AcDbXrecord
280
1
1000
auto
  0
XRECORD
  5
1E7
330
1D7
100
AcDbXrecord
280
1
1000
auto
  0
XRECORD
  5
1E8
330
1D7
100
AcDbXrecord
280
1
290
0
  0
XRECORD
  5
1E9
330
1D7
100
AcDbXrecord
280
1
290
0
  0
XRECORD
  5
1EA
330
1D7
100
AcDbXrecord
280
1
290
0
  0
XRECORD
  5
1EB
330
1D7
100
AcDbXrecord
280
1
290
0
  0
XRECORD
  5
1EC
330
1D7
100
AcDbXrecord
280
1
 90
65537
  0
XRECORD
  5
1ED
330
1D7
100
AcDbXrecord
280
1
 90
65537
  0
XRECORD
  5
1EE
330
1D7
100
AcDbXrecord
280
1
 90
65537
  0
XRECORD
  5
1EF
330
1D7
100
AcDbXrecord
280
1
 90
65537
  0
XRECORD
  5
1F0
330
1D7
100
AcDbXrecord
280
1
1000
auto
  0
XRECORD
  5
1F1
330
1D7
100
AcDbXrecord
280
1
1000
auto
  0
XRECORD
  5
1F2
330
1D7
100
AcDbXrecord
280
1
1000
auto
  0
XRECORD
  5
1F3
330
1D7
100
AcDbXrecord
280
1
1000
auto
  0
XRECORD
  5
1F4
330
1D7
100
AcDbXrecord
280
1
1000
auto
  0
XRECORD
  5
1F5
330
1D7
100
AcDbXrecord
280
1
1000
auto
  0
XRECORD
  5
1F6
330
1D7
100
AcDbXrecord
280
1
1000
auto
  0
XRECORD
  5
1F7
330
1D7
100
AcDbXrecord
280
1
1000
auto
  0
XRECORD
  5
1F8
330
1D7
100
AcDbXrecord
280
1
 90
1
  0
XRECORD
  5
1F9
330
1D7
100
AcDbXrecord
280
1
 40
0.5
  0
XRECORD
  5
1FA
330
1D7
100
AcDbXrecord
280
1
 40
0.5
  0
XRECORD
  5
1FB
330
1D7
100
AcDbXrecord
280
1
 40
0.5
  0
XRECORD
  5
1FC
330
1D7
100
AcDbXrecord
280
1
 40
0.5
  0
XRECORD
  5
1FD
330
1D7
100
AcDbXrecord
280
1
290
0
  0
XRECORD
  5
1FE
330
1D7
100
AcDbXrecord
280
1
 90
1
  0
XRECORD
  5
1FF
330
1D7
100
AcDbXrecord
280
1
 40
0.0
  0
XRECORD
  5
200
330
1D7
100
AcDbXrecord
280
1
 40
0.0
  0
XRECORD
  5
201
330
1D7
100
AcDbXrecord
280
1
1000
Portrait
  0
XRECORD
  5
202
330
1D7
100
AcDbXrecord
280
1
 40
11.6929999999999996
  0
XRECORD
  5
203
330
1D7
100
AcDbXrecord
280
1
 40
8.2680000000000007
  0
XRECORD
  5
204
330
1D7
100
AcDbXrecord
280
1
1000
1" = 1"
  0
XRECORD
  5
205
330
1D7
100
AcDbXrecord
280
1
290
1
  0
XRECORD
  5
206
330
1D7
100
AcDbXrecord
280
1
 90
1
  0
XRECORD
  5
208
330
1D7
100
AcDbXrecord
280
1
 40
921.1885863634572615
  0
XRECORD
  5
209
330
1D7
100
AcDbXrecord
280
1
 40
1534.3456580438655692
  0
ENDSEC
  0
EOF
