999
dxflib 3.17.0.0
  0
SECTION
  2
HEADER
  9
$ACADVER
  1
AC1015
  9
$HANDSEED
  5
FFFF
  9
$DIMADEC
 70
0
  9
$DIMASZ
 40
2.5
  9
$DIMAUNIT
 70
0
  9
$DIMAZIN
 70
2
  9
$DIMDEC
 70
4
  9
$DIMDLI
 40
5.0
  9
$DIMDSEP
 70
46
  9
$DIMEXE
 40
1.25
  9
$DIMEXO
 40
0.625
  9
$DIMGAP
 40
0.625
  9
$DIMLUNIT
 70
2
  9
$DIMSCALE
 40
1.0
  9
$DIMTSZ
 40
0.0
  9
$DIMTXT
 40
2.5
  9
$DIMZIN
 70
8
  9
$DWGCODEPAGE
  3
ANSI_1252
  9
$INSUNITS
 70
4
  9
$LTSCALE
 40
1.0
  9
$MAXACTVP
 70
64
  9
$MEASUREMENT
 70
1
  9
$PDMODE
 70
0
  9
$PDSIZE
 40
0.0
  0
ENDSEC
  0
SECTION
  2
TABLES
  0
TABLE
  2
VPORT
  5
8
100
AcDbSymbolTable
 70
1
  0
VPORT
  5
30
100
AcDbSymbolTableRecord
100
AcDbViewportTableRecord
  2
*Active
 70
0
 10
0.0
 20
0.0
 11
1.0
 21
1.0
 12
286.3055555555554861
 22
148.5
 13
0.0
 23
0.0
 14
10.0
 24
10.0
 15
10.0
 25
10.0
 16
0.0
 26
0.0
 36
1.0
 17
0.0
 27
0.0
 37
0.0
 40
297.0
 41
1.92798353909465
 42
50.0
 43
0.0
 44
0.0
 50
0.0
 51
0.0
 71
0
 72
100
 73
1
 74
3
 75
1
 76
1
 77
0
 78
0
281
0
 65
1
110
0.0
120
0.0
130
0.0
111
1.0
121
0.0
131
0.0
112
0.0
122
1.0
132
0.0
 79
0
146
0.0
  0
ENDTAB
  0
TABLE
  2
LTYPE
  5
5
100
AcDbSymbolTable
 70
41
  0
LTYPE
  5
16
100
AcDbSymbolTableRecord
100
AcDbLinetypeTableRecord
  2
Continuous
 70
0
  3
Solid line
 72
65
 73
0
 40
0.0
  0
LTYPE
  5
31
100
AcDbSymbolTableRecord
100
AcDbLinetypeTableRecord
  2
DASHDOT2
 70
0
  3
Dash dot (.5x) _._._._._._._._._._._._._._._.
 72
65
 73
4
 40
12.6999999999999993
 49
6.3499999999999996
 74
0
 49
-3.125
 74
0
 49
0.1
 74
0
 49
-3.125
 74
0
  0
LTYPE
  5
32
100
AcDbSymbolTableRecord
100
AcDbLinetypeTableRecord
  2
CENTER
 70
0
  3
Center ____ _ ____ _ ____ _ ____ _ ____ _ ____
 72
65
 73
4
 40
50.8000000000000043
 49
31.75
 74
0
 49
-6.3499999999999996
 74
0
 49
6.3499999999999996
 74
0
 49
-6.3499999999999996
 74
0
  0
LTYPE
  5
33
100
AcDbSymbolTableRecord
100
AcDbLinetypeTableRecord
  2
DASHDOTX2
 70
0
  3
Dash dot (2x) ____  .  ____  .  ____  .  ___
 72
65
 73
4
 40
50.7999999999999972
 49
25.3999999999999986
 74
0
 49
-12.6499999999999986
 74
0
 49
0.1
 74
0
 49
-12.6499999999999986
 74
0
  0
LTYPE
  5
34
100
AcDbSymbolTableRecord
100
AcDbLinetypeTableRecord
  2
HIDDENX2
 70
0
  3
Hidden (2x) ____ ____ ____ ____ ____ ____ ____ 
 72
65
 73
2
 40
19.0499999999999972
 49
12.6999999999999993
 74
0
 49
-6.3499999999999996
 74
0
  0
LTYPE
  5
35
100
AcDbSymbolTableRecord
100
AcDbLinetypeTableRecord
  2
CENTERX2
 70
0
  3
Center (2x) ________  __  ________  __  _____
 72
65
 73
4
 40
101.6000000000000085
 49
63.5
 74
0
 49
-12.6999999999999993
 74
0
 49
12.6999999999999993
 74
0
 49
-12.6999999999999993
 74
0
  0
LTYPE
  5
36
100
AcDbSymbolTableRecord
100
AcDbLinetypeTableRecord
  2
ACAD_ISO04W100
 70
0
  3
ISO long-dash dot ____ . ____ . ____ . ____ . _
 72
65
 73
4
 40
30.0
 49
24.0
 74
0
 49
-2.9500000000000002
 74
0
 49
0.1
 74
0
 49
-2.9500000000000002
 74
0
  0
LTYPE
  5
37
100
AcDbSymbolTableRecord
100
AcDbLinetypeTableRecord
  2
ACAD_ISO09W100
 70
0
  3
ISO long-dash double-short-dash ____ __ __ ____
 72
65
 73
6
 40
45.0
 49
24.0
 74
0
 49
-3.0
 74
0
 49
6.0
 74
0
 49
-3.0
 74
0
 49
6.0
 74
0
 49
-3.0
 74
0
  0
LTYPE
  5
38
100
AcDbSymbolTableRecord
100
AcDbLinetypeTableRecord
  2
DASHED2
 70
0
  3
Dashed (.5x) _ _ _ _ _ _ _ _ _ _ _ _ _ _ _ _ _ 
 72
65
 73
2
 40
9.5249999999999986
 49
6.3499999999999996
 74
0
 49
-3.1749999999999998
 74
0
  0
LTYPE
  5
39
100
AcDbSymbolTableRecord
100
AcDbLinetypeTableRecord
  2
ACAD_ISO08W100
 70
0
  3
ISO long-dash short-dash ____ __ ____ __ ____ _
 72
65
 73
4
 40
36.0
 49
24.0
 74
0
 49
-3.0
 74
0
 49
6.0
 74
0
 49
-3.0
 74
0
  0
LTYPE
  5
3A
100
AcDbSymbolTableRecord
100
AcDbLinetypeTableRecord
  2
ACAD_ISO15W100
 70
0
  3
ISO double-dash triple-dot __ __ . . . __ __ . .
 72
65
 73
10
 40
39.0000000000000071
 49
12.0
 74
0
 49
-3.0
 74
0
 49
12.0
 74
0
 49
-2.9500000000000002
 74
0
 49
0.1
 74
0
 49
-2.9000000000000004
 74
0
 49
0.1
 74
0
 49
-2.9000000000000004
 74
0
 49
0.1
 74
0
 49
-2.9500000000000002
 74
0
  0
LTYPE
  5
3B
100
AcDbSymbolTableRecord
100
AcDbLinetypeTableRecord
  2
DOTX2
 70
0
  3
Dot (2x) .  .  .  .  .  .  .  .  .  .  .  .  .  .
 72
65
 73
2
 40
12.6999999999999993
 49
0.1
 74
0
 49
-12.5999999999999996
 74
0
  0
LTYPE
  5
3C
100
AcDbSymbolTableRecord
100
AcDbLinetypeTableRecord
  2
ACAD_ISO12W100
 70
0
  3
ISO dash double-dot __ . . __ . . __ . . __ . . 
 72
65
 73
6
 40
21.0
 49
12.0
 74
0
 49
-2.9500000000000002
 74
0
 49
0.1
 74
0
 49
-2.9000000000000004
 74
0
 49
0.1
 74
0
 49
-2.9500000000000002
 74
0
  0
LTYPE
  5
3D
100
AcDbSymbolTableRecord
100
AcDbLinetypeTableRecord
  2
BORDERX2
 70
0
  3
Border (2x) ____  ____  .  ____  ____  .  ___
 72
65
 73
6
 40
88.8999999999999773
 49
25.3999999999999986
 74
0
 49
-12.6999999999999993
 74
0
 49
25.3999999999999986
 74
0
 49
-12.6499999999999986
 74
0
 49
0.1
 74
0
 49
-12.6499999999999986
 74
0
  0
LTYPE
  5
3E
100
AcDbSymbolTableRecord
100
AcDbLinetypeTableRecord
  2
ACAD_ISO13W100
 70
0
  3
ISO double-dash double-dot __ __ . . __ __ . . _
 72
65
 73
8
 40
36.0000000000000071
 49
12.0
 74
0
 49
-3.0
 74
0
 49
12.0
 74
0
 49
-2.9500000000000002
 74
0
 49
0.1
 74
0
 49
-2.9000000000000004
 74
0
 49
0.1
 74
0
 49
-2.9500000000000002
 74
0
  0
LTYPE
  5
3F
100
AcDbSymbolTableRecord
100
AcDbLinetypeTableRecord
  2
ACAD_ISO05W100
 70
0
  3
ISO long-dash double-dot ____ .. ____ .. ____ . 
 72
65
 73
6
 40
33.0000000000000071
 49
24.0
 74
0
 49
-2.9500000000000002
 74
0
 49
0.1
 74
0
 49
-2.9000000000000004
 74
0
 49
0.1
 74
0
 49
-2.9500000000000002
 74
0
  0
LTYPE
  5
40
100
AcDbSymbolTableRecord
100
AcDbLinetypeTableRecord
  2
ACAD_ISO06W100
 70
0
  3
ISO long-dash triple-dot ____ ... ____ ... ____
 72
65
 73
8
 40
36.0000000000000071
 49
24.0
 74
0
 49
-2.9500000000000002
 74
0
 49
0.1
 74
0
 49
-2.9000000000000004
 74
0
 49
0.1
 74
0
 49
-2.9000000000000004
 74
0
 49
0.1
 74
0
 49
-2.9500000000000002
 74
0
  0
LTYPE
  5
41
100
AcDbSymbolTableRecord
100
AcDbLinetypeTableRecord
  2
DASHDOT
 70
0
  3
Dash dot __ . __ . __ . __ . __ . __ . __ . __
 72
65
 73
4
 40
25.4000000000000021
 49
12.6999999999999993
 74
0
 49
-6.2999999999999998
 74
0
 49
0.1
 74
0
 49
-6.2999999999999998
 74
0
  0
LTYPE
  5
42
100
AcDbSymbolTableRecord
100
AcDbLinetypeTableRecord
  2
DIVIDE2
 70
0
  3
Divide (.5x) __..__..__..__..__..__..__..__.._
 72
65
 73
6
 40
15.8749999999999982
 49
6.3499999999999996
 74
0
 49
-3.125
 74
0
 49
0.1
 74
0
 49
-3.0750000000000002
 74
0
 49
0.1
 74
0
 49
-3.125
 74
0
  0
LTYPE
  5
43
100
AcDbSymbolTableRecord
100
AcDbLinetypeTableRecord
  2
DASHED
 70
0
  3
Dashed __ __ __ __ __ __ __ __ __ __ __ __ __ _
 72
65
 73
2
 40
19.0499999999999972
 49
12.6999999999999993
 74
0
 49
-6.3499999999999996
 74
0
  0
LTYPE
  5
44
100
AcDbSymbolTableRecord
100
AcDbLinetypeTableRecord
  2
ACAD_ISO03W100
 70
0
  3
ISO dash space __    __    __    __    __    __
 72
65
 73
2
 40
30.0
 49
12.0
 74
0
 49
-18.0
 74
0
  0
LTYPE
  5
45
100
AcDbSymbolTableRecord
100
AcDbLinetypeTableRecord
  2
HIDDEN
 70
0
  3
Hidden __ __ __ __ __ __ __ __ __ __ __ __ __ __
 72
65
 73
2
 40
9.5249999999999986
 49
6.3499999999999996
 74
0
 49
-3.1749999999999998
 74
0
  0
LTYPE
  5
46
100
AcDbSymbolTableRecord
100
AcDbLinetypeTableRecord
  2
DOT
 70
0
  3
Dot . . . . . . . . . . . . . . . . . . . . . . . .
 72
65
 73
2
 40
6.3499999999999996
 49
0.1
 74
0
 49
-6.25
 74
0
  0
LTYPE
  5
47
100
AcDbSymbolTableRecord
100
AcDbLinetypeTableRecord
  2
ACAD_ISO07W100
 70
0
  3
ISO dot . . . . . . . . . . . . . . . . . . . . 
 72
65
 73
2
 40
3.0
 49
0.1
 74
0
 49
-2.8999999999999999
 74
0
  0
LTYPE
  5
48
100
AcDbSymbolTableRecord
100
AcDbLinetypeTableRecord
  2
ACAD_ISO02W100
 70
0
  3
ISO dash __ __ __ __ __ __ __ __ __ __ __ __ __
 72
65
 73
2
 40
15.0
 49
12.0
 74
0
 49
-3.0
 74
0
  0
LTYPE
  5
49
100
AcDbSymbolTableRecord
100
AcDbLinetypeTableRecord
  2
DASHEDX2
 70
0
  3
Dashed (2x) ____  ____  ____  ____  ____  ___
 72
65
 73
2
 40
38.0999999999999943
 49
25.3999999999999986
 74
0
 49
-12.6999999999999993
 74
0
  0
LTYPE
  5
4A
100
AcDbSymbolTableRecord
100
AcDbLinetypeTableRecord
  2
DIVIDE
 70
0
  3
Divide ____ . . ____ . . ____ . . ____ . . ____
 72
65
 73
6
 40
31.7500000000000036
 49
12.6999999999999993
 74
0
 49
-6.2999999999999998
 74
0
 49
0.1
 74
0
 49
-6.25
 74
0
 49
0.1
 74
0
 49
-6.2999999999999998
 74
0
  0
LTYPE
  5
15
100
AcDbSymbolTableRecord
100
AcDbLinetypeTableRecord
  2
BYLAYER
 70
0
  3

 72
65
 73
0
 40
0.0
  0
LTYPE
  5
4B
100
AcDbSymbolTableRecord
100
AcDbLinetypeTableRecord
  2
ACAD_ISO14W100
 70
0
  3
ISO dash triple-dot __ . . . __ . . . __ . . . _
 72
65
 73
8
 40
24.0000000000000036
 49
12.0
 74
0
 49
-2.9500000000000002
 74
0
 49
0.1
 74
0
 49
-2.9000000000000004
 74
0
 49
0.1
 74
0
 49
-2.9000000000000004
 74
0
 49
0.1
 74
0
 49
-2.9500000000000002
 74
0
  0
LTYPE
  5
4C
100
AcDbSymbolTableRecord
100
AcDbLinetypeTableRecord
  2
PHANTOMX2
 70
0
  3
Phantom (2x) ____________    ____    ____   _
 72
65
 73
6
 40
127.0000000000000142
 49
63.5
 74
0
 49
-12.6999999999999993
 74
0
 49
12.6999999999999993
 74
0
 49
-12.6999999999999993
 74
0
 49
12.6999999999999993
 74
0
 49
-12.6999999999999993
 74
0
  0
LTYPE
  5
4D
100
AcDbSymbolTableRecord
100
AcDbLinetypeTableRecord
  2
BORDER2
 70
0
  3
Border (.5x) __.__.__.__.__.__.__.__.__.__.__.
 72
65
 73
6
 40
22.2250000000000014
 49
6.3499999999999996
 74
0
 49
-3.1749999999999998
 74
0
 49
6.3499999999999996
 74
0
 49
-3.125
 74
0
 49
0.1
 74
0
 49
-3.125
 74
0
  0
LTYPE
  5
4E
100
AcDbSymbolTableRecord
100
AcDbLinetypeTableRecord
  2
DIVIDEX2
 70
0
  3
Divide (2x) ________  .  .  ________  .  .  _
 72
65
 73
6
 40
63.5
 49
25.3999999999999986
 74
0
 49
-12.6499999999999986
 74
0
 49
0.1
 74
0
 49
-12.5999999999999979
 74
0
 49
0.1
 74
0
 49
-12.6499999999999986
 74
0
  0
LTYPE
  5
4F
100
AcDbSymbolTableRecord
100
AcDbLinetypeTableRecord
  2
ACAD_ISO11W100
 70
0
  3
ISO double-dash dot __ __ . __ __ . __ __ . __ _
 72
65
 73
6
 40
33.0
 49
12.0
 74
0
 49
-3.0
 74
0
 49
12.0
 74
0
 49
-2.9500000000000002
 74
0
 49
0.1
 74
0
 49
-2.9500000000000002
 74
0
  0
LTYPE
  5
50
100
AcDbSymbolTableRecord
100
AcDbLinetypeTableRecord
  2
ACAD_ISO10W100
 70
0
  3
ISO dash dot __ . __ . __ . __ . __ . __ . __ . 
 72
65
 73
4
 40
18.0
 49
12.0
 74
0
 49
-2.9500000000000002
 74
0
 49
0.1
 74
0
 49
-2.9500000000000002
 74
0
  0
LTYPE
  5
51
100
AcDbSymbolTableRecord
100
AcDbLinetypeTableRecord
  2
CENTER2
 70
0
  3
Center (.5x) ___ _ ___ _ ___ _ ___ _ ___ _ ___
 72
65
 73
4
 40
28.5750000000000028
 49
19.0500000000000007
 74
0
 49
-3.1749999999999998
 74
0
 49
3.1749999999999998
 74
0
 49
-3.1749999999999998
 74
0
  0
LTYPE
  5
52
100
AcDbSymbolTableRecord
100
AcDbLinetypeTableRecord
  2
DOT2
 70
0
  3
Dot (.5x) ........................................
 72
65
 73
2
 40
3.1749999999999998
 49
0.1
 74
0
 49
-3.0749999999999997
 74
0
  0
LTYPE
  5
53
100
AcDbSymbolTableRecord
100
AcDbLinetypeTableRecord
  2
HIDDEN2
 70
0
  3
Hidden (.5x) _ _ _ _ _ _ _ _ _ _ _ _ _ _ _ _ _ 
 72
65
 73
2
 40
4.7624999999999993
 49
3.1749999999999998
 74
0
 49
-1.5874999999999999
 74
0
  0
LTYPE
  5
54
100
AcDbSymbolTableRecord
100
AcDbLinetypeTableRecord
  2
BORDER
 70
0
  3
Border __ __ . __ __ . __ __ . __ __ . __ __ .
 72
65
 73
6
 40
44.4499999999999957
 49
12.6999999999999993
 74
0
 49
-6.3499999999999996
 74
0
 49
12.6999999999999993
 74
0
 49
-6.2999999999999998
 74
0
 49
0.1
 74
0
 49
-6.2999999999999998
 74
0
  0
LTYPE
  5
14
100
AcDbSymbolTableRecord
100
AcDbLinetypeTableRecord
  2
BYBLOCK
 70
0
  3

 72
65
 73
0
 40
0.0
  0
LTYPE
  5
55
100
AcDbSymbolTableRecord
100
AcDbLinetypeTableRecord
  2
PHANTOM
 70
0
  3
Phantom ______  __  __  ______  __  __  ______ 
 72
65
 73
6
 40
63.5000000000000071
 49
31.75
 74
0
 49
-6.3499999999999996
 74
0
 49
6.3499999999999996
 74
0
 49
-6.3499999999999996
 74
0
 49
6.3499999999999996
 74
0
 49
-6.3499999999999996
 74
0
  0
LTYPE
  5
56
100
AcDbSymbolTableRecord
100
AcDbLinetypeTableRecord
  2
PHANTOM2
 70
0
  3
Phantom (.5x) ___ _ _ ___ _ _ ___ _ _ ___ _ _
 72
65
 73
6
 40
31.7500000000000036
 49
15.875
 74
0
 49
-3.1749999999999998
 74
0
 49
3.1749999999999998
 74
0
 49
-3.1749999999999998
 74
0
 49
3.1749999999999998
 74
0
 49
-3.1749999999999998
 74
0
  0
ENDTAB
  0
TABLE
  2
LAYER
  5
2
100
AcDbSymbolTable
 70
10
  0
LAYER
  5
10
100
AcDbSymbolTableRecord
100
AcDbLayerTableRecord
  2
0
 70
5
 62
7
420
16777215
  6
DOT
370
0
390
F
  0
LAYER
  5
57
100
AcDbSymbolTableRecord
100
AcDbLayerTableRecord
  2
elevation_chrv_devers
 70
0
 62
7
420
16777215
  6
Continuous
370
0
390
F
  0
LAYER
  5
58
100
AcDbSymbolTableRecord
100
AcDbLayerTableRecord
  2
coupe_chrb_aplomb
 70
0
 62
7
420
16777215
  6
Continuous
370
0
390
F
  0
LAYER
  5
59
100
AcDbSymbolTableRecord
100
AcDbLayerTableRecord
  2
vpb_ch_devers
 70
0
 62
6
420
16711935
  6
Continuous
370
0
390
F
  0
LAYER
  5
5A
100
AcDbSymbolTableRecord
100
AcDbLayerTableRecord
  2
d\U+00e9lard_fa\U+00eetage
 70
0
 62
7
420
16777215
  6
Continuous
370
0
390
F
  0
LAYER
  5
5B
100
AcDbSymbolTableRecord
100
AcDbLayerTableRecord
  2
vpb_ch_aplomb
 70
0
 62
6
420
16711935
  6
Continuous
370
0
390
F
  0
LAYER
  5
5C
100
AcDbSymbolTableRecord
100
AcDbLayerTableRecord
  2
0_ch_chevron
 70
0
 62
3
420
65280
  6
Continuous
370
0
390
F
  0
LAYER
  5
5D
100
AcDbSymbolTableRecord
100
AcDbLayerTableRecord
  2
0_vue_en_plan
 70
0
 62
7
420
16777215
  6
Continuous
370
0
390
F
  0
LAYER
  5
5E
100
AcDbSymbolTableRecord
100
AcDbLayerTableRecord
  2
elevation_chrb_aplomb
 70
0
 62
7
420
16777215
  6
Continuous
370
0
390
F
  0
LAYER
  5
5F
100
AcDbSymbolTableRecord
100
AcDbLayerTableRecord
  2
coupe_chrb_devers
 70
0
 62
7
420
16777215
  6
Continuous
370
0
390
F
  0
ENDTAB
  0
TABLE
  2
STYLE
  5
3
100
AcDbSymbolTable
 70
10
  0
STYLE
  5
60
100
AcDbSymbolTableRecord
100
AcDbTextStyleTableRecord
  2
Standard
 70
0
 40
0.0
 41
1.0
 50
0.0
 71
0
 42
2.5
  3

  4

1001
ACAD
1000
txt
1071
0
  0
STYLE
  5
61
100
AcDbSymbolTableRecord
100
AcDbTextStyleTableRecord
  2
textstyle0
 70
0
 40
0.0
 41
1.0
 50
0.0
 71
0
 42
4.0
  3

  4

1001
ACAD
1000
DejaVu Sans
1071
0
  0
STYLE
  5
62
100
AcDbSymbolTableRecord
100
AcDbTextStyleTableRecord
  2
textstyle1
 70
0
 40
0.0
 41
1.0
 50
0.0
 71
0
 42
4.0
  3

  4

1001
ACAD
1000
DejaVu Sans
1071
0
  0
STYLE
  5
63
100
AcDbSymbolTableRecord
100
AcDbTextStyleTableRecord
  2
textstyle2
 70
0
 40
0.0
 41
1.0
 50
0.0
 71
0
 42
4.0
  3

  4

1001
ACAD
1000
DejaVu Sans
1071
0
  0
STYLE
  5
64
100
AcDbSymbolTableRecord
100
AcDbTextStyleTableRecord
  2
textstyle3
 70
0
 40
0.0
 41
1.0
 50
0.0
 71
0
 42
4.0
  3

  4

1001
ACAD
1000
DejaVu Sans
1071
0
  0
STYLE
  5
65
100
AcDbSymbolTableRecord
100
AcDbTextStyleTableRecord
  2
textstyle4
 70
0
 40
0.0
 41
1.0
 50
0.0
 71
0
 42
4.0
  3

  4

1001
ACAD
1000
DejaVu Sans
1071
0
  0
STYLE
  5
66
100
AcDbSymbolTableRecord
100
AcDbTextStyleTableRecord
  2
textstyle5
 70
0
 40
0.0
 41
1.0
 50
0.0
 71
0
 42
4.0
  3

  4

1001
ACAD
1000
DejaVu Sans
1071
0
  0
STYLE
  5
67
100
AcDbSymbolTableRecord
100
AcDbTextStyleTableRecord
  2
textstyle6
 70
0
 40
0.0
 41
1.0
 50
0.0
 71
0
 42
4.0
  3

  4

1001
ACAD
1000
DejaVu Sans
1071
0
  0
STYLE
  5
68
100
AcDbSymbolTableRecord
100
AcDbTextStyleTableRecord
  2
textstyle7
 70
0
 40
0.0
 41
1.0
 50
0.0
 71
0
 42
4.0
  3

  4

1001
ACAD
1000
DejaVu Sans
1071
0
  0
STYLE
  5
69
100
AcDbSymbolTableRecord
100
AcDbTextStyleTableRecord
  2
textstyle8
 70
0
 40
0.0
 41
1.0
 50
0.0
 71
0
 42
4.0
  3

  4

1001
ACAD
1000
DejaVu Sans
1071
0
  0
ENDTAB
  0
TABLE
  2
VIEW
  5
6
100
AcDbSymbolTable
 70
0
  0
ENDTAB
  0
TABLE
  2
UCS
  5
7
100
AcDbSymbolTable
 70
0
  0
ENDTAB
  0
TABLE
  2
APPID
  5
9
100
AcDbSymbolTable
 70
1
  0
APPID
  5
12
100
AcDbSymbolTableRecord
100
AcDbRegAppTableRecord
  2
ACAD
 70
0
  0
APPID
  5
6A
100
AcDbSymbolTableRecord
100
AcDbRegAppTableRecord
  2
QCAD
 70
0
  0
ENDTAB
  0
TABLE
  2
DIMSTYLE
  5
A
100
AcDbSymbolTable
 70
1
100
AcDbDimStyleTable
 71
0
  0
DIMSTYLE
105
27
100
AcDbSymbolTableRecord
100
AcDbDimStyleTableRecord
  2
Standard
 41
2.5
 42
0.625
 43
3.75
 44
1.25
 70
0
 73
0
 74
0
 77
1
 78
8
140
2.5
141
2.5
143
0.03937007874016
147
0.625
171
3
172
1
271
2
272
2
274
3
278
44
283
0
284
8
340
60
  0
ENDTAB
  0
TABLE
  2
BLOCK_RECORD
  5
1
100
AcDbSymbolTable
 70
1
  0
BLOCK_RECORD
  5
1F
100
AcDbSymbolTableRecord
100
AcDbBlockTableRecord
  2
*Model_Space
340
22
  0
BLOCK_RECORD
  5
1B
100
AcDbSymbolTableRecord
100
AcDbBlockTableRecord
  2
*Paper_Space
340
1E
  0
BLOCK_RECORD
  5
23
100
AcDbSymbolTableRecord
100
AcDbBlockTableRecord
  2
*Paper_Space0
340
26
  0
ENDTAB
  0
ENDSEC
  0
SECTION
  2
BLOCKS
  0
BLOCK
  5
20
100
AcDbEntity
  8
0
100
AcDbBlockBegin
  2
*Model_Space
 70
0
 10
0.0
 20
0.0
 30
0.0
  3
*Model_Space
  1

  0
ENDBLK
  5
21
100
AcDbEntity
  8
0
100
AcDbBlockEnd
  0
BLOCK
  5
1C
100
AcDbEntity
 67
1
  8
0
100
AcDbBlockBegin
  2
*Paper_Space
 70
0
 10
0.0
 20
0.0
 30
0.0
  3
*Paper_Space
  1

  0
ENDBLK
  5
1D
100
AcDbEntity
 67
1
  8
0
100
AcDbBlockEnd
  0
BLOCK
  5
24
100
AcDbEntity
  8
0
100
AcDbBlockBegin
  2
*Paper_Space0
 70
0
 10
0.0
 20
0.0
 30
0.0
  3
*Paper_Space0
  1

  0
ENDBLK
  5
25
100
AcDbEntity
  8
0
100
AcDbBlockEnd
  0
ENDSEC
  0
SECTION
  2
ENTITIES
  0
LINE
  5
6B
100
AcDbEntity
  8
0
 62
256
370
-1
 48
1.0
  6
BYLAYER
100
AcDbLine
 10
0.0
 20
0.0
 30
0.0
 11
0.0000000000000135
 21
220.0
 31
0.0
  0
LINE
  5
6C
100
AcDbEntity
  8
0
 62
256
370
-1
 48
1.0
  6
BYLAYER
100
AcDbLine
 10
260.0
 20
0.0
 30
0.0
 11
260.0000000000000568
 21
220.0
 31
0.0
  0
LINE
  5
6D
100
AcDbEntity
  8
0
 62
256
370
-1
 48
1.0
  6
BYLAYER
100
AcDbLine
 10
330.0
 20
0.0
 30
0.0
 11
330.0000000000000568
 21
550.0
 31
0.0
  0
LINE
  5
6E
100
AcDbEntity
  8
0
 62
256
370
-1
 48
1.0
  6
BYLAYER
100
AcDbLine
 10
690.0
 20
0.0
 30
0.0
 11
690.0
 21
550.0
 31
0.0
  0
LINE
  5
6F
100
AcDbEntity
  8
0
 62
256
370
-1
 48
1.0
  6
BYLAYER
100
AcDbLine
 10
0.0
 20
0.0
 30
0.0
 11
690.0
 21
0.0
 31
0.0
  0
LINE
  5
70
100
AcDbEntity
  8
0
 62
256
370
-1
 48
1.0
  6
BYLAYER
100
AcDbLine
 10
0.0
 20
220.0
 30
0.0
 11
690.0
 21
220.0
 31
0.0
  0
LINE
  5
71
100
AcDbEntity
  8
0_vue_en_plan
 62
256
370
-1
 48
1.0
  6
DASHDOT
100
AcDbLine
 10
0.0000000000000135
 20
220.0
 30
0.0
 11
690.0
 21
220.0
 31
0.0
  0
LINE
  5
72
100
AcDbEntity
  8
0_vue_en_plan
 62
1
420
16711680
370
-1
 48
1.0
  6
BYLAYER
100
AcDbLine
 10
260.0000000000000568
 20
220.0
 30
0.0
 11
260.0
 21
-0.0
 31
0.0
  0
LINE
  5
73
100
AcDbEntity
  8
0_vue_en_plan
 62
256
370
-1
 48
1.0
  6
BYLAYER
100
AcDbLine
 10
0.0000000000000135
 20
220.0
 30
0.0
 11
260.0
 21
-0.0
 31
0.0
  0
LINE
  5
74
100
AcDbEntity
  8
0
 62
256
370
-1
 48
1.0
  6
BYLAYER
100
AcDbLine
 10
560.0
 20
-0.0000000000000511
 30
0.0
 11
560.0
 21
219.9999999999999716
 31
0.0
  0
LINE
  5
75
100
AcDbEntity
  8
0
 62
256
370
-1
 48
1.0
  6
BYLAYER
100
AcDbLine
 10
460.0
 20
-0.0000000000000338
 30
0.0
 11
460.0000000000000568
 21
219.9999999999999716
 31
0.0
  0
LINE
  5
76
100
AcDbEntity
  8
0
 62
256
370
-1
 48
1.0
  6
BYLAYER
100
AcDbLine
 10
330.0
 20
290.0
 30
0.0
 11
690.0
 21
290.0
 31
0.0
  0
LINE
  5
77
100
AcDbEntity
  8
0
 62
256
370
-1
 48
1.0
  6
BYLAYER
100
AcDbLine
 10
330.0
 20
550.0
 30
0.0
 11
690.0
 21
550.0
 31
0.0
  0
LINE
  5
78
100
AcDbEntity
  8
0_vue_en_plan
 62
256
370
-1
 48
1.0
  6
DASHDOT
100
AcDbLine
 10
330.0000000000000568
 20
290.0
 30
0.0
 11
330.0000000000000568
 21
550.0
 31
0.0
  0
LINE
  5
79
100
AcDbEntity
  8
0_vue_en_plan
 62
256
370
-1
 48
1.0
  6
DASHDOT
100
AcDbLine
 10
690.0
 20
290.0
 30
0.0
 11
690.0
 21
550.0
 31
0.0
  0
LINE
  5
7A
100
AcDbEntity
  8
0_vue_en_plan
 62
1
420
16711680
370
-1
 48
1.0
  6
BYLAYER
100
AcDbLine
 10
330.0
 20
290.0
 30
0.0
 11
690.0
 21
290.0
 31
0.0
  0
LINE
  5
7B
100
AcDbEntity
  8
0_vue_en_plan
 62
256
370
-1
 48
1.0
  6
BYLAYER
100
AcDbLine
 10
330.0000000000000568
 20
550.0
 30
0.0
 11
690.0
 21
550.0
 31
0.0
  0
LINE
  5
7C
100
AcDbEntity
  8
0
 62
256
370
-1
 48
1.0
  6
BYLAYER
100
AcDbLine
 10
510.0
 20
0.0
 30
0.0
 11
510.0000000000000568
 21
550.0
 31
0.0
  0
LINE
  5
7D
100
AcDbEntity
  8
0_vue_en_plan
 62
256
370
-1
 48
1.0
  6
BYLAYER
100
AcDbLine
 10
330.0000000000000568
 20
220.0
 30
0.0
 11
460.0
 21
0.0
 31
0.0
  0
LINE
  5
7E
100
AcDbEntity
  8
0_vue_en_plan
 62
256
370
-1
 48
1.0
  6
BYLAYER
100
AcDbLine
 10
560.0
 20
0.0
 30
0.0
 11
690.0
 21
220.0000000000000568
 31
0.0
  0
LINE
  5
7F
100
AcDbEntity
  8
0_vue_en_plan
 62
1
420
16711680
370
-1
 48
1.0
  6
BYLAYER
100
AcDbLine
 10
637.7821313879080662
 20
-64.9368905617037768
 30
0.0
 11
868.8085509876116248
 21
326.0308964531791389
 31
0.0
  0
LINE
  5
80
100
AcDbEntity
  8
0_vue_en_plan
 62
256
370
-1
 48
1.0
  6
BYLAYER
100
AcDbLine
 10
1014.2430468879814498
 20
28.4018359298291116
 30
0.0
 11
776.0926528214315567
 21
169.1270687873359293
 31
0.0
  0
LINE
  5
81
100
AcDbEntity
  8
0_vue_en_plan
 62
256
370
-1
 48
1.0
  6
DOT
100
AcDbLine
 10
646.0926528214315567
 20
-50.8729312126640849
 30
0.0
 11
999.9335501571536042
 21
36.8574476344092261
 31
0.0
  0
LINE
  5
82
100
AcDbEntity
  8
0_vue_en_plan
 62
256
370
-1
 48
1.0
  6
BYLAYER
100
AcDbLine
 10
527.5
 20
290.0
 30
0.0
 11
527.5
 21
550.0
 31
0.0
  0
LINE
  5
83
100
AcDbEntity
  8
0_vue_en_plan
 62
256
370
-1
 48
1.0
  6
BYLAYER
100
AcDbLine
 10
492.5000000000000568
 20
290.0
 30
0.0
 11
492.5000000000000568
 21
550.0
 31
0.0
  0
LINE
  5
84
100
AcDbEntity
  8
0_vue_en_plan
 62
256
370
-1
 48
1.0
  6
BYLAYER
100
AcDbLine
 10
492.5
 20
202.5
 30
0.0
 11
492.5
 21
237.5
 31
0.0
  0
LINE
  5
85
100
AcDbEntity
  8
0_vue_en_plan
 62
256
370
-1
 48
1.0
  6
BYLAYER
100
AcDbLine
 10
527.5
 20
202.5
 30
0.0
 11
527.5
 21
237.5
 31
0.0
  0
LINE
  5
86
100
AcDbEntity
  8
0_vue_en_plan
 62
256
370
-1
 48
1.0
  6
BYLAYER
100
AcDbLine
 10
492.5
 20
237.5
 30
0.0
 11
527.5
 21
237.5
 31
0.0
  0
LINE
  5
87
100
AcDbEntity
  8
0_vue_en_plan
 62
256
370
-1
 48
1.0
  6
BYLAYER
100
AcDbLine
 10
492.5
 20
202.5
 30
0.0
 11
527.5
 21
202.5
 31
0.0
  0
LINE
  5
88
100
AcDbEntity
  8
0_vue_en_plan
 62
256
370
-1
 48
1.0
  6
BYLAYER
100
AcDbLine
 10
330.0000000000000568
 20
232.5
 30
0.0
 11
690.0
 21
232.5
 31
0.0
  0
LINE
  5
89
100
AcDbEntity
  8
0_vue_en_plan
 62
256
370
-1
 48
1.0
  6
BYLAYER
100
AcDbLine
 10
337.3863636363636829
 20
207.5
 30
0.0
 11
682.6136363636362603
 21
207.5
 31
0.0
  0
LINE
  5
8A
100
AcDbEntity
  8
0_vue_en_plan
 62
256
370
-1
 48
1.0
  6
BYLAYER
100
AcDbLine
 10
330.0000000000000568
 20
232.5
 30
0.0
 11
330.0
 21
220.0000000000000568
 31
0.0
  0
LINE
  5
8B
100
AcDbEntity
  8
0_vue_en_plan
 62
256
370
-1
 48
1.0
  6
BYLAYER
100
AcDbLine
 10
690.0
 20
232.5
 30
0.0
 11
690.0
 21
220.0
 31
0.0
  0
LINE
  5
8C
100
AcDbEntity
  8
0_vue_en_plan
 62
256
370
-1
 48
1.0
  6
BYLAYER
100
AcDbLine
 10
460.0
 20
0.0
 30
0.0
 11
560.0
 21
0.0
 31
0.0
  0
LINE
  5
8D
100
AcDbEntity
  8
0
 62
256
370
-1
 48
1.0
  6
BYLAYER
100
AcDbLine
 10
126.508275149343774
 20
564.3706112857262269
 30
0.0
 11
460.0
 21
0.0
 31
0.0
  0
LINE
  5
8E
100
AcDbEntity
  8
0
 62
256
370
-1
 48
1.0
  6
BYLAYER
100
AcDbLine
 10
460.0
 20
0.0
 30
0.0
 11
560.0
 21
0.0
 31
0.0
  0
LINE
  5
8F
100
AcDbEntity
  8
0
 62
256
370
-1
 48
1.0
  6
BYLAYER
100
AcDbLine
 10
560.0
 20
0.0
 30
0.0
 11
893.4917248506562828
 21
564.3706112857262269
 31
0.0
  0
LINE
  5
90
100
AcDbEntity
  8
0_vue_en_plan
 62
256
370
-1
 48
1.0
  6
BYLAYER
100
AcDbLine
 10
46.4437809979810794
 20
220.0
 30
0.0
 11
260.0
 21
39.2985839213685608
 31
0.0
  0
LINE
  5
91
100
AcDbEntity
  8
0_vue_en_plan
 62
256
370
-1
 48
1.0
  6
BYLAYER
100
AcDbLine
 10
113.5693801777803884
 20
202.4999999999999716
 30
0.0
 11
260.0
 21
78.5971678427371927
 31
0.0
  0
LINE
  5
92
100
AcDbEntity
  8
0_vue_en_plan
 62
256
370
-1
 48
1.0
  6
BYLAYER
100
AcDbLine
 10
160.0131611757613825
 20
202.5000000000000284
 30
0.0
 11
260.0
 21
117.8957517641057677
 31
0.0
  0
LINE
  5
93
100
AcDbEntity
  8
0_vue_en_plan
 62
256
370
-1
 48
1.0
  6
BYLAYER
100
AcDbLine
 10
0.0000000000000146
 20
237.5
 30
0.0
 11
260.0000000000000568
 21
237.5
 31
0.0
  0
LINE
  5
94
100
AcDbEntity
  8
0_vue_en_plan
 62
256
370
-1
 48
1.0
  6
BYLAYER
100
AcDbLine
 10
20.6818181818181763
 20
202.5
 30
0.0
 11
260.0000000000000568
 21
202.5
 31
0.0
  0
LINE
  5
95
100
AcDbEntity
  8
0_vue_en_plan
 62
256
370
-1
 48
1.0
  6
BYLAYER
100
AcDbLine
 10
46.4437809979810581
 20
202.5
 30
0.0
 11
46.4437809979810581
 21
237.5
 31
0.0
  0
LINE
  5
96
100
AcDbEntity
  8
0_vue_en_plan
 62
256
370
-1
 48
1.0
  6
BYLAYER
100
AcDbLine
 10
0.0000000000000143
 20
232.5
 30
0.0
 11
46.4437809979810652
 21
232.5
 31
0.0
  0
LINE
  5
97
100
AcDbEntity
  8
0_vue_en_plan
 62
256
370
-1
 48
1.0
  6
BYLAYER
100
AcDbLine
 10
14.7727272727272734
 20
207.5
 30
0.0
 11
46.443780997981051
 21
207.5
 31
0.0
  0
LINE
  5
98
100
AcDbEntity
  8
0_vue_en_plan
 62
256
370
-1
 48
1.0
  6
BYLAYER
100
AcDbLine
 10
0.0000000000000143
 20
232.5
 30
0.0
 11
-0.0
 21
220.0
 31
0.0
  0
LINE
  5
99
100
AcDbEntity
  8
0_vue_en_plan
 62
256
370
-1
 48
1.0
  6
BYLAYER
100
AcDbLine
 10
0.0000000000000146
 20
237.5
 30
0.0
 11
0.0000000000000143
 21
232.5
 31
0.0
  0
LINE
  5
9A
100
AcDbEntity
  8
0_vue_en_plan
 62
256
370
-1
 48
1.0
  6
BYLAYER
100
AcDbLine
 10
260.0000000000000568
 20
237.5
 30
0.0
 11
260.0000000000000568
 21
202.4999999999999716
 31
0.0
  0
LINE
  5
9B
100
AcDbEntity
  8
0_vue_en_plan
 62
256
370
-1
 48
1.0
  6
BYLAYER
100
AcDbLine
 10
134.0
 20
145.9139685367531172
 30
0.0
 11
153.3782672439852774
 21
168.8155570978265985
 31
0.0
  0
LINE
  5
9C
100
AcDbEntity
  8
0_vue_en_plan
 62
256
370
-1
 48
1.0
  6
BYLAYER
100
AcDbLine
 10
153.0846571342278537
 20
129.7654125000987619
 30
0.0
 11
172.4629243782131311
 21
152.6670010611722432
 31
0.0
  0
LINE
  5
9D
100
AcDbEntity
  8
0_vue_en_plan
 62
256
370
-1
 48
1.0
  6
BYLAYER
100
AcDbLine
 10
320.0000000000000568
 20
503.5561999999999898
 30
0.0
 11
690.0
 21
503.5561999999999898
 31
0.0
  0
LINE
  5
9E
100
AcDbEntity
  8
0_vue_en_plan
 62
1
420
16711680
370
-1
 48
1.0
  6
BYLAYER
100
AcDbLine
 10
-107.0865094519061955
 20
173.4121028151868131
 30
0.0
 11
123.1447080979628055
 21
-216.209957653822471
 31
0.0
  0
LINE
  5
9F
100
AcDbEntity
  8
0_vue_en_plan
 62
256
370
-1
 48
1.0
  6
BYLAYER
100
AcDbLine
 10
-14.3706112857261701
 20
16.5082751493436035
 30
0.0
 11
-251.1517842722904277
 21
-123.4078725245352075
 31
0.0
  0
LINE
  5
A0
100
AcDbEntity
  8
0_vue_en_plan
 62
256
370
-1
 48
1.0
  6
DASHED
100
AcDbLine
 10
-238.2115086214482176
 20
-115.7613460035830144
 30
0.0
 11
115.6293887142737731
 21
-203.4917248506563965
 31
0.0
  0
LINE
  5
A1
100
AcDbEntity
  8
vpb_ch_aplomb
 62
256
370
-1
 48
1.0
  6
DOT
100
AcDbLine
 10
-14.3706112857261683
 20
16.5082751493436035
 30
0.0
 11
-58.2292312708476558
 21
-160.3856771552922567
 31
0.0
  0
ARC
  5
A2
100
AcDbEntity
  8
vpb_ch_aplomb
 62
256
370
-1
 48
1.0
  6
DOT
100
AcDbCircle
 10
-14.3706112857261701
 20
16.5082751493436071
 30
0.0
 40
182.2499627131761315
100
AcDbArc
 50
120.5792268724890022
 51
188.8311355979367931
  0
ARC
  5
A3
100
AcDbEntity
  8
vpb_ch_aplomb
 62
256
370
-1
 48
1.0
  6
DOT
100
AcDbCircle
 10
-14.3706112857261701
 20
16.5082751493436071
 30
0.0
 40
182.2499627131761315
100
AcDbArc
 50
188.8311355979367931
 51
256.0750390317604683
  0
LINE
  5
A4
100
AcDbEntity
  8
vpb_ch_aplomb
 62
256
370
-1
 48
1.0
  6
BYLAYER
100
AcDbLine
 10
-42.3076923076922782
 20
0.0
 30
0.0
 11
24.1976035592391696
 21
39.298583921368575
 31
0.0
  0
LINE
  5
A5
100
AcDbEntity
  8
vpb_ch_aplomb
 62
256
370
-1
 48
1.0
  6
DOT
100
AcDbLine
 10
-107.0865094519061955
 20
173.4121028151868131
 30
0.0
 11
237.2841018338199888
 21
376.9038276658430959
 31
0.0
  0
LINE
  5
A6
100
AcDbEntity
  8
vpb_ch_aplomb
 62
256
370
-1
 48
1.0
  6
BYLAYER
100
AcDbLine
 10
231.9241819364012258
 20
385.9744613383979299
 30
0.0
 11
329.9999999999998863
 21
220.0000000000001421
 31
0.0
  0
LINE
  5
A7
100
AcDbEntity
  8
vpb_ch_aplomb
 62
256
370
-1
 48
1.0
  6
BYLAYER
100
AcDbLine
 10
-42.3076923076922782
 20
0.0
 30
0.0
 11
253.4473451417592855
 21
398.6926941415639476
 31
0.0
  0
MTEXT
  5
A8
100
AcDbEntity
  8
vpb_ch_aplomb
 62
256
370
-1
 48
1.0
  6
BYLAYER
100
AcDbMText
 10
-184.4673673806927923
 20
22.0263071486942863
 30
0.0
 40
4.0
 41
0.0
 71
1
 72
1
  1
\H6;croisement ligne \U+00e9gout/charni\U+00e8re
  7
textstyle0
 50
0.0
 73
2
 44
1.0
  0
LEADER
  5
A9
100
AcDbEntity
  8
vpb_ch_aplomb
 62
256
370
-1
 48
1.0
  6
BYLAYER
100
AcDbLeader
  3
Standard
 71
1
 72
0
 73
3
 74
0
 75
0
 40
1.0
 41
10.0
 76
3
 10
-42.3076923076922782
 20
0.0
 10
-49.4887806365119047
 20
11.8420811891627409
 10
-81.2717676914258789
 20
10.1333184442748916
1001
ACAD
1000
DSTYLE
1002
{
1070
40
1040
1.0
1002
}
  0
LINE
  5
AA
100
AcDbEntity
  8
0_vue_en_plan
 62
256
370
-1
 48
1.0
  6
BYLAYER
100
AcDbLine
 10
366.4248462254105903
 20
207.5000000000000284
 30
0.0
 11
489.0384825890469074
 21
0.0
 31
0.0
  0
LINE
  5
AB
100
AcDbEntity
  8
0_ch_chevron
 62
256
370
-1
 48
1.0
  6
BYLAYER
100
AcDbLine
 10
24.1976035592391838
 20
39.2985839213685821
 30
0.0
 11
995.8023964407609583
 21
39.2985839213683477
 31
0.0
  0
LINE
  5
AC
100
AcDbEntity
  8
0_ch_chevron
 62
256
370
-1
 48
1.0
  6
BYLAYER
100
AcDbLine
 10
-42.3076923076922071
 20
0.000000000000074
 30
0.0
 11
1062.3076923076923777
 21
-0.0000000000001965
 31
0.0
  0
LINE
  5
AD
100
AcDbEntity
  8
vpb_ch_aplomb
 62
256
370
-1
 48
1.0
  6
BYLAYER
100
AcDbLine
 10
24.1976035592391838
 20
39.2985839213685892
 30
0.0
 11
270.0091792550715013
 21
370.6649748728816576
 31
0.0
  0
LEADER
  5
AE
100
AcDbEntity
  8
vpb_ch_aplomb
 62
256
370
-1
 48
1.0
  6
BYLAYER
100
AcDbLeader
  3
Standard
 71
1
 72
0
 73
3
 74
0
 75
0
 40
1.0
 41
10.0
 76
2
 10
55.1673562724319311
 20
81.0473712035840492
 10
24.1976035592391696
 20
39.298583921368575
1001
ACAD
1000
DSTYLE
1002
{
1070
40
1040
1.0
1002
}
  0
MTEXT
  5
AF
100
AcDbEntity
  8
vpb_ch_aplomb
 62
256
370
-1
 48
1.0
  6
BYLAYER
100
AcDbMText
 10
15.144889728446401
 20
387.5613725275504748
 30
0.0
 40
4.0
 41
0.0
 71
1
 72
1
  1
\H6;croisement chevron rive en plan et lattis
  7
textstyle1
 50
0.0
 73
2
 44
1.0
  0
LEADER
  5
B0
100
AcDbEntity
  8
vpb_ch_aplomb
 62
256
370
-1
 48
1.0
  6
BYLAYER
100
AcDbLeader
  3
Standard
 71
1
 72
0
 73
3
 74
0
 75
0
 40
1.0
 41
10.0
 76
2
 10
237.2841018338200456
 20
376.9038276658431528
 10
155.6855675577470492
 20
376.262213052234415
1001
ACAD
1000
DSTYLE
1002
{
1070
40
1040
1.0
1002
}
  0
LINE
  5
B1
100
AcDbEntity
  8
vpb_ch_aplomb
 62
256
370
-1
 48
1.0
  6
BYLAYER
100
AcDbLine
 10
253.4473451417592855
 20
398.6926941415639476
 30
0.0
 11
270.0091792550715013
 21
370.6649748728816576
 31
0.0
  0
DIMENSION
  5
B2
100
AcDbEntity
  8
vpb_ch_aplomb
 62
256
370
-1
 48
1.0
  6
BYLAYER
100
AcDbDimension
 10
263.8757847523481246
 20
404.8549539114574713
 30
0.0
 11
276.4508989981154627
 21
387.259644901076399
 31
0.0
 70
1
 71
8
 72
2
 74
0
 75
0
 41
1.0
 42
0.0
  1

  3
Standard
100
AcDbAlignedDimension
 13
231.9241819364012258
 23
385.9744613383979299
 33
0.0
 14
253.8459359471322614
 24
348.8761083971608059
 34
0.0
1001
ACAD
1000
DSTYLE
1002
{
1070
144
1040
1.0
1070
40
1040
1.0
1002
}
  0
LINE
  5
B3
100
AcDbEntity
  8
elevation_chrb_aplomb
 62
256
370
-1
 48
1.0
  6
BYLAYER
100
AcDbLine
 10
151.8244825597598151
 20
-129.0831047257336195
 30
0.0
 11
92.4074982152832831
 21
-164.1931409292879209
 31
0.0
  0
LINE
  5
B4
100
AcDbEntity
  8
elevation_chrb_aplomb
 62
256
370
-1
 48
1.0
  6
BYLAYER
100
AcDbLine
 10
436.7781095010095669
 20
39.2985839213684756
 30
0.0
 11
395.1123012197432445
 21
14.6778790278929137
 31
0.0
  0
LINE
  5
B5
100
AcDbEntity
  8
elevation_chrb_aplomb
 62
256
370
-1
 48
1.0
  6
BYLAYER
100
AcDbLine
 10
176.7212392320701611
 20
-167.3919949992312297
 30
0.0
 11
115.6293887142737162
 21
-203.4917248506563681
 31
0.0
  0
LINE
  5
B6
100
AcDbEntity
  8
elevation_chrb_aplomb
 62
256
370
-1
 48
1.0
  6
BYLAYER
100
AcDbLine
 10
460.0
 20
0.0
 30
0.0
 11
425.2227542057752316
 21
-20.550190696587368
 31
0.0
  0
LINE
  5
B7
100
AcDbEntity
  8
elevation_chrb_aplomb
 62
256
370
-1
 48
1.0
  6
BYLAYER
100
AcDbLine
 10
159.5288997372106792
 20
-141.6895979234948868
 30
0.0
 11
99.9228175989723013
 21
-176.9113737324539386
 31
0.0
  0
LINE
  5
B8
100
AcDbEntity
  8
elevation_chrb_aplomb
 62
256
370
-1
 48
1.0
  6
BYLAYER
100
AcDbLine
 10
465.8165920900564743
 20
39.2985839213684756
 30
0.0
 11
408.1654845636028881
 21
5.232020383009548
 31
0.0
  0
LINE
  5
B9
100
AcDbEntity
  8
elevation_chrb_aplomb
 62
256
370
-1
 48
1.0
  6
BYLAYER
100
AcDbLine
 10
185.5062152310179044
 20
-179.3599761661081118
 30
0.0
 11
123.1447080979628481
 21
-216.2099576538224426
 31
0.0
  0
LINE
  5
BA
100
AcDbEntity
  8
elevation_chrb_aplomb
 62
256
370
-1
 48
1.0
  6
BYLAYER
100
AcDbLine
 10
489.0384825890470211
 20
-0.0000000000000561
 30
0.0
 11
436.6280853468523446
 21
-30.9697801885696222
 31
0.0
  0
LINE
  5
BB
100
AcDbEntity
  8
elevation_chrb_aplomb
 62
256
370
-1
 48
1.0
  6
DASHED
100
AcDbLine
 10
-198.2268254897104782
 20
-92.134033243919788
 30
0.0
 11
92.4074982152832547
 21
-164.1931409292878641
 31
0.0
  0
LINE
  5
BC
100
AcDbEntity
  8
elevation_chrb_aplomb
 62
256
370
-1
 48
1.0
  6
BYLAYER
100
AcDbLine
 10
-211.1671011405527736
 20
-99.7805597648720664
 30
0.0
 11
99.9228175989723297
 21
-176.9113737324539386
 31
0.0
  0
LINE
  5
BD
100
AcDbEntity
  8
elevation_chrb_aplomb
 62
256
370
-1
 48
1.0
  6
BYLAYER
100
AcDbLine
 10
-251.1517842722905414
 20
-123.4078725245352501
 30
0.0
 11
123.1447080979628197
 21
-216.2099576538224142
 31
0.0
  0
LINE
  5
BE
100
AcDbEntity
  8
d\U+00e9lard_fa\U+00eetage
 62
256
370
-1
 48
1.0
  6
BYLAYER
100
AcDbLine
 10
20.6818181818181976
 20
202.4999999999999716
 30
0.0
 11
20.6818181818182012
 21
247.4999999999999716
 31
0.0
  0
MTEXT
  5
BF
100
AcDbEntity
  8
d\U+00e9lard_fa\U+00eetage
 62
256
370
-1
 48
1.0
  6
BYLAYER
100
AcDbMText
 10
17.5721550571492031
 20
254.203628865517544
 30
0.0
 40
4.0
 41
0.0
 71
1
 72
1
  1
Zd\U+00e9lard
  7
textstyle6
 50
0.0
 73
2
 44
1.0
  0
LINE
  5
C0
100
AcDbEntity
  8
d\U+00e9lard_fa\U+00eetage
 62
256
370
-1
 48
1.0
  6
BYLAYER
100
AcDbLine
 10
330.0
 20
529.3181999999999334
 30
0.0
 11
690.0
 21
529.3181999999999334
 31
0.0
  0
LINE
  5
C1
100
AcDbEntity
  8
coupe_chrb_aplomb
 62
256
370
-1
 48
1.0
  6
BYLAYER
100
AcDbLine
 10
-142.5304006230094274
 20
-93.2462822286118183
 30
0.0
 11
-210.5915927982293852
 21
-133.4642594230599855
 31
0.0
  0
LINE
  5
C2
100
AcDbEntity
  8
coupe_chrb_aplomb
 62
256
370
-1
 48
1.0
  6
BYLAYER
100
AcDbLine
 10
366.4248462254106471
 20
207.5000000000000284
 30
0.0
 11
326.3683449205699958
 21
183.8302492289578254
 31
0.0
  0
LINE
  5
C3
100
AcDbEntity
  8
coupe_chrb_aplomb
 62
256
370
-1
 48
1.0
  6
BYLAYER
100
AcDbLine
 10
-152.3281503877533396
 20
-81.8767582869782302
 30
0.0
 11
-231.0471878327607556
 21
-128.3925531408462746
 31
0.0
  0
LINE
  5
C4
100
AcDbEntity
  8
coupe_chrb_aplomb
 62
256
370
-1
 48
1.0
  6
BYLAYER
100
AcDbLine
 10
337.3863636363637397
 20
207.5000000000000284
 30
0.0
 11
309.37937614702264
 21
190.9504164835712174
 31
0.0
  0
MTEXT
  5
C5
100
AcDbEntity
  8
coupe_chrb_aplomb
 62
256
370
-1
 48
1.0
  6
BYLAYER
100
AcDbMText
 10
-243.2082967322896536
 20
-131.6680090222104127
 30
0.0
 40
4.0
 41
0.0
 71
1
 72
1
  1
ous
  7
textstyle5
 50
0.0
 73
2
 44
1.0
  0
MTEXT
  5
C6
100
AcDbEntity
  8
coupe_chrb_aplomb
 62
256
370
-1
 48
1.0
  6
BYLAYER
100
AcDbMText
 10
-214.4391571284941165
 20
-137.2362295906869463
 30
0.0
 40
4.0
 41
0.0
 71
1
 72
1
  1
us
  7
textstyle3
 50
0.0
 73
2
 44
1.0
  0
MTEXT
  5
C7
100
AcDbEntity
  8
coupe_chrb_aplomb
 62
256
370
-1
 48
1.0
  6
BYLAYER
100
AcDbMText
 10
294.3665646456164495
 20
498.5301594577367723
 30
0.0
 40
4.0
 41
0.0
 71
1
 72
1
  1
Zbasfaitage
  7
textstyle4
 50
0.0
 73
2
 44
1.0
  0
LINE
  5
C8
100
AcDbEntity
  8
coupe_chrb_aplomb
 62
256
370
-1
 48
1.0
  6
BYLAYER
100
AcDbLine
 10
-198.226809130368224
 20
-92.1340235770356912
 30
0.0
 11
-183.325126110315523
 21
-117.35225638020178
 31
0.0
  0
MTEXT
  5
C9
100
AcDbEntity
  8
coupe_chrb_aplomb
 62
256
370
-1
 48
1.0
  6
BYLAYER
100
AcDbMText
 10
-234.8935665752298974
 20
-86.0154350505068805
 30
0.0
 40
4.0
 41
0.0
 71
1
 72
1
  1
Zbasfaitage
  7
textstyle2
 50
0.0
 73
2
 44
1.0
  0
LINE
  5
CA
100
AcDbEntity
  8
0_vue_en_plan
 62
256
370
-1
 48
1.0
  6
BYLAYER
100
AcDbLine
 10
369.7876811911255572
 20
152.667001061172158
 30
0.0
 11
650.2123188088744428
 21
152.6670010611720727
 31
0.0
  0
LINE
  5
CB
100
AcDbEntity
  8
0_vue_en_plan
 62
256
370
-1
 48
1.0
  6
BYLAYER
100
AcDbLine
 10
360.245352624011673
 20
168.8155570978265132
 30
0.0
 11
659.7546473759882701
 21
168.8155570978264279
 31
0.0
  0
LINE
  5
CC
100
AcDbEntity
  8
0_vue_en_plan
 62
256
370
-1
 48
1.0
  6
BYLAYER
100
AcDbLine
 10
373.7781095010096806
 20
145.9139685367530888
 30
0.0
 11
646.2218904989903194
 21
145.9139685367530035
 31
0.0
  0
LINE
  5
CD
100
AcDbEntity
  8
0_vue_en_plan
 62
256
370
-1
 48
1.0
  6
BYLAYER
100
AcDbLine
 10
383.3204380681235079
 20
129.7654125000987335
 30
0.0
 11
636.6795619318764921
 21
129.7654125000986483
 31
0.0
  0
LINE
  5
CE
100
AcDbEntity
  8
vpb_ch_devers
 62
256
370
-1
 48
1.0
  6
DOT
100
AcDbLine
 10
819.9512728065529927
 20
-7.766883517300073
 30
0.0
 11
776.0926528214315567
 21
169.127068787335844
 31
0.0
  0
LINE
  5
CF
100
AcDbEntity
  8
vpb_ch_devers
 62
256
370
-1
 48
1.0
  6
DOT
100
AcDbLine
 10
776.0926528214315567
 20
169.127068787335844
 30
0.0
 11
1062.3076923076923777
 21
-0.0000000000001705
 31
0.0
  0
ARC
  5
D0
100
AcDbEntity
  8
vpb_ch_devers
 62
256
370
-1
 48
1.0
  6
DOT
100
AcDbCircle
 10
776.092652821431443
 20
169.1270687873359577
 30
0.0
 40
182.2499627131762736
100
AcDbArc
 50
283.9249609682395317
 51
59.4207731275109552
  0
LINE
  5
D1
100
AcDbEntity
  8
vpb_ch_devers
 62
256
370
-1
 48
1.0
  6
DOT
100
AcDbLine
 10
868.8085509876116248
 20
326.0308964531791389
 30
0.0
 11
782.7158981661800681
 21
376.9038276658432665
 31
0.0
  0
LINE
  5
D2
100
AcDbEntity
  8
vpb_ch_devers
 62
256
370
-1
 48
1.0
  6
BYLAYER
100
AcDbLine
 10
1062.3076923076923777
 20
-0.0000000000001705
 30
0.0
 11
772.3749389785887161
 21
390.8439617513479902
 31
0.0
  0
LINE
  5
D3
100
AcDbEntity
  8
vpb_ch_devers
 62
256
370
-1
 48
1.0
  6
BYLAYER
100
AcDbLine
 10
995.8023964407609583
 20
39.2985839213684471
 30
0.0
 11
748.2805748386349478
 21
372.9704725371149152
 31
0.0
  0
LINE
  5
D4
100
AcDbEntity
  8
vpb_ch_devers
 62
256
370
-1
 48
1.0
  6
BYLAYER
100
AcDbLine
 10
766.154064052867966
 20
348.8761083971612038
 30
0.0
 11
790.2484281928218479
 21
366.749597611394222
 31
0.0
  0
LINE
  5
D5
100
AcDbEntity
  8
vpb_ch_devers
 62
256
370
-1
 48
1.0
  6
BYLAYER
100
AcDbLine
 10
748.2805748386349478
 20
372.9704725371150857
 30
0.0
 11
772.3749389785886024
 21
390.8439617513480471
 31
0.0
  0
LINE
  5
D6
100
AcDbEntity
  8
vpb_ch_devers
 62
256
370
-1
 48
1.0
  6
DOT
100
AcDbLine
 10
782.7158981661800681
 20
376.9038276658432665
 30
0.0
 11
690.0000000000001137
 21
220.0
 31
0.0
  0
LINE
  5
D7
100
AcDbEntity
  8
vpb_ch_devers
 62
256
370
-1
 48
1.0
  6
BYLAYER
100
AcDbLine
 10
782.7158981661800681
 20
376.9038276658433233
 30
0.0
 11
766.1540640528678523
 21
348.8761083971612038
 31
0.0
  0
LINE
  5
D8
100
AcDbEntity
  8
0_vue_en_plan
 62
256
370
-1
 48
1.0
  6
BYLAYER
100
AcDbLine
 10
733.182823273798931
 20
347.4204314273927139
 30
0.0
 11
748.2805748386349478
 21
372.9704725371150857
 31
0.0
  0
LINE
  5
D9
100
AcDbEntity
  8
0_vue_en_plan
 62
256
370
-1
 48
1.0
  6
BYLAYER
100
AcDbLine
 10
527.8889319757942076
 20
0.0000000000000089
 30
0.0
 11
650.5025683394305815
 21
207.5
 31
0.0
  0
LINE
  5
DA
100
AcDbEntity
  8
0_vue_en_plan
 62
256
370
-1
 48
1.0
  6
BYLAYER
100
AcDbLine
 10
749.1881930759407169
 20
351.6048533007130459
 30
0.0
 11
772.3749389785887161
 21
390.8439617513482176
 31
0.0
  0
LINE
  5
DB
100
AcDbEntity
  8
0_vue_en_plan
 62
256
370
-1
 48
1.0
  6
BYLAYER
100
AcDbLine
 10
541.4216888527920446
 20
-0.0000000000000018
 30
0.0
 11
664.0353252164285323
 21
207.5
 31
0.0
  0
LINE
  5
DC
100
AcDbEntity
  8
elevation_chrv_devers
 62
256
370
-1
 48
1.0
  6
DOT
100
AcDbLine
 10
559.9999999999997726
 20
-0.0000000000000639
 30
0.0
 11
646.092652821431443
 21
-50.8729312126641915
 31
0.0
  0
LINE
  5
DD
100
AcDbEntity
  8
elevation_chrv_devers
 62
256
370
-1
 48
1.0
  6
BYLAYER
100
AcDbLine
 10
641.2844834739918269
 20
-59.0098331852544433
 30
0.0
 11
1008.2125112438690167
 21
31.9653342649863461
 31
0.0
  0
LINE
  5
DE
100
AcDbEntity
  8
elevation_chrv_devers
 62
256
370
-1
 48
1.0
  6
BYLAYER
100
AcDbLine
 10
790.2484281928217342
 20
366.7495976113941083
 30
0.0
 11
765.9058478004568542
 21
325.5544615627764529
 31
0.0
  0
LINE
  5
DF
100
AcDbEntity
  8
elevation_chrv_devers
 62
256
370
-1
 48
1.0
  6
BYLAYER
100
AcDbLine
 10
710.9191205133614631
 20
232.4999999999999716
 30
0.0
 11
573.5327568769982918
 21
-0.0000000000000568
 31
0.0
  0
LINE
  5
E0
100
AcDbEntity
  8
elevation_chrv_devers
 62
256
370
-1
 48
1.0
  6
BYLAYER
100
AcDbLine
 10
551.1108224747847544
 20
39.2985839213684542
 30
0.0
 11
661.004021886898613
 21
-25.6383066403351947
 31
0.0
  0
LINE
  5
E1
100
AcDbEntity
  8
elevation_chrv_devers
 62
256
370
-1
 48
1.0
  6
BYLAYER
100
AcDbLine
 10
541.4216888527920446
 20
0.0
 30
0.0
 11
641.2844834739917133
 21
-59.009833185254351
 31
0.0
  0
LINE
  5
E2
100
AcDbEntity
  8
elevation_chrv_devers
 62
256
370
-1
 48
1.0
  6
BYLAYER
100
AcDbLine
 10
583.2218904989904331
 20
39.2985839213684471
 30
0.0
 11
669.3145433204219898
 21
-11.5743472912956733
 31
0.0
  0
LINE
  5
E3
100
AcDbEntity
  8
elevation_chrv_devers
 62
256
370
-1
 48
1.0
  6
BYLAYER
100
AcDbLine
 10
573.5327568769981781
 20
-0.0000000000000768
 30
0.0
 11
649.5950049075152037
 21
-44.9458738362146946
 31
0.0
  0
LINE
  5
E4
100
AcDbEntity
  8
elevation_chrv_devers
 62
256
370
-1
 48
1.0
  6
BYLAYER
100
AcDbLine
 10
661.004021886898613
 20
-25.6383066403351343
 30
0.0
 11
974.2583637562436252
 21
52.0291486894923452
 31
0.0
  0
LINE
  5
E5
100
AcDbEntity
  8
elevation_chrv_devers
 62
256
370
-1
 48
1.0
  6
DASHED
100
AcDbLine
 10
669.3145433204219898
 20
-11.5743472912956182
 30
0.0
 11
959.9488670254158933
 21
60.4847603940724312
 31
0.0
  0
LINE
  5
E6
100
AcDbEntity
  8
elevation_chrv_devers
 62
256
370
-1
 48
1.0
  6
DASHED
100
AcDbLine
 10
649.5950049075150901
 20
-44.945873836214659
 30
0.0
 11
993.9030145130413985
 21
40.4209459695667448
 31
0.0
  0
LINE
  5
E7
100
AcDbEntity
  8
coupe_chrb_devers
 62
256
370
-1
 48
1.0
  6
BYLAYER
100
AcDbLine
 10
902.1185862658524002
 20
58.8178075889324532
 30
0.0
 11
931.5337491523625886
 21
41.4361204287218641
 31
0.0
  0
LINE
  5
E8
100
AcDbEntity
  8
coupe_chrb_devers
 62
256
370
-1
 48
1.0
  6
BYLAYER
100
AcDbLine
 10
650.5025683394305815
 20
207.5
 30
0.0
 11
718.1015450644964631
 21
167.555150117006491
 31
0.0
  0
LINE
  5
E9
100
AcDbEntity
  8
coupe_chrb_devers
 62
256
370
-1
 48
1.0
  6
BYLAYER
100
AcDbLine
 10
664.0353252164284186
 20
207.5
 30
0.0
 11
719.9311570767931698
 21
174.4706448097844032
 31
0.0
  0
LINE
  5
EA
100
AcDbEntity
  8
coupe_chrb_devers
 62
256
370
-1
 48
1.0
  6
BYLAYER
100
AcDbLine
 10
910.8111225061157938
 20
61.6779379651846398
 30
0.0
 11
975.0207843701841739
 21
23.7358650455078646
 31
0.0
  0
LINE
  5
EB
100
AcDbEntity
  8
coupe_chrb_devers
 62
256
370
-1
 48
1.0
  6
BYLAYER
100
AcDbLine
 10
911.8986176707398954
 20
72.0134201367114315
 30
0.0
 11
939.8442705858863064
 21
55.5000797777613002
 31
0.0
  0
LINE
  5
EC
100
AcDbEntity
  8
coupe_chrb_devers
 62
256
370
-1
 48
1.0
  6
BYLAYER
100
AcDbLine
 10
682.6136363636362603
 20
207.5
 30
0.0
 11
724.9269234418538872
 21
182.4966939992349921
 31
0.0
  0
LINE
  5
ED
100
AcDbEntity
  8
coupe_chrb_devers
 62
256
370
-1
 48
1.0
  6
BYLAYER
100
AcDbLine
 10
696.146393240634211
 20
207.5000000000000284
 30
0.0
 11
732.9941362900475497
 21
185.7263336526194166
 31
0.0
  0
LINE
  5
EE
100
AcDbEntity
  8
coupe_chrb_devers
 62
256
370
-1
 48
1.0
  6
BYLAYER
100
AcDbLine
 10
915.3071712480132192
 20
77.9959039047305964
 30
0.0
 11
983.3313058037073233
 21
37.7998243945476702
 31
0.0
  0
CIRCLE
  5
EF
100
AcDbEntity
  8
coupe_chrb_devers
 62
256
370
-1
 48
1.0
  6
BYLAYER
100
AcDbCircle
 10
939.8442705858861927
 20
55.5000797777614281
 30
0.0
 40
2.0
  0
CIRCLE
  5
F0
100
AcDbEntity
  8
coupe_chrb_devers
 62
256
370
-1
 48
1.0
  6
BYLAYER
100
AcDbCircle
 10
983.3313058037073233
 20
37.7998243945476489
 30
0.0
 40
2.0
  0
CIRCLE
  5
F1
100
AcDbEntity
  8
coupe_chrb_devers
 62
256
370
-1
 48
1.0
  6
BYLAYER
100
AcDbCircle
 10
975.0207843701841739
 20
23.7358650455078717
 30
0.0
 40
2.0
  0
CIRCLE
  5
F2
100
AcDbEntity
  8
coupe_chrb_devers
 62
256
370
-1
 48
1.0
  6
BYLAYER
100
AcDbCircle
 10
931.5337491523627023
 20
41.4361204287218783
 30
0.0
 40
2.0
  0
LINE
  5
F3
100
AcDbEntity
  8
coupe_chrb_devers
 62
256
370
-1
 48
1.0
  6
BYLAYER
100
AcDbLine
 10
931.918781318633819
 20
13.0492680883662047
 30
0.0
 11
959.9488506660736675
 21
60.4847700609566061
 31
0.0
  0
MTEXT
  5
F4
100
AcDbEntity
  8
coupe_chrb_devers
 62
256
370
-1
 48
1.0
  6
BYLAYER
100
AcDbMText
 10
956.222514906833112
 20
70.8763970846082572
 30
0.0
 40
4.0
 41
0.0
 71
1
 72
1
  1
Zbasfaitage
  7
textstyle8
 50
0.0
 73
2
 44
1.0
  0
CIRCLE
  5
F5
100
AcDbEntity
  8
coupe_chrb_devers
 62
256
370
-1
 48
1.0
  6
BYLAYER
100
AcDbCircle
 10
959.9488411650639819
 20
60.4847539823250031
 30
0.0
 40
2.0
  0
CIRCLE
  5
F6
100
AcDbEntity
  8
coupe_chrb_devers
 62
256
370
-1
 48
1.0
  6
BYLAYER
100
AcDbCircle
 10
951.6383197315408324
 20
46.4207946332855172
 30
0.0
 40
2.0
  0
CIRCLE
  5
F7
100
AcDbEntity
  8
coupe_chrb_devers
 62
256
370
-1
 48
1.0
  6
BYLAYER
100
AcDbCircle
 10
940.2293027521575368
 20
27.1132274374060245
 30
0.0
 40
2.0
  0
CIRCLE
  5
F8
100
AcDbEntity
  8
coupe_chrb_devers
 62
256
370
-1
 48
1.0
  6
BYLAYER
100
AcDbCircle
 10
931.9187813186337053
 20
13.0492680883661905
 30
0.0
 40
2.0
  0
MTEXT
  5
F9
100
AcDbEntity
  8
vpb_ch_devers
 62
256
370
-1
 48
1.0
  6
BYLAYER
100
AcDbMText
 10
788.7009547605621265
 20
386.9147234329061007
 30
0.0
 40
4.0
 41
0.0
 71
1
 72
1
  1
\H6;d\U+00e9lard
  7
textstyle7
 50
0.0
 73
2
 44
1.0
  0
ENDSEC
  0
SECTION
  2
OBJECTS
  0
DICTIONARY
  5
C
100
AcDbDictionary
280
0
281
1
  3
ACAD_GROUP
350
D
  3
ACAD_LAYOUT
350
1A
  3
ACAD_MLINESTYLE
350
17
  3
ACAD_PLOTSETTINGS
350
19
  3
ACAD_PLOTSTYLENAME
350
E
  3
AcDbVariableDictionary
350
FA
  3
QCAD_OBJECTS
350
FB
  0
DICTIONARY
  5
D
100
AcDbDictionary
280
0
281
1
  0
ACDBDICTIONARYWDFLT
  5
E
100
AcDbDictionary
281
1
  3
Normal
350
F
100
AcDbDictionaryWithDefault
340
F
  0
ACDBPLACEHOLDER
  5
F
  0
DICTIONARY
  5
17
100
AcDbDictionary
280
0
281
1
  3
Standard
350
18
  0
MLINESTYLE
  5
18
100
AcDbMlineStyle
  2
STANDARD
 70
0
  3

 62
256
 51
90.0
 52
90.0
 71
2
 49
0.5
 62
256
  6
BYLAYER
 49
-0.5
 62
256
  6
BYLAYER
  0
DICTIONARY
  5
19
100
AcDbDictionary
280
0
281
1
  0
DICTIONARY
  5
1A
100
AcDbDictionary
281
1
  3
Layout1
350
1E
  3
Layout2
350
26
  3
Model
350
22
  0
LAYOUT
  5
1E
100
AcDbPlotSettings
  1

  2
none_device
  4

  6

 40
0.0
 41
0.0
 42
0.0
 43
0.0
 44
0.0
 45
0.0
 46
0.0
 47
0.0
 48
0.0
 49
0.0
140
0.0
141
0.0
142
1.0
143
1.0
 70
688
 72
0
 73
0
 74
5
  7

 75
16
147
1.0
148
0.0
149
0.0
100
AcDbLayout
  1
Layout1
 70
1
 71
1
 10
0.0
 20
0.0
 11
420.0
 21
297.0
 12
0.0
 22
0.0
 32
0.0
 14
100000000000000000000.0
 24
100000000000000000000.0
 34
100000000000000000000.0
 15
-100000000000000000000.0
 25
-100000000000000000000.0
 35
-100000000000000000000.0
146
0.0
 13
0.0
 23
0.0
 33
0.0
 16
1.0
 26
0.0
 36
0.0
 17
0.0
 27
1.0
 37
0.0
 76
0
330
1B
  0
LAYOUT
  5
22
100
AcDbPlotSettings
  1

  2
none_device
  4

  6

 40
0.0
 41
0.0
 42
0.0
 43
0.0
 44
0.0
 45
0.0
 46
0.0
 47
0.0
 48
0.0
 49
0.0
140
0.0
141
0.0
142
1.0
143
1.0
 70
1712
 72
0
 73
0
 74
0
  7

 75
0
147
1.0
148
0.0
149
0.0
100
AcDbLayout
  1
Model
 70
1
 71
0
 10
0.0
 20
0.0
 11
12.0
 21
9.0
 12
0.0
 22
0.0
 32
0.0
 14
0.0
 24
0.0
 34
0.0
 15
0.0
 25
0.0
 35
0.0
146
0.0
 13
0.0
 23
0.0
 33
0.0
 16
1.0
 26
0.0
 36
0.0
 17
0.0
 27
1.0
 37
0.0
 76
0
330
1F
  0
LAYOUT
  5
26
100
AcDbPlotSettings
  1

  2
none_device
  4

  6

 40
0.0
 41
0.0
 42
0.0
 43
0.0
 44
0.0
 45
0.0
 46
0.0
 47
0.0
 48
0.0
 49
0.0
140
0.0
141
0.0
142
1.0
143
1.0
 70
688
 72
0
 73
0
 74
5
  7

 75
16
147
1.0
148
0.0
149
0.0
100
AcDbLayout
  1
Layout2
 70
1
 71
2
 10
0.0
 20
0.0
 11
12.0
 21
9.0
 12
0.0
 22
0.0
 32
0.0
 14
0.0
 24
0.0
 34
0.0
 15
0.0
 25
0.0
 35
0.0
146
0.0
 13
0.0
 23
0.0
 33
0.0
 16
1.0
 26
0.0
 36
0.0
 17
0.0
 27
1.0
 37
0.0
 76
0
330
23
  0
DICTIONARY
  5
FA
100
AcDbDictionary
281
1
  3
DIMASSOC
350
FD
  3
HIDETEXT
350
FC
  0
DICTIONARYVAR
  5
FC
100
DictionaryVariables
280
0
  1
2
  0
DICTIONARYVAR
  5
FD
100
DictionaryVariables
280
0
  1
1
  0
DICTIONARY
  5
FB
100
AcDbDictionary
281
1
  3
ColorSettings/BackgroundColor
350
FE
  3
ColorSettings/ColorMode
350
FF
  3
Grid/DisplayGrid00
350
100
  3
Grid/DisplayGrid01
350
101
  3
Grid/DisplayGrid02
350
102
  3
Grid/DisplayGrid03
350
103
  3
Grid/GridSpacingX00
350
104
  3
Grid/GridSpacingX01
350
105
  3
Grid/GridSpacingX02
350
106
  3
Grid/GridSpacingX03
350
107
  3
Grid/GridSpacingY00
350
108
  3
Grid/GridSpacingY01
350
109
  3
Grid/GridSpacingY02
350
10A
  3
Grid/GridSpacingY03
350
10B
  3
Grid/IsometricGrid00
350
10C
  3
Grid/IsometricGrid01
350
10D
  3
Grid/IsometricGrid02
350
10E
  3
Grid/IsometricGrid03
350
10F
  3
Grid/IsometricProjection00
350
110
  3
Grid/IsometricProjection01
350
111
  3
Grid/IsometricProjection02
350
112
  3
Grid/IsometricProjection03
350
113
  3
Grid/MetaGridSpacingX00
350
114
  3
Grid/MetaGridSpacingX01
350
115
  3
Grid/MetaGridSpacingX02
350
116
  3
Grid/MetaGridSpacingX03
350
117
  3
Grid/MetaGridSpacingY00
350
118
  3
Grid/MetaGridSpacingY01
350
119
  3
Grid/MetaGridSpacingY02
350
11A
  3
Grid/MetaGridSpacingY03
350
11B
  3
MultiPageSettings/Columns
350
11C
  3
MultiPageSettings/GlueMarginsBottom
350
11D
  3
MultiPageSettings/GlueMarginsLeft
350
11E
  3
MultiPageSettings/GlueMarginsRight
350
11F
  3
MultiPageSettings/GlueMarginsTop
350
120
  3
MultiPageSettings/PrintCropMarks
350
121
  3
MultiPageSettings/Rows
350
122
  3
PageSettings/OffsetX
350
123
  3
PageSettings/OffsetY
350
124
  3
PageSettings/PageOrientation
350
125
  3
PageSettings/PaperHeight
350
126
  3
PageSettings/PaperWidth
350
127
  3
PageSettings/Scale
350
128
  3
PageSettings/ShowPaperBorders
350
129
  3
QCADVersion
350
12A
  3
UnitSettings/PaperUnit
350
12B
  3
ViewportCenter
350
12C
  3
ViewportHeight
350
12D
  3
ViewportWidth
350
12E
  0
XRECORD
  5
FE
330
FB
100
AcDbXrecord
280
1
1000
White
  0
XRECORD
  5
FF
330
FB
100
AcDbXrecord
280
1
1000
BlackWhite
  0
XRECORD
  5
100
330
FB
100
AcDbXrecord
280
1
290
0
  0
XRECORD
  5
101
330
FB
100
AcDbXrecord
280
1
290
1
  0
XRECORD
  5
102
330
FB
100
AcDbXrecord
280
1
290
1
  0
XRECORD
  5
103
330
FB
100
AcDbXrecord
280
1
290
1
  0
XRECORD
  5
104
330
FB
100
AcDbXrecord
280
1
1000
auto
  0
XRECORD
  5
105
330
FB
100
AcDbXrecord
280
1
1000
auto
  0
XRECORD
  5
106
330
FB
100
AcDbXrecord
280
1
1000
auto
  0
XRECORD
  5
107
330
FB
100
AcDbXrecord
280
1
1000
auto
  0
XRECORD
  5
108
330
FB
100
AcDbXrecord
280
1
1000
auto
  0
XRECORD
  5
109
330
FB
100
AcDbXrecord
280
1
1000
auto
  0
XRECORD
  5
10A
330
FB
100
AcDbXrecord
280
1
1000
auto
  0
XRECORD
  5
10B
330
FB
100
AcDbXrecord
280
1
1000
auto
  0
XRECORD
  5
10C
330
FB
100
AcDbXrecord
280
1
290
0
  0
XRECORD
  5
10D
330
FB
100
AcDbXrecord
280
1
290
0
  0
XRECORD
  5
10E
330
FB
100
AcDbXrecord
280
1
290
0
  0
XRECORD
  5
10F
330
FB
100
AcDbXrecord
280
1
290
0
  0
XRECORD
  5
110
330
FB
100
AcDbXrecord
280
1
 90
65537
  0
XRECORD
  5
111
330
FB
100
AcDbXrecord
280
1
 90
65537
  0
XRECORD
  5
112
330
FB
100
AcDbXrecord
280
1
 90
65537
  0
XRECORD
  5
113
330
FB
100
AcDbXrecord
280
1
 90
65537
  0
XRECORD
  5
114
330
FB
100
AcDbXrecord
280
1
1000
auto
  0
XRECORD
  5
115
330
FB
100
AcDbXrecord
280
1
1000
auto
  0
XRECORD
  5
116
330
FB
100
AcDbXrecord
280
1
1000
auto
  0
XRECORD
  5
117
330
FB
100
AcDbXrecord
280
1
1000
auto
  0
XRECORD
  5
118
330
FB
100
AcDbXrecord
280
1
1000
auto
  0
XRECORD
  5
119
330
FB
100
AcDbXrecord
280
1
1000
auto
  0
XRECORD
  5
11A
330
FB
100
AcDbXrecord
280
1
1000
auto
  0
XRECORD
  5
11B
330
FB
100
AcDbXrecord
280
1
1000
auto
  0
XRECORD
  5
11C
330
FB
100
AcDbXrecord
280
1
 90
1
  0
XRECORD
  5
11D
330
FB
100
AcDbXrecord
280
1
 40
10.0
  0
XRECORD
  5
11E
330
FB
100
AcDbXrecord
280
1
 40
10.0
  0
XRECORD
  5
11F
330
FB
100
AcDbXrecord
280
1
 40
10.0
  0
XRECORD
  5
120
330
FB
100
AcDbXrecord
280
1
 40
10.0
  0
XRECORD
  5
121
330
FB
100
AcDbXrecord
280
1
290
0
  0
XRECORD
  5
122
330
FB
100
AcDbXrecord
280
1
 90
1
  0
XRECORD
  5
123
330
FB
100
AcDbXrecord
280
1
 40
0.0
  0
XRECORD
  5
124
330
FB
100
AcDbXrecord
280
1
 40
0.0
  0
XRECORD
  5
125
330
FB
100
AcDbXrecord
280
1
1000
Portrait
  0
XRECORD
  5
126
330
FB
100
AcDbXrecord
280
1
 40
1189.0
  0
XRECORD
  5
127
330
FB
100
AcDbXrecord
280
1
 40
841.0
  0
XRECORD
  5
128
330
FB
100
AcDbXrecord
280
1
1000
1:1
  0
XRECORD
  5
129
330
FB
100
AcDbXrecord
280
1
290
1
  0
XRECORD
  5
12A
330
FB
100
AcDbXrecord
280
1
1000
3.22.0
  0
XRECORD
  5
12B
330
FB
100
AcDbXrecord
280
1
 90
4
  0
XRECORD
  5
12D
330
FB
100
AcDbXrecord
280
1
 40
835.4875306785803559
  0
XRECORD
  5
12E
330
FB
100
AcDbXrecord
280
1
 40
1386.9370119556533609
  0
ENDSEC
  0
EOF
