999
dxfrw 0.6.3
  0
SECTION
  2
HEADER
  9
$ACADVER
  1
AC1021
  9
$DWGCODEPAGE
  3
ANSI_1252
  9
$INSBASE
 10
0
 20
0
 30
0
  9
$EXTMIN
 10
-42.4264
 20
-1.83697e-15
 30
0
  9
$EXTMAX
 10
622
 20
530.1733199144097
 30
0
  9
$LIMMIN
 10
0
 20
0
  9
$LIMMAX
 10
420
 20
297
  9
$ORTHOMODE
 70
    0
  9
$REGENMODE
 70
    1
  9
$FILLMODE
 70
    1
  9
$QTEXTMODE
 70
    0
  9
$MIRRTEXT
 70
    0
  9
$LTSCALE
 40
1
  9
$ATTMODE
 70
    0
  9
$TEXTSIZE
 40
2.5
  9
$TRACEWID
 40
15.68
  9
$TEXTSTYLE
  7
STANDARD
  9
$CLAYER
  8
construction
  9
$CELTYPE
  6
BYLAYER
  9
$CECOLOR
 62
  256
  9
$CELTSCALE
 40
1
  9
$DISPSILH
 70
    0
  9
$DIMSCALE
 40
2.5
  9
$DIMASZ
 40
2.5
  9
$DIMEXO
 40
0.625
  9
$DIMDLI
 40
3.75
  9
$DIMRND
 40
0
  9
$DIMDLE
 40
0
  9
$DIMEXE
 40
1.25
  9
$DIMTP
 40
0
  9
$DIMTM
 40
0
  9
$DIMTXT
 40
2.5
  9
$DIMCEN
 40
2.5
  9
$DIMTSZ
 40
0
  9
$DIMTOL
 70
    0
  9
$DIMLIM
 70
    0
  9
$DIMTIH
 70
    0
  9
$DIMTOH
 70
    0
  9
$DIMSE1
 70
    0
  9
$DIMSE2
 70
    0
  9
$DIMTAD
 70
    1
  9
$DIMZIN
 70
    8
  9
$DIMBLK
  1

  9
$DIMASO
 70
    1
  9
$DIMSHO
 70
    1
  9
$DIMPOST
  1

  9
$DIMAPOST
  1

  9
$DIMALT
 70
    0
  9
$DIMALTD
 70
    3
  9
$DIMALTF
 40
0.03937
  9
$DIMLFAC
 40
1
  9
$DIMTOFL
 70
    1
  9
$DIMTVP
 40
0
  9
$DIMTIX
 70
    0
  9
$DIMSOXD
 70
    0
  9
$DIMSAH
 70
    0
  9
$DIMBLK1
  1

  9
$DIMBLK2
  1

  9
$DIMSTYLE
  2
STANDARD
  9
$DIMCLRD
 70
    0
  9
$DIMCLRE
 70
    0
  9
$DIMCLRT
 70
    0
  9
$DIMTFAC
 40
1
  9
$DIMGAP
 40
0.625
  9
$DIMJUST
 70
    0
  9
$DIMSD1
 70
    0
  9
$DIMSD2
 70
    0
  9
$DIMTOLJ
 70
    0
  9
$DIMTZIN
 70
    8
  9
$DIMALTZ
 70
    0
  9
$DIMALTTZ
 70
    0
  9
$DIMUPT
 70
    0
  9
$DIMDEC
 70
    2
  9
$DIMTDEC
 70
    2
  9
$DIMALTU
 70
    2
  9
$DIMALTTD
 70
    3
  9
$DIMTXSTY
  7
STANDARD
  9
$DIMAUNIT
 70
    0
  9
$DIMADEC
 70
    0
  9
$DIMALTRND
 40
0
  9
$DIMAZIN
 70
    0
  9
$DIMDSEP
 70
   44
  9
$DIMATFIT
 70
    3
  9
$DIMFRAC
 70
    0
  9
$DIMLDRBLK
  1
STANDARD
  9
$DIMLUNIT
 70
    2
  9
$DIMLWD
 70
   -2
  9
$DIMLWE
 70
   -2
  9
$DIMTMOVE
 70
    0
  9
$DIMFXL
 40
1
  9
$DIMFXLON
 70
    0
  9
$DIMJOGANG
 40
0.7854
  9
$DIMTFILL
 70
    0
  9
$DIMTFILLCLR
 70
    0
  9
$DIMARCSYM
 70
    0
  9
$DIMLTYPE
  6

  9
$DIMLTEX1
  6

  9
$DIMLTEX2
  6

  9
$LUNITS
 70
    2
  9
$LUPREC
 70
    4
  9
$SKETCHINC
 40
1
  9
$FILLETRAD
 40
0
  9
$AUNITS
 70
    0
  9
$AUPREC
 70
    2
  9
$MENU
  1
.
  9
$ELEVATION
 40
0
  9
$PELEVATION
 40
0
  9
$THICKNESS
 40
0
  9
$LIMCHECK
 70
    0
  9
$CHAMFERA
 40
0
  9
$CHAMFERB
 40
0
  9
$CHAMFERC
 40
0
  9
$CHAMFERD
 40
0
  9
$SKPOLY
 70
    0
  9
$USRTIMER
 70
    1
  9
$ANGBASE
 50
0
  9
$ANGDIR
 70
    0
  9
$PDMODE
 70
   34
  9
$PDSIZE
 40
0
  9
$PLINEWID
 40
0
  9
$SPLFRAME
 70
    0
  9
$SPLINETYPE
 70
    2
  9
$SPLINESEGS
 70
    8
  9
$HANDSEED
  5
20000
  9
$SURFTAB1
 70
    6
  9
$SURFTAB2
 70
    6
  9
$SURFTYPE
 70
    6
  9
$SURFU
 70
    6
  9
$SURFV
 70
    6
  9
$UCSBASE
  2

  9
$UCSNAME
  2

  9
$UCSORG
 10
0
 20
0
 30
0
  9
$UCSXDIR
 10
1
 20
0
 30
0
  9
$UCSYDIR
 10
0
 20
1
 30
0
  9
$UCSORTHOREF
  2

  9
$UCSORTHOVIEW
 70
    0
  9
$UCSORGTOP
 10
0
 20
0
 30
0
  9
$UCSORGBOTTOM
 10
0
 20
0
 30
0
  9
$UCSORGLEFT
 10
0
 20
0
 30
0
  9
$UCSORGRIGHT
 10
0
 20
0
 30
0
  9
$UCSORGFRONT
 10
0
 20
0
 30
0
  9
$UCSORGBACK
 10
0
 20
0
 30
0
  9
$PUCSBASE
  2

  9
$PUCSNAME
  2

  9
$PUCSORG
 10
0
 20
0
 30
0
  9
$PUCSXDIR
 10
1
 20
0
 30
0
  9
$PUCSYDIR
 10
0
 20
1
 30
0
  9
$PUCSORTHOREF
  2

  9
$PUCSORTHOVIEW
 70
    0
  9
$PUCSORGTOP
 10
0
 20
0
 30
0
  9
$PUCSORGBOTTOM
 10
0
 20
0
 30
0
  9
$PUCSORGLEFT
 10
0
 20
0
 30
0
  9
$PUCSORGRIGHT
 10
0
 20
0
 30
0
  9
$PUCSORGFRONT
 10
0
 20
0
 30
0
  9
$PUCSORGBACK
 10
0
 20
0
 30
0
  9
$USERI1
 70
    0
  9
$USERI2
 70
    0
  9
$USERI3
 70
    0
  9
$USERI4
 70
    0
  9
$USERI5
 70
    0
  9
$USERR1
 40
0
  9
$USERR2
 40
0
  9
$USERR3
 40
0
  9
$USERR4
 40
0
  9
$USERR5
 40
0
  9
$WORLDVIEW
 70
    1
  9
$SHADEDGE
 70
    3
  9
$SHADEDIF
 70
   70
  9
$TILEMODE
 70
    1
  9
$MAXACTVP
 70
   64
  9
$PINSBASE
 10
0
 20
0
 30
0
  9
$PLIMCHECK
 70
    0
  9
$PEXTMIN
 10
0
 20
0
 30
0
  9
$PEXTMAX
 10
0
 20
0
 30
0
  9
$GRIDMODE
 70
    0
  9
$SNAPSTYLE
 70
    0
  9
$PLIMMIN
 10
0
 20
0
  9
$PLIMMAX
 10
210
 20
297
  9
$UNITMODE
 70
    0
  9
$VISRETAIN
 70
    1
  9
$PLINEGEN
 70
    0
  9
$PSLTSCALE
 70
    1
  9
$TREEDEPTH
 70
 3020
  9
$CMLSTYLE
  2
Standard
  9
$CMLJUST
 70
    0
  9
$CMLSCALE
 40
20
  9
$PROXYGRAPHICS
 70
    1
  9
$MEASUREMENT
 70
    1
  9
$CELWEIGHT
370
   -1
  9
$ENDCAPS
280
    0
  9
$JOINSTYLE
280
    0
  9
$LWDISPLAY
290
    0
  9
$INSUNITS
 70
    4
  9
$HYPERLINKBASE
  1

  9
$STYLESHEET
  1

  9
$XEDIT
290
    1
  9
$CEPSNTYPE
380
    0
  9
$PSTYLEMODE
290
    1
  9
$EXTNAMES
290
    1
  9
$PSVPSCALE
 40
1
  9
$OLESTARTUP
290
    0
  9
$SORTENTS
280
  127
  9
$INDEXCTL
280
    0
  9
$HIDETEXT
280
    1
  9
$XCLIPFRAME
290
    0
  9
$HALOGAP
280
    0
  9
$OBSCOLOR
 70
  257
  9
$OBSLTYPE
280
    0
  9
$INTERSECTIONDISPLAY
280
    0
  9
$INTERSECTIONCOLOR
 70
  257
  9
$DIMASSOC
280
    1
  9
$PROJECTNAME
  1

  9
$CAMERADISPLAY
290
    0
  9
$LENSLENGTH
 40
50
  9
$CAMERAHEIGHT
 40
0
  9
$STEPSPERSEC
 40
2
  9
$STEPSIZE
 40
50
  9
$3DDWFPREC
 40
2
  9
$PSOLWIDTH
 40
5
  9
$PSOLHEIGHT
 40
80
  9
$LOFTANG1
 40
1.570796326794897
  9
$LOFTANG2
 40
1.570796326794897
  9
$LOFTMAG1
 40
0
  9
$LOFTMAG2
 40
0
  9
$LOFTPARAM
 70
    7
  9
$LOFTNORMALS
280
    1
  9
$LATITUDE
 40
1
  9
$LONGITUDE
 40
1
  9
$NORTHDIRECTION
 40
0
  9
$TIMEZONE
 70
-8000
  9
$LIGHTGLYPHDISPLAY
280
    1
  9
$TILEMODELIGHTSYNCH
280
    1
  9
$SOLIDHIST
280
    1
  9
$SHOWHIST
280
    1
  9
$DWFFRAME
280
    2
  9
$DGNFRAME
280
    0
  9
$REALWORLDSCALE
290
    1
  9
$INTERFERECOLOR
 62
    1
  9
$CSHADOW
280
    0
  9
$SHADOWPLANELOCATION
 40
0
  0
ENDSEC
  0
SECTION
  2
CLASSES
  0
ENDSEC
  0
SECTION
  2
TABLES
  0
TABLE
  2
VPORT
  5
8
330
0
100
AcDbSymbolTable
 70
    1
  0
VPORT
  5
31
330
2
100
AcDbSymbolTableRecord
100
AcDbViewportTableRecord
  2
*ACTIVE
 70
    0
 10
0
 20
0
 11
1
 21
1
 12
316.8634151815182
 22
372.7804884488449
 13
0
 23
0
 14
10
 24
10
 15
10
 25
10
 16
0
 26
0
 36
1
 17
0
 27
0
 37
0
 40
959.3615511551155
 41
0.7154285714285714
 42
50
 43
0
 44
0
 50
0
 51
0
 71
    0
 72
  100
 73
    1
 74
    3
 75
    0
 76
    0
 77
    0
 78
    0
281
    0
 65
    1
110
0
120
0
130
0
111
1
121
0
131
0
112
0
122
1
132
0
 79
    0
146
0
348
10020
 60
    7
 61
    5
292
1
282
    1
141
0
142
0
 63
  250
421
3358443
  0
ENDTAB
  0
TABLE
  2
LTYPE
  5
5
330
0
100
AcDbSymbolTable
 70
    4
  0
LTYPE
  5
14
330
5
100
AcDbSymbolTableRecord
100
AcDbLinetypeTableRecord
  2
ByBlock
 70
    0
  3

 72
   65
 73
    0
 40
0
  0
LTYPE
  5
15
330
5
100
AcDbSymbolTableRecord
100
AcDbLinetypeTableRecord
  2
ByLayer
 70
    0
  3

 72
   65
 73
    0
 40
0
  0
LTYPE
  5
16
330
5
100
AcDbSymbolTableRecord
100
AcDbLinetypeTableRecord
  2
Continuous
 70
    0
  3
Solid line
 72
   65
 73
    0
 40
0
  0
LTYPE
  5
32
330
5
100
AcDbSymbolTableRecord
100
AcDbLinetypeTableRecord
  2
DOT
 70
    0
  3
Dot . . . . . . . . . . . . . . . . . . . . . .
 72
   65
 73
    2
 40
6.35
 49
0
 74
    0
 49
-6.35
 74
    0
  0
LTYPE
  5
33
330
5
100
AcDbSymbolTableRecord
100
AcDbLinetypeTableRecord
  2
DOTTINY
 70
    0
  3
Dot (.15x) .....................................
 72
   65
 73
    2
 40
0.9525
 49
0
 74
    0
 49
-0.9525
 74
    0
  0
LTYPE
  5
34
330
5
100
AcDbSymbolTableRecord
100
AcDbLinetypeTableRecord
  2
DOT2
 70
    0
  3
Dot (.5x) .....................................
 72
   65
 73
    2
 40
3.175
 49
0
 74
    0
 49
-3.175
 74
    0
  0
LTYPE
  5
35
330
5
100
AcDbSymbolTableRecord
100
AcDbLinetypeTableRecord
  2
DOTX2
 70
    0
  3
Dot (2x) .  .  .  .  .  .  .  .  .  .  .  .  .
 72
   65
 73
    2
 40
12.7
 49
0
 74
    0
 49
-12.7
 74
    0
  0
LTYPE
  5
36
330
5
100
AcDbSymbolTableRecord
100
AcDbLinetypeTableRecord
  2
DASHED
 70
    0
  3
Dashed _ _ _ _ _ _ _ _ _ _ _ _ _ _ _ _ _
 72
   65
 73
    2
 40
19.05
 49
12.7
 74
    0
 49
-6.35
 74
    0
  0
LTYPE
  5
37
330
5
100
AcDbSymbolTableRecord
100
AcDbLinetypeTableRecord
  2
DASHEDTINY
 70
    0
  3
Dashed (.15x) _ _ _ _ _ _ _ _ _ _ _ _ _ _ _ _ _
 72
   65
 73
    2
 40
2.8575
 49
1.905
 74
    0
 49
-0.9525
 74
    0
  0
LTYPE
  5
38
330
5
100
AcDbSymbolTableRecord
100
AcDbLinetypeTableRecord
  2
DASHED2
 70
    0
  3
Dashed (.5x) _ _ _ _ _ _ _ _ _ _ _ _ _ _ _ _ _
 72
   65
 73
    2
 40
9.524999999999999
 49
6.35
 74
    0
 49
-3.175
 74
    0
  0
LTYPE
  5
39
330
5
100
AcDbSymbolTableRecord
100
AcDbLinetypeTableRecord
  2
DASHEDX2
 70
    0
  3
Dashed (2x) ____  ____  ____  ____  ____  ___
 72
   65
 73
    2
 40
38.09999999999999
 49
25.4
 74
    0
 49
-12.7
 74
    0
  0
LTYPE
  5
3A
330
5
100
AcDbSymbolTableRecord
100
AcDbLinetypeTableRecord
  2
DASHDOT
 70
    0
  3
Dash dot __ . __ . __ . __ . __ . __ . __ . __
 72
   65
 73
    4
 40
25.4
 49
12.7
 74
    0
 49
-6.35
 74
    0
 49
0
 74
    0
 49
-6.35
 74
    0
  0
LTYPE
  5
3B
330
5
100
AcDbSymbolTableRecord
100
AcDbLinetypeTableRecord
  2
DASHDOTTINY
 70
    0
  3
Dash dot (.15x) _._._._._._._._._._._._._._._.
 72
   65
 73
    4
 40
3.81
 49
1.905
 74
    0
 49
-0.9525
 74
    0
 49
0
 74
    0
 49
-0.9525
 74
    0
  0
LTYPE
  5
3C
330
5
100
AcDbSymbolTableRecord
100
AcDbLinetypeTableRecord
  2
DASHDOT2
 70
    0
  3
Dash dot (.5x) _._._._._._._._._._._._._._._.
 72
   65
 73
    4
 40
12.7
 49
6.35
 74
    0
 49
-3.175
 74
    0
 49
0
 74
    0
 49
-3.175
 74
    0
  0
LTYPE
  5
3D
330
5
100
AcDbSymbolTableRecord
100
AcDbLinetypeTableRecord
  2
DASHDOTX2
 70
    0
  3
Dash dot (2x) ____  .  ____  .  ____  .  ___
 72
   65
 73
    4
 40
50.8
 49
25.4
 74
    0
 49
-12.7
 74
    0
 49
0
 74
    0
 49
-12.7
 74
    0
  0
LTYPE
  5
3E
330
5
100
AcDbSymbolTableRecord
100
AcDbLinetypeTableRecord
  2
DIVIDE
 70
    0
  3
Divide ____ . . ____ . . ____ . . ____ . . ____
 72
   65
 73
    6
 40
31.75
 49
12.7
 74
    0
 49
-6.35
 74
    0
 49
0
 74
    0
 49
-6.35
 74
    0
 49
0
 74
    0
 49
-6.35
 74
    0
  0
LTYPE
  5
3F
330
5
100
AcDbSymbolTableRecord
100
AcDbLinetypeTableRecord
  2
DIVIDETINY
 70
    0
  3
Divide (.15x) __..__..__..__..__..__..__..__.._
 72
   65
 73
    6
 40
4.7625
 49
1.905
 74
    0
 49
-0.9525
 74
    0
 49
0
 74
    0
 49
-0.9525
 74
    0
 49
0
 74
    0
 49
-0.9525
 74
    0
  0
LTYPE
  5
40
330
5
100
AcDbSymbolTableRecord
100
AcDbLinetypeTableRecord
  2
DIVIDE2
 70
    0
  3
Divide (.5x) __..__..__..__..__..__..__..__.._
 72
   65
 73
    6
 40
15.875
 49
6.35
 74
    0
 49
-3.175
 74
    0
 49
0
 74
    0
 49
-3.175
 74
    0
 49
0
 74
    0
 49
-3.175
 74
    0
  0
LTYPE
  5
41
330
5
100
AcDbSymbolTableRecord
100
AcDbLinetypeTableRecord
  2
DIVIDEX2
 70
    0
  3
Divide (2x) ________  .  .  ________  .  .  _
 72
   65
 73
    6
 40
63.5
 49
25.4
 74
    0
 49
-12.7
 74
    0
 49
0
 74
    0
 49
-12.7
 74
    0
 49
0
 74
    0
 49
-12.7
 74
    0
  0
LTYPE
  5
42
330
5
100
AcDbSymbolTableRecord
100
AcDbLinetypeTableRecord
  2
BORDER
 70
    0
  3
Border __ __ . __ __ . __ __ . __ __ . __ __ .
 72
   65
 73
    6
 40
44.45
 49
12.7
 74
    0
 49
-6.35
 74
    0
 49
12.7
 74
    0
 49
-6.35
 74
    0
 49
0
 74
    0
 49
-6.35
 74
    0
  0
LTYPE
  5
43
330
5
100
AcDbSymbolTableRecord
100
AcDbLinetypeTableRecord
  2
BORDERTINY
 70
    0
  3
Border (.15x) __.__.__.__.__.__.__.__.__.__.__.
 72
   65
 73
    6
 40
6.6675
 49
1.905
 74
    0
 49
-0.9525
 74
    0
 49
1.905
 74
    0
 49
-0.9525
 74
    0
 49
0
 74
    0
 49
-0.9525
 74
    0
  0
LTYPE
  5
44
330
5
100
AcDbSymbolTableRecord
100
AcDbLinetypeTableRecord
  2
BORDER2
 70
    0
  3
Border (.5x) __.__.__.__.__.__.__.__.__.__.__.
 72
   65
 73
    6
 40
22.225
 49
6.35
 74
    0
 49
-3.175
 74
    0
 49
6.35
 74
    0
 49
-3.175
 74
    0
 49
0
 74
    0
 49
-3.175
 74
    0
  0
LTYPE
  5
45
330
5
100
AcDbSymbolTableRecord
100
AcDbLinetypeTableRecord
  2
BORDERX2
 70
    0
  3
Border (2x) ____  ____  .  ____  ____  .  ___
 72
   65
 73
    6
 40
88.89999999999999
 49
25.4
 74
    0
 49
-12.7
 74
    0
 49
25.4
 74
    0
 49
-12.7
 74
    0
 49
0
 74
    0
 49
-12.7
 74
    0
  0
LTYPE
  5
46
330
5
100
AcDbSymbolTableRecord
100
AcDbLinetypeTableRecord
  2
CENTER
 70
    0
  3
Center ____ _ ____ _ ____ _ ____ _ ____ _ ____
 72
   65
 73
    4
 40
50.8
 49
31.75
 74
    0
 49
-6.35
 74
    0
 49
6.35
 74
    0
 49
-6.35
 74
    0
  0
LTYPE
  5
47
330
5
100
AcDbSymbolTableRecord
100
AcDbLinetypeTableRecord
  2
CENTERTINY
 70
    0
  3
Center (.15x) ___ _ ___ _ ___ _ ___ _ ___ _ ___
 72
   65
 73
    4
 40
7.619999999999999
 49
4.7625
 74
    0
 49
-0.9525
 74
    0
 49
0.9525
 74
    0
 49
-0.9525
 74
    0
  0
LTYPE
  5
48
330
5
100
AcDbSymbolTableRecord
100
AcDbLinetypeTableRecord
  2
CENTER2
 70
    0
  3
Center (.5x) ___ _ ___ _ ___ _ ___ _ ___ _ ___
 72
   65
 73
    4
 40
28.575
 49
19.05
 74
    0
 49
-3.175
 74
    0
 49
3.175
 74
    0
 49
-3.175
 74
    0
  0
LTYPE
  5
49
330
5
100
AcDbSymbolTableRecord
100
AcDbLinetypeTableRecord
  2
CENTERX2
 70
    0
  3
Center (2x) ________  __  ________  __  _____
 72
   65
 73
    4
 40
101.6
 49
63.5
 74
    0
 49
-12.7
 74
    0
 49
12.7
 74
    0
 49
-12.7
 74
    0
  0
ENDTAB
  0
TABLE
  2
LAYER
  5
2
330
0
100
AcDbSymbolTable
 70
    1
  0
LAYER
  5
10
330
2
100
AcDbSymbolTableRecord
100
AcDbLayerTableRecord
  2
0
 70
    0
 62
    7
  6
CONTINUOUS
370
    0
390
F
  0
LAYER
  5
4A
330
2
100
AcDbSymbolTableRecord
100
AcDbLayerTableRecord
  2
arba
 70
    0
 62
    7
  6
CONTINUOUS
370
    0
390
F
  0
LAYER
  5
4B
330
2
100
AcDbSymbolTableRecord
100
AcDbLayerTableRecord
  2
aretier
 70
    0
 62
    7
  6
CONTINUOUS
370
    0
390
F
  0
LAYER
  5
4C
330
2
100
AcDbSymbolTableRecord
100
AcDbLayerTableRecord
  2
chevron
 70
    0
 62
    7
  6
CONTINUOUS
370
    0
390
F
  0
LAYER
  5
4D
330
2
100
AcDbSymbolTableRecord
100
AcDbLayerTableRecord
  2
construction
 70
    0
 62
    1
  6
CONTINUOUS
370
    0
390
F
  0
LAYER
  5
4E
330
2
100
AcDbSymbolTableRecord
100
AcDbLayerTableRecord
  2
coupe_chevron
 70
    0
 62
    7
  6
CONTINUOUS
370
    0
390
F
  0
LAYER
  5
4F
330
2
100
AcDbSymbolTableRecord
100
AcDbLayerTableRecord
  2
elevation_aretier
 70
    0
 62
    7
  6
CONTINUOUS
370
    0
390
F
  0
LAYER
  5
50
330
2
100
AcDbSymbolTableRecord
100
AcDbLayerTableRecord
  2
empanon
 70
    0
 62
    7
  6
CONTINUOUS
370
    0
390
F
  0
LAYER
  5
51
330
2
100
AcDbSymbolTableRecord
100
AcDbLayerTableRecord
  2
engueulement_arêtier
 70
    0
 62
    7
  6
CONTINUOUS
370
    0
390
F
  0
LAYER
  5
52
330
2
100
AcDbSymbolTableRecord
100
AcDbLayerTableRecord
  2
panne
 70
    0
 62
    7
  6
CONTINUOUS
370
    0
390
F
  0
LAYER
  5
53
330
2
100
AcDbSymbolTableRecord
100
AcDbLayerTableRecord
  2
poincon
 70
    0
 62
    7
  6
CONTINUOUS
290
0
370
    0
390
F
  0
LAYER
  5
54
330
2
100
AcDbSymbolTableRecord
100
AcDbLayerTableRecord
  2
repos_arba
 70
    0
 62
    7
  6
CONTINUOUS
370
    0
390
F
  0
LAYER
  5
55
330
2
100
AcDbSymbolTableRecord
100
AcDbLayerTableRecord
  2
vue_par_bout_aretier
 70
    0
 62
    7
  6
CONTINUOUS
370
    0
390
F
  0
ENDTAB
  0
TABLE
  2
STYLE
  5
3
330
0
100
AcDbSymbolTable
 70
    3
  0
STYLE
  5
56
330
2
100
AcDbSymbolTableRecord
100
AcDbTextStyleTableRecord
  2
standard
 70
    0
 40
0
 41
1
 50
0
 71
    0
 42
1
  3
standard
  4

  0
ENDTAB
  0
TABLE
  2
VIEW
  5
6
330
0
100
AcDbSymbolTable
 70
    0
  0
ENDTAB
  0
TABLE
  2
UCS
  5
7
330
0
100
AcDbSymbolTable
 70
    0
  0
ENDTAB
  0
TABLE
  2
APPID
  5
9
330
0
100
AcDbSymbolTable
 70
    1
  0
APPID
  5
12
330
9
100
AcDbSymbolTableRecord
100
AcDbRegAppTableRecord
  2
ACAD
 70
    0
  0
APPID
  5
57
330
9
100
AcDbSymbolTableRecord
100
AcDbRegAppTableRecord
  2
LibreCad
 70
    0
  0
ENDTAB
  0
TABLE
  2
DIMSTYLE
  5
A
330
0
100
AcDbSymbolTable
 70
    1
100
AcDbDimStyleTable
 71
    1
  0
DIMSTYLE
105
58
330
A
100
AcDbSymbolTableRecord
100
AcDbDimStyleTableRecord
  2
Standard
 70
    0
 40
2.5
 41
2.5
 42
0.625
 43
0.38
 44
1.25
 45
0
 46
0
 47
0
 48
0
 49
1
140
2.5
141
0.09
142
0
143
25.4
144
1
145
0
146
1
147
0.625
148
0
 71
    0
 72
    0
 73
    0
 74
    1
 75
    0
 76
    0
 77
    0
 78
    8
 79
    0
170
    0
171
    2
172
    0
173
    0
174
    0
175
    0
176
    0
177
    0
178
    0
179
    0
271
    2
272
    4
273
    2
274
    2
275
    0
276
    0
277
    2
278
   44
279
    0
280
    0
281
    0
282
    0
283
    1
284
    0
285
    0
286
    0
288
    0
289
    3
340
STANDARD
341

371
   -2
372
   -2
  0
ENDTAB
  0
TABLE
  2
BLOCK_RECORD
  5
1
330
0
100
AcDbSymbolTable
 70
    2
  0
BLOCK_RECORD
  5
1F
330
1
100
AcDbSymbolTableRecord
100
AcDbBlockTableRecord
  2
*Model_Space
 70
    0
280
    1
281
    0
  0
BLOCK_RECORD
  5
1E
330
1
100
AcDbSymbolTableRecord
100
AcDbBlockTableRecord
  2
*Paper_Space
 70
    0
280
    1
281
    0
  0
ENDTAB
  0
ENDSEC
  0
SECTION
  2
BLOCKS
  0
BLOCK
  5
20
330
1F
100
AcDbEntity
  8
0
100
AcDbBlockBegin
  2
*Model_Space
 70
    0
 10
0
 20
0
 30
0
  3
*Model_Space
  1

  0
ENDBLK
  5
21
330
1F
100
AcDbEntity
  8
0
100
AcDbBlockEnd
  0
BLOCK
  5
1C
330
1B
100
AcDbEntity
  8
0
100
AcDbBlockBegin
  2
*Paper_Space
 70
    0
 10
0
 20
0
 30
0
  3
*Paper_Space
  1

  0
ENDBLK
  5
1D
330
1F
100
AcDbEntity
  8
0
100
AcDbBlockEnd
  0
ENDSEC
  0
SECTION
  2
ENTITIES
  0
LINE
  5
59
100
AcDbEntity
  8
0
  6
DOT
 62
  256
370
   -1
100
AcDbLine
 10
0
 20
300
 11
605
 21
300
  0
LINE
  5
5A
100
AcDbEntity
  8
0
  6
DOT
 62
  256
370
   -1
100
AcDbLine
 10
350
 20
0
 11
350
 21
300
  0
LINE
  5
5B
100
AcDbEntity
  8
0
  6
DOT
 62
  256
370
   -1
100
AcDbLine
 10
0
 20
0
 11
605
 21
0
  0
LINE
  5
5C
100
AcDbEntity
  8
0
  6
DOT
 62
  256
370
   -1
100
AcDbLine
 10
300
 20
300
 11
300
 21
0
  0
LINE
  5
5D
100
AcDbEntity
  8
poincon
  6
ByLayer
 62
  256
370
   -1
100
AcDbLine
 10
320
 20
320
 11
280
 21
320
  0
LINE
  5
5E
100
AcDbEntity
  8
poincon
  6
ByLayer
 62
  256
370
   -1
100
AcDbLine
 10
320
 20
280
 11
320
 21
320
  0
LINE
  5
5F
100
AcDbEntity
  8
poincon
  6
ByLayer
 62
  256
370
   -1
100
AcDbLine
 10
280
 20
280
 11
280
 21
320
  0
LINE
  5
60
100
AcDbEntity
  8
poincon
  6
ByLayer
 62
  256
370
   -1
100
AcDbLine
 10
320
 20
280
 11
280
 21
280
  0
LINE
  5
61
100
AcDbEntity
  8
aretier
  6
ByLayer
 62
  256
370
   -1
100
AcDbLine
 10
77.26139999999999
 20
522.739
 11
-42.4264
 21
42.4264
  0
LINE
  5
62
100
AcDbEntity
  8
poincon
  6
ByLayer
 62
  256
370
   -1
100
AcDbLine
 10
350
 20
320
 11
622
 21
320
  0
LINE
  5
63
100
AcDbEntity
  8
arba
  6
ByLayer
 62
  256
370
   -1
100
AcDbLine
 10
515.5295343610094
 20
279.6630049622383
 11
350
 21
84.9226
  0
LINE
  5
64
100
AcDbEntity
  8
chevron
  6
ByLayer
 62
  256
370
   -1
100
AcDbLine
 10
561.5558231509991
 20
279.7703669123796
 11
350
 21
30.881
  0
LINE
  5
65
100
AcDbEntity
  8
chevron
  6
ByLayer
 62
  256
370
   -1
100
AcDbLine
 10
587.8569599021342
 20
279.8317175319226
 11
350
 21
0
  0
LINE
  5
66
100
AcDbEntity
  8
poincon
  6
ByLayer
 62
  256
370
   -1
100
AcDbLine
 10
622
 20
320
 11
587.8569599021342
 21
279.8317175319226
  0
LINE
  5
67
100
AcDbEntity
  8
chevron
  6
ByLayer
 62
  256
370
   -1
100
AcDbLine
 10
292.5
 20
274.8223304703363
 11
292.5
 21
2.75546e-15
  0
LINE
  5
68
100
AcDbEntity
  8
chevron
  6
ByLayer
 62
  256
370
   -1
100
AcDbLine
 10
307.5
 20
280
 11
307.5
 21
-1.83697e-15
  0
LINE
  5
69
100
AcDbEntity
  8
aretier
  6
DASHED
 62
  256
370
   -1
100
AcDbLine
 10
280
 20
280
 11
0
 21
0
  0
LINE
  5
6A
100
AcDbEntity
  8
aretier
  6
ByLayer
 62
  256
370
   -1
100
AcDbLine
 10
0
 20
0
 11
1.082445070294367e-15
 21
17.67766952966369
  0
LINE
  5
6B
100
AcDbEntity
  8
aretier
  6
ByLayer
 62
  256
370
   -1
100
AcDbLine
 10
280
 20
297.6776695296637
 11
1.082445070294367e-15
 21
17.67766952966369
  0
LINE
  5
6C
100
AcDbEntity
  8
aretier
  6
ByLayer
 62
  256
370
   -1
100
AcDbLine
 10
0
 20
0
 11
17.67766952966369
 21
0
  0
LINE
  5
6D
100
AcDbEntity
  8
aretier
  6
ByLayer
 62
  256
370
   -1
100
AcDbLine
 10
297.6776695296637
 20
280
 11
17.67766952966369
 21
0
  0
LINE
  5
6E
100
AcDbEntity
  8
construction
  6
ByLayer
 62
  256
370
   -1
100
AcDbLine
 10
350
 20
84.9226
 11
102.6002695296637
 21
84.92260000000005
  0
LINE
  5
6F
100
AcDbEntity
  8
construction
  6
ByLayer
 62
  256
370
   -1
100
AcDbLine
 10
350
 20
30.88099999999998
 11
48.5586695296637
 21
30.88100000000001
  0
LINE
  5
70
100
AcDbEntity
  8
construction
  6
ByLayer
 62
  256
370
   -1
100
AcDbLine
 10
350
 20
-0
 11
17.67766952966373
 21
4.069774782956862e-14
  0
LINE
  5
71
100
AcDbEntity
  8
construction
  6
ByLayer
 62
  256
370
   -1
100
AcDbLine
 10
51.33515978007829
 20
136.1877097495856
 11
102.6002695296638
 21
84.92260000000007
  0
LINE
  5
72
100
AcDbEntity
  8
construction
  6
ByLayer
 62
  256
370
   -1
100
AcDbLine
 10
-2.706512275388462
 20
82.14618180505217
 11
48.5586695296637
 21
30.88100000000001
  0
LINE
  5
73
100
AcDbEntity
  8
construction
  6
ByLayer
 62
  256
370
   -1
100
AcDbLine
 10
-33.58755345005512
 20
51.26522297971884
 11
17.67766952966369
 21
3.728173735889931e-15
  0
LINE
  5
74
100
AcDbEntity
  8
aretier
  6
ByLayer
 62
  256
370
   -1
100
AcDbLine
 10
82.57391092472409
 20
517.426477290163
 11
-33.5875534500551
 21
51.26522297971886
  0
LINE
  5
75
100
AcDbEntity
  8
panne
  6
ByLayer
 62
  256
370
   -1
100
AcDbLine
 10
440.8590389984303
 20
191.8154642694348
 11
467.5267640676608
 21
169.147871922417
  0
LINE
  5
76
100
AcDbEntity
  8
panne
  6
ByLayer
 62
  256
370
   -1
100
AcDbLine
 10
424.6678176984882
 20
172.7669905033742
 11
451.3355427677188
 21
150.0993981563564
  0
LINE
  5
77
100
AcDbEntity
  8
construction
  6
ByLayer
 62
  256
370
   -1
100
AcDbLine
 10
467.5267640676608
 20
169.147871922417
 11
186.8255414520807
 21
169.147871922417
  0
LINE
  5
78
100
AcDbEntity
  8
construction
  6
ByLayer
 62
  256
370
   -1
100
AcDbLine
 10
451.3355597290617
 20
150.0993837391983
 11
167.777053268862
 21
150.0993837391983
  0
LINE
  5
79
100
AcDbEntity
  8
construction
  6
ByLayer
 62
  256
370
   -1
100
AcDbLine
 10
440.8590389984303
 20
191.8154642694348
 11
209.4931337990985
 21
191.8154642694348
  0
LINE
  5
7A
100
AcDbEntity
  8
construction
  6
ByLayer
 62
  256
370
   -1
100
AcDbLine
 10
424.6678176984882
 20
172.7669905033741
 11
190.4446600330378
 21
172.7669905033741
  0
LINE
  5
7B
100
AcDbEntity
  8
construction
  6
ByLayer
 62
  256
370
   -1
100
AcDbLine
 10
44.85674291344284
 20
273.0196940946176
 11
167.777053268862
 21
150.0993837391983
  0
LINE
  5
7C
100
AcDbEntity
  8
construction
  6
ByLayer
 62
  256
370
   -1
100
AcDbLine
 10
52.45630999364955
 20
303.5171033808481
 11
186.8255414520808
 21
169.1478719224171
  0
LINE
  5
7D
100
AcDbEntity
  8
construction
  6
ByLayer
 62
  256
370
   -1
100
AcDbLine
 10
93.98103721651751
 20
307.3275608520159
 11
209.4931337990985
 21
191.8154642694348
  0
LINE
  5
7E
100
AcDbEntity
  8
construction
  6
ByLayer
 62
  256
370
   -1
100
AcDbLine
 10
86.38147588816668
 20
276.8301746482454
 11
190.4446600330378
 21
172.7669905033741
  0
LINE
  5
7F
100
AcDbEntity
  8
panne
  6
ByLayer
 62
  256
370
   -1
100
AcDbLine
 10
52.45630999364957
 20
303.5171033808481
 11
93.98103721651751
 21
307.3275608520158
  0
LINE
  5
80
100
AcDbEntity
  8
panne
  6
ByLayer
 62
  256
370
   -1
100
AcDbLine
 10
44.85674291344284
 20
273.0196940946176
 11
86.38147588816669
 21
276.8301746482454
  0
LINE
  5
81
100
AcDbEntity
  8
vue_par_bout_aretier
  6
ByLayer
 62
  256
370
   -1
100
AcDbLine
 10
205.7274185565682
 20
205.7274185565682
 11
192.4208162783837
 21
210.0984858080474
  0
LINE
  5
82
100
AcDbEntity
  8
vue_par_bout_aretier
  6
ByLayer
 62
  256
370
   -1
100
AcDbLine
 10
210.0128834073756
 20
192.3352138777119
 11
205.7274185565682
 21
205.7274185565682
  0
LINE
  5
83
100
AcDbEntity
  8
vue_par_bout_aretier
  6
ByLayer
 62
  256
370
   -1
100
AcDbLine
 10
136.7788277874396
 20
154.4564973171033
 11
154.4564973171033
 21
136.7788277874396
  0
LINE
  5
84
100
AcDbEntity
  8
aretier
  6
ByLayer
 62
  256
370
   -1
100
AcDbLine
 10
147.386
 20
452.614
 11
74.2461
 21
159.099
  0
LINE
  5
85
100
AcDbEntity
  8
elevation_aretier
  6
ByLayer
 62
  256
370
   -1
100
AcDbLine
 10
77.26139999999999
 20
522.739
 11
257.574
 21
342.426
  0
LINE
  5
86
100
AcDbEntity
  8
elevation_aretier
  6
ByLayer
 62
  256
370
   -1
100
AcDbLine
 10
257.574
 20
342.426
 11
-42.4264
 21
42.4264
  0
LINE
  5
87
100
AcDbEntity
  8
poincon
  6
ByLayer
 62
  256
370
   -1
100
AcDbLine
 10
350
 20
279.8998441842663
 11
587.6258722549996
 21
279.5598497117642
  0
LINE
  5
88
100
AcDbEntity
  8
construction
  6
ByLayer
 62
  256
370
   -1
100
AcDbLine
 10
65.76598667673976
 20
476.6073820625849
 11
280.0252334551175
 21
262.3475639254538
  0
LINE
  5
89
100
AcDbEntity
  8
construction
  6
ByLayer
 62
  256
370
   -1
100
AcDbLine
 10
72.80858234997935
 20
504.8696396908682
 11
297.6776459594375
 21
279.9999764297739
  0
MTEXT
  5
8A
100
AcDbEntity
  8
engueulement_arêtier
  6
ByLayer
 62
  256
370
   -1
100
AcDbMText
 10
262.3445881193381
 20
279.8879314394986
 30
0
 40
2
 41
5.111112139685507
 71
    1
 72
    1
  1
1ous
  7
standard
210
0
220
0
230
1
 50
0
 73
    2
 44
1
  0
MTEXT
  5
8B
100
AcDbEntity
  8
engueulement_arêtier
  6
ByLayer
 62
  256
370
   -1
100
AcDbMText
 10
280.1564520005214
 20
297.7893021743562
 30
0
 40
2
 41
5.55555658412995
 71
    1
 72
    1
  1
2ous
  7
standard
210
0
220
0
230
1
 50
0
 73
    2
 44
1
  0
MTEXT
  5
8C
100
AcDbEntity
  8
engueulement_arêtier
  6
ByLayer
 62
  256
370
   -1
100
AcDbMText
 10
297.6997953206819
 20
279.9774382931729
 30
0
 40
2
 41
3.555556584129951
 71
    1
 72
    1
  1
1us
  7
standard
210
0
220
0
230
1
 50
0
 73
    2
 44
1
  0
MTEXT
  5
8D
100
AcDbEntity
  8
engueulement_arêtier
  6
ByLayer
 62
  256
370
   -1
100
AcDbMText
 10
279.9774382931729
 20
262.2550812656639
 30
0
 40
2
 41
4.000001028574395
 71
    1
 72
    1
  1
2us
  7
standard
210
0
220
0
230
1
 50
0
 73
    2
 44
1
  0
LINE
  5
8E
100
AcDbEntity
  8
engueulement_arêtier
  6
ByLayer
 62
  256
370
   -1
100
AcDbLine
 10
72.80858234997935
 20
504.8696396908682
 11
142.9332399663352
 21
434.744795075176
  0
LINE
  5
8F
100
AcDbEntity
  8
engueulement_arêtier
  6
ByLayer
 62
  256
370
   -1
100
AcDbLine
 10
65.76598667673976
 20
476.6073820625849
 11
135.8906682183707
 21
406.4825135215537
  0
MTEXT
  5
90
100
AcDbEntity
  8
engueulement_arêtier
  6
ByLayer
 62
  256
370
   -1
100
AcDbMText
 10
72.80858234997935
 20
504.8696396908682
 30
0
 40
2
 41
5.55555658412995
 71
    1
 72
    1
  1
2ous\P1us
  7
standard
210
0
220
0
230
1
 50
0
 73
    2
 44
1
  0
MTEXT
  5
91
100
AcDbEntity
  8
engueulement_arêtier
  6
ByLayer
 62
  256
370
   -1
100
AcDbMText
 10
142.9332399663352
 20
434.744795075176
 30
0
 40
2
 41
5.55555658412995
 71
    1
 72
    1
  1
2ous\P1us
  7
standard
210
0
220
0
230
1
 50
0
 73
    2
 44
1
  0
MTEXT
  5
92
100
AcDbEntity
  8
engueulement_arêtier
  6
ByLayer
 62
  256
370
   -1
100
AcDbMText
 10
65.76598667673976
 20
476.6073820625849
 30
0
 40
2
 41
5.111112139685507
 71
    1
 72
    1
  1
1ous\P2us
  7
standard
210
0
220
0
230
1
 50
0
 73
    2
 44
1
  0
MTEXT
  5
93
100
AcDbEntity
  8
engueulement_arêtier
  6
ByLayer
 62
  256
370
   -1
100
AcDbMText
 10
135.8906682183707
 20
406.4825135215536
 30
0
 40
2
 41
5.111112139685507
 71
    1
 72
    1
  1
1ous\P2us
  7
standard
210
0
220
0
230
1
 50
0
 73
    2
 44
1
  0
LINE
  5
94
100
AcDbEntity
  8
arba
  6
ByLayer
 62
  256
370
   -1
100
AcDbLine
 10
312.5
 20
280
 11
312.5
 21
84.9226
  0
LINE
  5
95
100
AcDbEntity
  8
arba
  6
ByLayer
 62
  256
370
   -1
100
AcDbLine
 10
287.5
 20
269.8223304703363
 11
287.5
 21
84.92260000000002
  0
LINE
  5
96
100
AcDbEntity
  8
arba
  6
ByLayer
 62
  256
370
   -1
100
AcDbLine
 10
287.5
 20
84.92260000000002
 11
312.5
 21
84.9226
  0
LINE
  5
97
100
AcDbEntity
  8
chevron
  6
ByLayer
 62
  256
370
   -1
100
AcDbLine
 10
292.5
 20
0
 11
307.5
 21
5.204748896376256e-15
  0
LINE
  5
98
100
AcDbEntity
  8
construction
  6
ByLayer
 62
  256
370
   -1
100
AcDbLine
 10
70.74291189147533
 20
496.5800099318848
 11
292.5000000000001
 21
274.8223304703364
  0
LINE
  5
99
100
AcDbEntity
  8
construction
  6
ByLayer
 62
  256
370
   -1
100
AcDbLine
 10
68.74811495606603
 20
488.5747988534084
 11
287.5000000000001
 21
269.8223304703363
  0
LINE
  5
9A
100
AcDbEntity
  8
arba
  6
ByLayer
 62
  256
370
   -1
100
AcDbLine
 10
133.616
 20
466.384
 11
51.3352
 21
136.188
  0
LINE
  5
9B
100
AcDbEntity
  8
panne
  6
ByLayer
 62
  256
370
   -1
100
AcDbLine
 10
101.1348697475785
 20
498.8654772922407
 11
-2.70651
 21
82.14619999999999
  0
LINE
  5
9C
100
AcDbEntity
  8
chevron
  6
ByLayer
 62
  256
370
   -1
100
AcDbLine
 10
78.12109279962286
 20
499.5571150745112
 11
76.05542234111888
 21
491.2674853155278
  0
LINE
  5
9D
100
AcDbEntity
  8
chevron
  6
ByLayer
 62
  256
370
   -1
100
AcDbLine
 10
76.05542234111888
 20
491.2674853155278
 11
94.6163680398483
 21
472.7064901208773
  0
LINE
  5
9E
100
AcDbEntity
  8
chevron
  6
ByLayer
 62
  256
370
   -1
100
AcDbLine
 10
94.6163680398483
 20
472.7064901208773
 11
96.68204213131355
 21
480.9961162468897
  0
LINE
  5
9F
100
AcDbEntity
  8
chevron
  6
ByLayer
 62
  256
370
   -1
100
AcDbLine
 10
96.68204213131355
 20
480.9961162468897
 11
78.12109279962286
 21
499.5571150745112
  0
LINE
  5
A0
100
AcDbEntity
  8
empanon
  6
ByLayer
 62
  256
370
   -1
100
AcDbLine
 10
7.34788079488412e-15
 20
120
 11
102.3223304703363
 21
120
  0
LINE
  5
A1
100
AcDbEntity
  8
empanon
  6
ByLayer
 62
  256
370
   -1
100
AcDbLine
 10
4.592425496802576e-15
 20
105
 11
87.32233047033631
 21
105
  0
LINE
  5
A2
100
AcDbEntity
  8
empanon
  6
ByLayer
 62
  256
370
   -1
100
AcDbLine
 10
451.9999999999999
 20
119.9999999999999
 11
439.25
 21
105
  0
LINE
  5
A3
100
AcDbEntity
  8
empanon
  6
ByLayer
 62
  256
370
   -1
100
AcDbLine
 10
413.0011086879782
 20
105
 11
425.7511003273644
 21
119.9999999999999
  0
LINE
  5
A4
100
AcDbEntity
  8
construction
  6
ByLayer
 62
  256
370
   -1
100
AcDbLine
 10
596.3489808997858
 20
289.8223304703363
 11
307.5
 21
289.8223304703363
  0
LINE
  5
A5
100
AcDbEntity
  8
construction
  6
ByLayer
 62
  256
370
   -1
100
AcDbLine
 10
583.5989808997858
 20
274.8223304703363
 11
292.5
 21
274.8223304703363
  0
MTEXT
  5
A6
100
AcDbEntity
  8
coupe_chevron
  6
ByLayer
 62
  256
370
   -1
100
AcDbMText
 10
308.1887688702687
 20
289.3096555454343
 30
0
 40
2
 41
5.555556584130074
 71
    1
 72
    1
  1
3ous
  7
standard
210
0
220
0
230
1
 50
0
 73
    2
 44
1
  0
MTEXT
  5
A7
100
AcDbEntity
  8
coupe_chevron
  6
ByLayer
 62
  256
370
   -1
100
AcDbMText
 10
293.5617080960727
 20
273.3219379550341
 30
0
 40
2
 41
4.00000102857452
 71
    1
 72
    1
  1
3us
  7
standard
210
0
220
0
230
1
 50
0
 73
    2
 44
1
  0
MTEXT
  5
A8
100
AcDbEntity
  8
coupe_chevron
  6
ByLayer
 62
  256
370
   -1
100
AcDbMText
 10
308.1887688702687
 20
279.4448936279533
 30
0
 40
2
 41
5.777778806352173
 71
    1
 72
    1
  1
4ous
  7
standard
210
0
220
0
230
1
 50
0
 73
    2
 44
1
  0
MTEXT
  5
A9
100
AcDbEntity
  8
coupe_chevron
  6
ByLayer
 62
  256
370
   -1
100
AcDbMText
 10
293.0514617899961
 20
279.6149757299789
 30
0
 40
2
 41
4.222223250796618
 71
    1
 72
    1
  1
4us
  7
standard
210
0
220
0
230
1
 50
0
 73
    2
 44
1
  0
MTEXT
  5
AA
100
AcDbEntity
  8
coupe_chevron
  6
ByLayer
 62
  256
370
   -1
100
AcDbMText
 10
587.5000000001666
 20
279.5000000000792
 30
0
 40
2
 41
12.22222427937101
 71
    1
 72
    1
  1
4ous/4us
  7
standard
210
0
220
0
230
1
 50
0
 73
    2
 44
1
  0
MTEXT
  5
AB
100
AcDbEntity
  8
coupe_chevron
  6
ByLayer
 62
  256
370
   -1
100
AcDbMText
 10
561.7500000001593
 20
279.5000000000792
 30
0
 40
2
 41
12.22222427937101
 71
    1
 72
    1
  1
4ous/4us
  7
standard
210
0
220
0
230
1
 50
0
 73
    2
 44
1
  0
MTEXT
  5
AC
100
AcDbEntity
  8
coupe_chevron
  6
ByLayer
 62
  256
370
   -1
100
AcDbMText
 10
596.5000000001691
 20
290.0000000000822
 30
0
 40
2
 41
5.555556584130074
 71
    1
 72
    1
  1
3ous
  7
standard
210
0
220
0
230
1
 50
0
 73
    2
 44
1
  0
MTEXT
  5
AD
100
AcDbEntity
  8
coupe_chevron
  6
ByLayer
 62
  256
370
   -1
100
AcDbMText
 10
569.7500000001614
 20
290.0000000000822
 30
0
 40
2
 41
5.555556584130074
 71
    1
 72
    1
  1
3ous
  7
standard
210
0
220
0
230
1
 50
0
 73
    2
 44
1
  0
MTEXT
  5
AE
100
AcDbEntity
  8
coupe_chevron
  6
ByLayer
 62
  256
370
   -1
100
AcDbMText
 10
583.5000000001654
 20
274.2500000000778
 30
0
 40
2
 41
4.00000102857452
 71
    1
 72
    1
  1
3us
  7
standard
210
0
220
0
230
1
 50
0
 73
    2
 44
1
  0
MTEXT
  5
AF
100
AcDbEntity
  8
coupe_chevron
  6
ByLayer
 62
  256
370
   -1
100
AcDbMText
 10
557.0000000001579
 20
274.5000000000778
 30
0
 40
2
 41
4.00000102857452
 71
    1
 72
    1
  1
3us
  7
standard
210
0
220
0
230
1
 50
0
 73
    2
 44
1
  0
LINE
  5
B0
100
AcDbEntity
  8
coupe_chevron
  6
ByLayer
 62
  256
370
   -1
100
AcDbLine
 10
570.0999865725566
 20
289.8223304703363
 11
596.3489808997858
 21
289.8223304703363
  0
LINE
  5
B1
100
AcDbEntity
  8
coupe_chevron
  6
ByLayer
 62
  256
370
   -1
100
AcDbLine
 10
583.5989808997859
 20
274.8223304703363
 11
557.3499949331705
 21
274.8223304703363
  0
LINE
  5
B2
100
AcDbEntity
  8
repos_arba
  6
ByLayer
 62
    4
370
   -1
100
AcDbLine
 10
515.5295343610094
 20
179.6630049622384
 11
515.5295343610094
 21
379.6630049622384
  0
LINE
  5
B3
100
AcDbEntity
  8
repos_arba
  6
ByLayer
 62
    4
370
   -1
100
AcDbLine
 10
69.8267828534743
 20
388.7521205394357
 11
211.2482959529454
 21
530.1733199144097
  0
LINE
  5
B4
100
AcDbEntity
  8
repos_arba
  6
DOTTINY
 62
  256
370
   -1
100
AcDbLine
 10
125.1027523251709
 20
432.2200112050701
 11
124.1987811025737
 21
443.1239981716118
  0
LINE
  5
B5
100
AcDbEntity
  8
repos_arba
  6
ByLayer
 62
  256
370
   -1
100
AcDbLine
 10
125.1027523251709
 20
432.2200112050701
 11
138.8727863667392
 21
418.4499404433621
  0
LINE
  5
B6
100
AcDbEntity
  8
repos_arba
  6
ByLayer
 62
  256
370
   -1
100
AcDbLine
 10
138.8727863667392
 20
418.4499404433621
 11
142.9332399663352
 21
434.744795075176
  0
LINE
  5
B7
100
AcDbEntity
  8
arba
  6
ByLayer
 62
  256
370
   -1
100
AcDbLine
 10
469.65
 20
279.729
 11
350
 21
138.964
  0
LINE
  5
B8
100
AcDbEntity
  8
repos_arba
  6
DOTTINY
 62
  256
370
   -1
100
AcDbLine
 10
124.1987811025737
 20
443.1239981716118
 11
129.1632256548774
 21
448.5148461067209
  0
LINE
  5
B9
100
AcDbEntity
  8
repos_arba
  6
DOTTINY
 62
  256
370
   -1
100
AcDbLine
 10
129.1632256548774
 20
448.5148461067209
 11
142.9332399663352
 21
434.7447950751761
  0
LINE
  5
BA
100
AcDbEntity
  8
repos_arba
  6
DOTTINY
 62
  256
370
   -1
100
AcDbLine
 10
142.9332399663352
 20
434.7447950751761
 11
138.8727863667392
 21
418.4499404433621
  0
LINE
  5
BB
100
AcDbEntity
  8
construction
  6
ByLayer
 62
  256
370
   -1
100
AcDbLine
 10
102.3223304703363
 20
120
 11
120
 21
102.3223304703363
  0
LINE
  5
BC
100
AcDbEntity
  8
construction
  6
ByLayer
 62
  256
370
   -1
100
AcDbLine
 10
87.32233047033631
 20
105
 11
105
 21
87.32233047033631
  0
LINE
  5
BD
100
AcDbEntity
  8
construction
  6
ByLayer
 62
  256
370
   -1
100
AcDbLine
 10
120
 20
102.3223304703363
 11
436.9739808997858
 21
102.3223304703363
  0
LINE
  5
BE
100
AcDbEntity
  8
construction
  6
ByLayer
 62
  256
370
   -1
100
AcDbLine
 10
105
 20
87.32233047033631
 11
424.2239808997859
 21
87.32233047033631
  0
MTEXT
  5
BF
100
AcDbEntity
  8
empanon
  6
ByLayer
 62
  256
370
   -1
100
AcDbMText
 10
425.2194292873692
 20
106.0787034114486
 30
0
 40
2
 41
2.444445473018933
 71
    1
 72
    1
  1
us
  7
standard
210
0
220
0
230
1
 50
0
 73
    2
 44
1
  0
MTEXT
  5
C0
100
AcDbEntity
  8
empanon
  6
ByLayer
 62
  256
370
   -1
100
AcDbMText
 10
406.2167849459155
 20
86.72738669675712
 30
0
 40
2
 41
4.000001028574395
 71
    1
 72
    1
  1
ous
  7
standard
210
0
220
0
230
1
 50
0
 73
    2
 44
1
  0
LINE
  5
C1
100
AcDbEntity
  8
empanon
  6
ByLayer
 62
  256
370
   -1
100
AcDbLine
 10
424.2239907528636
 20
87.32233047033631
 11
397.9750994408418
 21
87.32233047033631
  0
LINE
  5
C2
100
AcDbEntity
  8
empanon
  6
ByLayer
 62
  256
370
   -1
100
AcDbLine
 10
410.725091080228
 20
102.3223304703363
 11
436.9739907528635
 21
102.3223304703363
  0
ENDSEC
  0
SECTION
  2
OBJECTS
  0
DICTIONARY
  5
C
330
0
100
AcDbDictionary
281
    1
  3
ACAD_GROUP
350
D
  0
DICTIONARY
  5
D
330
C
100
AcDbDictionary
281
    1
  0
ENDSEC
  0
EOF
